<?xml version="1.0" standalone="no"?>
<!DOCTYPE svg PUBLIC "-//W3C//DTD SVG 20010904//EN"
 "http://www.w3.org/TR/2001/REC-SVG-20010904/DTD/svg10.dtd">
<svg version="1.0" xmlns="http://www.w3.org/2000/svg"
 width="300.000000pt" height="450.000000pt" viewBox="0 0 300.000000 450.000000"
 preserveAspectRatio="xMidYMid meet">

<g transform="translate(0.000000,450.000000) scale(0.100000,-0.100000)"
fill="#000000" stroke="none">
<path d="M40 4372 c0 -11 8 -17 25 -17 16 0 25 6 25 15 0 9 -10 16 -25 18 -18
1 -25 -3 -25 -16z"/>
<path d="M100 4369 c0 -24 23 -21 28 4 2 10 -3 17 -12 17 -10 0 -16 -9 -16
-21z"/>
<path d="M114 4336 c-31 -14 -74 -60 -74 -80 0 -6 9 3 20 21 22 37 45 51 103
63 35 6 37 8 12 9 -16 0 -44 -6 -61 -13z"/>
<path d="M457 4344 c-4 -4 -7 -39 -7 -77 0 -68 0 -69 -24 -63 -18 4 -28 0 -40
-19 -15 -23 -15 -26 4 -45 26 -26 70 -26 104 1 26 20 27 24 24 113 -3 89 -4
91 -28 94 -14 2 -29 0 -33 -4z"/>
<path d="M572 4343 c-40 -16 -56 -132 -25 -184 51 -87 153 -15 140 99 -8 70
-59 108 -115 85z m48 -103 c0 -16 -4 -30 -10 -30 -5 0 -10 14 -10 30 0 17 5
30 10 30 6 0 10 -13 10 -30z"/>
<path d="M898 4339 c-7 -4 -8 -41 -3 -108 l7 -101 28 0 c25 0 29 4 32 33 l3
32 18 -32 c15 -28 23 -33 52 -33 40 0 40 1 20 40 -14 27 -14 33 0 61 18 33 13
80 -10 99 -14 12 -130 19 -147 9z m92 -69 c0 -5 -7 -10 -15 -10 -8 0 -15 5
-15 10 0 6 7 10 15 10 8 0 15 -4 15 -10z"/>
<path d="M1084 4337 c-3 -8 -3 -56 -2 -108 l3 -94 32 -3 c29 -3 32 -1 35 30
l3 33 18 -32 c14 -26 24 -33 47 -33 l30 0 0 104 0 104 -30 4 c-36 5 -40 2 -40
-31 0 -26 0 -26 -20 7 -21 34 -66 45 -76 19z"/>
<path d="M1280 4241 l0 -111 65 0 65 0 0 35 c0 33 -2 35 -32 36 -24 1 -27 3
-10 6 16 3 22 11 22 29 0 16 -8 28 -22 34 -21 8 -20 9 10 9 29 1 32 4 32 31 0
29 -1 30 -49 30 -27 0 -56 3 -65 6 -14 5 -16 -8 -16 -105z"/>
<path d="M2315 4326 c-72 -72 -17 -229 69 -197 34 14 56 60 56 121 0 41 -5 56
-25 75 -31 32 -69 32 -100 1z m55 -86 c0 -16 -4 -30 -9 -30 -12 0 -19 21 -13
43 7 28 22 20 22 -13z"/>
<path d="M235 4322 c42 -26 57 -46 71 -100 7 -26 13 -37 13 -24 2 51 -64 142
-102 142 -7 0 2 -8 18 -18z"/>
<path d="M704 4318 c3 -13 6 -53 6 -90 0 -83 19 -108 78 -108 65 0 82 28 82
133 l0 87 -36 0 -36 0 3 -67 c3 -47 0 -67 -8 -70 -9 -3 -13 8 -13 35 0 22 -3
54 -6 71 -6 28 -10 31 -41 31 -32 0 -35 -2 -29 -22z"/>
<path d="M1420 4335 c0 -3 14 -32 30 -65 19 -37 30 -75 30 -100 0 -39 1 -40
35 -40 35 0 35 1 35 43 0 30 10 58 35 100 19 32 35 60 35 63 0 2 -17 4 -38 4
-31 0 -41 -5 -52 -26 l-14 -25 -13 25 c-11 20 -21 26 -48 26 -19 0 -35 -2 -35
-5z"/>
<path d="M1850 4235 l0 -105 30 0 c30 0 30 1 30 53 0 28 3 76 6 105 l7 52 -37
0 -36 0 0 -105z"/>
<path d="M1950 4235 l0 -105 30 0 c25 0 30 4 30 25 0 14 4 25 8 25 5 0 14 -11
20 -25 9 -19 19 -25 42 -25 l30 0 0 89 c0 49 3 96 6 105 5 13 -1 16 -30 16
-34 0 -36 -2 -37 -32 l0 -33 -16 33 c-14 26 -22 32 -50 32 l-33 0 0 -105z"/>
<path d="M2130 4305 c0 -28 4 -35 20 -35 18 0 20 -7 20 -70 l0 -70 35 0 35 0
0 70 c0 63 2 70 20 70 16 0 20 7 20 35 l0 35 -75 0 -75 0 0 -35z"/>
<path d="M2627 4316 c-5 -12 4 -15 48 -13 33 1 55 7 55 13 0 7 -15 11 -35 11
-19 -1 -35 -5 -35 -10 0 -5 -6 -4 -14 2 -10 9 -15 8 -19 -3z"/>
<path d="M2744 4321 c-12 -13 0 -19 36 -18 25 1 40 6 40 13 0 12 -65 16 -76 5z"/>
<path d="M2830 4315 c0 -9 5 -15 11 -13 6 2 11 8 11 13 0 5 -5 11 -11 13 -6 2
-11 -4 -11 -13z"/>
<path d="M175 4267 c-21 -16 -11 -42 12 -33 8 3 13 3 11 -1 -44 -86 -43 -107
8 -101 35 4 46 35 14 40 l-22 3 21 27 c26 33 27 54 2 68 -25 13 -24 13 -46 -3z"/>
<path d="M2660 4270 c0 -5 5 -10 10 -10 6 0 10 5 10 10 0 6 -4 10 -10 10 -5 0
-10 -4 -10 -10z"/>
<path d="M2801 4264 c0 -11 3 -14 6 -6 3 7 2 16 -1 19 -3 4 -6 -2 -5 -13z"/>
<path d="M88 4259 c-19 -11 -25 -39 -8 -39 14 0 12 -48 -2 -52 -26 -9 2 -38
37 -38 28 0 35 4 35 20 0 11 -4 20 -10 20 -5 0 -10 23 -10 50 0 52 -8 59 -42
39z"/>
<path d="M261 4226 c-18 -32 2 -74 26 -55 13 12 13 14 -1 25 -15 10 -15 12 -1
17 8 4 12 13 9 22 -9 21 -19 19 -33 -9z"/>
<path d="M33 4205 c0 -22 2 -30 4 -17 2 12 2 30 0 40 -3 9 -5 -1 -4 -23z"/>
<path d="M2630 4226 c0 -8 4 -17 8 -20 4 -2 8 4 8 15 0 10 -4 19 -8 19 -4 0
-8 -6 -8 -14z"/>
<path d="M2664 4229 c-10 -17 13 -36 27 -22 12 12 4 33 -11 33 -5 0 -12 -5
-16 -11z"/>
<path d="M2794 4229 c-3 -6 -2 -15 3 -20 5 -5 9 -1 9 11 0 23 -2 24 -12 9z"/>
<path d="M2839 4240 c0 -3 -2 -13 -4 -22 -2 -10 1 -18 5 -18 15 0 19 15 9 30
-5 8 -9 13 -10 10z"/>
<path d="M2710 4220 c0 -5 9 -10 20 -10 11 0 20 5 20 10 0 6 -9 10 -20 10 -11
0 -20 -4 -20 -10z"/>
<path d="M2670 4175 c0 -8 4 -15 8 -15 5 0 9 7 9 15 0 8 -4 15 -9 15 -4 0 -8
-7 -8 -15z"/>
<path d="M2705 4181 c-7 -12 12 -24 25 -16 11 7 4 25 -10 25 -5 0 -11 -4 -15
-9z"/>
<path d="M2750 4175 c0 -8 7 -15 15 -15 8 0 15 7 15 15 0 8 -7 15 -15 15 -8 0
-15 -7 -15 -15z"/>
<path d="M2790 4175 c0 -8 7 -15 15 -15 8 0 15 7 15 15 0 8 -7 15 -15 15 -8 0
-15 -7 -15 -15z"/>
<path d="M40 4154 c0 -19 40 -63 70 -79 16 -8 46 -14 67 -14 l38 2 -45 6 c-59
9 -87 25 -110 64 -11 18 -20 27 -20 21z"/>
<path d="M275 4114 c-9 -15 -12 -23 -6 -20 11 7 35 46 28 46 -3 0 -12 -12 -22
-26z"/>
<path d="M2746 4125 c-3 -9 -6 -22 -5 -28 0 -7 5 -1 10 12 5 13 8 26 5 28 -2
2 -6 -3 -10 -12z"/>
<path d="M2665 4119 c-12 -19 5 -23 22 -6 16 16 16 17 1 17 -9 0 -20 -5 -23
-11z"/>
<path d="M2795 4120 c3 -5 8 -10 11 -10 2 0 4 5 4 10 0 6 -5 10 -11 10 -5 0
-7 -4 -4 -10z"/>
<path d="M2707 4113 c-10 -9 -9 -33 1 -33 4 0 8 9 8 20 0 23 0 22 -9 13z"/>
<path d="M230 4080 c-9 -6 -10 -10 -3 -10 6 0 15 5 18 10 8 12 4 12 -15 0z"/>
<path d="M2480 4021 c0 -23 -1 -23 -25 -7 -22 14 -25 14 -25 2 0 -10 -6 -13
-15 -10 -10 4 -15 0 -15 -11 0 -10 -5 -13 -12 -9 -15 10 -5 -90 23 -216 35
-157 36 -143 -31 -264 -33 -61 -60 -116 -60 -123 0 -7 8 -13 19 -13 10 0 40
-10 67 -21 l48 -22 17 22 c47 57 299 557 299 592 0 15 -58 39 -93 39 -33 0
-35 -2 -72 -85 -21 -47 -41 -85 -45 -85 -3 0 -13 46 -21 103 -9 69 -18 102
-27 102 -7 0 -17 7 -22 15 -8 12 -10 10 -10 -9z"/>
<path d="M2739 4025 c-3 -2 -28 -5 -56 -7 -78 -6 -74 -15 7 -15 38 0 70 3 70
8 0 9 -16 20 -21 14z"/>
<path d="M2770 4016 c0 -9 5 -16 10 -16 6 0 10 4 10 9 0 6 -4 13 -10 16 -5 3
-10 -1 -10 -9z"/>
<path d="M275 3999 c-5 -16 -10 -18 -21 -8 -12 9 -19 1 -40 -47 -40 -92 -174
-518 -174 -555 0 -5 9 -9 19 -9 10 0 22 -7 25 -16 5 -13 9 -14 21 -4 8 7 26 9
43 5 l29 -6 28 105 c15 58 31 103 35 101 4 -2 10 -42 14 -87 11 -129 22 -129
96 -3 34 59 63 105 65 103 2 -2 -5 -41 -16 -88 -24 -109 -24 -113 1 -105 14 4
20 2 20 -9 0 -10 6 -13 16 -9 9 3 20 0 26 -8 7 -11 11 -11 15 -2 3 9 10 10 24
3 15 -9 19 -7 23 12 3 13 12 59 21 103 22 106 122 450 140 484 14 26 14 26 14
-19 1 -25 8 -98 17 -162 l17 -117 -63 -103 c-35 -57 -71 -113 -81 -126 -9 -12
-15 -31 -12 -41 4 -16 12 -19 43 -15 33 4 38 2 33 -14 -4 -15 1 -19 26 -19 28
0 38 12 129 151 117 177 265 455 260 488 -2 13 -7 23 -13 23 -5 0 -15 4 -21 8
-7 4 -17 0 -24 -8 -12 -14 -15 -14 -30 0 -12 11 -20 13 -25 5 -3 -5 -10 -8
-15 -5 -5 3 -26 -27 -47 -67 l-37 -73 -11 68 c-13 74 -29 102 -45 77 -8 -12
-13 -13 -30 -2 -17 10 -21 10 -26 -3 -8 -19 -43 -20 -50 0 -8 20 -24 19 -40
-2 -13 -17 -15 -17 -25 0 -10 18 -11 18 -31 0 -11 -10 -30 -18 -41 -18 -21 0
-86 -71 -153 -170 l-34 -50 0 110 c0 115 -9 150 -32 127 -17 -17 -38 -15 -38
3 0 22 -18 18 -25 -6z"/>
<path d="M2800 4012 c0 -5 7 -9 15 -9 8 0 15 4 15 9 0 4 -7 8 -15 8 -8 0 -15
-4 -15 -8z"/>
<path d="M2840 4009 c0 -5 5 -7 10 -4 6 3 10 8 10 11 0 2 -4 4 -10 4 -5 0 -10
-5 -10 -11z"/>
<path d="M1150 3991 c-50 -28 -87 -70 -105 -120 -21 -60 -19 -88 10 -165 31
-82 32 -129 4 -157 -17 -17 -29 -20 -62 -16 -39 5 -75 -11 -59 -28 4 -4 -4 -2
-17 5 -21 11 -23 10 -18 -4 4 -9 10 -23 14 -33 4 -11 3 -14 -5 -9 -7 4 -12 1
-12 -10 0 -11 -6 -15 -20 -11 -26 7 -25 1 5 -39 78 -102 272 -48 325 91 17 45
14 111 -9 202 -20 76 -20 86 -6 119 15 36 16 37 59 31 41 -6 44 -5 39 14 -4
12 0 25 8 30 11 6 11 11 2 20 -10 10 -8 16 9 31 l22 19 -20 20 c-30 30 -118
35 -164 10z"/>
<path d="M1545 4004 c-11 -1 -59 -6 -107 -9 -87 -7 -88 -7 -82 -31 4 -15 2
-24 -6 -24 -7 0 -10 -6 -7 -14 3 -8 -3 -25 -14 -37 -26 -30 -20 -43 24 -47 20
-2 37 -5 37 -6 0 -2 -14 -36 -31 -77 -36 -88 -109 -332 -109 -366 0 -19 5 -24
23 -23 40 4 49 0 44 -15 -7 -17 9 -30 18 -15 3 5 16 8 28 5 20 -5 24 2 50 97
16 57 55 171 88 254 63 160 66 164 132 164 27 0 32 10 29 53 -1 9 3 17 8 17 6
0 10 7 10 15 0 8 -5 15 -11 15 -5 0 -9 10 -7 23 3 20 -1 22 -47 23 -27 1 -59
0 -70 -2z"/>
<path d="M2068 4003 c-24 -4 -27 -8 -24 -34 2 -16 -1 -29 -6 -29 -4 0 -13 -11
-18 -25 -5 -14 -14 -25 -19 -25 -6 0 -8 -7 -5 -15 4 -8 12 -15 19 -15 9 0 3
-24 -20 -79 -59 -141 -128 -366 -121 -396 5 -18 12 -25 22 -21 8 3 22 -3 31
-14 12 -14 19 -16 24 -8 6 9 12 8 23 -2 9 -7 18 -11 19 -9 1 2 18 50 36 107
18 57 35 101 37 99 3 -3 15 -42 27 -88 15 -56 27 -84 37 -85 8 -1 20 -2 27 -3
26 -2 33 -37 19 -92 -8 -30 -12 -57 -10 -61 3 -4 -7 -33 -22 -63 -15 -33 -24
-65 -21 -78 3 -12 -1 -31 -9 -41 -8 -11 -14 -31 -14 -45 0 -14 -7 -39 -15 -54
-8 -15 -12 -34 -9 -42 3 -7 -1 -29 -10 -47 -21 -47 -56 -188 -49 -204 3 -8 21
-18 42 -23 20 -6 165 -42 324 -82 l287 -73 0 -53 0 -54 -43 25 c-56 33 -177
78 -193 72 -7 -3 -14 0 -16 5 -2 6 -20 11 -40 12 -20 1 -34 5 -32 8 1 3 -40
14 -92 23 -79 15 -97 16 -112 5 -9 -7 -14 -9 -9 -4 4 4 0 16 -8 25 -23 25 -28
60 -8 53 11 -4 14 -2 9 5 -4 7 -16 12 -26 12 -14 0 -18 -5 -14 -17 5 -15 4
-15 -4 -3 -6 8 -8 18 -6 22 3 4 -2 8 -10 8 -21 0 -20 -8 3 -47 19 -31 19 -31
0 -36 -10 -3 -17 -1 -14 3 4 6 -119 18 -215 20 -8 0 -49 4 -90 8 -73 8 -74 8
-33 16 44 8 55 21 46 55 -7 26 -7 26 -47 -4 -18 -14 -39 -25 -47 -25 -10 0
-11 2 -2 8 8 5 9 13 3 22 -13 21 -12 27 4 27 8 0 11 -7 9 -18 -4 -14 0 -16 15
-12 20 5 20 6 -5 34 -14 16 -31 25 -37 22 -6 -4 -6 -1 1 8 10 12 10 18 1 27
-16 16 -8 15 28 -2 16 -7 50 -16 75 -19 42 -6 47 -4 57 19 11 22 9 26 -13 36
-18 8 -28 8 -38 -1 -17 -13 -43 -6 -51 15 -4 9 3 18 19 24 32 12 32 24 0 16
-18 -5 -25 -2 -25 8 0 8 5 18 12 22 7 5 8 2 3 -7 -4 -8 1 -5 11 5 14 14 19 34
20 71 0 54 2 52 -48 46 -3 -1 -20 -15 -37 -31 l-30 -31 -15 23 c-16 24 -12 68
6 68 5 0 6 4 3 10 -3 5 10 26 29 45 20 19 32 35 28 36 -4 0 2 4 13 9 25 11 83
2 112 -16 12 -8 27 -14 34 -14 13 0 54 -31 58 -45 2 -5 7 -9 12 -8 5 2 9 -6 9
-16 0 -11 5 -21 12 -23 8 -3 9 -11 3 -24 -8 -19 -11 -28 -14 -40 0 -4 -8 -1
-16 6 -12 10 -14 8 -10 -8 3 -17 -19 -38 -34 -32 -2 1 -7 -2 -10 -7 -13 -20
-69 -41 -80 -30 -8 8 -11 6 -11 -6 0 -23 12 -22 76 9 70 33 114 77 114 114 0
58 -90 129 -189 151 l-53 11 26 27 c42 43 30 49 -13 7 -39 -39 -40 -39 -100
-32 -40 5 -61 3 -61 -4 0 -16 -27 -12 -34 5 -4 12 -28 15 -130 15 -69 0 -127
-3 -129 -7 -3 -5 51 -7 119 -6 92 2 123 0 118 -9 -4 -7 -3 -8 4 -4 7 4 12 3
12 -2 0 -4 -24 -14 -52 -21 -29 -7 -61 -15 -72 -18 -10 -3 -16 -1 -13 4 3 5
-3 9 -15 8 -11 -1 -50 9 -87 22 -36 12 -84 23 -106 22 -32 -1 -22 -5 46 -19
47 -10 99 -25 115 -33 l29 -15 -25 -11 c-14 -5 -64 -26 -112 -45 -48 -20 -104
-45 -125 -56 l-37 -19 35 -14 c19 -8 42 -17 52 -20 15 -6 16 -9 5 -21 -11 -12
-14 -12 -16 -1 -3 11 -8 12 -28 3 -25 -12 -32 -32 -14 -43 7 -4 7 -13 0 -26
-6 -11 -8 -25 -4 -31 4 -7 3 -8 -4 -4 -8 5 -11 -5 -10 -29 1 -30 5 -36 22 -33
14 2 20 9 18 20 -2 12 2 16 12 12 11 -4 13 -12 6 -30 -8 -21 -7 -24 14 -24 19
0 22 4 18 25 -3 20 0 25 16 25 19 0 20 -5 17 -60 -2 -33 -7 -65 -10 -70 -3 -6
-1 -10 5 -10 7 0 14 9 17 20 6 23 23 27 23 5 0 -8 5 -15 10 -15 6 0 10 13 10
29 0 16 7 34 15 41 8 7 15 20 15 30 0 24 -37 33 -50 12 -9 -15 -10 -15 -8 3 2
14 12 21 33 23 130 10 157 15 144 22 -27 17 -2 19 34 3 22 -10 37 -24 37 -34
0 -10 8 -20 18 -24 11 -3 24 -17 30 -30 12 -26 40 -33 59 -14 8 8 13 8 17 0 4
-6 16 -11 27 -11 10 0 19 -5 19 -11 0 -6 -7 -8 -17 -4 -15 5 -16 4 -5 -6 6 -7
12 -21 12 -31 0 -10 6 -19 13 -19 6 -1 -79 -7 -189 -14 -224 -15 -350 -31
-564 -75 -264 -54 -718 -189 -704 -211 3 -5 -2 -6 -10 -3 -8 3 -55 -13 -105
-37 l-91 -42 0 -83 c0 -54 4 -84 11 -84 6 0 41 16 77 36 37 20 60 29 50 22 -9
-8 -43 -27 -77 -43 -51 -25 -60 -34 -60 -57 l-1 -26 93 48 c114 60 328 147
467 189 58 18 116 37 130 43 14 6 45 14 70 18 48 7 247 51 370 81 41 10 55 15
30 11 -25 -4 -65 -6 -90 -5 -35 1 -40 -1 -25 -8 14 -7 9 -8 -20 -4 -28 4 -36
3 -26 -4 11 -7 2 -9 -30 -8 -62 1 -166 -22 -148 -34 11 -7 11 -9 -3 -9 -9 0
-24 7 -33 16 -12 13 -28 15 -68 11 -51 -6 -51 -6 -22 8 17 8 39 14 49 15 11 0
17 3 13 6 -3 4 -36 -2 -72 -11 -48 -13 -65 -22 -65 -35 0 -10 -7 -21 -16 -24
-23 -9 -31 -7 -15 3 12 8 9 11 -13 17 l-28 7 28 22 c25 20 27 25 15 39 -11 14
-11 16 3 16 9 0 64 16 123 35 123 40 119 40 103 20 -7 -9 -9 -26 -5 -45 11
-48 41 -54 149 -30 136 30 134 29 138 61 3 16 1 29 -4 29 -4 0 -8 7 -8 15 0 8
6 15 14 15 7 0 29 2 47 5 29 4 30 3 9 -4 -16 -6 -19 -9 -8 -10 9 -1 27 3 40 8
68 25 75 23 84 -17 13 -60 12 -71 -2 -65 -8 3 -14 0 -14 -7 0 -8 12 -10 38 -6
20 3 87 8 147 10 61 3 162 8 226 12 64 3 160 1 215 -5 54 -5 135 -13 180 -16
44 -4 86 -10 92 -14 14 -8 20 -65 7 -66 -18 -1 -35 -16 -35 -31 0 -11 4 -12
19 -4 25 13 41 13 41 0 0 -5 -7 -7 -15 -4 -8 4 -15 1 -15 -5 0 -6 -5 -11 -11
-11 -23 0 -41 -30 -34 -59 4 -17 2 -32 -5 -36 -17 -10 -29 -50 -23 -73 5 -21
39 -36 47 -21 2 5 3 4 2 -3 -2 -7 -10 -12 -19 -12 -11 1 -6 -9 16 -30 18 -17
34 -31 37 -29 3 1 4 -13 2 -31 -3 -29 -6 -32 -35 -30 -18 2 -24 1 -14 -2 9 -3
17 -10 17 -16 0 -5 6 -8 13 -5 8 3 14 0 14 -6 0 -7 3 -23 7 -37 7 -22 5 -21
-12 6 -25 39 -58 50 -72 24 -13 -24 -13 -40 1 -40 6 0 9 7 6 15 -4 8 -2 17 3
20 6 4 10 -1 10 -10 0 -13 4 -14 20 -5 17 9 20 8 20 -9 0 -11 -6 -22 -12 -24
-10 -4 -10 -6 0 -6 19 -1 14 -29 -10 -53 -16 -16 -20 -17 -15 -4 4 9 3 15 -2
11 -5 -3 -12 3 -14 12 -2 10 -3 8 -2 -5 1 -13 -4 -29 -11 -37 -16 -16 -8 -44
18 -63 10 -7 18 -16 18 -20 0 -4 -27 -18 -59 -32 -33 -13 -57 -29 -54 -34 4
-5 1 -6 -6 -2 -6 4 -26 3 -44 -3 -17 -5 -60 -17 -94 -27 -34 -9 -60 -20 -58
-25 3 -4 -4 -5 -15 -2 -11 3 -20 9 -20 12 0 16 48 51 77 57 36 7 67 36 60 56
-3 8 -9 3 -15 -13 -10 -26 -43 -39 -99 -39 -20 0 -24 4 -21 23 2 12 13 26 26
32 12 5 22 13 22 17 0 5 8 3 19 -3 11 -7 26 -9 37 -4 11 4 26 7 34 6 8 -1 2 7
-14 18 -16 11 -35 30 -41 42 -12 21 -12 21 -18 -8 -4 -21 -18 -37 -43 -52
l-37 -22 18 28 18 28 -24 -21 c-29 -26 -51 -32 -149 -43 -41 -5 -82 -12 -91
-15 -11 -5 -24 5 -43 34 -15 23 -30 39 -33 36 -3 -3 4 -17 16 -32 11 -15 21
-36 21 -46 0 -15 4 -18 18 -12 9 4 47 12 84 17 75 12 98 2 98 -40 0 -43 -135
-90 -198 -69 -12 4 -20 12 -17 17 4 5 -4 9 -17 9 -14 0 -33 7 -44 15 -18 13
-16 14 26 15 l45 1 -52 17 -51 17 29 39 c16 22 31 48 35 60 3 12 18 34 33 49
l26 28 -27 21 c-16 11 -28 24 -28 29 0 15 144 10 183 -6 20 -8 51 -14 69 -14
27 1 29 2 8 6 -14 2 -43 9 -65 15 -35 9 -37 12 -20 19 13 6 2 8 -35 5 -53 -5
-54 -5 -25 9 41 19 12 19 -87 -1 -44 -9 -94 -14 -113 -12 -18 2 -32 1 -29 -3
2 -4 -22 -13 -53 -19 -68 -14 -207 -63 -153 -54 19 3 43 8 53 10 9 3 17 1 17
-5 0 -15 -34 -31 -67 -32 -24 0 -25 -2 -8 -8 19 -8 19 -8 -4 -16 -52 -16 -62
56 -19 135 12 22 16 26 12 11 -4 -16 -3 -21 5 -17 6 4 11 16 11 28 0 11 18 38
40 60 l40 40 122 -6 c243 -13 325 -14 273 -7 -40 7 -46 9 -28 16 12 4 31 23
43 42 13 22 36 41 66 54 27 12 53 33 65 52 31 52 22 66 -16 22 -18 -21 -32
-42 -29 -46 2 -4 -13 -13 -33 -20 -56 -19 -71 -20 -45 -2 26 18 29 43 5 43
-21 0 -55 -20 -35 -20 6 0 12 -5 12 -11 0 -5 -4 -8 -9 -5 -4 3 -17 -4 -27 -17
l-19 -22 24 20 c20 17 23 17 18 3 -4 -13 -1 -16 16 -13 l22 4 -22 -16 c-13 -8
-23 -21 -23 -29 0 -24 -43 -38 -105 -35 -37 1 -67 8 -77 18 -16 14 -21 14 -49
0 -23 -11 -39 -13 -57 -6 -13 5 -28 7 -33 3 -5 -3 -22 4 -38 15 -37 26 -46 26
-65 -1 -19 -26 -21 -16 -4 15 9 19 9 20 -3 11 -8 -6 -29 -14 -48 -18 -63 -12
-164 -77 -247 -160 -89 -90 -137 -167 -180 -291 -15 -44 -31 -84 -35 -89 -4
-5 -16 7 -25 28 -10 20 -22 36 -28 36 -6 0 -5 -5 2 -12 20 -20 14 -28 -13 -18
-28 11 -34 -5 -15 -41 6 -10 8 -19 6 -19 -3 0 -13 14 -21 31 -15 28 -43 36
-37 10 1 -6 -5 -11 -13 -11 -9 0 -18 -7 -21 -15 -5 -12 -10 -13 -20 -4 -11 9
-14 6 -14 -19 0 -20 7 -36 21 -46 12 -8 19 -22 17 -33 -2 -14 -14 -19 -56 -21
-46 -3 -52 -1 -52 16 0 17 -45 152 -52 156 -2 1 -20 14 -41 30 -32 24 -36 25
-25 7 7 -12 18 -21 24 -21 16 0 44 -34 44 -53 0 -9 -3 -17 -6 -17 -12 0 -34
30 -34 47 0 10 -3 14 -8 8 -4 -6 -16 -12 -28 -12 -17 -1 -20 3 -17 25 9 60 14
71 34 77 13 4 29 26 41 56 11 27 27 49 34 49 18 0 44 40 44 69 l0 24 -25 -27
c-14 -15 -29 -25 -34 -22 -5 4 -11 0 -14 -6 -2 -7 -4 2 -3 21 2 34 27 56 51
43 6 -3 5 1 -1 7 -9 10 -17 10 -34 1 -20 -11 -21 -10 -16 8 9 27 -10 38 -24
13 -11 -21 -49 -25 -46 -5 1 7 8 20 16 30 14 16 13 17 -4 7 -10 -6 -27 -8 -37
-6 -28 8 -79 -16 -72 -33 3 -8 1 -14 -5 -14 -6 0 -13 6 -15 13 -3 7 -6 4 -6
-6 -1 -11 -10 -30 -21 -44 -25 -32 -26 -56 -1 -26 10 12 22 19 26 15 5 -4 6 0
2 10 -5 15 22 32 46 29 4 -1 7 3 7 9 0 5 -5 10 -11 10 -8 0 -8 5 1 15 14 17
40 20 40 6 0 -6 -5 -13 -10 -16 -14 -9 -13 -25 2 -25 6 0 31 -9 55 -21 55 -27
60 -61 11 -76 l-33 -10 37 1 c20 0 34 4 31 9 -2 4 1 7 6 7 6 0 11 -4 11 -8 0
-15 -24 -32 -44 -32 -15 0 -17 -3 -8 -8 23 -15 2 -40 -45 -51 -35 -9 -43 -15
-39 -28 9 -23 -22 -69 -37 -54 -15 15 -24 14 -24 -4 0 -8 4 -12 9 -9 4 3 8 0
8 -5 0 -6 -5 -11 -11 -11 -5 0 -8 -4 -5 -8 3 -5 -9 -19 -26 -32 -21 -16 -33
-19 -36 -12 -2 7 -13 17 -24 23 -18 9 -20 9 -15 -4 4 -11 2 -14 -9 -10 -23 9
-16 -14 12 -36 36 -29 90 -28 115 2 14 16 18 18 19 7 0 -9 -5 -21 -11 -27 -8
-8 -9 -20 -1 -42 11 -30 10 -30 -31 -35 -23 -4 -60 -7 -82 -9 -25 -2 -14 -5
30 -6 110 -5 110 -5 106 -21 -11 -43 -12 -70 -2 -70 6 0 11 -4 11 -10 0 -6
-31 -10 -74 -10 -77 0 -106 -6 -106 -21 0 -5 33 -9 73 -9 l73 0 1 -62 c1 -53
20 -139 22 -100 1 6 5 12 10 12 6 0 9 -9 8 -19 0 -11 -4 -18 -8 -16 -3 3 -4
-6 -2 -19 3 -13 20 -39 39 -57 39 -37 41 -46 17 -52 -16 -4 -17 -5 -1 -6 9 0
25 11 35 25 10 14 25 33 33 43 8 9 14 23 13 31 -3 17 66 70 91 70 9 0 16 4 16
9 0 5 -9 7 -19 4 -14 -3 -26 6 -45 33 -17 25 -26 32 -26 21 0 -11 -8 -17 -22
-17 l-23 0 21 18 c26 21 40 68 21 75 -6 2 3 4 21 5 37 1 41 -7 12 -28 -11 -8
-20 -18 -20 -23 0 -13 27 -37 34 -30 3 4 6 -5 6 -18 0 -35 56 -36 83 -2 13 16
26 23 38 20 11 -3 17 -1 13 4 -9 15 -26 10 -51 -13 -13 -12 -23 -17 -23 -12 0
19 18 35 50 44 27 8 37 6 52 -7 24 -21 23 -31 -4 -54 -16 -13 -32 -17 -52 -13
-40 8 -25 -11 20 -26 25 -9 34 -16 29 -27 -3 -9 2 -26 10 -39 14 -22 14 -27 0
-55 -12 -22 -21 -28 -35 -24 -11 4 -22 0 -27 -10 -6 -10 -16 -13 -26 -9 -22 8
-4 34 24 34 11 0 19 5 19 10 0 15 -10 12 -47 -12 -30 -21 -44 -40 -25 -36 4 0
16 -3 26 -7 14 -6 23 -3 32 10 8 10 14 14 14 8 0 -7 10 -13 22 -15 13 -2 22
-11 23 -23 1 -16 -6 -20 -29 -22 -17 -1 -41 -5 -53 -8 -16 -4 -23 0 -28 15 -7
22 -20 26 -30 10 -3 -5 0 -10 8 -10 24 0 27 -27 6 -46 -13 -11 -16 -20 -9 -24
6 -4 -3 -7 -19 -8 -18 0 -31 4 -31 11 0 7 -6 1 -13 -13 -11 -22 -19 -25 -68
-25 -46 0 -53 2 -40 12 9 7 22 13 29 13 6 0 12 4 12 9 0 5 3 16 6 25 5 14 3
14 -22 1 -20 -10 -30 -11 -35 -3 -4 6 -19 8 -33 6 -24 -5 -26 -2 -26 28 0 23
7 38 22 48 12 9 18 16 12 16 -16 0 -44 -34 -44 -53 0 -12 -9 -17 -30 -17 -31
0 -37 9 -20 26 15 15 22 62 10 69 -5 3 -12 -7 -16 -22 -3 -15 -9 -37 -12 -48
-3 -11 -5 -24 -3 -29 1 -5 -4 -4 -12 2 -8 7 -22 10 -31 6 -11 -4 -16 -1 -16
10 0 9 -4 16 -10 16 -5 0 -10 9 -10 20 0 11 6 20 13 20 20 -1 47 -26 47 -45 0
-10 3 -16 6 -12 9 9 -6 66 -23 82 -23 24 -53 2 -53 -38 0 -18 6 -39 13 -46 9
-11 9 -14 0 -18 -8 -3 -13 -24 -13 -54 0 -31 4 -48 10 -44 9 5 14 -7 12 -26
-1 -4 8 -5 18 -2 21 6 29 -12 9 -19 -9 -3 -9 -10 0 -26 18 -34 -5 -131 -33
-142 -13 -5 44 -9 142 -9 l162 -1 0 -41 0 -41 -72 6 c-40 3 -91 8 -113 11 -31
4 -35 3 -15 -4 22 -8 20 -9 -17 -10 -23 -1 -43 4 -45 11 -3 7 -14 9 -31 4
l-27 -6 0 -120 0 -120 53 0 c52 0 53 0 52 -31 0 -28 -3 -30 -27 -27 -16 3 -28
1 -28 -3 0 -4 15 -10 32 -12 21 -2 12 -5 -27 -7 -33 -1 -52 -4 -43 -7 22 -5
24 -43 3 -43 -8 0 -15 -4 -15 -10 0 -7 507 -10 1500 -10 l1500 0 0 200 c0 110
-2 200 -5 200 -2 0 -13 -17 -24 -37 l-20 -38 -1 98 c0 70 -3 97 -12 97 -7 0
-64 -7 -125 -17 l-113 -18 -1 -195 c-1 -107 -3 -187 -6 -178 -3 13 -11 16 -34
11 l-29 -5 -2 143 c-2 227 1 209 -28 208 -14 0 -54 -6 -90 -13 l-65 -12 -3
-52 c-3 -48 -5 -52 -28 -52 -22 0 -24 4 -24 45 l0 45 -37 -1 c-21 0 -63 -6
-93 -12 -54 -12 -55 -13 -52 -44 3 -28 0 -33 -17 -33 -19 0 -21 6 -21 53 l0
53 158 28 c86 15 254 45 372 66 118 21 234 41 258 45 38 6 42 9 42 36 0 16 -2
29 -4 29 -3 0 -44 -9 -93 -20 -48 -11 -227 -49 -398 -85 -170 -36 -318 -68
-327 -71 -14 -4 -18 1 -18 25 0 20 6 31 18 35 26 8 698 172 765 186 31 7 57
17 57 21 0 5 -6 6 -12 4 -36 -12 -311 -75 -315 -72 -2 2 54 19 124 36 216 54
203 49 203 76 0 18 -4 23 -15 19 -8 -4 -15 -1 -15 5 0 6 7 11 15 11 18 0 17
46 -2 62 -19 15 -17 114 2 122 15 5 22 36 8 36 -8 0 -206 -81 -272 -111 -27
-12 -40 -15 -34 -7 6 7 79 42 162 78 148 64 151 65 151 97 0 17 -6 34 -12 36
-10 4 -10 6 0 6 12 1 18 31 5 31 -3 0 -31 -12 -62 -26 -117 -56 -328 -157
-365 -176 l-38 -20 4 40 c2 22 0 38 -4 36 -9 -6 -11 -75 -2 -98 5 -13 9 -13
39 1 19 9 32 20 29 25 -3 4 2 5 11 2 11 -5 14 -12 8 -23 -4 -9 -8 -52 -9 -96
-1 -44 0 -65 3 -47 6 43 23 31 23 -17 0 -21 6 -44 14 -51 19 -15 11 -36 -15
-43 -18 -5 -20 -2 -16 29 3 18 1 31 -4 28 -5 -3 -9 -15 -9 -27 0 -19 -2 -19
-32 10 -29 26 -37 29 -60 21 -25 -9 -28 -14 -28 -58 0 -29 5 -51 13 -54 6 -3
-4 -3 -23 0 -26 4 -31 3 -20 -5 9 -6 10 -11 3 -11 -24 0 -43 13 -43 30 0 12
-11 19 -37 24 -53 8 -65 8 -58 -4 9 -15 -43 -77 -70 -82 -22 -5 -23 -4 -8 18
8 13 24 26 35 30 15 4 17 9 9 17 -6 6 -11 48 -11 99 l0 88 -31 0 -30 0 5 -52
c3 -29 3 -47 0 -40 -3 6 -19 12 -35 12 l-30 0 3 -155 c2 -119 0 -155 -9 -155
-10 0 -13 26 -13 95 l0 95 -40 0 -39 0 -4 -92 -3 -93 -2 105 -3 105 -25 -30
c-13 -16 -29 -35 -34 -42 -6 -7 -10 -28 -10 -48 0 -31 -3 -35 -25 -35 -21 0
-25 -5 -25 -30 0 -27 -3 -30 -30 -30 -16 0 -30 -3 -30 -7 0 -5 66 -8 147 -8
l148 0 3 -27 3 -28 -105 0 c-91 0 -105 -2 -109 -17 -4 -17 -5 -17 -6 0 -1 11
-10 17 -26 18 -60 3 -66 11 -15 19 l45 7 -51 1 c-35 2 -56 7 -65 19 -8 10 -9
14 -2 10 6 -4 14 -3 18 3 3 5 1 11 -4 11 -26 3 -30 4 -37 12 -4 4 14 7 39 7
l47 0 -3 131 -3 131 48 24 c58 29 68 30 68 4 0 -26 20 -25 54 1 18 14 24 25
18 33 -5 6 -19 42 -31 80 -45 139 -114 249 -183 290 -27 15 -85 33 -153 46
-159 30 -182 37 -204 67 -12 14 -21 29 -21 33 0 4 24 11 53 14 179 24 626 171
736 243 18 11 26 13 29 5 2 -7 8 -12 14 -12 10 0 38 -25 38 -34 0 -14 -30 -5
-39 12 -9 14 -10 15 -11 1 0 -30 33 -49 73 -42 45 7 54 18 33 42 -12 14 -15
29 -9 67 6 45 5 48 -11 35 -9 -8 -19 -11 -23 -7 -3 3 -2 6 4 6 6 0 14 7 17 16
5 13 2 15 -16 11 -22 -6 -22 -5 -4 8 11 8 23 15 27 15 11 0 17 48 6 59 -10 10
-1 31 13 31 5 0 21 -12 35 -27 21 -23 28 -26 43 -16 12 7 24 8 33 2 13 -8 10
-10 -16 -9 -17 1 -62 -31 -62 -44 0 -17 22 -9 74 30 40 30 43 30 43 -1 0 -14
-3 -25 -7 -25 -13 0 -65 -71 -67 -89 -1 -10 7 -16 19 -16 11 0 19 -2 18 -5
-12 -34 -18 -40 -33 -40 -13 0 -17 6 -14 23 2 12 -2 6 -10 -13 -7 -19 -19 -34
-25 -33 -11 3 -51 -67 -51 -90 0 -20 36 -50 50 -42 6 4 17 2 24 -5 12 -9 10
-18 -11 -55 l-25 -45 30 6 c17 4 36 1 44 -5 45 -38 62 -51 70 -51 4 0 8 -5 8
-11 0 -12 -43 -1 -48 12 -2 5 -8 7 -13 3 -5 -3 -9 -1 -9 4 0 6 -10 8 -22 4
-16 -4 -19 -2 -13 9 6 11 5 12 -5 2 -11 -10 -17 -10 -31 3 -12 11 -19 12 -24
4 -11 -18 33 -57 81 -70 41 -12 43 -14 29 -30 -14 -16 -14 -18 1 -31 9 -7 26
-15 37 -16 12 -2 26 -8 31 -13 5 -5 -1 -6 -15 -3 -22 6 -23 5 -10 -11 12 -14
12 -19 -5 -32 -19 -15 -18 -15 1 -8 11 4 38 8 59 8 47 1 54 14 26 46 -24 28
-25 43 -5 60 13 11 15 7 15 -24 0 -20 3 -36 6 -36 4 0 55 25 113 54 224 115
216 110 217 140 l1 27 -32 -34 -33 -35 -11 25 c-15 33 -14 60 3 66 11 4 16 -4
19 -31 2 -20 4 -8 3 28 -1 55 -4 65 -18 64 -10 -1 -15 2 -12 7 3 5 14 9 24 9
16 0 20 -9 22 -53 3 -52 3 -52 22 -33 16 16 16 18 3 13 -11 -4 -17 -1 -17 9 0
8 7 17 15 20 8 4 15 10 15 15 0 4 -6 6 -14 3 -8 -3 -16 3 -19 15 -7 27 -48 28
-72 1 -13 -15 -16 -30 -13 -65 3 -25 2 -45 -3 -45 -5 0 -9 5 -9 11 0 6 -16 1
-35 -11 l-35 -22 0 32 0 32 -47 -26 c-25 -15 -47 -25 -48 -24 -2 2 -10 20 -19
41 -14 35 -14 38 1 44 8 3 24 1 34 -5 39 -25 60 6 56 82 -1 24 3 41 11 43 16
6 16 -29 0 -45 -23 -23 8 -12 72 27 l65 39 28 -34 c16 -19 33 -32 37 -29 11 7
-6 56 -23 67 -9 6 -6 13 8 26 18 15 20 30 20 159 l0 141 -65 -45 c-36 -25 -74
-54 -85 -63 -38 -32 -46 -33 -35 -5 8 20 6 29 -10 45 -21 21 -27 50 -10 50 6
0 10 -9 10 -20 0 -11 2 -20 5 -20 3 0 46 32 97 70 l91 70 2 166 3 165 -31 -28
c-17 -15 -40 -38 -51 -49 -60 -60 -136 -126 -130 -111 3 9 3 17 0 17 -4 0 -11
-10 -16 -22 -8 -21 -9 -20 -9 9 -1 17 -5 35 -11 38 -5 3 -10 14 -10 25 0 10
-7 20 -15 24 -8 3 -15 12 -15 21 0 8 -4 15 -9 15 -5 0 -13 9 -16 20 -3 11 -10
20 -15 20 -20 0 -60 52 -60 79 0 36 9 44 27 25 9 -8 21 -13 29 -10 7 3 18 -2
24 -10 8 -9 9 -14 2 -14 -6 0 -13 6 -15 13 -3 6 -3 -6 0 -28 4 -26 18 -54 42
-82 35 -40 68 -52 64 -23 -1 8 30 41 68 73 61 52 69 56 69 36 l0 -22 26 24
c14 13 25 20 24 14 -6 -28 0 -38 15 -25 18 15 20 47 3 53 -10 3 -10 9 0 27 8
12 9 19 3 15 -7 -3 -11 2 -11 14 0 12 5 21 10 21 6 0 10 5 10 11 0 5 -4 7 -10
4 -5 -3 -10 1 -10 9 0 8 5 18 10 21 6 3 10 42 10 87 l0 80 -117 -112 -118
-113 3 -81 c2 -80 2 -81 -14 -51 -9 17 -30 41 -45 54 -25 21 -29 31 -29 77 0
41 4 54 15 54 8 0 20 10 26 23 7 12 19 27 26 32 8 6 13 16 11 21 -3 11 47 68
177 204 58 61 62 68 64 115 1 30 -2 46 -8 40 -5 -6 -61 -72 -125 -148 -64 -76
-116 -134 -116 -128 0 5 5 13 10 16 7 4 7 12 0 25 -10 20 0 63 18 74 6 3 13
34 17 68 4 35 13 77 20 93 16 34 36 110 34 122 -1 4 3 22 10 38 7 17 14 39 15
50 1 11 8 33 14 48 7 16 12 35 12 42 0 17 2 16 -346 102 l-271 67 -21 65 c-11
36 -27 95 -34 130 -11 55 -11 65 2 69 8 3 36 25 62 50 80 75 108 183 69 269
-28 60 -60 73 -173 72 -51 -1 -105 -4 -120 -6z m152 -162 c0 -20 -45 -81 -61
-81 -5 0 -4 11 1 25 6 14 14 36 20 50 11 29 40 34 40 6z m98 -586 c15 -4 21
-12 18 -21 -6 -16 10 -19 19 -4 5 9 82 4 94 -6 6 -5 -27 -34 -39 -34 -6 0 -8
-4 -5 -10 4 -6 -5 -10 -19 -10 -28 0 -34 17 -13 40 6 8 0 5 -14 -8 -29 -26
-44 -28 -35 -7 6 18 -5 20 -22 3 -20 -20 -26 1 -7 22 24 27 7 26 -22 -2 -24
-22 -44 -18 -25 5 7 8 9 17 6 20 -11 10 7 28 24 23 10 -2 27 -7 40 -11z m202
-70 c0 -11 6 -11 30 -2 41 16 49 1 16 -31 -17 -16 -30 -22 -33 -16 -2 7 -13
10 -23 7 -11 -3 -20 -1 -20 5 0 6 -10 8 -22 5 -22 -6 -21 -4 6 25 29 31 46 34
46 7z m130 -15 c22 -14 0 -44 -35 -48 -42 -5 -55 15 -26 39 26 21 39 23 61 9z
m-364 -10 c8 0 14 -4 14 -10 0 -5 -7 -10 -16 -10 -8 0 -12 -4 -9 -10 3 -5 -1
-10 -9 -10 -9 0 -15 -6 -13 -12 2 -12 -40 -14 -51 -4 -9 9 43 66 56 61 7 -3
20 -5 28 -5z m440 -12 c4 -6 2 -14 -4 -16 -7 -2 -10 -8 -6 -13 3 -5 -6 -14
-20 -20 -20 -9 -29 -9 -41 1 -15 13 -11 35 6 25 5 -4 9 0 9 9 0 24 43 35 56
14z m-396 -9 c0 -6 8 -8 19 -4 11 3 22 1 26 -5 4 -7 -2 -14 -13 -17 -11 -2
-23 -14 -26 -26 -4 -16 -8 -18 -19 -8 -8 6 -22 9 -31 5 -9 -3 -16 -1 -16 4 0
6 9 14 20 17 11 3 20 15 20 26 0 10 5 19 10 19 6 0 10 -5 10 -11z m480 -9 c0
-5 -5 -10 -12 -10 -6 0 -22 -10 -35 -22 -23 -21 -47 -18 -26 3 6 6 9 18 6 25
-4 10 4 14 31 14 20 0 36 -4 36 -10z m-376 -6 c24 -9 19 -24 -8 -24 -14 0 -28
-4 -31 -10 -3 -5 1 -10 9 -10 9 0 16 -5 16 -11 0 -6 -12 -9 -27 -7 -38 4 -41
33 -6 52 34 18 28 17 47 10z m40 -51 c-31 -24 -44 -29 -44 -14 0 15 51 51 63
44 6 -4 -2 -16 -19 -30z m94 17 c6 0 12 -4 12 -10 0 -5 -8 -10 -17 -10 -9 0
-27 -10 -40 -22 -24 -22 -44 -18 -25 5 7 8 9 17 6 20 -12 12 9 29 30 23 11 -3
27 -6 34 -6z m-944 -25 c-4 -8 -8 -15 -10 -15 -2 0 -4 7 -4 15 0 8 4 15 10 15
5 0 7 -7 4 -15z m958 -28 c-24 -23 -32 -27 -32 -15 0 18 49 62 59 53 3 -3 -9
-20 -27 -38z m-1029 7 c3 -18 1 -24 -9 -20 -8 3 -11 0 -7 -10 3 -9 -1 -14 -13
-15 -11 0 -14 -3 -8 -5 17 -7 5 -43 -19 -56 -18 -9 -23 -7 -35 11 -8 11 -23
21 -33 21 -10 0 -21 5 -25 12 -5 8 -11 5 -20 -7 -13 -18 -14 -18 -36 1 -16 13
-19 14 -10 2 10 -12 10 -18 1 -24 -7 -4 -9 -3 -5 4 9 14 -15 21 -37 10 -9 -5
-23 -6 -30 -2 -7 5 -6 0 3 -10 8 -11 16 -14 18 -7 2 6 8 9 13 5 5 -3 9 0 9 7
0 7 3 9 6 6 4 -4 -5 -22 -20 -41 -14 -19 -26 -40 -26 -46 0 -7 -7 -10 -17 -6
-15 5 -15 4 1 -9 11 -8 21 -23 22 -32 2 -10 8 -19 13 -21 16 -5 14 -18 -10
-54 -12 -18 -19 -25 -16 -16 5 14 -1 16 -43 12 -40 -3 -48 -1 -44 11 3 7 12
11 21 8 16 -6 63 15 63 30 0 5 -10 7 -23 4 -28 -8 -43 2 -43 29 0 19 4 20 31
13 41 -12 56 -10 25 3 -14 6 -28 10 -32 10 -4 -1 -19 3 -33 8 -17 7 -24 14
-19 22 5 9 2 9 -9 -1 -11 -8 -17 -9 -17 -3 0 6 -7 9 -16 5 -12 -4 -15 -2 -12
8 3 8 15 14 27 14 12 0 25 6 30 13 4 7 14 14 22 16 8 1 33 12 57 24 23 12 42
20 42 17 0 -3 17 3 39 14 21 11 42 17 45 13 4 -3 10 -1 15 6 4 6 20 13 37 14
16 1 31 5 34 8 4 5 62 26 81 29 4 1 9 -11 12 -25z m1118 2 c33 30 35 5 1 -28
l-31 -32 -9 24 c-6 15 -11 19 -16 12 -4 -7 -15 -12 -24 -12 -12 1 -7 9 18 32
35 32 35 32 38 9 3 -22 4 -22 23 -5z m-341 -16 c0 -5 -7 -10 -16 -10 -10 0
-14 -6 -10 -15 6 -17 -29 -39 -50 -31 -8 3 -14 12 -14 21 0 13 4 14 23 4 20
-11 21 -11 9 4 -8 9 -11 21 -7 27 8 13 65 13 65 0z m430 0 c0 -5 -6 -10 -12
-11 -10 0 -10 -2 0 -6 18 -7 15 -21 -8 -33 -42 -23 -80 16 -48 48 14 14 68 16
68 2z m-390 -7 c0 -3 -7 -15 -17 -25 -9 -10 -12 -18 -6 -18 5 0 17 8 27 19 14
16 22 17 61 8 25 -6 45 -16 45 -23 0 -18 -29 -32 -51 -27 -11 3 -26 0 -34 -7
-20 -17 -19 0 2 30 l16 25 -24 -22 c-27 -24 -79 -31 -79 -11 0 6 10 22 22 35
21 22 38 30 38 16z m168 -39 c12 -4 22 -11 22 -16 0 -6 -9 -8 -20 -5 -11 3
-18 1 -15 -4 10 -14 -14 -49 -30 -44 -49 16 -48 13 -23 44 25 32 30 34 66 25z
m80 -20 c26 -7 29 -32 5 -41 -10 -4 -21 -11 -24 -16 -4 -6 -13 -6 -20 -1 -8 5
-22 7 -32 5 -17 -2 -17 0 4 28 24 32 30 35 67 25z m-1159 -42 c-5 -2 -14 -12
-20 -23 -7 -15 -6 -23 6 -35 8 -9 13 -20 10 -25 -4 -5 -2 -9 4 -9 5 0 12 4 16
10 3 5 13 6 22 3 10 -4 14 -2 9 5 -3 6 3 17 14 25 11 7 17 18 13 23 -4 5 -1 3
7 -3 12 -11 11 -15 -5 -26 -14 -11 -15 -16 -5 -22 9 -5 11 -4 6 3 -4 7 -1 12
8 12 20 0 20 -10 0 -38 -8 -12 -21 -19 -27 -16 -8 5 -8 3 1 -7 17 -19 15 -24
-13 -37 -39 -18 -43 -14 -10 8 21 14 25 20 13 20 -10 0 -18 4 -18 9 0 5 -11 8
-25 7 -13 -2 -22 1 -19 6 3 5 0 17 -8 26 -17 21 -23 72 -8 72 6 0 9 4 6 9 -4
5 -3 16 0 25 6 15 8 15 19 -1 8 -10 9 -20 4 -21z m75 1 c4 -10 4 -14 0 -10 -4
4 -16 -1 -27 -10 -14 -13 -18 -13 -11 -3 5 8 9 18 10 23 3 15 4 17 13 17 5 0
12 -8 15 -17z m192 -15 c-14 -8 -15 -12 -4 -25 12 -15 11 -15 -8 -3 -19 12
-20 14 -5 30 9 9 20 15 25 12 5 -3 1 -9 -8 -14z m570 14 c-2 -4 20 -8 49 -9
30 -1 60 -5 67 -9 7 -4 26 -9 43 -11 16 -2 35 -9 40 -16 6 -7 21 -11 34 -9 28
4 43 -15 31 -39 -20 -36 -80 -34 -80 2 0 10 -7 19 -15 19 -8 0 -15 -7 -15 -15
0 -17 -16 -20 -25 -4 -4 6 -13 8 -21 5 -19 -7 -18 8 1 24 23 19 18 30 -12 30
-21 0 -24 -3 -14 -9 21 -13 -3 -41 -35 -41 -33 0 -38 16 -12 39 12 12 19 23
17 26 -3 2 -17 -7 -32 -20 -25 -24 -54 -35 -42 -16 3 5 1 12 -4 15 -5 4 -12 2
-16 -4 -8 -13 -25 -13 -25 0 0 14 41 50 57 50 8 0 12 -4 9 -8z m385 -2 c5 0 9
-4 9 -10 0 -12 -47 -13 -54 -1 -8 12 6 22 22 16 7 -3 18 -5 23 -5z m-1003 -67
c-10 -2 -18 -8 -18 -12 0 -4 -7 -8 -15 -8 -11 0 -12 4 -4 14 6 7 21 12 33 12
17 -1 17 -2 4 -6z m-88 -20 c-8 -4 -21 -13 -28 -22 -11 -14 -11 -13 -2 7 6 12
18 22 28 21 14 0 14 -2 2 -6z m650 3 c0 -2 3 -11 6 -19 8 -21 -39 -51 -66 -42
-24 8 -26 22 -3 47 14 15 63 26 63 14z m-605 -35 c-6 -5 -25 10 -25 20 0 5 6
4 14 -3 8 -7 12 -15 11 -17z m693 19 c6 0 12 -4 12 -10 0 -5 -7 -10 -15 -10
-8 0 -14 -6 -12 -12 1 -8 -7 -12 -22 -10 -13 1 -30 -3 -38 -9 -25 -21 -26 -1
-2 30 17 21 30 29 44 26 11 -3 26 -5 33 -5z m-891 -30 c35 0 42 -10 19 -29
-11 -10 -16 -9 -24 5 -8 15 -10 15 -23 -3 -14 -19 -59 -29 -59 -12 0 5 5 10
10 10 6 1 15 3 20 4 6 1 12 3 15 4 3 0 0 11 -6 24 -9 18 -9 20 2 10 7 -7 28
-13 46 -13z m145 3 c-9 -4 -3 -12 17 -24 30 -18 41 -39 21 -39 -5 0 -10 7 -10
16 0 8 -4 13 -8 10 -5 -3 -19 2 -31 10 -21 15 -21 17 -4 29 10 7 20 11 23 8 3
-3 -1 -8 -8 -10z m-228 -5 c-5 -8 -2 -9 9 -5 9 3 19 2 21 -2 3 -5 -4 -8 -16
-7 -22 1 -39 26 -18 26 6 0 8 -5 4 -12z m1059 -36 c-18 -31 -33 -41 -33 -22 0
6 -11 10 -25 10 -37 0 -31 13 17 38 51 26 65 16 41 -26z m54 10 c-22 -24 -21
-29 3 -35 13 -3 24 1 30 14 6 10 17 19 25 19 17 0 20 -16 4 -25 -6 -5 -4 -11
7 -19 11 -9 13 -15 6 -20 -13 -8 -62 3 -62 13 0 4 -13 6 -29 3 -16 -2 -31 0
-35 6 -8 13 32 62 51 62 14 0 14 -2 0 -18z m-924 -29 c-7 -3 -13 -9 -13 -14 0
-6 4 -8 8 -5 5 3 9 -1 9 -9 0 -18 -14 -10 -28 17 -7 13 -7 18 -1 14 6 -3 14
-1 17 5 4 5 10 7 14 3 3 -4 0 -9 -6 -11z m-308 -3 c-3 -5 -10 -10 -16 -10 -5
0 -9 5 -9 10 0 6 7 10 16 10 8 0 12 -4 9 -10z m995 0 c24 -7 24 -8 5 -15 -11
-4 -30 -17 -42 -28 -25 -22 -43 -17 -24 7 6 8 11 18 10 22 -4 26 5 28 51 14z
m39 -46 c-23 -24 -49 -32 -49 -15 0 15 51 51 62 45 5 -3 -1 -17 -13 -30z
m-680 5 c-13 -10 -28 -19 -34 -18 -5 0 -2 4 9 10 13 8 15 13 6 19 -7 4 -1 8
16 8 l27 0 -24 -19z m741 -5 c0 -12 5 -14 18 -8 23 10 104 6 116 -6 7 -7 1
-10 -14 -11 -14 0 -20 -3 -13 -6 18 -7 -7 -43 -30 -43 -20 0 -36 32 -19 38 7
2 12 9 12 15 0 6 -12 0 -26 -14 -17 -15 -28 -20 -31 -13 -2 7 -13 10 -23 7
-11 -3 -20 -1 -20 5 0 6 -10 8 -22 5 l-23 -6 24 27 c27 29 51 34 51 10z m190
-34 c-34 -27 -59 -27 -35 0 10 11 28 20 39 20 20 0 20 -1 -4 -20z m40 -12
c-37 -30 -55 -21 -24 13 9 10 23 15 31 12 14 -5 12 -9 -7 -25z m-90 -33 c-7
-8 -16 -12 -21 -9 -13 8 -1 24 18 24 13 0 13 -3 3 -15z m45 -5 c-3 -5 -10 -10
-16 -10 -5 0 -9 5 -9 10 0 6 7 10 16 10 8 0 12 -4 9 -10z m-888 -92 c7 -5 18
-6 25 -2 6 4 31 8 54 9 l43 2 -21 -27 c-19 -26 -19 -31 -6 -57 l15 -29 -60 9
c-39 6 -62 5 -66 -1 -10 -17 -45 -9 -60 13 -8 11 -21 24 -28 28 -18 11 -16 27
2 27 24 0 17 18 -10 27 -20 6 -12 9 37 10 35 1 68 -3 75 -9z m160 6 c-3 -3
-12 -4 -19 -1 -8 3 -5 6 6 6 11 1 17 -2 13 -5z m324 -28 c5 3 9 1 9 -5 0 -6 8
-7 18 -4 15 6 15 5 3 -10 -7 -9 -12 -31 -9 -50 3 -30 1 -33 -19 -29 -13 2 -23
8 -23 12 0 4 -17 7 -38 7 -35 0 -92 26 -92 42 0 3 7 14 14 23 10 14 24 17 64
14 34 -2 52 0 53 8 0 7 2 6 6 -2 2 -6 9 -10 14 -6z m336 -86 c27 0 29 -2 25
-36 -3 -28 -8 -34 -21 -29 -19 8 -41 13 -59 14 -7 1 -10 5 -7 11 3 5 -6 19
-19 31 l-26 22 23 12 c18 9 25 8 38 -7 9 -10 30 -18 46 -18z m480 -22 c-3 -8
-6 -5 -6 6 -1 11 2 17 5 13 3 -3 4 -12 1 -19z m34 -21 c-8 -8 -11 -7 -11 4 0
20 13 34 18 19 3 -7 -1 -17 -7 -23z m9 -27 c0 -5 -5 -10 -11 -10 -5 0 -7 5 -4
10 3 6 8 10 11 10 2 0 4 -4 4 -10z m-750 -4 c0 -11 -19 -15 -25 -6 -3 5 1 10
9 10 9 0 16 -2 16 -4z m174 -27 c67 -17 140 -40 163 -51 23 -11 48 -16 55 -12
7 4 10 4 6 -1 -5 -5 6 -16 22 -26 21 -13 30 -27 31 -46 2 -44 -1 -55 -26 -104
-13 -26 -21 -50 -17 -54 4 -5 2 -5 -5 -1 -12 6 -56 -46 -48 -58 3 -3 2 -4 -2
-1 -3 3 -41 -29 -84 -70 -42 -41 -81 -75 -87 -75 -15 0 -25 56 -17 97 4 20 24
62 45 92 35 52 38 63 41 138 2 45 1 76 -3 70 -5 -8 -8 -4 -8 8 0 11 -9 26 -21
33 -16 10 -19 10 -13 1 5 -9 2 -10 -9 -6 -13 5 -17 1 -18 -16 -1 -18 -2 -18
-6 -4 -3 10 -10 16 -16 14 -19 -6 -20 -47 -2 -67 12 -13 16 -29 12 -47 -3 -15
0 -37 5 -47 8 -14 8 -21 0 -24 -6 -2 -8 -10 -5 -19 5 -12 3 -14 -7 -8 -10 6
-12 4 -7 -10 6 -14 3 -16 -12 -12 -17 4 -19 1 -14 -24 3 -18 1 -29 -6 -29 -6
0 -11 -11 -11 -24 0 -14 -6 -28 -12 -32 -7 -4 -10 -4 -6 1 4 4 2 15 -5 23 -9
12 -9 16 1 19 6 3 10 9 7 14 -3 5 0 19 6 31 25 47 28 158 5 209 -12 27 -14 29
-10 7 3 -15 1 -35 -5 -45 -9 -16 -10 -16 -11 5 0 13 -5 33 -11 44 -6 12 -7 18
-1 14 5 -3 13 1 16 10 3 8 2 12 -3 9 -5 -3 -11 5 -13 17 -4 29 -38 31 -54 5
-10 -17 -12 -17 -17 -3 -7 17 25 41 38 28 4 -4 2 3 -4 16 -6 12 -14 22 -17 22
-3 0 -3 -4 1 -9 3 -5 1 -12 -5 -16 -11 -7 -13 5 -4 29 9 22 30 20 168 -15z
m-1427 -5 c-3 -3 -12 -4 -19 -1 -8 3 -5 6 6 6 11 1 17 -2 13 -5z m-631 -29
c-3 -14 -1 -25 3 -25 5 0 11 -8 15 -17 3 -10 9 -25 12 -33 4 -8 3 -12 -1 -8
-9 8 -85 -31 -85 -44 0 -4 -3 -7 -7 -6 -5 2 -26 -8 -48 -22 -62 -39 -72 -43
-48 -22 20 17 21 23 10 46 -7 14 -15 26 -19 26 -5 0 -8 6 -8 14 0 8 -5 16 -11
18 -7 2 -4 10 7 18 10 8 15 10 11 3 -9 -15 40 -2 96 26 22 11 44 18 48 15 4
-2 10 5 14 16 9 28 16 25 11 -5z m324 11 c0 -2 -7 -7 -16 -10 -8 -3 -12 -2 -9
4 6 10 25 14 25 6z m217 -2 c-3 -3 -12 -4 -19 -1 -8 3 -5 6 6 6 11 1 17 -2 13
-5z m-667 -44 c-8 -5 -19 -10 -25 -10 -5 0 -3 5 5 10 8 5 20 10 25 10 6 0 3
-5 -5 -10z m344 -5 c-22 -17 -34 -19 -34 -6 0 5 8 12 18 14 32 9 36 7 16 -8z
m1637 -48 c-8 -8 -11 -7 -11 4 0 9 3 19 7 23 4 4 9 2 11 -4 3 -7 -1 -17 -7
-23z m79 23 c0 -5 -7 -10 -16 -10 -8 0 -12 5 -9 10 3 6 10 10 16 10 5 0 9 -4
9 -10z m-1815 -10 c-3 -5 -12 -10 -18 -10 -7 0 -6 4 3 10 19 12 23 12 15 0z
m1775 -10 c0 -5 -2 -10 -4 -10 -3 0 -8 5 -11 10 -3 6 -1 10 4 10 6 0 11 -4 11
-10z m740 -35 c-9 -11 -9 -15 -1 -15 15 0 14 -33 -1 -48 -9 -9 -9 -12 0 -12
16 0 15 -25 -2 -39 -12 -10 -14 -1 -14 61 0 40 5 79 12 87 9 12 12 11 14 -3 2
-9 -2 -23 -8 -31z m-714 27 c-6 -10 14 -36 37 -49 17 -9 18 -11 3 -26 -26 -26
-48 -11 -40 27 6 26 4 29 -8 18 -8 -6 -18 -9 -21 -5 -4 3 -7 -10 -7 -31 0 -22
4 -35 10 -31 6 4 7 -1 3 -11 -4 -11 -8 -13 -11 -6 -2 7 -12 12 -23 12 -28 0
-34 26 -14 56 11 17 23 24 35 21 12 -3 20 2 23 14 3 11 8 19 12 19 3 0 4 -3 1
-8z m-106 -12 c0 -5 -4 -10 -9 -10 -6 0 -13 5 -16 10 -3 6 1 10 9 10 9 0 16
-4 16 -10z m786 -54 c-1 -24 -7 -51 -15 -60 -9 -10 -10 -16 -2 -16 16 0 14
-25 -3 -39 -13 -11 -15 -6 -14 31 0 25 7 51 17 62 15 18 15 19 -1 13 -23 -8
-23 11 -1 35 9 10 17 18 18 18 1 0 2 -20 1 -44z m-802 7 c-7 -16 -14 -36 -14
-47 0 -15 -3 -16 -14 -7 -18 15 -9 48 17 66 28 20 28 19 11 -12z m746 -48 c-9
-11 -9 -15 -1 -15 16 0 14 -37 -3 -43 -11 -5 -15 4 -14 36 0 45 20 85 26 53 2
-9 -2 -23 -8 -31z m-460 25 c0 -5 -2 -10 -4 -10 -3 0 -8 5 -11 10 -3 6 -1 10
4 10 6 0 11 -4 11 -10z m-130 -55 c0 -33 -2 -35 -20 -25 -16 9 -20 8 -20 -5 0
-8 5 -15 11 -15 5 0 8 -4 4 -10 -10 -17 -33 1 -31 24 3 22 33 63 49 65 4 1 7
-15 7 -34z m546 -3 c-14 -14 -16 -14 -16 -1 0 20 23 44 29 28 2 -6 -4 -18 -13
-27z m-616 -14 c0 -18 -2 -20 -9 -8 -6 8 -7 18 -5 22 9 14 14 9 14 -14z m581
-16 c-8 -15 -8 -22 2 -25 9 -3 9 -9 -1 -26 -8 -14 -8 -21 -1 -21 5 0 7 -5 3
-12 -4 -6 -7 -26 -6 -44 1 -18 -3 -36 -7 -39 -13 -7 -11 167 2 183 15 18 20 7
8 -16z m35 -30 c-15 -15 -16 -15 -16 4 0 28 24 52 28 28 2 -9 -3 -24 -12 -32z
m134 3 c-9 -11 -9 -15 -1 -15 16 0 14 -37 -3 -43 -11 -5 -15 4 -14 36 0 45 20
85 26 53 2 -9 -2 -23 -8 -31z m-84 -10 c-7 -18 -26 -20 -26 -2 0 18 24 41 28
27 2 -6 1 -17 -2 -25z m-1481 15 c3 -5 -1 -10 -10 -10 -9 0 -13 5 -10 10 3 6
8 10 10 10 2 0 7 -4 10 -10z m1356 -13 c-10 -9 -11 -8 -5 6 3 10 9 15 12 12 3
-3 0 -11 -7 -18z m169 -17 c-16 -30 -30 -33 -30 -6 0 13 6 26 13 29 20 7 28
-3 17 -23z m-94 -28 c-15 -15 -16 -15 -16 4 0 28 24 52 28 28 2 -9 -3 -24 -12
-32z m-83 -17 c-15 -12 -19 -11 -22 3 -2 8 5 22 15 29 16 12 19 12 22 -2 2 -9
-5 -23 -15 -30z m123 -3 c-15 -15 -16 -15 -16 4 0 28 24 52 28 28 2 -9 -3 -24
-12 -32z m-193 18 c16 0 26 -4 22 -10 -3 -5 -1 -10 4 -10 15 0 14 -27 -1 -36
-6 -4 -14 -2 -16 4 -2 7 -20 -5 -40 -26 -20 -21 -50 -47 -67 -57 -16 -11 -34
-25 -38 -32 -4 -7 -13 -13 -20 -13 -6 0 13 22 43 50 l54 49 -28 26 c-27 25
-26 29 6 26 9 -1 20 3 24 10 4 8 3 9 -4 5 -16 -9 -15 7 0 22 8 8 15 9 22 2 6
-5 23 -10 39 -10z m252 -11 c-1 -12 -9 -25 -18 -31 -13 -7 -17 -5 -17 11 0 15
16 33 36 41 0 0 0 -9 -1 -21z m-565 -8 c0 -4 -7 -8 -15 -8 -16 0 -20 9 -9 20
8 8 24 -1 24 -12z m470 -26 c-29 -34 -34 -2 -6 34 9 12 12 11 14 -3 2 -9 -2
-23 -8 -31z m-89 -18 c-20 -20 -21 -20 -21 -3 0 10 8 25 18 32 26 19 28 -4 3
-29z m139 14 c0 -10 -7 -21 -15 -25 -15 -5 -22 24 -8 37 12 13 23 7 23 -12z
m-525 -1 c-3 -5 -11 -10 -16 -10 -6 0 -7 5 -4 10 3 6 11 10 16 10 6 0 7 -4 4
-10z m-85 -32 c0 -6 -7 -7 -16 -4 -9 3 -23 6 -32 6 -14 0 -14 2 -3 9 16 10 51
3 51 -11z m426 -16 c-15 -15 -16 -15 -16 5 0 12 6 23 13 26 19 6 21 -13 3 -31z
m132 -3 c-30 -19 -37 5 -8 28 12 9 16 8 18 -4 2 -9 -2 -19 -10 -24z m-488 6
c0 -7 -6 -15 -12 -18 -10 -3 -10 -7 0 -19 16 -20 -2 -35 -23 -18 -11 9 -14 6
-18 -12 -3 -15 -5 -10 -6 14 -1 39 14 61 22 31 3 -10 5 -4 6 14 1 24 5 31 16
27 8 -4 15 -12 15 -19z m401 -18 l-21 -21 0 21 c0 12 8 26 18 32 26 15 28 -7
3 -32z m-73 -12 c0 -25 -4 -45 -8 -45 -8 0 -12 69 -4 81 10 17 13 8 12 -36z
m42 -5 c0 -11 -7 -20 -15 -20 -18 0 -19 12 -3 28 16 16 18 15 18 -8z m-440 0
c0 -5 -5 -10 -11 -10 -5 0 -7 5 -4 10 3 6 8 10 11 10 2 0 4 -4 4 -10z m358
-30 c0 -22 -4 -42 -8 -45 -8 -5 -11 65 -3 78 9 14 12 6 11 -33z m132 30 c0 -5
-5 -10 -11 -10 -5 0 -7 5 -4 10 3 6 8 10 11 10 2 0 4 -4 4 -10z m198 -51 c-18
-12 -24 27 -6 48 11 15 13 13 16 -12 2 -16 -2 -31 -10 -36z m-374 -17 c-17
-13 -17 -14 -1 -9 9 4 17 2 17 -4 0 -5 10 -14 23 -19 20 -8 21 -9 2 -11 -11 0
-28 -1 -37 0 -9 1 -22 -8 -29 -21 -11 -21 -11 -22 6 -8 9 8 35 16 57 17 33 2
38 0 29 -11 -7 -8 -20 -12 -31 -9 -10 3 -26 1 -36 -5 -12 -7 -5 -9 27 -6 24 1
48 10 55 18 15 22 25 9 13 -17 -9 -20 -44 -28 -76 -17 -5 1 -12 1 -18 0 -5 -1
-18 -4 -29 -6 -26 -5 -33 -14 -11 -14 14 0 16 -3 8 -11 -7 -7 -17 -8 -29 -1
-11 5 -25 7 -31 5 -22 -8 -15 4 31 51 24 25 52 46 62 47 16 0 15 2 -3 9 -27
11 -30 45 -5 59 25 14 30 -18 6 -37z m156 33 c-6 -8 -9 -18 -6 -24 4 -5 -1
-16 -9 -25 -9 -8 -15 -19 -15 -23 1 -4 -4 -9 -10 -11 -14 -5 -3 41 11 46 5 2
2 11 -7 20 -15 15 -15 16 2 23 34 13 48 11 34 -6z m39 -11 c-17 -21 -31 -17
-17 5 7 11 16 17 20 14 5 -2 4 -11 -3 -19z m141 -30 c-7 -7 -16 -14 -21 -14
-16 0 -9 42 9 56 15 11 17 10 20 -7 2 -11 -2 -27 -8 -35z m-240 15 c0 -5 5 -7
12 -3 6 4 3 -5 -8 -19 -22 -31 -27 -32 -45 -11 -11 14 -10 18 6 30 23 17 35
18 35 3z m-510 -8 c0 -12 -37 -24 -50 -16 -5 3 -10 2 -10 -3 0 -6 -8 -13 -17
-16 -11 -4 -7 4 10 19 28 25 67 34 67 16z m94 -8 c4 -10 4 -14 0 -11 -3 4 -19
1 -35 -7 -36 -19 -39 -19 -39 4 0 32 63 44 74 14z m604 -34 c-9 -6 -14 -2 -16
13 -2 11 2 25 10 29 9 6 14 2 16 -13 2 -11 -2 -25 -10 -29z m102 27 c0 -13 -7
-26 -15 -30 -9 -3 -15 0 -15 10 0 8 -4 13 -10 9 -5 -3 -7 -12 -4 -19 3 -8 0
-17 -5 -21 -6 -3 -8 -12 -4 -18 11 -18 12 -38 2 -31 -5 3 -9 12 -9 20 0 8 -4
14 -10 14 -22 0 -8 36 22 62 41 34 48 34 48 4z m-667 -17 c-12 -13 -26 -18
-33 -14 -9 6 -6 12 11 21 36 20 46 17 22 -7z m535 -11 c-2 -13 -11 -24 -20
-26 -21 -4 -24 18 -6 36 19 19 30 14 26 -10z m-48 -18 c0 -5 -5 -10 -11 -10
-5 0 -7 5 -4 10 3 6 8 10 11 10 2 0 4 -4 4 -10z m168 -51 c-18 -12 -24 27 -6
48 11 15 13 13 16 -12 2 -16 -2 -31 -10 -36z m-228 31 c0 -5 -9 -10 -21 -10
-11 0 -17 5 -14 10 3 6 13 10 21 10 8 0 14 -4 14 -10z m90 -11 c0 -5 -5 -9
-11 -9 -8 0 -8 -4 0 -14 9 -11 8 -15 -4 -20 -9 -3 -13 -2 -10 4 3 6 -3 10 -14
10 -12 0 -21 -4 -21 -10 0 -5 -4 -10 -10 -10 -10 0 -14 52 -5 61 8 8 75 -3 75
-12z m30 -9 c0 -5 -4 -10 -10 -10 -5 0 -10 5 -10 10 0 6 5 10 10 10 6 0 10 -4
10 -10z m-1668 -11 c29 -7 63 -18 75 -26 13 -9 23 -12 23 -8 0 4 7 2 16 -6 14
-12 14 -14 -1 -25 -9 -7 -12 -15 -7 -18 10 -6 5 -46 -5 -46 -2 0 -14 5 -26 12
-36 20 -57 22 -175 23 -68 0 -112 4 -112 10 1 39 14 54 58 64 l47 10 -49 -4
c-54 -6 -56 3 -4 15 49 12 101 11 160 -1z m1138 -19 c0 -10 -5 -22 -12 -26 -6
-4 -8 -3 -5 3 4 6 0 16 -8 23 -8 7 -15 8 -15 3 0 -5 -10 -9 -22 -10 -18 -1
-16 2 12 17 39 20 50 18 50 -10z m32 16 c7 4 8 2 4 -4 -11 -18 -26 -14 -25 6
0 10 3 12 6 4 2 -6 10 -9 15 -6z m373 4 c3 -6 -4 -10 -17 -11 -21 0 -21 -1 -4
-8 18 -7 18 -8 3 -14 -9 -3 -24 -4 -32 -1 -11 5 -12 10 -2 25 13 20 42 25 52
9z m-585 -10 c0 -6 12 -22 27 -36 15 -14 19 -22 10 -18 -9 3 -17 2 -17 -2 0
-5 -15 -9 -33 -8 -52 2 -57 3 -51 19 4 10 2 13 -8 10 -8 -3 -21 2 -29 11 -8
10 -9 15 -3 11 6 -3 28 0 50 8 48 17 54 18 54 5z m510 -6 c0 -11 -5 -14 -16
-10 -9 3 -21 6 -27 7 -7 0 -3 4 8 9 29 13 35 12 35 -6z m320 -18 c0 -29 -26
-42 -33 -16 -5 18 9 40 25 40 4 0 8 -11 8 -24z m-350 -10 c0 -9 -7 -12 -20 -9
-11 3 -17 9 -14 14 8 14 34 10 34 -5z m-385 -6 c-27 -12 -43 -12 -25 0 8 5 22
9 30 9 10 0 8 -3 -5 -9z m425 6 c0 -2 -3 -11 -6 -20 -9 -23 -24 -20 -24 4 0
11 7 20 15 20 8 0 15 -2 15 -4z m-73 -17 c22 -8 24 -12 13 -19 -29 -19 -80 -4
-66 19 9 14 17 14 53 0z m103 7 c0 -3 -4 -8 -10 -11 -5 -3 -10 -1 -10 4 0 6 5
11 10 11 6 0 10 -2 10 -4z m4 -53 c-25 -18 -27 -10 -7 26 17 29 18 29 21 9 2
-13 -4 -27 -14 -35z m54 45 c-6 -18 -28 -21 -28 -4 0 9 7 16 16 16 9 0 14 -5
12 -12z m75 -2 c6 -15 -1 -26 -15 -26 -4 0 -8 9 -8 20 0 23 15 27 23 6z
m-2611 -37 c-5 -19 -15 -33 -22 -31 -6 1 -19 -3 -28 -10 -9 -7 0 8 19 33 19
26 35 46 37 44 2 -2 -1 -18 -6 -36z m1483 18 c-16 -25 -116 -53 -215 -60 -30
-3 -62 -7 -71 -11 -13 -6 -18 1 -22 30 -4 21 -5 39 -4 40 1 2 29 -8 61 -21 52
-21 65 -23 114 -14 31 6 77 21 102 34 25 13 46 24 48 25 1 0 -4 -10 -13 -23z
m1083 -28 c-9 -6 -14 -2 -16 13 -2 11 2 25 10 29 9 6 14 2 16 -13 2 -11 -2
-25 -10 -29z m-856 8 c4 -20 -2 -24 -67 -42 l-71 -20 -2 22 c-1 13 2 23 7 23
5 0 18 3 28 6 15 5 15 4 3 -5 -17 -12 -10 -14 14 -5 9 3 13 11 10 16 -4 6 2 7
16 3 14 -5 20 -3 16 3 -5 9 6 15 35 21 4 0 9 -9 11 -22z m955 -2 c-4 -8 -11
-15 -17 -15 -14 0 -13 27 3 33 16 6 21 1 14 -18z m-313 6 c18 -7 23 -15 19
-29 -4 -18 -7 -19 -31 -6 -15 8 -44 14 -64 14 -37 0 -51 13 -25 23 21 9 74 7
101 -2z m184 -13 c-4 -27 -28 -36 -28 -10 0 20 8 32 22 32 5 0 8 -10 6 -22z
m87 2 c-5 -26 -14 -40 -26 -40 -13 0 -11 34 3 48 18 18 27 15 23 -8z m-760 0
c-3 -5 -12 -10 -18 -10 -7 0 -6 4 3 10 19 12 23 12 15 0z m-1545 -10 c0 -5 -2
-10 -4 -10 -3 0 -8 5 -11 10 -3 6 -1 10 4 10 6 0 11 -4 11 -10z m2170 -35 c-7
-8 -16 -15 -21 -15 -16 0 -10 32 9 46 14 10 18 10 20 -2 2 -8 -2 -21 -8 -29z
m-2555 25 c-3 -5 -12 -10 -18 -10 -7 0 -6 4 3 10 19 12 23 12 15 0z m121 -3
c4 -4 1 -13 -5 -21 -11 -13 -15 -13 -31 1 -11 9 -17 20 -15 23 5 8 42 6 51 -3z
m2344 -2 c0 -8 -4 -15 -10 -15 -5 0 -10 7 -10 15 0 8 5 15 10 15 6 0 10 -7 10
-15z m-157 -12 c-5 -11 -3 -14 6 -8 10 6 11 2 6 -16 -10 -32 -13 -35 -26 -22
-13 13 -4 63 11 63 5 0 6 -7 3 -17z m54 -3 c1 -11 -4 -20 -10 -20 -7 0 -6 -4
3 -10 10 -6 17 -5 23 5 4 8 19 15 33 15 14 0 23 -4 20 -9 -3 -5 3 -11 14 -14
11 -3 20 -10 20 -17 0 -7 -9 -9 -22 -6 -13 3 -17 3 -10 0 21 -10 15 -36 -7
-29 -11 3 -22 2 -25 -3 -3 -5 -17 -7 -32 -4 l-25 5 28 19 c15 11 20 17 9 14
-10 -4 -27 -4 -37 -1 -15 5 -18 12 -13 33 11 47 28 59 31 22z m-2210 -24 c-4
-9 -13 -16 -22 -16 -18 0 -19 5 -4 32 13 24 35 9 26 -16z m208 4 c7 0 18 -6
24 -14 9 -11 7 -15 -7 -18 -22 -6 -36 9 -39 42 -1 14 0 18 3 8 3 -10 11 -18
19 -18z m35 21 c0 -6 -9 -9 -19 -8 -11 0 -17 5 -15 9 7 11 34 10 34 -1z m1405
-1 c-8 -13 -76 -31 -89 -23 -13 8 40 32 72 33 13 0 21 -4 17 -10z m602 4 c-3
-3 -12 -4 -19 -1 -8 3 -5 6 6 6 11 1 17 -2 13 -5z m-971 -73 c22 -11 25 -15
12 -18 -20 -5 -80 36 -72 49 3 5 -5 12 -17 16 l-24 6 25 6 c20 5 27 1 36 -20
6 -14 24 -32 40 -39z m1174 59 c0 -5 -7 -10 -16 -10 -8 0 -12 5 -9 10 3 6 10
10 16 10 5 0 9 -4 9 -10z m-347 -15 c-3 -9 -8 -14 -10 -11 -3 3 -2 9 2 15 9
16 15 13 8 -4z m-1780 -9 c3 -7 1 -18 -4 -23 -12 -12 -57 -5 -66 10 -4 6 -1 7
7 2 10 -6 12 -4 7 8 -5 13 0 17 22 17 16 0 31 -6 34 -14z m-284 -18 c6 10 10
8 14 -9 3 -12 4 -26 1 -31 -7 -11 -54 38 -54 55 0 7 7 3 16 -8 12 -16 17 -17
23 -7z m-132 -10 c-3 -8 -6 -5 -6 6 -1 11 2 17 5 13 3 -3 4 -12 1 -19z m1588
12 c-3 -5 -12 -10 -18 -10 -7 0 -6 4 3 10 19 12 23 12 15 0z m935 -21 c0 -5
-7 -9 -15 -9 -9 0 -15 9 -15 21 0 18 2 19 15 9 8 -7 15 -16 15 -21z m-2154 1
c33 -13 23 -26 -28 -35 -31 -6 -38 -4 -38 9 0 9 8 16 18 16 14 0 15 2 2 10
-13 8 -13 10 2 10 9 0 29 -5 44 -10z m-242 -49 c-5 -6 -33 31 -33 44 -1 6 8
-1 19 -15 10 -14 17 -27 14 -29z m2341 39 c-3 -5 -11 -10 -16 -10 -6 0 -7 5
-4 10 3 6 11 10 16 10 6 0 7 -4 4 -10z m250 -15 c0 -10 -4 -20 -10 -22 -17 -5
-38 14 -32 30 8 21 42 14 42 -8z m-1481 -21 c8 -21 -12 -17 -24 6 -8 16 -8 18
4 14 8 -3 17 -12 20 -20z m1126 6 c0 -12 -7 -20 -17 -20 -14 0 -15 -2 -4 -9 8
-5 9 -11 3 -15 -17 -10 -23 11 -11 38 14 31 29 34 29 6z m65 11 c-3 -6 3 -15
12 -21 17 -11 17 -11 1 -6 -10 3 -18 1 -18 -5 0 -6 9 -13 20 -16 28 -7 24 -63
-5 -63 -15 0 -24 29 -21 70 1 16 -3 30 -8 30 -6 0 -4 5 4 10 19 12 23 12 15 1z
m-131 -7 c9 -3 16 -12 16 -19 0 -20 -37 -47 -59 -43 l-21 3 20 33 c21 35 21
35 44 26z m-1952 -36 c-4 -4 -34 -8 -67 -10 -54 -3 -60 -5 -63 -26 -2 -13 4
-32 12 -41 15 -17 13 -18 -34 -20 -45 -1 -51 2 -50 24 1 3 -7 19 -17 35 -11
20 -26 31 -43 32 -14 0 -5 4 20 7 62 8 251 8 242 -1z m58 -12 c0 -29 -9 -56
-20 -56 -4 0 -6 15 -6 33 1 17 -3 35 -8 39 -6 4 -1 8 12 8 17 0 22 -6 22 -24z
m-367 7 c-13 -2 -33 -2 -45 0 -13 2 -3 4 22 4 25 0 35 -2 23 -4z m2537 -28 c0
-29 7 -31 38 -9 12 8 22 11 22 5 0 -5 -5 -13 -11 -17 -6 -3 -9 -24 -7 -45 2
-22 1 -39 -3 -39 -9 0 -23 30 -23 50 -1 23 -41 19 -42 -5 -1 -52 -29 -104 -56
-105 -9 0 -10 96 -2 125 5 18 57 62 77 64 4 1 7 -10 7 -24z m-240 -4 c17 -33
11 -43 -14 -24 -13 10 -21 24 -19 30 7 19 21 16 33 -6z m33 -31 c-7 -28 -13
-25 -13 6 0 14 4 23 9 20 5 -3 7 -15 4 -26z m44 -19 c9 8 13 8 13 1 0 -13 -21
-21 -37 -14 -7 2 -13 9 -13 15 0 8 4 7 12 -1 8 -8 15 -9 25 -1z m-2490 -37
c-3 -3 -12 -4 -19 -1 -8 3 -5 6 6 6 11 1 17 -2 13 -5z m441 -20 c1 -18 -3 -20
-26 -16 -15 2 -32 11 -39 19 -9 11 -16 12 -32 4 -24 -13 -31 -14 -31 -2 0 11
27 16 86 16 34 0 40 -3 42 -21z m-148 -30 c-6 -16 -12 -31 -12 -34 0 -3 -4
-13 -10 -23 -17 -32 -19 -12 -3 34 24 69 27 75 31 63 3 -6 0 -24 -6 -40z
m2257 -16 c-2 -13 -4 -3 -4 22 0 25 2 35 4 23 2 -13 2 -33 0 -45z m-2282 19
c-6 -24 -32 -44 -42 -33 -3 2 5 18 18 35 26 35 33 34 24 -2z m102 8 c9 -25 -7
-32 -23 -11 -14 20 -14 20 -14 0 0 -10 -9 -25 -20 -32 -12 -7 -20 -8 -20 -2 0
5 5 10 11 10 5 0 8 4 4 9 -7 12 22 41 41 41 8 0 17 -7 21 -15z m2046 -23 c-4
-18 -8 -20 -20 -10 -13 10 -13 14 3 25 22 16 25 13 17 -15z m-1983 8 c9 -6 17
-5 22 3 4 7 8 8 8 2 0 -5 -4 -16 -9 -24 -8 -12 -14 -13 -35 -3 -27 12 -35 32
-13 32 6 0 19 -4 27 -10z m2370 -30 c-19 -11 -39 -19 -45 -19 -5 0 6 8 25 19
19 11 40 19 45 19 6 0 -6 -8 -25 -19z m-2340 -25 c0 -8 -4 -15 -9 -15 -5 0
-11 7 -15 15 -3 9 0 15 9 15 8 0 15 -7 15 -15z m2260 -9 c0 -2 -7 -7 -16 -10
-8 -3 -12 -2 -9 4 6 10 25 14 25 6z m-2580 -39 c0 -5 -4 -5 -10 -2 -5 3 -10
14 -10 23 0 15 2 15 10 2 5 -8 10 -19 10 -23z m360 -25 c-6 -2 -16 1 -23 7
-10 8 -12 2 -9 -25 4 -35 4 -35 -29 -32 -27 2 -33 7 -31 23 2 10 11 25 20 32
10 7 13 13 8 13 -5 0 -3 7 4 15 10 12 16 11 41 -8 17 -12 25 -23 19 -25z
m-260 24 c0 -2 -7 -6 -15 -10 -8 -3 -15 -1 -15 4 0 6 7 10 15 10 8 0 15 -2 15
-4z m307 -64 c-9 -12 -12 -11 -18 5 -12 30 -10 34 10 21 16 -10 17 -15 8 -26z
m-43 22 c17 -7 22 -34 6 -34 -5 0 -10 -6 -10 -14 0 -7 -8 -20 -17 -27 -15 -12
-16 -12 -10 4 4 10 7 32 7 48 0 31 1 32 24 23z m2317 -56 c1 -29 1 -56 0 -60
0 -5 5 -8 12 -8 7 0 13 -9 14 -20 1 -11 -2 -18 -7 -15 -5 3 -17 -6 -26 -20 -9
-14 -25 -25 -36 -25 -10 0 -16 -4 -13 -10 7 -12 -5 -13 -21 -2 -14 9 -17 122
-4 122 6 0 10 3 10 8 0 4 -24 8 -54 10 -47 2 -56 0 -70 -20 -19 -26 -96 -54
-96 -33 0 10 160 86 182 85 3 0 9 -8 11 -17 4 -14 5 -12 6 4 1 16 12 28 34 37
53 23 57 21 58 -36z m-2366 -58 c-9 -10 -25 -18 -36 -17 -23 2 -24 6 -3 35 12
18 19 20 35 11 19 -10 20 -12 4 -29z m2265 -10 c0 -19 -5 -30 -14 -30 -12 0
-12 5 -3 30 6 17 13 30 14 30 2 0 3 -13 3 -30z m-30 14 c0 -15 -22 -44 -30
-39 -6 4 -5 14 3 25 11 19 27 27 27 14z m-1098 -76 c-34 -35 -149 -33 -128 1
4 6 26 11 49 11 26 0 52 8 67 20 22 17 25 17 28 3 2 -8 -5 -24 -16 -35z m977
-4 c-15 -29 -29 -31 -29 -5 0 11 -5 23 -11 27 -7 4 -1 11 17 19 24 10 30 9 32
-3 2 -8 -2 -25 -9 -38z m-2094 27 c9 -28 31 -44 72 -50 35 -6 36 -7 19 -24
-10 -9 -14 -17 -10 -17 4 0 -1 -9 -12 -21 -16 -18 -27 -20 -72 -17 -61 5 -68
11 -76 58 -5 27 -4 30 3 13 10 -22 21 -27 84 -38 23 -4 37 -2 37 5 0 5 -6 10
-13 10 -7 0 -26 13 -41 29 -20 21 -26 35 -21 50 8 26 22 27 30 2z m2175 -8
c-1 -21 -27 -59 -35 -51 -5 5 26 68 33 68 1 0 2 -8 2 -17z m-1997 -27 c4 -10
-4 -15 -29 -18 -19 -2 -34 -3 -34 -1 0 2 50 31 56 33 1 0 4 -6 7 -14z m952
-46 c-27 -30 -79 -44 -107 -29 l-23 12 25 7 c37 10 85 36 101 56 13 16 14 16
17 -5 2 -13 -4 -31 -13 -41z m945 -1 c0 -5 -11 -9 -25 -9 -16 0 -25 6 -25 16
0 8 5 12 10 9 6 -3 10 -2 10 4 0 5 -4 13 -10 16 -5 3 -10 11 -10 17 0 6 11 -1
25 -16 14 -15 25 -31 25 -37z m170 45 c0 -8 -4 -12 -10 -9 -5 3 -10 10 -10 16
0 5 5 9 10 9 6 0 10 -7 10 -16z m70 -34 c-24 -15 -36 -11 -14 4 10 8 21 12 24
10 2 -3 -2 -9 -10 -14z m-75 -20 c-3 -4 -16 -10 -30 -12 -19 -4 -25 -1 -25 12
0 9 3 19 6 23 8 8 55 -14 49 -23z m-2334 -24 c-12 -29 -16 -32 -27 -14 -4 6
-3 8 3 5 6 -4 14 5 17 19 4 15 9 24 12 22 2 -3 0 -17 -5 -32z m239 15 c0 -4
11 -25 25 -46 14 -20 25 -45 24 -54 -5 -29 12 -60 42 -82 34 -24 86 -21 139 6
27 14 28 13 33 -13 9 -45 39 -75 78 -76 19 -1 40 -5 47 -10 7 -4 34 -6 60 -4
l47 3 0 -60 0 -60 -137 -3 -138 -3 0 26 c0 16 6 25 15 25 11 0 15 11 15 39 0
22 -3 42 -8 45 -4 2 -43 6 -87 9 -44 2 -63 2 -42 0 33 -4 37 -7 37 -34 0 -28
-1 -29 -52 -29 -29 0 -64 -3 -78 -5 -14 -3 -19 -3 -12 1 6 3 12 17 12 30 0 18
6 24 23 25 l22 2 -22 4 c-18 3 -23 11 -23 34 0 37 -22 46 -119 51 -65 3 -70 5
-65 23 6 19 5 19 -8 2 -17 -23 -61 -19 -66 6 -3 14 4 17 40 17 34 0 46 5 57
23 13 20 13 21 -1 9 -33 -27 -88 7 -88 54 0 16 3 15 23 -4 43 -40 68 -38 119
12 40 41 88 61 88 37z m-507 -71 c7 0 6 4 -3 10 -8 5 -13 10 -10 11 43 7 59 6
54 -3 -4 -5 3 -5 16 2 19 10 24 10 32 -4 8 -14 46 -35 90 -49 9 -3 31 -2 47 3
34 9 36 6 25 -48 -5 -25 -12 -31 -44 -36 -21 -3 -61 -22 -90 -41 -68 -46 -112
-48 -130 -5 -7 16 -10 37 -6 45 3 9 -5 32 -19 53 -18 26 -25 50 -25 82 l0 45
26 -32 c14 -18 31 -33 37 -33z m1510 43 c-14 -43 -83 -60 -102 -25 -8 14 -4
17 26 20 19 1 42 6 52 12 24 14 31 12 24 -7z m-346 -8 c-5 -11 -10 -230 -8
-292 1 -7 12 -13 26 -13 l26 0 -3 160 c-3 139 -1 160 12 160 13 0 15 -12 13
-62 -1 -35 -4 -107 -6 -160 l-3 -98 28 0 28 0 2 153 2 152 3 -132 4 -133 75 0
c56 0 75 -3 72 -12 -3 -8 -33 -15 -79 -19 l-74 -5 78 -2 c98 -2 95 -22 -4 -22
-55 0 -69 -3 -69 -15 0 -21 -17 -19 -22 3 -4 15 -20 18 -121 20 -113 3 -116 2
-120 -20 -3 -13 -4 2 -3 32 1 47 4 55 21 58 12 2 35 24 54 53 31 48 32 51 16
75 -11 18 -22 23 -36 19 -10 -4 -29 -3 -40 0 -21 7 -20 8 10 27 35 23 52 65
30 79 -9 6 5 9 40 9 42 0 52 -3 48 -15z m455 -57 c2 -40 1 -95 -1 -121 l-3
-48 -41 3 c-49 4 -64 28 -18 28 31 0 31 0 29 53 l-1 52 -6 -45 c-5 -40 -9 -45
-31 -45 -24 0 -25 3 -28 70 -3 62 -1 71 20 87 36 28 47 23 42 -19 -4 -34 -3
-35 6 -14 6 14 10 32 9 40 -2 24 0 31 10 31 5 0 11 -33 13 -72z m-422 42 c0
-5 -7 -10 -16 -10 -8 0 -12 5 -9 10 3 6 10 10 16 10 5 0 9 -4 9 -10z m65 0 c3
-5 -1 -10 -10 -10 -9 0 -13 5 -10 10 3 6 8 10 10 10 2 0 7 -4 10 -10z m702
-27 c-3 -10 -5 -4 -5 12 0 17 2 24 5 18 2 -7 2 -21 0 -30z m410 11 c21 3 7 -3
-32 -14 -76 -21 -96 -20 -94 7 1 17 2 17 6 0 4 -14 11 -17 26 -13 12 3 28 6
35 6 10 0 10 5 2 23 -10 20 -10 21 4 4 11 -14 23 -17 53 -13z m-1040 -146 c-2
-29 -3 -6 -3 52 0 58 1 81 3 53 2 -29 2 -77 0 -105z m41 64 c3 -80 4 -82 27
-82 16 0 25 -6 25 -15 0 -11 -11 -15 -40 -15 l-40 0 0 101 c0 76 3 100 13 97
8 -3 13 -32 15 -86z m112 36 c-27 -22 -60 -24 -60 -3 0 8 6 15 14 15 8 0 24 9
37 19 21 17 24 18 28 3 2 -9 -7 -24 -19 -34z m-290 32 c0 -5 -7 -10 -15 -10
-8 0 -15 5 -15 10 0 6 7 10 15 10 8 0 15 -4 15 -10z m70 0 c0 -5 -7 -10 -15
-10 -8 0 -15 5 -15 10 0 6 7 10 15 10 8 0 15 -4 15 -10z m147 -74 c4 -56 2
-66 -11 -66 -13 0 -16 13 -16 77 0 96 19 88 27 -11z m-424 44 c10 0 17 -8 17
-20 0 -13 7 -20 19 -20 10 0 24 -6 30 -14 10 -12 6 -15 -20 -21 -31 -7 -55 8
-43 27 3 4 -1 5 -9 2 -17 -6 -33 12 -43 51 -7 29 -7 30 13 13 11 -10 27 -18
36 -18z m-98 0 c-3 -5 -11 -10 -16 -10 -6 0 -7 5 -4 10 3 6 11 10 16 10 6 0 7
-4 4 -10z m305 0 c0 -5 -7 -10 -15 -10 -8 0 -15 5 -15 10 0 6 7 10 15 10 8 0
15 -4 15 -10z m70 0 c0 -5 -7 -10 -15 -10 -8 0 -15 5 -15 10 0 6 7 10 15 10 8
0 15 -4 15 -10z m697 -12 c-3 -8 -6 -5 -6 6 -1 11 2 17 5 13 3 -3 4 -12 1 -19z
m760 6 c-3 -3 -12 -4 -19 -1 -8 3 -5 6 6 6 11 1 17 -2 13 -5z m-1862 -14 c3
-6 15 -5 31 2 20 10 27 9 35 -3 15 -25 10 -31 -22 -27 -26 4 -30 2 -26 -13 3
-10 2 -18 -2 -17 -24 3 -33 -4 -28 -22 3 -13 0 -20 -9 -20 -9 0 -14 11 -14 29
0 24 3 28 20 24 16 -4 20 0 20 17 0 18 -3 20 -14 10 -11 -9 -19 -9 -33 0 -16
10 -15 11 5 6 18 -3 22 -1 18 10 -6 16 9 19 19 4z m1302 4 c-3 -3 -12 -4 -19
-1 -8 3 -5 6 6 6 11 1 17 -2 13 -5z m510 0 c-3 -3 -12 -4 -19 -1 -8 3 -5 6 6
6 11 1 17 -2 13 -5z m-1477 -14 c0 -5 -7 -10 -15 -10 -8 0 -15 5 -15 10 0 6 7
10 15 10 8 0 15 -4 15 -10z m70 0 c0 -5 -7 -10 -15 -10 -8 0 -15 5 -15 10 0 6
7 10 15 10 8 0 15 -4 15 -10z m1357 4 c-3 -3 -12 -4 -19 -1 -8 3 -5 6 6 6 11
1 17 -2 13 -5z m-1533 -53 c-8 -16 -22 -32 -31 -35 -14 -6 -14 -4 1 19 9 14
14 30 11 35 -10 17 5 32 20 20 11 -9 11 -16 -1 -39z m413 13 c3 -37 -22 -59
-52 -48 -14 6 -10 11 17 28 l33 21 -37 3 c-49 4 -49 27 0 28 35 2 37 0 39 -32z
m1070 30 c-3 -3 -12 -4 -19 -1 -8 3 -5 6 6 6 11 1 17 -2 13 -5z m-1596 -29 c5
4 8 -5 7 -19 -2 -27 -12 -33 -23 -16 -3 6 -1 10 5 10 6 0 8 5 5 10 -4 6 -11 8
-16 5 -5 -4 -9 4 -9 17 1 21 2 21 11 5 6 -9 14 -15 20 -12z m-172 -17 c-12
-22 -18 -20 -24 10 -3 15 1 19 16 15 15 -4 17 -9 8 -25z m391 22 c0 -5 -7 -10
-15 -10 -8 0 -15 5 -15 10 0 6 7 10 15 10 8 0 15 -4 15 -10z m70 0 c0 -5 -7
-10 -15 -10 -8 0 -15 5 -15 10 0 6 7 10 15 10 8 0 15 -4 15 -10z m-787 -26
l37 -6 0 -54 0 -54 -64 0 -65 0 -3 -42 -3 -43 -43 -1 -43 0 6 50 c9 80 27 150
39 158 10 7 42 5 139 -8z m-243 -13 c0 -11 -4 -31 -10 -46 -7 -19 -7 -24 1
-19 8 5 10 -1 5 -19 -5 -20 -2 -27 15 -32 11 -4 22 -5 23 -3 2 1 9 12 15 23
11 18 12 16 7 -14 -3 -18 -6 -45 -6 -58 l0 -25 -102 6 c-57 3 -103 5 -103 5 0
1 0 28 1 62 2 69 13 85 79 118 52 26 75 26 75 2z m80 -1 c0 -4 -5 -21 -11 -39
-8 -23 -17 -31 -34 -31 -27 0 -38 12 -29 33 3 10 12 13 22 10 14 -5 15 -3 5 8
-22 23 -15 36 17 31 17 -2 30 -8 30 -12z m880 10 c0 -5 -7 -10 -15 -10 -8 0
-15 5 -15 10 0 6 7 10 15 10 8 0 15 -4 15 -10z m70 0 c0 -5 -7 -10 -15 -10 -8
0 -15 5 -15 10 0 6 7 10 15 10 8 0 15 -4 15 -10z m-1362 -30 l23 -30 -40 0
c-34 0 -39 3 -34 18 6 15 23 42 27 42 1 0 12 -13 24 -30z m1038 4 c-4 -9 -9
-15 -11 -12 -3 3 -3 13 1 22 4 9 9 15 11 12 3 -3 3 -13 -1 -22z m-126 0 c0 -8
-5 -12 -10 -9 -6 4 -8 11 -5 16 9 14 15 11 15 -7z m380 -4 c0 -5 -7 -10 -15
-10 -8 0 -15 5 -15 10 0 6 7 10 15 10 8 0 15 -4 15 -10z m70 0 c0 -5 -7 -10
-15 -10 -8 0 -15 5 -15 10 0 6 7 10 15 10 8 0 15 -4 15 -10z m257 -25 c9 -22
8 -27 -7 -35 -24 -13 -57 -13 -65 0 -3 6 4 11 17 11 l23 2 -22 4 c-13 2 -23 8
-23 12 0 6 40 26 60 30 3 0 10 -10 17 -24z m1163 -5 c0 -23 -4 -30 -20 -30
-16 0 -20 7 -20 30 0 23 4 30 20 30 16 0 20 -7 20 -30z m-952 13 c-10 -2 -28
-2 -40 0 -13 2 -5 4 17 4 22 1 32 -1 23 -4z m862 -23 c0 -16 -4 -30 -10 -30
-5 0 -10 14 -10 30 0 17 5 30 10 30 6 0 10 -13 10 -30z m40 -35 c0 -37 -4 -65
-10 -65 -6 0 -9 19 -9 43 1 23 -1 52 -5 65 -6 16 -3 22 8 22 13 0 16 -13 16
-65z m-1440 45 c0 -5 -7 -10 -15 -10 -8 0 -15 5 -15 10 0 6 7 10 15 10 8 0 15
-4 15 -10z m70 0 c0 -5 -7 -10 -15 -10 -8 0 -15 5 -15 10 0 6 7 10 15 10 8 0
15 -4 15 -10z m1260 -20 c0 -18 -5 -30 -13 -30 -14 0 -19 23 -11 48 7 24 24
12 24 -18z m29 -35 c0 -36 -4 -65 -9 -65 -5 0 -9 29 -9 65 0 36 4 65 9 65 4 0
8 -29 9 -65z m-819 40 c0 -10 -10 -15 -30 -15 -20 0 -30 5 -30 15 0 10 10 15
30 15 20 0 30 -5 30 -15z m750 -10 c0 -14 -4 -25 -10 -25 -5 0 -10 11 -10 25
0 14 5 25 10 25 6 0 10 -11 10 -25z m-1055 5 c4 -6 -15 -10 -49 -10 -31 0 -56
5 -56 10 0 6 22 10 49 10 28 0 53 -4 56 -10z m-235 -10 c0 -5 -7 -10 -15 -10
-8 0 -15 5 -15 10 0 6 7 10 15 10 8 0 15 -4 15 -10z m70 0 c0 -5 -7 -10 -15
-10 -8 0 -15 5 -15 10 0 6 7 10 15 10 8 0 15 -4 15 -10z m1070 -15 c0 -14 -4
-25 -10 -25 -5 0 -10 11 -10 25 0 14 5 25 10 25 6 0 10 -11 10 -25z m17 -12
c-3 -10 -5 -4 -5 12 0 17 2 24 5 18 2 -7 2 -21 0 -30z m-77 1 c0 -14 -4 -23
-10 -19 -5 3 -10 15 -10 26 0 10 5 19 10 19 6 0 10 -12 10 -26z m30 6 c0 -11
-4 -20 -10 -20 -5 0 -10 9 -10 20 0 11 5 20 10 20 6 0 10 -9 10 -20z m-80 -10
c0 -11 -4 -20 -10 -20 -5 0 -10 9 -10 20 0 11 5 20 10 20 6 0 10 -9 10 -20z
m17 -12 c-3 -7 -5 -2 -5 12 0 14 2 19 5 13 2 -7 2 -19 0 -25z m443 -3 c0 -24
-5 -35 -15 -35 -8 0 -15 6 -16 13 0 6 -2 22 -5 35 -3 17 1 22 16 22 16 0 20
-7 20 -35z m-1495 15 c-3 -5 -10 -10 -16 -10 -5 0 -9 5 -9 10 0 6 7 10 16 10
8 0 12 -4 9 -10z m75 0 c0 -5 -7 -10 -15 -10 -8 0 -15 5 -15 10 0 6 7 10 15
10 8 0 15 -4 15 -10z m255 -10 c20 -22 41 -26 47 -10 2 6 15 -2 30 -17 l27
-28 -60 -3 c-48 -2 -66 1 -89 18 -40 28 -40 60 -2 60 16 0 37 -9 47 -20z m605
0 c0 -11 -4 -20 -10 -20 -5 0 -10 9 -10 20 0 11 5 20 10 20 6 0 10 -9 10 -20z
m471 13 c5 -33 2 -57 -8 -60 -9 -3 -13 7 -13 31 0 20 5 36 10 36 6 0 11 -3 11
-7z m-531 -23 c0 -11 -4 -20 -10 -20 -5 0 -10 9 -10 20 0 11 5 20 10 20 6 0
10 -9 10 -20z m30 0 c0 -11 -4 -20 -10 -20 -5 0 -10 9 -10 20 0 11 5 20 10 20
6 0 10 -9 10 -20z m389 -17 c0 -29 -2 -33 -8 -18 -7 18 -4 55 5 55 2 0 4 -17
3 -37z m41 7 c0 -16 -4 -30 -9 -30 -5 0 -11 14 -13 30 -3 20 0 30 9 30 8 0 13
-12 13 -30z m-2003 -34 c-4 -9 -24 -12 -64 -11 -49 2 -58 5 -58 21 0 13 8 19
27 21 15 1 35 6 44 11 20 11 59 -22 51 -42z m1480 22 c-3 -7 -5 -2 -5 12 0 14
2 19 5 13 2 -7 2 -19 0 -25z m30 10 c-3 -8 -6 -5 -6 6 -1 11 2 17 5 13 3 -3 4
-12 1 -19z m-50 -10 c-3 -8 -6 -5 -6 6 -1 11 2 17 5 13 3 -3 4 -12 1 -19z
m323 -8 c0 -16 -4 -30 -10 -30 -5 0 -10 14 -10 30 0 17 5 30 10 30 6 0 10 -13
10 -30z m30 0 c0 -16 -4 -30 -10 -30 -5 0 -10 14 -10 30 0 17 5 30 10 30 6 0
10 -13 10 -30z m22 -22 c-9 -9 -12 -4 -11 23 0 32 1 33 11 11 8 -17 8 -26 0
-34z m-1707 18 c0 -17 -7 -20 -55 -20 -42 -1 -55 2 -56 14 -1 27 7 31 59 28
44 -3 52 -6 52 -22z m1575 4 c0 -11 -4 -20 -10 -20 -5 0 -10 9 -10 20 0 11 5
20 10 20 6 0 10 -9 10 -20z m17 -12 c-3 -7 -5 -2 -5 12 0 14 2 19 5 13 2 -7 2
-19 0 -25z m33 10 c0 -16 -3 -19 -11 -11 -6 6 -8 16 -5 22 11 17 16 13 16 -11z
m-1020 -9 c0 -5 -49 -9 -110 -9 -61 0 -110 4 -110 9 0 13 32 16 133 13 48 -2
87 -8 87 -13z m420 0 c0 -13 -13 -11 -35 5 -18 13 -18 14 8 9 15 -3 27 -9 27
-14z m450 6 c0 -8 -4 -15 -10 -15 -5 0 -10 7 -10 15 0 8 5 15 10 15 6 0 10 -7
10 -15z m-665 -5 c4 -6 -25 -10 -79 -10 -51 0 -86 4 -86 10 0 6 33 10 79 10
44 0 83 -4 86 -10z m445 0 c0 -6 -40 -10 -100 -10 -60 0 -100 4 -100 10 0 6
40 10 100 10 60 0 100 -4 100 -10z m130 0 c0 -5 -5 -10 -11 -10 -5 0 -7 5 -4
10 3 6 8 10 11 10 2 0 4 -4 4 -10z m30 0 c0 -5 -4 -10 -10 -10 -5 0 -10 5 -10
10 0 6 5 10 10 10 6 0 10 -4 10 -10z m30 0 c0 -5 -4 -10 -10 -10 -5 0 -10 5
-10 10 0 6 5 10 10 10 6 0 10 -4 10 -10z m-2065 -10 c-3 -5 -14 -10 -23 -9
-14 0 -13 2 3 9 27 11 27 11 20 0z m2605 -30 c0 -22 -4 -40 -10 -40 -5 0 -10
18 -10 40 0 22 5 40 10 40 6 0 10 -18 10 -40z m50 0 c0 -29 -4 -40 -15 -40
-11 0 -15 11 -15 40 0 29 4 40 15 40 11 0 15 -11 15 -40z m-160 -5 c0 -19 -4
-35 -10 -35 -5 0 -10 16 -10 35 0 19 5 35 10 35 6 0 10 -16 10 -35z m30 0 c0
-19 -4 -35 -10 -35 -5 0 -10 16 -10 35 0 19 5 35 10 35 6 0 10 -16 10 -35z
m50 0 c0 -24 -5 -35 -15 -35 -10 0 -15 11 -15 35 0 24 5 35 15 35 10 0 15 -11
15 -35z m-120 -39 c-7 -7 -10 4 -9 30 1 39 1 39 10 9 5 -18 5 -33 -1 -39z
m-358 -11 c-27 -54 -42 -68 -42 -40 0 8 5 15 10 15 6 0 9 3 8 8 -1 4 4 24 11
44 8 25 17 35 26 32 11 -5 9 -17 -13 -59z m175 18 c-3 -10 -5 -2 -5 17 0 19 2
27 5 18 2 -10 2 -26 0 -35z m33 17 c0 -16 -4 -30 -10 -30 -5 0 -10 14 -10 30
0 17 5 30 10 30 6 0 10 -13 10 -30z m28 0 c1 -16 -2 -30 -8 -30 -5 0 -10 14
-10 30 0 17 4 30 8 30 4 0 9 -13 10 -30z m-2503 -40 c0 -42 -2 -45 -27 -48
-27 -3 -28 -1 -28 41 0 50 6 59 35 55 17 -3 20 -10 20 -48z m63 32 c2 -7 -5
-12 -15 -12 -15 0 -15 -2 -4 -9 12 -8 12 -12 2 -25 -11 -13 -11 -16 3 -16 9 0
16 -4 16 -10 0 -5 -11 -10 -25 -10 -23 0 -25 4 -25 44 0 42 11 58 34 52 6 -1
12 -8 14 -14z m57 11 c15 -5 15 -8 -6 -24 -24 -18 -24 -18 -1 -12 23 6 29 -8
16 -41 -12 -31 -64 -12 -64 24 0 14 26 60 35 60 2 0 11 -3 20 -7z m435 -8 c10
-12 9 -15 -6 -15 -17 0 -17 0 0 -13 25 -19 13 -59 -17 -55 -11 2 -23 9 -25 17
-3 10 0 12 12 8 9 -4 16 -2 16 2 0 5 -7 11 -15 15 -18 7 -19 28 -3 44 16 16
23 15 38 -3z m66 -21 l7 -37 13 32 c15 35 40 49 57 32 9 -9 6 -13 -10 -17 -23
-6 -37 -29 -27 -45 10 -17 25 -9 19 11 -5 14 -2 20 10 20 28 0 15 -54 -14 -58
-13 -2 -28 2 -32 10 -5 7 -9 8 -9 3 0 -6 -16 -11 -35 -11 -19 0 -35 1 -35 1 0
15 34 95 40 95 5 0 12 -16 16 -36z m149 -19 c7 -39 6 -40 -24 -40 -35 0 -38 9
-16 62 18 43 31 36 40 -22z m103 43 c15 -15 15 -61 0 -76 -18 -18 -48 -15 -50
6 -2 31 2 55 13 69 14 16 22 16 37 1z m72 3 c0 -5 -7 -12 -17 -15 -14 -6 -14
-8 -1 -19 13 -10 11 -15 -9 -36 l-23 -24 0 45 c0 24 3 48 7 51 10 10 43 8 43
-2z m135 -1 c3 -6 -1 -13 -9 -16 -9 -3 -16 -16 -16 -28 0 -11 -5 -28 -10 -36
-7 -11 -10 -5 -10 23 0 24 -5 37 -13 37 -8 0 -14 7 -14 15 0 17 62 22 72 5z
m55 -5 c0 -8 7 -15 15 -15 8 0 15 7 15 15 0 8 5 15 10 15 7 0 9 -16 6 -41 -5
-41 -16 -66 -16 -37 0 25 -31 32 -37 8 -9 -36 -21 -21 -19 25 0 29 5 45 13 45
7 0 13 -7 13 -15z m138 -8 c7 -34 -7 -67 -28 -67 -27 0 -44 43 -29 71 13 25
52 22 57 -4z m108 8 c4 -8 1 -21 -5 -29 -6 -7 -8 -21 -5 -31 6 -15 5 -16 -16
-3 -18 10 -24 10 -27 1 -9 -24 -22 -13 -18 15 2 15 4 35 4 45 1 22 59 24 67 2z
m75 -78 c-8 -8 -11 2 -11 34 0 59 14 73 18 19 2 -24 -2 -48 -7 -53z m207 87
c12 -4 22 -13 22 -20 0 -22 18 -17 25 7 12 38 25 5 16 -41 -6 -33 -10 -40 -16
-27 -9 21 -25 23 -25 2 0 -8 -4 -15 -10 -15 -5 0 -10 16 -10 35 0 19 -4 35 -9
35 -11 0 -21 -25 -21 -51 0 -10 -4 -19 -10 -19 -5 0 -10 15 -10 34 0 19 -5 38
-10 41 -6 4 -8 11 -5 16 7 10 30 11 63 3z m103 -42 c-4 -56 -21 -64 -21 -11 0
44 7 65 19 53 3 -3 4 -22 2 -42z m77 29 c3 -10 0 -12 -12 -8 -9 4 -16 2 -16
-2 0 -5 7 -11 15 -15 20 -7 19 -30 -1 -47 -10 -8 -21 -10 -31 -3 -21 13 -16
29 10 27 l22 -3 -22 10 c-25 10 -29 30 -11 48 16 16 40 12 46 -7z m92 -26 c0
-31 -14 -54 -27 -42 -9 9 8 87 18 81 5 -3 9 -20 9 -39z m68 28 c2 -7 -4 -13
-14 -13 -16 0 -16 -1 2 -14 15 -12 17 -18 8 -33 -13 -21 -45 -24 -51 -5 -3 7
5 12 19 13 l23 0 -22 9 c-25 10 -29 30 -11 48 15 15 40 12 46 -5z m56 11 c20
-8 21 -22 1 -26 -13 -2 -12 -6 5 -16 18 -11 20 -10 20 13 0 14 5 25 10 25 6 0
10 -13 10 -30 0 -16 5 -30 10 -30 6 0 10 13 10 29 0 17 5 33 11 36 7 5 9 -7 7
-36 -4 -50 -31 -75 -52 -47 -11 16 -14 16 -29 1 -8 -9 -23 -13 -31 -10 -24 9
-19 27 7 28 l22 0 -22 9 c-25 10 -30 29 -11 48 14 14 12 14 32 6z m154 -11 c2
-7 -3 -13 -12 -13 -10 0 -13 -6 -10 -15 4 -8 1 -15 -5 -15 -21 0 -11 -19 12
-23 19 -3 20 -4 5 -11 -40 -18 -62 25 -42 79 7 18 45 17 52 -2z m-2048 -38 c0
-25 -4 -45 -10 -45 -5 0 -10 20 -10 45 0 25 5 45 10 45 6 0 10 -20 10 -45z
m38 33 c10 -10 15 -10 22 2 15 24 21 6 14 -39 -7 -46 -16 -51 -32 -18 l-11 22
0 -22 c-2 -44 -21 -23 -21 22 0 46 7 54 28 33z m163 -12 c0 -20 1 -20 9 2 10
24 29 30 31 10 0 -10 2 -10 6 0 2 6 17 12 31 12 25 -1 26 -2 9 -14 -13 -10
-15 -16 -7 -21 9 -6 9 -10 -1 -16 -11 -7 -10 -11 6 -23 19 -15 19 -15 -12 -16
-30 0 -33 3 -35 33 l-1 32 -4 -32 c-4 -34 -23 -46 -23 -15 -1 16 -1 16 -11 0
-17 -30 -31 -21 -27 17 2 22 0 34 -6 32 -6 -2 -12 -18 -14 -35 -4 -43 -22 -41
-22 3 0 19 -4 35 -10 35 -5 0 -10 5 -10 10 0 6 20 9 45 8 38 -1 45 -4 46 -22z
m1144 2 l8 -23 4 23 c7 37 23 25 23 -17 0 -44 -18 -64 -34 -39 -9 15 -11 15
-23 0 -11 -15 -12 -10 -13 31 0 51 21 66 35 25z m1155 -43 c0 -19 -4 -35 -10
-35 -5 0 -10 16 -10 35 0 19 5 35 10 35 6 0 10 -16 10 -35z m40 0 c0 -24 -5
-35 -15 -35 -10 0 -15 11 -15 35 0 24 5 35 15 35 10 0 15 -11 15 -35z m40 0
c0 -24 -5 -35 -15 -35 -10 0 -15 11 -15 35 0 24 5 35 15 35 10 0 15 -11 15
-35z m36 11 c6 -26 -1 -46 -17 -46 -5 0 -9 16 -9 35 0 40 17 47 26 11z m44 -6
c0 -20 -5 -30 -15 -30 -10 0 -15 10 -15 30 0 20 5 30 15 30 10 0 15 -10 15
-30z m-383 -32 c-2 -13 -4 -5 -4 17 -1 22 1 32 4 23 2 -10 2 -28 0 -40z m33
17 c0 -19 -4 -35 -10 -35 -5 0 -10 16 -10 35 0 19 5 35 10 35 6 0 10 -16 10
-35z m30 6 c0 -17 -4 -33 -10 -36 -6 -4 -10 8 -10 29 0 20 5 36 10 36 6 0 10
-13 10 -29z m130 -1 c0 -16 -4 -30 -10 -30 -5 0 -10 14 -10 30 0 17 5 30 10
30 6 0 10 -13 10 -30z m0 -75 c0 -19 -4 -35 -10 -35 -5 0 -10 16 -10 35 0 19
5 35 10 35 6 0 10 -16 10 -35z m30 0 c0 -19 -4 -35 -10 -35 -5 0 -10 16 -10
35 0 19 5 35 10 35 6 0 10 -16 10 -35z m40 0 c0 -24 -5 -35 -15 -35 -10 0 -15
11 -15 35 0 24 5 35 15 35 10 0 15 -11 15 -35z m40 0 c0 -24 -5 -35 -15 -35
-10 0 -15 11 -15 35 0 24 5 35 15 35 10 0 15 -11 15 -35z m40 0 c0 -24 -5 -35
-15 -35 -10 0 -15 11 -15 35 0 24 5 35 15 35 10 0 15 -11 15 -35z m40 0 c0
-24 -5 -35 -15 -35 -10 0 -15 11 -15 35 0 24 5 35 15 35 10 0 15 -11 15 -35z
m-383 -12 c-3 -10 -5 -4 -5 12 0 17 2 24 5 18 2 -7 2 -21 0 -30z m33 12 c0
-14 -4 -25 -10 -25 -5 0 -10 11 -10 25 0 14 5 25 10 25 6 0 10 -11 10 -25z
m30 0 c0 -14 -4 -25 -10 -25 -5 0 -10 11 -10 25 0 14 5 25 10 25 6 0 10 -11
10 -25z m-2350 -10 c0 -12 -15 -15 -75 -15 -60 0 -75 3 -75 15 0 12 15 15 75
15 60 0 75 -3 75 -15z m158 -27 l3 -38 -75 0 -76 0 0 40 0 41 73 -3 72 -3 3
-37z m160 30 c-3 -9 -30 -14 -76 -16 -60 -2 -72 0 -72 13 0 12 14 15 76 15 56
0 75 -3 72 -12z m140 -28 l3 -40 -66 0 -65 0 0 40 0 40 63 0 63 0 2 -40z m142
25 c0 -12 -14 -15 -65 -15 -51 0 -65 3 -65 15 0 12 14 15 65 15 51 0 65 -3 65
-15z m130 -23 l0 -39 -55 -2 -55 -2 0 41 0 40 55 0 55 0 0 -38z m148 26 c-3
-8 -29 -14 -71 -16 -55 -2 -67 0 -67 13 0 12 14 15 71 15 52 0 70 -3 67 -12z
m112 -28 l0 -40 -50 0 -50 0 0 40 0 40 50 0 50 0 0 -40z m120 27 c0 -9 -17
-13 -55 -14 -42 -1 -55 2 -55 13 0 10 14 14 55 14 38 0 55 -4 55 -13z m140
-27 l0 -40 -62 0 -63 0 2 32 c1 18 2 36 2 41 1 4 28 7 61 7 l60 0 0 -40z m270
-1 l0 -39 -59 0 c-57 0 -60 1 -63 27 -3 26 -4 27 -70 24 -55 -2 -68 0 -68 13
0 13 20 15 130 15 l130 0 0 -40z m135 26 c0 -5 -28 -11 -62 -13 -52 -2 -63 0
-63 13 0 13 11 15 63 13 34 -2 62 -7 62 -13z m133 -22 l-3 -38 -57 -3 -58 -3
0 41 0 40 61 0 60 0 -3 -37z m142 27 c0 -6 -28 -10 -65 -10 -37 0 -65 4 -65
10 0 6 28 10 65 10 37 0 65 -4 65 -10z m110 -30 l0 -40 -49 0 -50 0 1 40 0 40
49 0 49 0 0 -40z m130 30 c0 -6 -27 -10 -60 -10 -33 0 -60 4 -60 10 0 6 27 10
60 10 33 0 60 -4 60 -10z m90 -30 l0 -40 -40 0 -40 0 0 40 0 40 40 0 40 0 0
-40z m-2380 -25 c0 -8 -7 -15 -15 -15 -8 0 -15 7 -15 15 0 8 7 15 15 15 8 0
15 -7 15 -15z m60 0 c0 -9 -9 -15 -25 -15 -16 0 -25 6 -25 15 0 9 9 15 25 15
16 0 25 -6 25 -15z m60 0 c0 -9 -9 -15 -25 -15 -18 0 -23 4 -19 15 4 8 15 15
25 15 10 0 19 -7 19 -15z m190 0 c0 -8 -4 -15 -10 -15 -5 0 -10 7 -10 15 0 8
5 15 10 15 6 0 10 -7 10 -15z m74 0 c-4 -8 -17 -15 -30 -15 -15 0 -24 6 -24
15 0 10 10 15 30 15 22 0 28 -4 24 -15z m56 0 c0 -8 -9 -15 -20 -15 -11 0 -20
7 -20 15 0 8 9 15 20 15 11 0 20 -7 20 -15z m170 0 c0 -8 -4 -15 -10 -15 -5 0
-10 7 -10 15 0 8 5 15 10 15 6 0 10 -7 10 -15z m60 0 c0 -8 -9 -15 -20 -15
-11 0 -20 7 -20 15 0 8 9 15 20 15 11 0 20 -7 20 -15z m53 0 c1 -5 -6 -11 -15
-13 -11 -2 -18 3 -18 13 0 17 30 18 33 0z m157 0 c0 -8 -4 -15 -10 -15 -5 0
-10 7 -10 15 0 8 5 15 10 15 6 0 10 -7 10 -15z m70 0 c0 -10 -10 -15 -30 -15
-20 0 -30 5 -30 15 0 10 10 15 30 15 20 0 30 -5 30 -15z m50 0 c0 -8 -7 -15
-15 -15 -8 0 -15 7 -15 15 0 8 7 15 15 15 8 0 15 -7 15 -15z m127 -7 c-3 -8
-6 -5 -6 6 -1 11 2 17 5 13 3 -3 4 -12 1 -19z m73 7 c0 -9 -9 -15 -25 -15 -16
0 -25 6 -25 15 0 9 9 15 25 15 16 0 25 -6 25 -15z m30 0 c0 -8 -4 -15 -10 -15
-5 0 -10 7 -10 15 0 8 5 15 10 15 6 0 10 -7 10 -15z m170 0 c0 -8 -4 -15 -10
-15 -5 0 -10 7 -10 15 0 8 5 15 10 15 6 0 10 -7 10 -15z m60 0 c0 -8 -9 -15
-20 -15 -11 0 -20 7 -20 15 0 8 9 15 20 15 11 0 20 -7 20 -15z m40 -1 c0 -17
-22 -14 -28 4 -2 7 3 12 12 12 9 0 16 -7 16 -16z m170 1 c0 -8 -4 -15 -10 -15
-5 0 -10 7 -10 15 0 8 5 15 10 15 6 0 10 -7 10 -15z m60 0 c0 -9 -9 -15 -25
-15 -16 0 -25 6 -25 15 0 9 9 15 25 15 16 0 25 -6 25 -15z m44 0 c-4 -8 -10
-15 -15 -15 -5 0 -9 7 -9 15 0 8 7 15 15 15 9 0 12 -6 9 -15z m166 6 c0 -6 -4
-13 -10 -16 -5 -3 -10 1 -10 9 0 9 5 16 10 16 6 0 10 -4 10 -9z m70 -7 c0 -10
-7 -14 -22 -12 -32 5 -35 28 -4 28 17 0 26 -5 26 -16z m40 0 c0 -17 -22 -14
-28 4 -2 7 3 12 12 12 9 0 16 -7 16 -16z m140 1 c0 -8 -4 -15 -10 -15 -5 0
-10 7 -10 15 0 8 5 15 10 15 6 0 10 -7 10 -15z m58 3 c-7 -19 -38 -22 -38 -4
0 10 9 16 21 16 12 0 19 -5 17 -12z m40 0 c-6 -18 -28 -21 -28 -4 0 9 7 16 16
16 9 0 14 -5 12 -12z m312 -3 c0 -8 -4 -15 -10 -15 -5 0 -10 7 -10 15 0 8 5
15 10 15 6 0 10 -7 10 -15z m27 -32 c-4 -17 -4 -17 -12 0 -4 9 -4 25 0 35 8
16 8 16 12 0 3 -10 3 -26 0 -35z m43 1 c0 -59 -24 -55 -28 4 -2 33 0 42 12 42
12 0 16 -11 16 -46z m40 1 c0 -33 -4 -45 -15 -45 -11 0 -15 12 -15 45 0 33 4
45 15 45 11 0 15 -12 15 -45z m40 0 c0 -33 -4 -45 -15 -45 -11 0 -15 12 -15
45 0 33 4 45 15 45 11 0 15 -12 15 -45z m40 0 c0 -33 -4 -45 -15 -45 -11 0
-15 12 -15 45 0 33 4 45 15 45 11 0 15 -12 15 -45z m-2710 -15 c0 -18 -7 -20
-89 -20 -80 0 -89 2 -94 20 -5 19 0 20 89 20 87 0 94 -1 94 -20z m200 1 c0
-18 -8 -19 -90 -19 -82 0 -90 2 -90 19 0 17 8 19 90 19 82 0 90 -2 90 -19z
m190 0 c0 -18 -8 -19 -85 -20 -78 -1 -85 1 -85 19 0 18 7 20 85 20 77 0 85 -2
85 -19z m220 -1 c0 -19 -7 -20 -100 -20 -93 0 -100 1 -100 20 0 19 7 20 100
20 93 0 100 -1 100 -20z m200 2 c0 -16 -11 -18 -90 -20 -84 -2 -90 -1 -90 18
0 19 7 20 90 20 80 0 90 -2 90 -18z m180 -2 c0 -18 -7 -20 -80 -20 -73 0 -80
2 -80 20 0 18 7 20 80 20 73 0 80 -2 80 -20z m180 1 c0 -24 -14 -27 -96 -23
-55 3 -64 6 -64 23 0 17 8 19 80 19 72 0 80 -2 80 -19z m168 2 c-3 -15 -16
-19 -76 -21 -67 -3 -72 -2 -72 17 0 19 6 21 76 21 66 0 75 -2 72 -17z m152 -3
c0 -18 -7 -20 -70 -20 -63 0 -70 2 -70 20 0 18 7 20 70 20 63 0 70 -2 70 -20z
m160 0 c0 -18 -7 -20 -70 -20 -63 0 -70 2 -70 20 0 18 7 20 70 20 63 0 70 -2
70 -20z m160 0 c0 -18 -7 -20 -70 -20 -63 0 -70 2 -70 20 0 18 7 20 70 20 63
0 70 -2 70 -20z m160 0 c0 -18 -7 -20 -70 -20 -63 0 -70 2 -70 20 0 18 7 20
70 20 63 0 70 -2 70 -20z m150 3 c0 -15 -11 -19 -65 -21 -60 -3 -65 -2 -65 17
0 19 6 21 65 21 55 0 65 -3 65 -17z m180 -8 c0 -22 -4 -25 -40 -25 -34 0 -40
3 -41 23 -1 16 -2 18 -6 5 -3 -13 -15 -18 -39 -18 -27 0 -34 4 -34 20 0 18 7
20 80 20 79 0 80 0 80 -25z"/>
<path d="M2605 3150 c-3 -5 1 -10 9 -10 9 0 16 5 16 10 0 6 -4 10 -9 10 -6 0
-13 -4 -16 -10z"/>
<path d="M1466 3001 c-4 -5 3 -7 14 -4 23 6 26 13 6 13 -8 0 -17 -4 -20 -9z"/>
<path d="M1202 2931 c-11 -7 -10 -10 3 -15 25 -9 32 -7 15 5 -12 9 -11 10 8 6
12 -3 20 -1 16 4 -7 11 -25 11 -42 0z"/>
<path d="M1250 2905 c-7 -9 -8 -15 -2 -15 5 0 12 7 16 15 3 8 4 15 2 15 -2 0
-9 -7 -16 -15z"/>
<path d="M1205 2890 c-3 -5 -1 -10 4 -10 6 0 11 5 11 10 0 6 -2 10 -4 10 -3 0
-8 -4 -11 -10z"/>
<path d="M2510 2840 c-12 -8 -11 -10 8 -10 12 0 22 5 22 10 0 13 -11 13 -30 0z"/>
<path d="M2195 2810 c-3 -5 1 -10 9 -10 9 0 16 5 16 10 0 6 -4 10 -9 10 -6 0
-13 -4 -16 -10z"/>
<path d="M2048 2453 c6 -2 18 -2 25 0 6 3 1 5 -13 5 -14 0 -19 -2 -12 -5z"/>
<path d="M2028 2433 c7 -3 16 -2 19 1 4 3 -2 6 -13 5 -11 0 -14 -3 -6 -6z"/>
<path d="M2363 2072 c-7 -4 -9 -13 -4 -21 6 -10 10 -9 15 5 8 20 4 25 -11 16z"/>
<path d="M1160 1596 c0 -2 7 -9 15 -16 12 -10 15 -10 15 4 0 9 -7 16 -15 16
-8 0 -15 -2 -15 -4z"/>
<path d="M568 1373 c6 -2 18 -2 25 0 6 3 1 5 -13 5 -14 0 -19 -2 -12 -5z"/>
<path d="M2950 849 c0 -5 5 -7 10 -4 6 3 10 8 10 11 0 2 -4 4 -10 4 -5 0 -10
-5 -10 -11z"/>
<path d="M1308 393 c18 -2 45 -2 60 0 15 2 0 4 -33 4 -33 0 -45 -2 -27 -4z"/>
<path d="M439 393 c-5 -14 -8 -31 -5 -37 3 -7 5 -6 5 2 1 7 5 11 10 8 5 -4 20
-2 33 4 l23 10 -25 -3 c-20 -2 -25 2 -24 21 1 29 -4 28 -17 -5z"/>
<path d="M210 229 c0 -5 5 -7 10 -4 6 3 10 8 10 11 0 2 -4 4 -10 4 -5 0 -10
-5 -10 -11z"/>
<path d="M960 244 c0 -14 4 -23 10 -19 6 3 10 15 10 26 0 10 -4 19 -10 19 -5
0 -10 -12 -10 -26z"/>
<path d="M1343 254 c-7 -18 11 -39 26 -30 17 11 13 46 -4 46 -9 0 -18 -7 -22
-16z"/>
<path d="M1445 269 c-10 -15 1 -23 20 -15 9 3 13 10 10 16 -8 13 -22 13 -30
-1z"/>
<path d="M400 111 c0 -6 -8 -11 -17 -12 -10 0 -13 -3 -6 -5 18 -8 49 11 34 20
-6 4 -11 2 -11 -3z"/>
<path d="M936 105 c-3 -8 -1 -15 4 -15 6 0 10 7 10 15 0 8 -2 15 -4 15 -2 0
-6 -7 -10 -15z"/>
<path d="M2480 109 c0 -5 5 -7 10 -4 6 3 10 8 10 11 0 2 -4 4 -10 4 -5 0 -10
-5 -10 -11z"/>
<path d="M1318 33 c7 -3 16 -2 19 1 4 3 -2 6 -13 5 -11 0 -14 -3 -6 -6z"/>
<path d="M1723 3993 c-13 -2 -24 -11 -24 -19 -2 -16 -5 -33 -9 -36 -1 -2 -3
-10 -5 -19 -1 -9 -6 -26 -10 -38 -4 -13 -2 -21 5 -21 17 0 10 -26 -53 -180
-30 -74 -67 -172 -80 -218 -25 -82 -26 -83 -6 -103 15 -15 33 -19 87 -19 62 0
173 14 214 26 22 7 12 34 -12 34 -27 0 -34 17 -10 25 25 8 26 21 3 34 -15 9
-16 12 -4 20 27 17 1 30 -49 24 -28 -3 -50 -3 -50 0 0 4 7 25 16 47 16 41 24
45 107 52 15 2 28 8 29 13 0 6 8 15 16 21 11 8 12 13 4 18 -19 12 -14 24 16
40 23 12 25 15 10 21 -10 4 -18 16 -18 26 0 15 -7 19 -40 19 -22 0 -40 2 -40
5 0 3 9 23 20 44 22 43 35 51 90 51 40 0 55 17 45 50 -4 12 1 19 15 23 27 7
25 23 -2 32 -14 4 -18 8 -10 12 6 2 12 9 12 14 0 9 -223 11 -267 2z"/>
<path d="M2797 3874 c-3 -4 1 -13 9 -21 19 -20 26 -13 10 9 -7 10 -16 15 -19
12z"/>
<path d="M2837 3873 c-3 -5 -1 -17 4 -28 7 -17 8 -17 8 8 1 27 -4 34 -12 20z"/>
<path d="M2806 3811 c-3 -5 2 -15 12 -22 15 -13 16 -12 4 3 -10 13 -10 17 0
21 9 4 9 6 1 6 -6 1 -14 -3 -17 -8z"/>
<path d="M2763 3592 c-17 -11 -11 -77 7 -77 10 0 16 12 17 37 2 39 -5 51 -24
40z"/>
<path d="M2805 3589 c-4 -6 -4 -14 1 -18 13 -9 17 -44 5 -36 -6 3 -11 -1 -11
-9 0 -16 29 -23 31 -8 0 4 2 19 4 34 4 30 -18 57 -30 37z"/>
<path d="M2726 3484 c-8 -22 -9 -21 15 -27 15 -4 19 -2 15 10 -3 8 -6 19 -6
24 0 15 -17 10 -24 -7z"/>
<path d="M2771 3479 c-1 -25 1 -27 48 -26 47 1 48 2 38 24 -11 25 -22 29 -33
11 -4 -7 -3 -8 4 -4 8 4 12 0 12 -11 -1 -15 -4 -15 -21 6 l-20 24 -6 -24 -7
-24 -7 25 -7 25 -1 -26z"/>
<path d="M330 3305 c-17 -18 -29 -22 -58 -18 -29 4 -41 0 -56 -16 -24 -26 -31
-26 -68 1 -17 11 -45 23 -63 25 l-33 3 -7 -70 c-6 -58 -10 -70 -25 -70 -16 0
-17 -16 -19 -199 -1 -135 2 -201 9 -206 8 -5 8 -11 0 -20 -6 -8 -10 -29 -8
-47 3 -35 5 -36 71 -23 31 6 37 4 37 -10 0 -13 8 -16 37 -13 35 3 38 1 52 -37
18 -51 18 -50 34 -37 8 7 17 9 21 5 3 -4 22 9 42 28 22 21 38 30 42 23 14 -22
51 -22 77 -2 15 11 28 19 29 17 2 -2 14 -24 26 -48 19 -37 24 -42 32 -28 5 10
13 15 17 12 5 -2 21 14 35 36 19 28 31 38 39 31 15 -11 48 -12 63 -1 6 5 20
-11 37 -44 19 -38 28 -47 32 -35 4 9 12 15 20 12 7 -3 15 4 18 18 4 13 12 31
20 42 13 18 15 18 40 2 30 -21 55 -11 77 28 7 14 19 26 26 26 7 0 14 10 16 22
2 16 13 25 39 33 20 5 43 16 52 24 15 12 15 16 1 44 -15 28 -15 33 0 58 14 23
14 32 4 48 -10 16 -7 25 18 58 37 48 38 71 7 104 -14 16 -20 29 -14 33 17 11
7 48 -16 59 -26 12 -27 17 -12 70 8 30 7 40 -5 53 -14 14 -22 13 -76 -12 l-60
-27 -18 23 c-25 31 -50 33 -85 8 l-30 -21 -26 29 c-35 39 -65 39 -119 3 -32
-21 -48 -27 -55 -20 -17 17 -42 13 -71 -10 l-28 -22 -28 35 c-38 46 -63 52
-90 23z m58 -157 c2 -11 -3 -18 -12 -18 -10 0 -13 -6 -9 -16 5 -14 3 -15 -15
-5 -15 8 -22 8 -26 -2 -3 -6 -4 0 -1 16 7 36 -21 37 -37 2 -6 -14 -15 -25 -20
-25 -11 0 -10 17 2 25 14 9 12 25 -3 25 -8 0 -20 -11 -27 -25 -16 -29 -25 -32
-35 -7 -6 16 -7 16 -16 0 -6 -10 -15 -18 -20 -18 -6 0 0 14 12 31 20 29 24 30
34 15 11 -14 13 -14 18 -2 6 15 43 22 112 21 30 0 41 -4 43 -17z m70 9 c16
-19 -14 -59 -41 -55 -29 4 -32 23 -8 47 24 24 34 26 49 8z m148 -32 c-17 -25
-66 -36 -66 -14 0 17 20 49 31 49 6 0 6 -7 -1 -19 -13 -26 -13 -31 4 -25 7 3
19 17 26 32 8 16 14 22 17 14 3 -7 -2 -24 -11 -37z m79 36 c3 -5 -5 -11 -17
-13 -25 -4 -37 -28 -13 -28 9 0 13 -4 10 -10 -9 -15 -35 -12 -42 5 -11 29 46
71 62 46z m25 -31 c-7 -16 -16 -30 -21 -30 -13 0 -11 8 8 41 21 36 30 29 13
-11z m-547 0 c-9 -16 -21 -30 -25 -30 -12 0 -10 8 8 35 23 36 39 31 17 -5z
m377 16 c0 -8 -10 -22 -22 -30 -27 -19 -62 -21 -54 -3 3 6 9 20 12 30 8 21 64
24 64 3z m220 -3 c1 -16 2 -16 15 1 22 29 29 12 9 -19 -16 -25 -19 -26 -31
-10 -11 17 -13 17 -19 2 -3 -10 -10 -17 -15 -17 -5 0 -3 14 6 30 17 33 35 39
35 13z m81 4 c-26 -13 -40 -37 -22 -37 6 0 10 5 9 12 -2 6 5 14 15 16 11 2 17
-3 17 -13 0 -9 5 -13 10 -10 6 3 10 2 10 -2 0 -12 -78 -14 -86 -2 -9 15 26 49
50 49 20 0 19 -1 -3 -13z m69 -37 c0 -5 -5 -10 -11 -10 -5 0 -7 5 -4 10 3 6 8
10 11 10 2 0 4 -4 4 -10z m30 0 c0 -5 -5 -10 -11 -10 -5 0 -7 5 -4 10 3 6 8
10 11 10 2 0 4 -4 4 -10z m-760 -37 c-1 -14 -60 -67 -66 -60 -4 4 -2 13 4 20
7 8 9 17 6 20 -3 3 -3 10 1 16 7 12 55 15 55 4z m45 -13 c27 23 34 5 10 -25
-19 -23 -26 -27 -34 -16 -6 9 -11 10 -15 2 -8 -13 -26 -15 -26 -2 0 4 10 21
22 37 19 24 23 25 26 11 3 -14 7 -16 17 -7z m86 -25 c-11 -23 -23 -34 -37 -35
-31 0 -35 10 -17 41 12 20 25 29 44 29 l26 0 -16 -35z m99 23 c0 -9 3 -9 12 0
11 11 48 17 48 7 0 -2 -5 -15 -11 -29 -9 -18 -19 -24 -40 -24 -16 1 -29 6 -29
11 0 6 -9 2 -20 -8 -24 -22 -27 -4 -4 30 17 26 44 34 44 13z m100 2 c0 -7 6
-7 19 0 30 15 48 12 54 -10 3 -13 -2 -25 -16 -35 -30 -21 -46 -19 -56 7 l-8
22 -12 -22 c-7 -12 -16 -20 -21 -17 -6 4 -4 18 5 36 15 28 35 39 35 19z m125
0 c-3 -5 -2 -10 4 -10 5 0 12 4 15 8 7 12 96 14 96 2 0 -5 -6 -10 -13 -10 -8
0 -20 -11 -27 -25 -15 -27 -36 -35 -26 -9 12 31 -7 36 -30 8 -13 -16 -23 -23
-24 -16 0 8 -8 10 -25 6 l-25 -6 17 31 c10 17 24 31 31 31 7 0 10 -4 7 -10z
m145 0 c0 -6 8 -5 20 2 35 22 35 -2 -1 -32 -38 -33 -54 -38 -45 -14 3 9 6 24
6 35 0 10 5 19 10 19 6 0 10 -5 10 -10z m146 -131 c-23 -65 -46 -79 -42 -26 2
17 4 46 5 63 1 28 4 30 30 26 l29 -4 -22 -59z m-706 10 c0 -22 -5 -29 -19 -29
-23 0 -31 -20 -29 -78 1 -50 -3 -56 -31 -47 -18 5 -21 14 -21 66 0 56 -1 59
-25 59 -21 0 -25 5 -25 29 0 27 3 30 38 33 20 2 54 1 75 -1 33 -3 37 -6 37
-32z m200 -41 c-1 -40 -1 -83 -1 -95 1 -18 -5 -23 -23 -23 -21 0 -24 4 -23 33
2 28 -1 32 -27 35 -31 4 -49 -13 -40 -40 6 -19 -8 -30 -29 -22 -12 4 -16 25
-16 95 l-1 89 30 0 c25 0 30 -4 30 -24 0 -28 17 -37 43 -24 12 6 16 16 12 28
-4 14 0 19 17 22 13 2 25 3 26 2 2 -2 3 -35 2 -76z m176 59 c68 -59 -1 -199
-85 -172 -27 8 -46 53 -45 103 2 80 73 118 130 69z m187 12 c23 -6 37 -16 38
-27 3 -43 -4 -68 -22 -81 -23 -16 -24 -34 -4 -51 19 -15 19 -26 2 -33 -8 -3
-29 8 -47 23 -36 31 -50 31 -50 0 0 -13 -7 -18 -20 -17 -19 1 -20 7 -18 94 l2
92 31 4 c16 2 35 4 40 5 6 1 27 -3 48 -9z m115 -167 c5 -17 -27 -27 -41 -13
-9 9 -8 14 3 21 18 11 32 8 38 -8z"/>
<path d="M358 3143 c7 -3 16 -2 19 1 4 3 -2 6 -13 5 -11 0 -14 -3 -6 -6z"/>
<path d="M420 3135 c-7 -9 -10 -18 -7 -22 8 -7 37 15 37 28 0 14 -16 11 -30
-6z"/>
<path d="M495 3139 c-4 -6 -5 -13 -2 -16 7 -7 27 6 27 18 0 12 -17 12 -25 -2z"/>
<path d="M535 3030 c3 -5 8 -10 11 -10 2 0 4 5 4 10 0 6 -5 10 -11 10 -5 0 -7
-4 -4 -10z"/>
<path d="M527 2909 c-20 -11 -23 -49 -5 -67 16 -16 23 -15 42 4 34 33 3 85
-37 63z"/>
<path d="M714 2905 c-8 -21 2 -45 19 -45 20 0 40 27 33 45 -7 19 -45 20 -52 0z"/>
<path d="M1318 3083 c7 -3 16 -2 19 1 4 3 -2 6 -13 5 -11 0 -14 -3 -6 -6z"/>
<path d="M1840 3026 c0 -2 8 -10 18 -17 15 -13 16 -12 3 4 -13 16 -21 21 -21
13z"/>
<path d="M1735 2970 c-3 -5 -1 -10 4 -10 6 0 11 5 11 10 0 6 -2 10 -4 10 -3 0
-8 -4 -11 -10z"/>
<path d="M1649 2923 c-13 -16 -12 -17 4 -4 9 7 17 15 17 17 0 8 -8 3 -21 -13z"/>
<path d="M2881 2793 c-62 -79 -111 -146 -109 -148 2 -2 55 61 117 141 62 80
111 147 109 149 -1 1 -54 -62 -117 -142z"/>
<path d="M1869 2873 c-13 -16 -12 -17 4 -4 9 7 17 15 17 17 0 8 -8 3 -21 -13z"/>
<path d="M2877 2658 c-63 -68 -113 -125 -111 -127 2 -3 18 11 35 30 16 19 69
73 116 122 47 48 84 89 81 92 -3 3 -57 -50 -121 -117z"/>
<path d="M1228 2343 c7 -3 16 -2 19 1 4 3 -2 6 -13 5 -11 0 -14 -3 -6 -6z"/>
<path d="M1270 2277 c0 -10 -16 -31 -35 -48 -19 -17 -35 -40 -35 -50 0 -10 -5
-19 -11 -19 -6 0 -3 -7 5 -16 9 -8 16 -22 16 -30 0 -8 5 -14 11 -14 5 0 7 -4
4 -10 -3 -6 1 -7 10 -4 12 5 13 10 4 20 -19 24 -6 58 31 76 22 12 38 14 44 8
13 -13 52 -13 79 2 21 10 21 10 7 -7 -11 -14 -12 -19 -3 -22 14 -5 8 -50 -8
-67 -5 -6 -9 -24 -9 -42 0 -28 3 -31 25 -26 24 4 25 6 11 27 -8 12 -12 32 -9
44 5 18 8 19 21 9 9 -7 13 -8 9 -2 -3 6 -2 26 2 45 5 19 12 50 15 69 5 34 5
34 -8 10 -8 -14 -12 -28 -10 -32 3 -5 1 -8 -4 -8 -5 0 -13 10 -16 23 -6 20 -7
20 -17 5 -15 -26 -29 -22 -29 10 0 24 -4 27 -38 30 -20 1 -43 10 -49 19 -12
16 -13 16 -13 0z"/>
<path d="M1376 2282 c-3 -5 1 -9 9 -9 8 0 12 4 9 9 -3 4 -7 8 -9 8 -2 0 -6 -4
-9 -8z"/>
<path d="M1400 2249 c0 -5 5 -7 10 -4 6 3 10 8 10 11 0 2 -4 4 -10 4 -5 0 -10
-5 -10 -11z"/>
<path d="M1631 2237 c0 -11 -9 -26 -19 -35 -10 -10 -13 -14 -7 -10 7 4 15 5
18 1 9 -9 19 23 14 44 -4 17 -5 17 -6 0z"/>
<path d="M1086 2194 c5 -30 32 -74 45 -74 5 0 6 7 3 15 -4 8 -11 15 -16 15 -6
0 -7 7 -4 15 3 9 -1 18 -9 21 -8 4 -13 10 -10 14 3 5 1 11 -4 15 -6 3 -8 -6
-5 -21z"/>
<path d="M1647 2198 c-2 -13 -8 -31 -12 -40 -9 -23 21 -24 53 -2 26 18 29 8 5
-18 -9 -10 -11 -18 -5 -18 15 0 35 38 27 50 -3 6 -1 10 4 10 6 0 11 10 10 23
l0 22 -9 -21 c-10 -24 -47 -54 -68 -54 -10 0 -10 5 2 22 18 25 21 48 7 48 -5
0 -11 -10 -14 -22z"/>
<path d="M1255 2160 c-3 -6 1 -7 10 -4 11 5 14 2 9 -10 -7 -19 0 -20 29 -4 21
11 21 11 2 19 -28 11 -43 11 -50 -1z"/>
<path d="M1345 2150 c-12 -19 5 -30 30 -18 13 6 22 15 19 19 -7 12 -41 11 -49
-1z"/>
<path d="M1545 2150 c-3 -5 -2 -10 4 -10 5 0 13 5 16 10 3 6 2 10 -4 10 -5 0
-13 -4 -16 -10z"/>
<path d="M1336 2101 c-3 -5 1 -11 9 -14 9 -4 12 -1 8 9 -6 16 -10 17 -17 5z"/>
<path d="M1197 2074 c-8 -8 3 -34 14 -34 11 0 12 27 0 34 -4 3 -11 3 -14 0z"/>
<path d="M1262 2050 c7 -11 17 -20 22 -20 5 0 1 9 -9 20 -10 11 -20 20 -22 20
-2 0 2 -9 9 -20z"/>
<path d="M1340 2060 c0 -5 5 -10 11 -10 5 0 7 5 4 10 -3 6 -8 10 -11 10 -2 0
-4 -4 -4 -10z"/>
<path d="M1237 2029 c7 -7 15 -10 18 -7 3 3 -2 9 -12 12 -14 6 -15 5 -6 -5z"/>
<path d="M1318 2033 c6 -2 18 -2 25 0 6 3 1 5 -13 5 -14 0 -19 -2 -12 -5z"/>
<path d="M1288 2008 c5 -5 16 -8 23 -6 8 3 3 7 -10 11 -17 4 -21 3 -13 -5z"/>
<path d="M1695 1936 c74 -23 105 -44 105 -71 0 -25 -14 -33 -25 -15 -3 6 -19
10 -35 10 -16 0 -32 -4 -35 -10 -4 -6 10 -10 34 -10 45 0 68 -19 24 -21 -23
-1 -21 -3 11 -9 22 -4 47 -17 57 -28 9 -12 19 -18 23 -15 4 4 13 -3 22 -15 8
-12 26 -22 38 -22 30 0 58 39 44 63 -12 23 -4 34 32 42 37 8 38 22 4 35 -14 6
-28 19 -31 30 -6 24 -36 26 -57 4 -19 -19 -21 -45 -3 -63 20 -22 -31 6 -88 49
-53 38 -104 60 -139 59 -13 0 -5 -5 19 -13z m255 -90 c-7 -7 -15 -3 -24 9 -11
15 -11 22 -3 27 16 10 40 -23 27 -36z m-56 -22 c23 -9 -3 -44 -32 -44 -23 0
-23 0 -5 25 21 28 17 27 37 19z"/>
<path d="M1650 1880 c-12 -8 -11 -10 7 -10 12 0 25 5 28 10 8 13 -15 13 -35 0z"/>
<path d="M1187 1850 c-20 -4 -40 -10 -44 -13 -11 -12 70 -7 127 8 l55 13 -50
0 c-27 0 -67 -4 -88 -8z"/>
<path d="M2090 1810 c-13 -8 -13 -10 2 -10 9 0 19 -6 21 -12 3 -7 6 -3 6 10 1
24 -6 27 -29 12z"/>
<path d="M145 1780 c3 -5 12 -10 20 -10 8 0 16 -4 19 -9 4 -5 -4 -7 -16 -5
-13 2 -17 2 -10 -2 17 -8 15 -24 -2 -24 -8 0 -24 -14 -36 -30 -12 -17 -26 -28
-31 -25 -5 4 -9 -5 -9 -19 0 -14 -4 -26 -9 -26 -5 0 -5 20 0 47 12 65 4 66
-11 1 -7 -29 -22 -63 -34 -76 -19 -22 -31 -86 -14 -75 5 2 8 12 8 22 0 10 9
21 20 24 11 3 23 13 27 24 4 10 22 41 40 69 27 40 43 54 75 63 33 10 42 10 49
-1 7 -10 9 -9 9 5 0 9 -4 17 -9 17 -5 0 -12 10 -14 23 l-4 22 -2 -23 -1 -23
-26 20 c-28 22 -50 28 -39 11z m-88 -185 c-4 -8 -14 -15 -23 -15 -16 0 -16 2
1 20 20 22 31 20 22 -5z"/>
<path d="M1960 1736 c0 -8 -14 -18 -32 -21 -30 -7 -31 -8 -13 -21 16 -12 21
-11 37 8 17 19 25 48 13 48 -3 0 -5 -6 -5 -14z"/>
<path d="M235 1680 c-4 -6 -11 -8 -16 -4 -6 3 -17 -3 -25 -15 -9 -12 -20 -18
-26 -15 -7 4 -8 2 -4 -5 5 -7 12 -9 19 -3 7 5 24 12 40 16 15 3 27 13 27 21 0
17 -6 19 -15 5z"/>
<path d="M101 1626 c-9 -10 -9 -16 -1 -21 6 -4 9 -13 6 -21 -3 -8 -1 -14 4
-14 5 0 8 16 7 35 -2 40 -1 39 -16 21z"/>
<path d="M1575 1540 c-27 -7 -28 -8 -5 -8 14 0 34 3 45 8 25 11 2 11 -40 0z"/>
<path d="M476 995 c4 -8 2 -15 -4 -15 -5 0 -13 -8 -16 -17 -5 -13 0 -11 18 6
24 22 26 41 6 41 -5 0 -7 -7 -4 -15z"/>
<path d="M370 951 c0 -5 -10 -11 -22 -13 -18 -2 -19 -5 -7 -15 11 -9 18 -6 32
13 10 13 13 24 7 24 -5 0 -10 -4 -10 -9z"/>
<path d="M320 895 c0 -5 5 -17 10 -25 5 -8 10 -10 10 -5 0 6 -5 17 -10 25 -5
8 -10 11 -10 5z"/>
<path d="M2149 863 c-1 -5 -1 -12 0 -16 1 -5 -3 -6 -8 -3 -13 8 -41 -39 -41
-70 0 -14 -7 -40 -16 -57 -36 -68 -35 -67 -14 -67 13 0 20 7 20 20 0 13 7 20
20 20 16 0 20 7 20 34 0 21 6 36 15 40 10 4 15 20 15 51 l0 45 66 0 65 0 -2
-107 c-1 -60 1 -107 5 -105 3 1 6 4 6 7 0 3 0 52 0 110 l0 105 -75 0 c-41 0
-76 -3 -76 -7z"/>
<path d="M320 838 c0 -20 -11 -23 -27 -7 -7 7 -9 3 -6 -15 4 -21 7 -23 19 -12
7 8 29 17 49 20 19 4 35 11 35 16 0 13 -6 12 -30 -2 -17 -11 -22 -10 -30 2 -8
13 -10 12 -10 -2z"/>
<path d="M2480 766 c0 -2 7 -6 15 -10 8 -3 15 -1 15 4 0 6 -7 10 -15 10 -8 0
-15 -2 -15 -4z"/>
</g>
</svg>
