<?xml version="1.0" standalone="no"?>
<!DOCTYPE svg PUBLIC "-//W3C//DTD SVG 20010904//EN"
 "http://www.w3.org/TR/2001/REC-SVG-20010904/DTD/svg10.dtd">
<svg version="1.0" xmlns="http://www.w3.org/2000/svg"
 width="300.000000pt" height="450.000000pt" viewBox="0 0 300.000000 450.000000"
 preserveAspectRatio="xMidYMid meet">

<g transform="translate(0.000000,450.000000) scale(0.100000,-0.100000)"
fill="#000000" stroke="none">
<path d="M180 4455 c24 -24 47 -42 52 -39 5 3 7 1 6 -3 -2 -5 14 -26 35 -46
25 -23 36 -41 31 -49 -4 -7 -4 -10 1 -6 4 4 22 1 39 -6 17 -7 37 -11 45 -8 7
2 23 -6 36 -19 29 -32 84 -79 90 -79 3 0 5 12 5 28 0 15 4 32 8 39 4 6 7 -30
7 -80 0 -98 6 -115 69 -209 29 -44 34 -48 74 -48 l42 0 0 43 c0 72 8 88 40 82
22 -4 30 -1 33 12 2 10 4 -88 4 -217 1 -151 -3 -243 -10 -258 -7 -15 -8 -26
-1 -30 16 -11 11 -35 -12 -58 -27 -27 -49 -35 -63 -21 -24 24 -9 -3 23 -42 19
-23 37 -36 39 -31 6 12 3 -2 -14 -52 l-12 -36 -31 41 c-67 89 -125 177 -116
177 5 0 12 -5 16 -12 5 -8 10 -2 15 16 6 23 4 32 -14 46 -16 13 -26 15 -35 8
-9 -8 -12 -3 -13 18 -1 28 -2 28 -8 4 -4 -18 -13 -25 -32 -25 -22 -1 -26 3
-25 25 1 14 -6 30 -14 37 -12 10 -9 12 23 13 l37 0 0 100 c0 82 -3 100 -15
100 -11 0 -15 -11 -15 -40 0 -22 5 -40 10 -40 6 0 10 -7 10 -15 0 -11 -12 -15
-49 -15 -43 0 -50 3 -54 23 l-4 22 -2 -22 c-2 -34 -29 -28 -41 10 l-10 32 5
-32 c3 -24 1 -33 -10 -33 -7 0 -16 8 -18 18 -4 14 -5 14 -6 1 -1 -14 -15 -16
-86 -17 l-85 0 0 64 c0 49 3 64 15 64 7 0 19 -8 24 -17 10 -17 10 -17 11 0 0
33 30 19 31 -15 l1 -33 7 30 c8 37 38 46 44 13 l4 -23 2 23 c1 19 6 22 45 22
38 0 45 -3 49 -22 l4 -23 2 22 c1 20 7 22 69 26 37 2 3 4 -76 5 -141 2 -143 2
-167 28 -14 15 -25 31 -25 35 0 5 -7 9 -16 9 -8 0 -12 5 -9 10 3 6 0 10 -9 10
-8 0 -16 -6 -19 -12 -2 -9 -21 2 -53 28 -52 43 -86 64 -103 64 -7 0 -11 -42
-11 -122 l1 -123 73 -47 c40 -27 78 -48 84 -48 7 0 12 -9 12 -20 0 -11 -4 -20
-9 -20 -22 0 -71 23 -71 34 0 6 -10 17 -22 25 -13 8 -33 21 -45 29 l-23 14 1
-1153 c0 -764 4 -1146 10 -1129 5 14 38 67 71 118 53 78 66 92 89 92 53 0 64
-108 15 -157 -45 -44 -33 -56 23 -22 27 17 39 19 57 10 34 -15 45 13 47 115 2
77 4 87 26 103 18 14 21 22 14 37 -6 10 -13 34 -17 53 -5 29 -1 39 39 83 25
28 45 54 45 59 0 5 9 9 21 9 18 0 20 -5 18 -37 -2 -21 -10 -49 -19 -63 -21
-30 -31 -78 -19 -86 15 -9 38 -72 33 -91 -3 -10 2 -61 10 -113 l14 -95 -36
-38 c-21 -21 -42 -35 -51 -32 -7 3 -20 0 -27 -6 -10 -8 -19 -7 -36 5 -12 9
-28 16 -34 16 -10 0 -84 -135 -84 -153 0 -4 7 -7 16 -7 11 0 15 -6 11 -20 -6
-25 12 -38 27 -18 6 8 18 18 26 22 31 15 61 33 82 52 22 19 23 19 8 -1 -20
-26 -24 -31 -66 -90 l-35 -50 36 40 c76 85 160 165 178 171 24 8 30 0 30 -36
0 -17 4 -27 11 -23 13 9 -29 -50 -47 -66 -12 -9 -16 -8 -21 4 -6 16 -36 21
-36 6 0 -5 10 -15 23 -23 20 -14 26 -13 55 2 18 10 33 21 33 24 -2 21 1 25 14
20 8 -4 15 -10 15 -16 0 -5 7 -16 16 -25 8 -9 13 -22 10 -29 -3 -7 -1 -16 4
-19 12 -7 13 -45 2 -45 -4 0 -16 -14 -25 -30 -10 -17 -33 -44 -50 -60 -18 -16
-27 -30 -21 -30 7 0 14 -7 17 -15 5 -11 0 -13 -23 -8 -20 4 -30 1 -30 -7 0 -7
-7 -10 -16 -6 -8 3 -12 2 -9 -4 3 -6 -3 -10 -14 -10 -12 0 -21 5 -21 10 0 6 5
10 10 10 6 0 10 8 10 18 -1 16 -1 16 -14 0 -7 -10 -18 -18 -25 -18 -6 0 -11
-7 -11 -15 0 -8 -5 -15 -11 -15 -6 0 -18 -8 -27 -17 -15 -15 -17 -15 -20 -1
-2 9 9 28 24 43 14 14 23 29 20 32 -3 4 -13 -2 -21 -13 -13 -16 -16 -17 -25
-4 -13 20 -13 30 3 30 6 0 20 16 29 34 16 33 16 34 -3 29 -23 -6 -25 10 -4 27
13 11 13 15 3 21 -20 13 -28 11 -22 -6 4 -9 -4 -25 -20 -40 -14 -13 -26 -29
-26 -35 0 -6 -8 -14 -17 -17 -10 -4 -28 -18 -40 -31 -13 -14 -37 -35 -53 -47
l-31 -23 32 -16 c18 -9 38 -16 46 -16 7 0 13 -5 13 -11 0 -13 -60 -4 -70 10
-6 10 -97 30 -105 23 -3 -3 -5 -16 -5 -28 0 -29 -16 -39 -35 -24 -13 11 -15
-35 -15 -357 0 -280 3 -372 12 -381 8 -8 9 -15 3 -20 -12 -8 -18 -112 -7 -112
5 0 17 -7 28 -15 18 -14 18 -15 -8 -11 -23 4 -28 1 -28 -15 0 -18 8 -19 115
-19 90 0 117 3 121 14 6 15 -17 66 -46 104 -10 12 -21 49 -25 83 -6 54 -5 64
19 99 14 21 57 62 95 91 67 49 101 98 101 144 0 8 5 37 11 65 l11 52 24 -36
c13 -19 24 -37 24 -40 0 -3 4 -16 10 -31 l10 -25 21 21 c18 18 20 25 11 38 -7
9 -26 40 -43 69 -17 29 -40 57 -50 63 -10 5 -19 14 -19 18 0 14 58 31 104 31
43 1 76 18 76 40 0 9 -14 11 -53 7 -28 -3 -61 -8 -72 -12 -11 -4 -6 2 12 13
31 20 152 62 179 62 9 0 13 -10 10 -30 -2 -16 2 -34 9 -40 15 -13 47 -2 38 13
-4 6 0 8 10 4 10 -3 17 -2 17 3 0 5 -8 11 -17 13 -13 3 -11 5 6 6 20 1 23 5
19 31 -4 23 -1 30 13 30 19 0 34 -57 24 -90 -8 -26 7 -26 25 0 10 14 17 17 27
8 11 -9 7 -16 -17 -36 -16 -14 -30 -31 -30 -38 0 -8 -8 -14 -17 -14 -14 0 -15
-2 -4 -9 7 -5 14 -26 15 -47 1 -22 5 -40 9 -41 4 -2 6 -2 5 0 -9 10 31 34 51
30 21 -3 22 -2 7 12 -20 21 -21 32 -1 15 9 -8 15 -8 15 -2 0 6 9 10 20 9 24
-2 27 -17 4 -17 -14 0 -14 -3 -4 -15 11 -13 10 -14 -4 -9 -12 5 -19 0 -23 -15
-3 -11 -10 -21 -15 -21 -5 0 -6 -4 -3 -10 3 -5 11 -10 16 -10 6 0 7 5 4 10 -3
6 -1 10 4 10 13 0 14 -10 2 -29 -5 -8 -14 -10 -21 -6 -8 5 -11 4 -7 -2 4 -6
-7 -22 -22 -36 -24 -21 -30 -23 -35 -11 -9 22 -8 24 8 18 8 -3 17 0 21 6 13
20 -4 23 -31 5 -24 -15 -26 -15 -21 -1 4 10 -1 20 -13 26 -16 8 -20 8 -20 -4
0 -7 -6 -16 -14 -19 -9 -4 -14 -16 -12 -33 2 -17 -5 -34 -20 -49 -19 -19 -22
-30 -17 -56 3 -19 2 -30 -3 -26 -5 3 -21 -3 -34 -13 l-25 -19 22 -23 c12 -13
23 -39 25 -58 l3 -35 50 3 c28 1 63 8 78 14 15 6 31 7 35 3 4 -4 6 -37 5 -75
-2 -49 1 -71 12 -80 18 -15 51 -8 47 9 -2 9 3 11 13 7 10 -3 43 15 89 49 84
62 99 54 71 -41 -4 -13 0 -25 9 -34 14 -11 24 -8 67 19 28 17 52 31 55 31 3 0
67 49 132 101 7 5 16 8 21 4 5 -3 21 -1 36 5 25 9 27 9 22 -10 -4 -15 1 -22
20 -26 34 -9 60 16 43 42 -9 15 -10 15 -6 2 5 -17 -19 -32 -35 -22 -14 8 -11
24 6 24 8 0 15 5 15 11 0 16 26 39 45 39 9 0 13 5 10 10 -3 6 25 -6 64 -26 70
-37 70 -37 136 -26 59 10 71 9 104 -8 20 -11 72 -29 115 -40 87 -22 95 -20
116 30 7 17 19 30 26 30 17 0 20 140 3 171 -5 11 -11 38 -12 59 -1 22 -4 40
-8 40 -4 0 -10 10 -12 23 l-4 22 -2 -22 c0 -13 -7 -23 -15 -23 -8 0 -17 -6
-19 -12 -4 -8 -6 -7 -6 4 -1 11 -7 15 -20 11 -17 -4 -19 2 -23 51 -3 56 5 74
17 37 4 -12 12 -18 21 -14 8 3 21 0 29 -7 8 -7 15 -9 15 -4 0 4 5 3 12 -4 7
-7 17 -12 23 -12 14 0 45 131 45 190 0 26 4 50 9 55 13 14 60 192 63 235 1 19
-2 44 -7 55 l-8 20 16 -20 c13 -16 16 -17 20 -5 3 8 10 30 16 49 6 19 11 44
11 57 0 13 8 31 19 41 23 22 37 113 22 141 -7 14 -7 40 3 91 8 39 10 71 5 71
-5 0 -9 4 -9 10 0 5 7 7 15 4 10 -4 24 16 51 73 44 92 50 105 75 150 22 39 23
65 5 113 -27 70 -27 74 0 25 26 -48 27 -49 37 -27 9 19 2 38 -38 115 -26 50
-57 101 -67 112 -20 20 -20 20 -4 -12 24 -49 19 -52 -16 -8 -18 22 -44 51 -57
65 -13 14 -42 47 -65 73 -22 27 -54 63 -70 80 l-29 32 6 -32 c10 -51 67 -188
133 -320 34 -68 61 -123 59 -123 -4 0 -152 252 -173 294 -21 42 -62 205 -61
246 0 19 3 30 5 23 7 -16 34 -5 34 14 0 10 6 13 15 9 11 -4 15 0 13 12 -2 9 2
16 8 15 12 -2 53 73 78 144 11 31 12 44 3 52 -9 9 -8 11 6 6 12 -5 17 -2 17 9
0 9 8 16 19 16 23 0 37 18 33 42 -2 13 1 16 12 12 11 -4 15 -2 11 8 -10 25
-33 16 -39 -14 -3 -17 -10 -27 -16 -23 -6 4 -8 10 -5 15 3 4 0 10 -5 12 -6 2
-8 16 -4 35 5 24 10 30 23 25 14 -5 14 -4 2 11 -16 20 -9 32 12 24 9 -3 13
-16 11 -34 -3 -21 0 -18 10 12 8 22 17 51 20 65 3 14 16 38 29 54 21 25 24 27
36 12 12 -14 11 -16 -5 -10 -14 5 -11 -1 11 -25 40 -44 64 -56 79 -41 8 9 1
21 -32 49 -23 20 -42 42 -42 49 0 20 58 15 63 -5 3 -12 5 -9 6 8 1 26 0 26
-41 19 -50 -10 -53 -8 -38 17 9 14 9 29 -1 63 -7 27 -14 38 -16 28 -4 -16 -33
-24 -65 -19 -4 0 -5 -6 -2 -14 4 -8 9 -13 13 -11 4 3 6 -8 5 -22 0 -15 4 -35
10 -46 8 -14 8 -20 -1 -23 -7 -3 -13 -12 -13 -21 -1 -15 -2 -15 -14 1 -8 10
-17 18 -20 18 -3 -1 -25 -1 -47 -1 -32 0 -39 3 -32 13 6 6 16 29 23 50 6 21
24 45 38 55 28 17 43 34 37 40 -2 2 -13 -6 -24 -17 -25 -25 -41 -27 -41 -6 0
19 -14 19 -55 0 -26 -13 -31 -20 -27 -40 l4 -25 25 20 c14 11 32 20 40 20 11
0 11 -5 -2 -30 -8 -16 -15 -36 -15 -45 0 -9 -4 -13 -10 -10 -5 3 -10 2 -10 -4
0 -6 -9 -15 -20 -21 -18 -10 -19 -8 -14 19 3 16 1 37 -5 48 -10 15 -11 13 -6
-12 4 -23 -3 -47 -25 -90 -16 -33 -30 -71 -30 -84 0 -23 1 -23 18 -8 22 20
132 24 132 6 0 -6 -7 -9 -15 -6 -18 7 -30 -9 -13 -16 10 -4 9 -8 -2 -16 -8 -5
-11 -13 -8 -17 4 -4 -1 -19 -10 -33 -31 -45 -43 -79 -29 -85 9 -3 9 -5 -1 -5
-7 -1 -17 -12 -22 -26 -11 -28 -33 -35 -23 -7 5 14 3 13 -10 -3 -9 -11 -17
-26 -17 -32 0 -19 -12 -15 -39 12 -13 14 -27 25 -32 25 -5 0 0 -9 11 -20 25
-25 27 -48 3 -29 -14 12 -16 12 -8 0 5 -9 2 -18 -8 -26 -15 -11 -14 -13 9 -24
24 -11 30 -32 9 -33 -69 0 -282 16 -359 28 -129 20 -160 33 -85 33 58 1 86 19
103 65 11 33 16 12 5 -26 -5 -21 -17 -38 -27 -41 -9 -2 31 -7 90 -11 123 -10
156 -4 78 13 -30 6 -73 20 -95 30 l-40 19 40 -3 c22 -2 53 -8 68 -14 16 -6 36
-11 45 -11 15 1 15 2 -2 11 -10 6 -27 20 -37 30 -11 11 -33 22 -50 26 -16 3
-32 9 -34 14 -3 4 -21 -1 -40 -12 -34 -20 -47 -15 -24 8 14 14 4 47 -11 38 -5
-3 -10 -17 -10 -30 0 -13 -5 -27 -12 -31 -8 -5 -9 0 -5 15 5 19 3 21 -11 9
-15 -11 -14 -10 1 8 20 24 17 78 -6 102 -15 14 -15 13 -10 -9 5 -23 5 -23 -12
-7 -26 24 -27 105 -3 140 10 15 24 26 31 24 7 -1 9 -1 4 1 -4 3 3 19 15 36 16
24 9 20 -30 -18 -35 -33 -52 -57 -52 -75 -1 -22 -2 -23 -11 -7 -13 23 -3 69
21 100 l20 25 -41 46 c-30 33 -48 46 -68 46 -15 0 -36 7 -47 15 -34 26 -72 18
-127 -27 -63 -52 -64 -54 -79 -100 -9 -32 -9 -41 5 -56 10 -10 17 -22 17 -26
0 -4 -11 6 -25 22 -27 32 -31 58 -14 94 15 35 -3 71 -53 107 -67 48 -104 62
-174 63 -39 1 -64 5 -64 12 0 8 -2 8 -8 0 -4 -6 -17 -16 -29 -23 -14 -7 -23
-21 -23 -35 0 -34 76 -265 100 -304 27 -44 25 -63 -4 -30 l-23 26 -7 -134 c-4
-73 -13 -174 -20 -223 l-12 -89 24 -15 c25 -14 25 -14 68 74 24 48 44 96 44
106 0 21 46 70 56 60 3 -3 -3 -16 -15 -28 -15 -17 -18 -26 -10 -40 12 -23 11
-23 57 -1 51 25 178 24 217 -2 22 -14 25 -20 14 -27 -11 -7 -9 -9 6 -9 18 -1
17 -3 -8 -21 -15 -11 -24 -25 -21 -31 10 -15 -27 -49 -48 -42 -13 4 -16 1 -12
-10 4 -10 1 -16 -9 -16 -8 0 -17 -4 -19 -8 -1 -5 -15 -12 -30 -16 -23 -5 -27
-4 -21 11 3 10 4 16 2 13 -42 -49 -41 -47 -24 -54 9 -3 14 -2 10 3 -3 5 14 9
37 9 24 0 48 1 53 2 6 1 21 2 34 1 18 -1 21 -4 13 -14 -9 -10 -4 -13 23 -13
22 0 35 5 35 13 0 7 5 13 11 13 5 0 7 5 3 12 -4 6 -3 8 3 5 5 -3 17 3 26 14
22 25 30 24 44 -7 10 -21 10 -24 -2 -14 -11 9 -16 6 -26 -12 -7 -13 -23 -32
-36 -43 -12 -11 -23 -28 -23 -38 0 -19 -35 -24 -45 -7 -4 7 -20 2 -43 -12 -52
-32 -60 -40 -54 -60 3 -12 -1 -18 -12 -18 -9 0 -16 6 -17 13 0 6 -4 3 -8 -8
-8 -19 -8 -19 -16 4 -5 16 -3 26 6 32 12 8 12 10 0 18 -8 5 -11 16 -6 30 5 15
2 21 -9 21 -10 0 -16 9 -16 23 0 12 0 29 -1 37 -1 8 2 24 6 35 6 14 1 12 -14
-8 -22 -27 -25 -27 -102 -22 -55 3 -78 1 -74 -6 4 -6 14 -8 22 -5 9 4 25 -6
40 -23 16 -18 32 -27 44 -24 10 3 16 10 12 16 -3 5 -1 7 5 4 15 -10 2 -49 -14
-43 -7 3 -16 0 -20 -6 -5 -7 -12 -5 -21 7 -7 11 -13 14 -13 7 0 -6 -7 -9 -15
-6 -8 4 -15 3 -15 0 0 -4 11 -11 25 -16 14 -5 27 -20 31 -35 4 -18 15 -28 35
-32 16 -3 29 -10 29 -15 0 -5 -10 -6 -23 -3 -15 5 -19 4 -12 -3 6 -5 19 -12
29 -14 32 -5 31 -28 -1 -28 -21 0 -24 -3 -14 -9 8 -5 28 -8 43 -6 20 3 31 -2
39 -16 9 -19 9 -19 -10 -10 -13 8 -22 8 -26 1 -4 -6 -12 -7 -18 -3 -21 13 -47
13 -47 1 0 -6 -6 -4 -13 6 -7 10 -27 18 -45 18 -18 1 -32 4 -32 7 0 3 -18 7
-41 8 -47 3 -90 22 -50 23 32 0 22 10 -15 14 -62 8 -84 18 -84 37 0 21 16 26
23 7 3 -8 6 -6 6 4 1 11 6 15 16 12 9 -4 15 0 15 7 0 9 3 10 8 4 12 -16 32
-16 32 1 0 14 2 14 22 0 17 -12 25 -13 37 -3 12 9 13 9 7 0 -4 -8 -2 -13 7
-13 8 0 29 -3 47 -6 31 -7 31 -6 19 15 -8 11 -17 21 -22 21 -4 0 -5 -4 -2 -10
3 -5 -3 -10 -14 -10 -12 0 -21 5 -21 11 0 7 -9 9 -21 6 -12 -3 -22 0 -25 7 -4
10 -27 13 -81 12 -65 -1 -79 2 -99 21 -13 12 -32 24 -44 28 -11 3 -23 18 -26
33 -3 15 -11 37 -17 50 -9 19 -6 27 23 57 19 19 42 35 52 35 26 0 22 -19 -5
-29 -21 -8 -24 -17 -26 -64 l-1 -54 38 -1 c33 -1 42 3 63 31 18 24 79 150 79
164 0 1 -12 -5 -27 -13 -25 -12 -28 -12 -32 3 -2 9 10 26 28 40 26 20 31 31
31 66 0 23 4 57 10 76 12 43 -6 238 -26 268 -7 12 -16 40 -19 63 -3 23 -14 53
-25 67 -30 38 -26 75 11 102 25 19 28 25 18 37 -11 14 0 15 92 10 160 -9 162
-9 194 -39 40 -37 112 -70 139 -63 16 4 30 24 49 72 14 37 24 71 20 77 -3 6
-2 7 4 4 5 -3 20 7 32 23 12 17 17 30 12 30 -6 0 -8 7 -5 15 4 8 10 15 15 15
4 0 5 -8 2 -17 -6 -16 -4 -16 22 2 26 16 53 20 180 23 83 2 151 5 153 7 1 1
-9 26 -23 56 -14 30 -25 68 -25 86 l0 31 67 -69 c36 -38 87 -82 112 -99 25
-16 77 -65 115 -110 37 -44 70 -80 72 -80 2 0 -1 12 -6 26 -6 14 -10 32 -10
41 0 13 4 13 28 -3 15 -9 47 -39 73 -66 25 -26 50 -48 56 -48 6 0 -4 15 -21
33 -17 19 -41 52 -54 74 -22 40 -22 41 -2 36 11 -3 20 -9 20 -14 0 -5 3 -8 8
-7 28 6 137 -44 146 -67 5 -14 8 -13 23 2 17 17 16 20 -29 59 -25 23 -67 56
-92 73 -25 18 -46 34 -46 36 0 3 32 5 71 5 65 0 73 -2 95 -27 13 -16 44 -52
69 -81 25 -29 45 -57 45 -62 0 -6 4 -10 9 -10 5 0 12 26 16 58 8 71 16 86 43
78 17 -6 19 -11 11 -44 -5 -20 -9 -43 -9 -49 0 -19 84 -17 100 2 7 8 18 15 25
15 7 0 20 24 30 53 22 67 44 109 45 85 0 -10 4 -18 9 -18 15 0 111 -101 111
-116 0 -8 5 -14 10 -14 6 0 10 -6 10 -13 0 -7 13 -28 29 -48 28 -34 28 -35 8
-37 -17 -1 -19 1 -7 8 13 8 13 10 -1 10 -9 0 -20 7 -23 16 -4 9 -9 14 -13 11
-3 -4 0 -13 6 -21 7 -8 10 -20 6 -26 -6 -10 9 -19 38 -24 8 -1 26 -9 40 -19
36 -24 63 -22 71 6 3 12 6 126 6 252 l0 230 -28 18 c-15 11 -40 37 -56 59 -38
53 -197 220 -204 213 -3 -3 -14 14 -24 38 -35 76 -127 150 -205 163 -34 5 -45
12 -57 39 -9 18 -33 48 -53 66 -87 76 -276 179 -329 179 -15 0 -55 16 -90 35
-34 19 -75 35 -91 34 -26 0 -26 -1 -7 -9 12 -5 25 -13 28 -18 3 -6 -12 -2 -33
9 -22 10 -60 19 -85 19 -44 0 -45 -1 -41 -29 2 -22 0 -28 -10 -25 -7 3 -16 0
-21 -7 -5 -8 -3 -10 6 -4 10 6 12 4 7 -8 -4 -10 0 -20 11 -26 23 -14 -3 -14
-31 0 -21 10 -21 10 -3 -5 14 -12 16 -16 5 -16 -12 0 -12 -2 1 -10 8 -5 20
-10 25 -10 6 0 3 5 -5 10 -13 9 -13 10 0 10 8 0 22 -5 30 -10 10 -7 11 -10 2
-10 -10 0 -10 -4 0 -20 7 -11 18 -20 25 -20 7 0 13 -7 13 -16 0 -8 5 -12 10
-9 6 3 10 3 10 -2 0 -4 16 -25 36 -45 19 -21 33 -38 30 -38 -3 0 8 -14 24 -32
l29 -31 -57 -34 c-56 -33 -105 -78 -150 -138 l-22 -30 5 35 c3 19 17 56 30 82
28 54 25 58 -60 58 -33 0 -55 5 -58 13 -4 10 -6 10 -6 0 -1 -8 -15 -13 -35
-13 -28 0 -35 4 -40 26 -6 24 -89 114 -106 114 -4 0 -12 -19 -19 -42 -13 -41
-13 -42 21 -70 18 -15 28 -28 21 -28 -6 0 -14 6 -16 13 -4 8 -6 7 -6 -4 -1
-11 -9 -14 -31 -11 -29 4 -30 6 -30 60 0 51 1 54 15 36 24 -32 17 -9 -17 57
-45 84 -63 95 -123 75 -53 -18 -352 -24 -325 -6 10 6 11 10 3 10 -7 0 -13 7
-13 15 0 8 -6 12 -13 9 -17 -6 -51 31 -42 46 5 9 1 10 -15 5 -17 -5 -21 -4
-16 6 4 8 2 7 -6 -2 -18 -21 -107 -2 -93 21 3 4 -2 11 -11 14 -22 8 -26 8 -19
-4 10 -16 -15 -12 -31 5 -9 9 -11 15 -4 15 6 0 8 5 5 10 -4 6 -102 10 -263 10
l-256 0 44 -45z m1900 -101 c0 -2 -9 0 -20 6 -11 6 -20 13 -20 16 0 2 9 0 20
-6 11 -6 20 -13 20 -16z m31 -21 c13 -16 12 -17 -3 -4 -10 7 -18 15 -18 17 0
8 8 3 21 -13z m-1503 -10 c-9 -2 -20 -13 -23 -24 -4 -11 -9 -18 -12 -16 -10
10 18 47 35 46 16 -1 16 -2 0 -6z m669 1 c-3 -3 -12 -4 -19 -1 -8 3 -5 6 6 6
11 1 17 -2 13 -5z m-620 -10 c-3 -3 -12 -4 -19 -1 -8 3 -5 6 6 6 11 1 17 -2
13 -5z m580 0 c-3 -3 -12 -4 -19 -1 -8 3 -5 6 6 6 11 1 17 -2 13 -5z m914 -11
c13 -16 12 -17 -3 -4 -10 7 -18 15 -18 17 0 8 8 3 21 -13z m-1448 0 c-7 -2
-19 -2 -25 0 -7 3 -2 5 12 5 14 0 19 -2 13 -5z m380 0 c-68 -2 -178 -2 -245 0
-68 1 -13 3 122 3 135 0 190 -2 123 -3z m217 -28 c0 -5 -5 -3 -10 5 -5 8 -10
20 -10 25 0 6 5 3 10 -5 5 -8 10 -19 10 -25z m931 -31 c9 -11 2 -9 -18 6 -18
13 -33 25 -33 27 0 8 38 -17 51 -33z m-1664 4 c-3 -8 -6 -5 -6 6 -1 11 2 17 5
13 3 -3 4 -12 1 -19z m740 -35 c-3 -10 -5 -2 -5 17 0 19 2 27 5 18 2 -10 2
-26 0 -35z m969 -10 c-7 -7 -26 7 -26 19 0 6 6 6 15 -2 9 -7 13 -15 11 -17z
m-1719 -20 c-3 -10 -5 -4 -5 12 0 17 2 24 5 18 2 -7 2 -21 0 -30z m750 -40
c-3 -10 -5 -4 -5 12 0 17 2 24 5 18 2 -7 2 -21 0 -30z m-544 20 c-7 -2 -19 -2
-25 0 -7 3 -2 5 12 5 14 0 19 -2 13 -5z m67 -358 c0 -302 -3 -372 -15 -402 -8
-19 -15 -37 -15 -39 0 -2 59 -4 131 -4 l131 0 -7 23 c-16 52 -14 68 3 22 l19
-50 -140 -3 c-77 -1 -142 0 -144 2 -3 3 2 24 11 48 15 37 16 89 14 406 -2 199
0 362 5 362 4 0 7 -164 7 -365z m253 358 l-43 -4 -2 -352 -3 -352 -2 345 c-2
190 -1 351 2 357 3 8 21 12 47 11 l43 -1 -42 -4z m-395 -23 c-7 -10 -14 -17
-17 -15 -4 4 18 35 25 35 2 0 -1 -9 -8 -20z m-121 -12 c-3 -8 -6 -5 -6 6 -1
11 2 17 5 13 3 -3 4 -12 1 -19z m643 -30 c0 -5 -17 -7 -37 -6 -37 1 -37 1 -6
5 25 3 31 8 27 21 -5 15 -4 15 5 2 6 -8 11 -18 11 -22z m1267 26 c-3 -3 -12
-4 -19 -1 -8 3 -5 6 6 6 11 1 17 -2 13 -5z m-1156 -24 c13 0 17 -5 12 -17 -4
-11 -8 -12 -11 -5 -2 7 -10 12 -18 12 -8 0 -14 8 -13 18 0 10 3 12 6 5 2 -7
13 -13 24 -13z m659 10 c8 -5 11 -10 5 -10 -5 0 -17 5 -25 10 -8 5 -10 10 -5
10 6 0 17 -5 25 -10z m-1313 -22 c-3 -8 -6 -5 -6 6 -1 11 2 17 5 13 3 -3 4
-12 1 -19z m1577 9 c-12 -7 -19 -19 -17 -27 4 -13 3 -13 -6 0 -8 11 -6 18 6
28 9 6 22 12 27 12 6 -1 2 -6 -10 -13z m-1114 -6 c0 -5 3 -18 6 -28 6 -16 5
-16 -9 2 -19 23 -21 35 -7 35 6 0 10 -4 10 -9z m344 -6 c-4 -8 -7 -15 -9 -15
-2 0 -5 7 -9 15 -3 9 0 15 9 15 9 0 12 -6 9 -15z m196 -31 c-18 -41 -20 -69
-20 -257 1 -159 5 -222 15 -252 8 -22 15 -43 15 -47 0 -5 -50 -8 -111 -8 -102
0 -111 1 -103 18 4 9 11 62 15 117 l7 100 -2 -112 -2 -113 93 0 c51 0 93 1 93
3 0 1 -7 20 -15 42 -21 59 -21 448 0 498 8 20 15 39 15 41 0 3 -42 7 -92 9
l-93 3 102 2 102 2 -19 -46z m200 26 c-14 -11 -29 -20 -35 -20 -5 0 4 9 20 20
38 25 48 25 15 0z m721 -16 c9 -11 2 -9 -18 6 -18 13 -33 25 -33 27 0 8 38
-17 51 -33z m-1971 -51 c21 -33 28 -29 33 20 l4 42 1 -47 c1 -34 -2 -48 -11
-48 -17 0 -52 47 -60 80 l-7 25 13 -25 c7 -14 19 -35 27 -47z m822 9 c26 -69
24 -78 -24 -90 -23 -6 -44 -9 -46 -8 -2 2 -5 25 -6 51 -3 38 1 52 21 76 14 16
28 27 31 24 4 -3 14 -27 24 -53z m724 -67 c8 -16 9 -21 2 -11 -7 11 -33 43
-58 70 l-44 51 43 -40 c23 -22 49 -53 57 -70z m-346 91 c0 -2 -8 -10 -17 -17
-16 -13 -17 -12 -4 4 13 16 21 21 21 13z m-701 -241 c-1 -217 -6 -287 -19
-250 -4 11 -4 32 0 46 5 15 5 41 1 58 -10 50 -2 388 10 371 5 -9 9 -107 8
-225z m29 -83 l-3 -222 97 0 98 0 -10 26 c-6 14 -10 33 -10 42 1 16 30 -53 30
-70 0 -5 -51 -8 -114 -8 l-115 0 10 32 c5 18 10 143 11 278 1 135 3 223 6 195
2 -27 2 -150 0 -273z m1254 222 c-4 -86 -3 -86 20 -79 18 5 20 4 8 -4 -34 -24
-40 -13 -40 79 0 50 3 90 8 90 4 0 6 -39 4 -86z m248 54 c24 -40 25 -48 5 -74
-14 -18 -15 -17 -4 8 10 23 8 32 -9 62 -12 20 -19 36 -17 36 3 0 14 -15 25
-32z m-1164 -74 c-3 -8 -16 -13 -28 -13 l-23 2 23 4 c19 4 22 11 24 51 1 45 2
46 5 8 3 -21 2 -44 -1 -52z m1016 31 c11 -21 8 -18 -32 30 -24 29 -24 29 -2
10 13 -11 28 -29 34 -40z m-741 28 c-5 -10 -17 -27 -26 -38 -16 -19 -17 -19
-3 5 26 46 29 50 34 50 3 0 0 -8 -5 -17z m-428 -105 c8 -5 6 -8 -5 -8 -15 0
-18 9 -16 58 l2 57 3 -50 c3 -27 10 -53 16 -57z m1104 40 c-3 -8 -6 -5 -6 6
-1 11 2 17 5 13 3 -3 4 -12 1 -19z m-562 -28 c-8 -16 -15 -37 -15 -47 0 -10
-5 -25 -10 -33 -7 -11 -8 -5 -4 20 7 36 31 90 40 90 2 0 -2 -13 -11 -30z m144
-4 c-3 -3 -11 5 -18 17 -13 21 -12 21 5 5 10 -10 16 -20 13 -22z m180 -6 c0
-10 -3 -8 -9 5 -12 27 -12 43 0 25 5 -8 9 -22 9 -30z m291 27 c0 -2 -10 -12
-22 -23 l-23 -19 19 23 c18 21 26 27 26 19z m-789 -38 c-5 -13 -10 -19 -10
-12 -1 15 10 45 15 40 3 -2 0 -15 -5 -28z m269 -21 c11 -24 20 -56 20 -71 0
-33 -25 -97 -39 -97 -21 0 -61 62 -61 96 0 44 28 114 47 114 7 0 23 -19 33
-42z m68 -49 l-3 -54 -5 62 c-3 34 -1 58 3 54 5 -4 7 -32 5 -62z m552 56 c-7
-8 -17 -15 -23 -15 -6 0 -2 7 9 15 25 19 30 19 14 0z m-390 -85 l-11 -25 6 25
c2 14 6 41 7 60 l1 35 4 -35 c2 -20 -1 -47 -7 -60z m-480 -81 c12 -22 40 -61
62 -85 22 -24 38 -44 34 -44 -13 0 -75 74 -101 121 -17 32 -28 69 -30 107 l-4
57 9 -57 c5 -31 19 -76 30 -99z m899 53 c43 -62 16 -39 -33 27 -26 36 -35 53
-19 36 16 -16 39 -45 52 -63z m54 29 c10 -17 14 -31 8 -31 -6 0 -7 -8 -4 -17
4 -10 -13 6 -36 36 -33 41 -40 55 -30 62 16 10 37 -7 62 -50z m-425 -143 l-4
-128 77 0 c65 0 78 3 82 18 4 13 5 11 6 -5 1 -22 -2 -23 -95 -23 -88 0 -95 1
-88 18 5 9 10 80 13 157 2 77 6 129 9 115 2 -14 2 -82 0 -152z m-801 156 c-3
-3 -12 -4 -19 -1 -8 3 -5 6 6 6 11 1 17 -2 13 -5z m-47 -14 c-8 -5 -19 -10
-25 -10 -5 0 -3 5 5 10 8 5 20 10 25 10 6 0 3 -5 -5 -10z m87 -22 c-3 -7 -5
-2 -5 12 0 14 2 19 5 13 2 -7 2 -19 0 -25z m388 -30 c3 -7 -1 -4 -9 6 -9 11
-16 29 -15 40 1 17 2 16 9 -6 4 -14 11 -32 15 -40z m-1525 7 c0 -14 5 -25 10
-25 6 0 10 -4 10 -9 0 -5 -43 -9 -95 -10 l-95 -2 0 36 0 35 85 0 c84 0 85 0
85 -25z m66 14 c3 -6 0 -15 -7 -20 -10 -6 -11 -9 -1 -9 6 0 12 -7 12 -16 0
-21 -34 -14 -38 9 -7 37 17 62 34 36z m52 -1 c9 -9 12 -9 12 1 0 8 10 11 28 9
22 -2 28 -8 30 -35 l3 -32 -53 2 c-42 2 -53 6 -56 20 -8 39 13 58 36 35z
m1948 0 c4 -7 3 -8 -4 -4 -8 5 -12 -23 -15 -96 l-3 -103 -2 108 c-2 99 5 126
24 95z m-1096 -75 l-5 -78 -3 64 c-3 56 1 91 10 91 2 0 1 -35 -2 -77z m697 45
c-19 -29 -56 -68 -64 -68 -3 0 11 18 31 40 20 22 36 45 36 52 0 6 3 8 6 5 4
-4 0 -17 -9 -29z m148 -26 c-15 -28 -43 -65 -63 -84 l-36 -33 37 43 c21 23 47
63 59 87 12 25 24 43 26 40 2 -2 -8 -26 -23 -53z m-708 -40 c-3 -50 -14 -108
-25 -136 l-19 -50 -22 57 c-13 37 -21 81 -21 121 0 60 1 63 33 79 59 29 61 27
54 -71z m1064 -5 c22 -27 39 -54 39 -60 0 -7 -12 6 -26 28 -15 22 -43 58 -63
80 -20 22 -25 31 -12 20 13 -11 41 -42 62 -68z m-605 31 l29 -33 -32 29 c-18
17 -33 31 -33 33 0 8 8 1 36 -29z m751 -128 c-2 -51 -11 -89 -26 -117 -12 -24
-24 -43 -26 -43 -3 0 5 19 17 43 18 34 22 59 23 127 0 47 -3 99 -8 115 -4 19
-1 15 9 -10 11 -28 14 -62 11 -115z m-2479 79 c10 -13 10 -18 -1 -22 -8 -3
-14 4 -15 21 -1 14 -1 24 1 21 1 -2 8 -11 15 -20z m34 -4 c-2 -14 -6 -25 -7
-25 -1 0 -5 11 -7 25 -3 16 -1 25 7 25 8 0 10 -9 7 -25z m48 14 c0 -5 -6 -7
-12 -3 -10 6 -10 4 0 -7 16 -17 15 -26 -3 -26 -9 0 -15 10 -15 24 0 14 6 23
15 23 8 0 15 -5 15 -11z m50 -6 c0 9 4 17 10 17 5 0 7 -7 3 -16 -3 -9 0 -20 8
-26 10 -6 6 -7 -11 -2 -25 7 -40 21 -40 39 1 6 7 1 15 -9 13 -17 15 -18 15 -3z
m70 -2 c-7 -14 -6 -21 3 -24 7 -3 5 -6 -5 -6 -10 -1 -18 3 -18 8 0 18 12 41
21 41 6 0 5 -8 -1 -19z m42 -10 c-5 -23 -6 -24 -13 -6 -11 29 -11 32 4 32 9 0
12 -9 9 -26z m51 21 c3 7 6 0 6 -16 1 -28 1 -29 -19 -11 -22 20 -28 44 -6 26
11 -9 15 -9 19 1z m1692 -76 c19 -28 7 -69 -24 -86 -28 -14 -83 12 -74 36 3 8
12 13 19 10 8 -3 13 -2 12 2 -3 10 33 62 43 62 5 0 16 -11 24 -24z m-140 -21
c-17 -13 -46 -31 -66 -40 -36 -17 -37 -16 -78 11 -23 15 -39 29 -36 32 3 3 13
-2 22 -10 42 -36 61 -40 100 -19 21 10 47 28 58 39 11 11 22 18 25 15 2 -2 -9
-15 -25 -28z m-1842 18 c-7 -2 -13 -14 -13 -26 0 -18 -2 -19 -10 -7 -10 16 5
41 24 39 7 0 6 -2 -1 -6z m33 -17 c0 -15 -5 -21 -10 -16 -5 5 -6 16 -3 24 9
23 15 19 13 -8z m34 -1 c0 -8 -3 -16 -7 -18 -5 -3 -8 5 -8 18 0 13 3 21 8 18
4 -2 7 -10 7 -18z m17 -12 c-3 -10 -5 -4 -5 12 0 17 2 24 5 18 2 -7 2 -21 0
-30z m38 27 c3 -6 -1 -17 -9 -26 -15 -14 -16 -13 -16 10 0 26 13 35 25 16z
m30 -11 c-6 -33 -15 -36 -15 -6 0 15 4 27 9 27 6 0 8 -10 6 -21z m27 -4 c3
-14 1 -25 -3 -25 -5 0 -9 11 -9 25 0 14 2 25 4 25 2 0 6 -11 8 -25z m2208 -29
c0 -39 -6 -30 -13 19 -4 27 -3 35 3 25 5 -8 10 -28 10 -44z m-2384 -74 c-9 -8
-26 10 -26 26 1 15 2 15 15 -2 8 -11 13 -21 11 -24z m35 29 c6 10 9 8 9 -8 0
-13 5 -23 10 -23 6 0 10 8 10 18 0 12 8 18 25 20 19 1 25 -3 25 -19 0 -14 -6
-19 -17 -17 -10 1 -24 -1 -31 -6 -7 -4 -19 -3 -27 4 -8 7 -15 9 -15 4 0 -4 -5
-3 -11 3 -6 6 -8 17 -3 24 6 11 8 11 12 0 4 -11 6 -11 13 0z m123 -7 c11 -28
6 -38 -9 -18 -8 10 -15 22 -15 27 0 13 18 7 24 -9z m23 -21 c-3 -10 -5 -4 -5
12 0 17 2 24 5 18 2 -7 2 -21 0 -30z m39 13 c0 -14 -4 -22 -8 -20 -4 3 -8 14
-8 25 0 10 4 19 8 19 4 0 8 -11 8 -24z m40 3 c3 -6 1 -15 -5 -20 -6 -5 -9 -6
-6 -3 3 4 0 13 -6 21 -8 9 -8 13 -1 13 6 0 14 -5 18 -11z m2124 -64 c0 -19 -4
-35 -8 -35 -4 0 -6 16 -4 35 2 19 6 35 8 35 2 0 4 -16 4 -35z m-1260 10 c0 -8
-4 -15 -10 -15 -5 0 -10 7 -10 15 0 8 5 15 10 15 6 0 10 -7 10 -15z m-1125
-43 c-8 -8 -25 10 -25 26 0 13 2 13 14 -4 8 -10 13 -21 11 -22z m64 -2 c0 -10
-2 -11 -6 -2 -2 6 -9 10 -14 6 -11 -6 -11 -2 -3 21 5 13 8 14 15 3 5 -7 8 -20
8 -28z m41 15 c0 -16 -6 -25 -15 -25 -15 0 -21 31 -8 43 13 14 23 6 23 -18z
m32 0 c-2 -14 -6 -25 -7 -25 -1 0 -5 11 -7 25 -3 16 -1 25 7 25 8 0 10 -9 7
-25z m25 -12 c-3 -10 -5 -4 -5 12 0 17 2 24 5 18 2 -7 2 -21 0 -30z m53 -6 c0
-5 -6 -4 -14 2 -11 9 -15 9 -19 -1 -3 -7 -6 0 -6 16 -1 28 -1 29 19 11 11 -10
20 -22 20 -28z m-190 11 c0 -19 -2 -20 -10 -8 -13 19 -13 30 0 30 6 0 10 -10
10 -22z m2390 8 c0 -3 -4 -8 -10 -11 -5 -3 -10 -1 -10 4 0 6 5 11 10 11 6 0
10 -2 10 -4z m-1200 -211 c19 -22 10 -23 -30 -3 -33 17 -34 18 -9 18 15 0 32
-7 39 -15z m-50 -64 c-5 -11 -10 -32 -10 -47 0 -25 1 -26 13 -11 10 15 12 11
9 -28 -3 -33 -8 -45 -21 -46 -9 -1 -2 -5 14 -10 23 -6 17 -7 -22 -3 -28 2 -54
0 -57 -5 -9 -15 -46 0 -46 18 0 11 3 12 8 4 6 -9 11 -7 20 7 10 16 9 18 -3 14
-18 -7 -20 13 -5 52 13 33 38 53 65 54 17 0 17 2 5 10 -12 8 -9 10 13 10 24 0
26 -2 17 -19z m-873 -7 c4 -11 -56 -29 -65 -19 -3 2 1 12 8 20 15 17 51 17 57
-1z m997 -43 c15 -17 15 -19 1 -25 -29 -11 -45 -6 -45 12 0 36 19 41 44 13z
m-265 -108 c7 -7 42 -10 106 -8 52 1 97 -1 100 -5 8 -13 -14 -75 -40 -110 -15
-20 -23 -42 -20 -54 7 -31 -5 -43 -56 -57 -37 -10 -53 -10 -77 0 -31 13 -35
24 -51 153 -4 31 -10 60 -14 64 -4 4 -7 3 -7 -3 0 -6 -8 -9 -18 -6 -13 3 -23
-7 -39 -40 -17 -35 -18 -44 -7 -44 8 0 13 6 10 14 -3 7 -2 13 3 13 5 0 11 -16
13 -35 4 -36 -7 -49 -15 -17 -4 13 -5 11 -6 -5 0 -13 3 -23 8 -23 5 0 12 -7
15 -16 4 -10 2 -13 -6 -8 -7 5 -9 0 -6 -14 4 -12 2 -22 -3 -22 -5 0 -9 6 -9
12 0 7 -7 2 -16 -10 -8 -12 -25 -22 -37 -21 l-22 0 22 9 c40 16 58 72 21 65
-16 -4 -19 -2 -10 7 16 16 15 38 -2 38 -8 0 -17 7 -20 16 -3 8 -2 13 3 10 10
-6 77 61 69 69 -8 9 -67 -29 -84 -54 -16 -23 -39 -27 -50 -10 -9 16 21 42 64
55 l37 12 -33 7 c-18 4 -30 10 -27 13 3 3 -3 14 -12 25 -18 20 -18 20 8 4 14
-9 46 -21 72 -26 45 -8 47 -8 47 16 0 35 39 47 62 19 10 -11 22 -26 27 -33z
m-489 31 c0 -8 -4 -12 -10 -9 -5 3 -10 10 -10 16 0 5 5 9 10 9 6 0 10 -7 10
-16z m725 -81 c-18 -33 -43 -48 -26 -15 5 9 14 31 21 47 8 20 14 25 18 16 2
-8 -3 -29 -13 -48z m55 32 c0 -16 -21 -47 -60 -91 -33 -36 -60 -71 -60 -78 0
-6 -5 -4 -10 4 -5 8 -10 20 -10 25 0 6 4 3 10 -5 7 -11 11 -9 20 14 6 16 26
47 46 69 19 23 37 52 40 64 8 31 24 29 24 -2z m-866 -28 c-3 -9 -10 -17 -15
-17 -4 0 -5 7 -2 17 4 11 3 14 -5 9 -7 -4 -12 -3 -12 3 0 12 23 21 33 11 4 -3
5 -14 1 -23z m-209 -27 c-3 -4 -18 -13 -34 -18 -23 -8 -31 -7 -35 4 -3 8 -1
14 4 14 6 0 10 5 10 10 0 6 -12 10 -27 10 -35 0 -18 17 22 22 30 4 71 -25 60
-42z m1105 7 c0 -18 -7 -41 -15 -51 -14 -19 -15 -18 -15 15 0 45 10 80 21 73
5 -3 9 -20 9 -37z m-35 -88 c5 -37 3 -52 -8 -64 -18 -18 -37 -20 -37 -3 0 6
-10 2 -23 -10 -23 -22 -47 -29 -47 -14 0 5 14 21 30 37 26 25 33 27 41 15 7
-11 8 -6 4 19 -5 23 -4 31 4 27 6 -4 11 0 11 9 0 9 -4 13 -10 10 -5 -3 -10 -2
-10 3 0 13 8 19 24 19 10 0 17 -16 21 -48z m-1038 22 c10 -15 9 -20 -1 -24
-20 -8 -40 9 -33 27 8 21 20 20 34 -3z m-67 -16 c-7 -8 -18 -15 -24 -15 -6 0
-2 7 8 15 25 19 32 19 16 0z m628 -40 c1 -1 -6 -5 -17 -8 -11 -3 -28 1 -38 9
-16 12 -14 13 17 7 19 -3 36 -7 38 -8z m529 -17 c-1 -13 2 -36 6 -51 11 -41
-15 -30 -27 11 -6 22 -5 36 4 47 16 20 18 19 17 -7z m-397 -8 c0 -13 -5 -18
-15 -14 -8 4 -15 10 -15 16 0 5 5 6 10 3 6 -3 10 -1 10 4 0 6 2 11 5 11 3 0 5
-9 5 -20z m-315 -10 c-3 -5 -14 -10 -23 -10 -15 0 -15 2 -2 10 20 13 33 13 25
0z m165 -10 c8 -5 11 -10 5 -10 -5 0 -17 5 -25 10 -8 5 -10 10 -5 10 6 0 17
-5 25 -10z m1151 -41 c-5 -13 -10 -19 -10 -12 -1 15 10 45 15 40 3 -2 0 -15
-5 -28z m-1321 11 c0 -5 -2 -10 -4 -10 -3 0 -8 5 -11 10 -3 6 -1 10 4 10 6 0
11 -4 11 -10z m1253 -10 c-3 -11 -7 -20 -9 -20 -2 0 -4 9 -4 20 0 11 4 20 9
20 5 0 7 -9 4 -20z m-943 -20 c0 -5 -10 -10 -22 -9 -22 0 -22 1 -3 9 11 5 21
9 23 9 1 1 2 -3 2 -9z m123 -7 c-7 -2 -21 -2 -30 0 -10 3 -4 5 12 5 17 0 24
-2 18 -5z m69 -13 c18 -11 29 -20 23 -21 -5 0 0 -4 13 -10 13 -5 21 -13 18
-18 -3 -5 2 -8 11 -7 9 0 18 -4 20 -10 8 -24 -30 -8 -58 23 -16 19 -42 41 -57
49 -15 8 -21 14 -15 14 7 0 27 -9 45 -20z m792 -34 c-3 -14 -10 -24 -14 -21
-5 3 -3 16 3 29 15 31 20 27 11 -8z m-1354 12 c0 -7 -11 -23 -24 -36 l-24 -22
5 21 c5 16 3 20 -6 15 -9 -6 -9 -3 1 13 14 23 48 29 48 9z m1277 -30 c-3 -8
-6 -5 -6 6 -1 11 2 17 5 13 3 -3 4 -12 1 -19z m-457 -28 c44 -22 80 -45 80
-50 0 -16 -11 -12 -98 30 -44 22 -86 40 -92 40 -5 0 -10 5 -10 10 0 20 42 9
120 -30z m-139 1 c-7 -5 -10 -14 -7 -20 4 -6 0 -11 -9 -11 -13 0 -14 4 -5 20
6 11 16 20 23 20 8 0 8 -3 -2 -9z m284 -194 c8 -20 13 -37 10 -37 -6 0 -35 64
-35 76 0 13 9 -1 25 -39z m-620 15 c-3 -3 -11 0 -18 7 -9 10 -8 11 6 5 10 -3
15 -9 12 -12z m-80 -2 c3 -5 2 -10 -4 -10 -5 0 -13 5 -16 10 -3 6 -2 10 4 10
5 0 13 -4 16 -10z m-525 -25 c68 -23 87 -35 99 -62 6 -13 7 -22 2 -19 -12 8
-22 -20 -15 -39 8 -20 -6 -19 -22 3 -8 10 -13 12 -14 5 0 -7 9 -18 20 -25 11
-7 20 -21 20 -31 0 -15 -5 -18 -23 -13 -23 5 -24 4 -16 -42 4 -26 8 -62 8 -80
1 -29 -1 -32 -18 -23 -14 8 -20 26 -24 78 -4 40 -13 73 -22 82 -15 15 -15 14
-7 -9 4 -14 7 -35 6 -47 0 -13 2 -23 6 -23 14 0 20 -104 7 -112 -7 -4 -3 -6
10 -5 12 0 19 5 16 10 -3 5 0 8 8 5 8 -2 15 -17 17 -31 3 -21 -1 -27 -15 -27
-15 0 -16 2 -3 11 12 8 10 9 -7 4 -53 -15 -96 28 -72 72 11 20 10 31 -5 71
-10 26 -22 62 -27 80 -6 17 -15 32 -21 32 -9 0 -9 -3 0 -12 15 -15 16 -48 2
-48 -5 0 -1 -9 10 -20 18 -18 24 -33 21 -52 0 -5 4 -8 9 -8 15 0 12 -30 -2
-31 -58 -5 -91 21 -82 67 4 20 0 43 -9 61 -8 15 -21 44 -29 62 -13 32 -15 33
-20 13 -4 -16 -2 -22 9 -22 11 0 14 -7 11 -25 -3 -14 -1 -22 5 -18 5 3 7 0 5
-8 -3 -8 2 -19 11 -26 28 -20 1 -34 -43 -22 -29 8 -41 18 -51 43 -8 19 -21 36
-30 40 -14 5 -15 4 0 -16 8 -13 15 -31 15 -41 0 -11 13 -24 33 -32 l32 -14
-40 -1 c-22 0 -52 7 -67 14 -39 21 -69 15 -100 -17 -18 -17 -38 -27 -57 -27
-43 0 -49 19 -15 48 16 14 28 30 26 35 -6 19 21 37 55 37 34 0 41 4 93 52 16
14 43 29 60 33 17 4 59 24 93 45 70 44 83 46 147 25z m580 -26 c0 -6 -4 -7
-10 -4 -5 3 -10 11 -10 16 0 6 5 7 10 4 6 -3 10 -11 10 -16z m256 -58 c2 -17
-1 -33 -6 -36 -6 -4 -10 11 -10 36 0 47 11 47 16 0z m-116 -5 c0 -3 -4 -8 -10
-11 -5 -3 -10 -1 -10 4 0 6 5 11 10 11 6 0 10 -2 10 -4z m-586 -15 c-9 -9 -34
-9 -34 -1 0 5 9 8 20 7 10 -1 17 -3 14 -6z m676 -16 c0 -16 -6 -25 -16 -25 -9
0 -12 -5 -8 -12 5 -8 2 -9 -9 -5 -12 4 -17 1 -18 -11 0 -10 -3 -12 -6 -4 -2 6
-9 10 -14 6 -20 -12 -7 16 20 45 35 38 51 39 51 6z m797 -98 c60 -96 107 -186
99 -194 -7 -7 -45 37 -46 54 0 6 -4 13 -8 15 -9 3 -102 170 -102 183 0 14 32
-19 57 -58z m-880 1 c-3 -8 -6 -5 -6 6 -1 11 2 17 5 13 3 -3 4 -12 1 -19z
m-660 -10 c-3 -8 -6 -5 -6 6 -1 11 2 17 5 13 3 -3 4 -12 1 -19z m116 -17 c4
-4 -6 -8 -23 -8 -17 0 -26 4 -19 8 9 5 8 8 -2 12 -8 2 -3 2 11 0 14 -3 29 -8
33 -12z m22 -21 c-3 -5 -12 -10 -18 -10 -7 0 -6 4 3 10 19 12 23 12 15 0z m35
-5 c0 -2 -10 -10 -22 -16 -21 -11 -22 -11 -9 4 13 16 31 23 31 12z m40 -15
c-19 -12 -30 -12 -30 -1 0 10 31 20 40 14 2 -2 -2 -8 -10 -13z m430 0 c-12
-22 -16 -23 -45 -9 -19 9 -19 9 2 5 12 -2 27 2 34 10 17 20 21 17 9 -6z m-389
-20 c5 0 9 -4 9 -9 0 -12 -38 -2 -47 12 -4 7 0 8 11 4 10 -4 22 -7 27 -7z
m-54 -6 c-3 -3 -12 -4 -19 -1 -8 3 -5 6 6 6 11 1 17 -2 13 -5z m-41 -46 c-3
-24 -9 -67 -12 -96 -6 -45 -11 -55 -35 -67 -21 -11 -32 -28 -44 -67 -18 -61
-20 -137 -4 -172 10 -22 14 -23 33 -11 18 11 45 13 92 7 32 -5 19 -104 -18
-150 -10 -12 -13 -11 -19 5 -7 16 -8 16 -8 1 -1 -10 -5 -18 -11 -18 -5 0 -10
-7 -10 -15 0 -32 -53 -8 -74 34 -11 20 -12 38 -6 67 6 23 6 51 1 69 -22 71
-22 120 -1 180 11 33 31 71 44 85 16 17 30 52 41 108 19 85 42 115 31 40z
m147 35 c-7 -2 -19 -2 -25 0 -7 3 -2 5 12 5 14 0 19 -2 13 -5z m297 -19 c16
-16 26 -89 12 -80 -7 4 -12 1 -12 -8 0 -21 -19 -20 -37 2 -13 15 -14 13 -11
-20 2 -20 0 -34 -4 -32 -4 3 -8 15 -8 27 -1 20 -2 20 -11 4 -5 -9 -7 -23 -3
-30 5 -9 4 -9 -5 -1 -30 28 -32 140 -3 147 29 6 72 1 82 -9z m51 -23 c12 -41
6 -77 -11 -66 -5 3 -10 18 -10 33 0 15 -7 38 -16 50 -14 21 -14 22 5 22 15 0
23 -10 32 -39z m656 -43 c-3 -8 -6 -5 -6 6 -1 11 2 17 5 13 3 -3 4 -12 1 -19z
m-1311 -20 c3 -5 4 -11 1 -14 -6 -6 -57 17 -57 26 0 10 49 0 56 -12z m1353
-93 c-1 -19 -22 40 -25 70 -3 22 0 18 11 -15 8 -25 14 -49 14 -55z m165 79 c3
-8 2 -12 -4 -9 -6 3 -10 10 -10 16 0 14 7 11 14 -7z m87 -139 c33 -72 46 -114
31 -100 -18 17 -110 209 -105 218 6 11 37 -39 74 -118z m-229 4 c5 -3 11 -23
13 -45 5 -39 5 -39 -4 -6 -5 19 -14 39 -20 45 -6 6 -10 20 -10 32 1 20 1 20 6
0 3 -11 9 -23 15 -26z m-1090 -30 c-3 -31 -19 -46 -32 -33 -8 8 -8 19 0 38 12
33 36 29 32 -5z m116 -23 c27 -41 32 -57 32 -107 0 -36 -4 -59 -11 -59 -7 0
-10 21 -7 59 2 47 -1 63 -16 80 -27 30 -36 26 -36 -15 0 -21 -4 -33 -10 -29
-5 3 -10 33 -10 66 0 73 11 74 58 5z m-235 -91 c3 -7 -9 -11 -37 -10 -25 1
-41 6 -40 13 4 44 2 43 39 25 19 -9 36 -21 38 -28z m377 0 c0 -8 -4 -15 -10
-15 -5 0 -10 7 -10 15 0 8 5 15 10 15 6 0 10 -7 10 -15z m49 -2 c0 -5 -4 -17
-8 -28 -7 -17 -8 -17 -13 8 -4 19 -1 27 8 27 8 0 14 -3 13 -7z m-48 -221 c72
-74 88 -182 36 -230 -22 -20 -37 -25 -69 -23 -15 1 -18 10 -18 50 0 28 -5 53
-11 56 -7 5 -8 -6 -5 -32 l6 -38 -13 41 c-17 49 -30 184 -21 207 11 30 48 18
95 -31z m-211 -162 c0 -5 -5 -10 -11 -10 -5 0 -7 5 -4 10 3 6 8 10 11 10 2 0
4 -4 4 -10z m39 -23 c0 -14 -128 -101 -136 -94 -2 3 0 14 6 25 6 12 11 30 11
41 0 21 25 30 32 11 2 -6 19 1 38 14 35 24 50 25 49 3z m1184 -7 c3 -11 2 -18
-3 -15 -4 3 -10 14 -13 25 -3 11 -2 18 3 15 4 -3 10 -14 13 -25z m-748 10 c3
-5 1 -10 -4 -10 -6 0 -11 5 -11 10 0 6 2 10 4 10 3 0 8 -4 11 -10z m25 -46 c0
-9 -7 -14 -17 -12 -25 5 -28 28 -4 28 12 0 21 -6 21 -16z m-820 -23 c-9 -19
-30 -29 -30 -16 0 7 34 42 38 39 2 -1 -1 -12 -8 -23z m350 14 c0 -8 -39 -45
-48 -45 -5 0 -25 -16 -45 -35 -39 -38 -47 -42 -47 -22 0 17 55 67 74 67 9 0
16 5 16 10 0 6 7 10 15 10 8 0 15 5 15 10 0 6 5 10 10 10 6 0 10 -2 10 -5z
m517 -1 c-3 -3 -12 -4 -19 -1 -8 3 -5 6 6 6 11 1 17 -2 13 -5z m-27 -28 c0
-21 22 -37 36 -25 16 13 34 3 34 -18 0 -10 6 -14 20 -10 27 7 36 -11 14 -28
-18 -13 -17 -14 9 -15 18 0 27 -5 27 -16 0 -8 -4 -13 -9 -10 -5 3 -11 -1 -15
-9 -3 -8 -4 -15 -2 -15 3 0 12 -3 22 -7 12 -4 15 -3 10 5 -4 7 -3 12 2 12 6 0
16 -15 23 -32 7 -18 15 -37 17 -42 3 -5 -5 -6 -17 -3 -14 3 -21 1 -18 -6 2 -6
14 -12 27 -12 21 0 24 -5 26 -38 3 -32 0 -37 -11 -27 -9 8 -15 8 -20 0 -3 -6
-12 -7 -18 -4 -7 4 -8 3 -4 -2 5 -5 14 -9 20 -10 26 -3 57 -17 57 -26 0 -6 -7
-8 -15 -5 -8 4 -17 2 -20 -3 -4 -6 5 -10 19 -10 26 0 49 -41 27 -48 -7 -2 -9
-16 -5 -38 5 -29 3 -34 -12 -35 -13 0 -11 -4 9 -11 29 -10 37 -28 12 -28 -8 0
-15 -5 -15 -11 0 -6 7 -9 15 -5 10 3 15 -1 15 -13 0 -20 -27 -24 -34 -4 -3 7
-19 13 -36 13 -17 0 -30 5 -30 13 0 6 -3 23 -6 37 -4 20 -3 22 5 10 7 -10 11
-11 11 -2 0 6 9 12 20 12 13 0 20 7 20 20 0 11 -5 20 -11 20 -6 0 -9 -7 -5
-15 3 -9 0 -15 -9 -15 -7 0 -17 9 -20 21 -6 19 -8 19 -19 3 -8 -10 -20 -15
-30 -11 -22 9 -20 27 3 27 25 0 38 20 20 30 -8 5 -18 2 -26 -8 -10 -14 -14
-15 -22 -3 -5 7 -6 22 -4 32 3 10 0 19 -6 19 -6 0 -11 7 -11 15 0 9 -9 25 -20
37 -11 12 -20 27 -20 34 0 6 -7 15 -16 18 -9 3 -14 13 -11 20 3 8 -1 17 -10
20 -8 4 -13 13 -10 20 3 8 -1 20 -9 27 -8 7 -13 18 -10 24 2 7 0 17 -6 23 -11
11 -3 32 12 32 5 0 16 -12 25 -27 15 -27 16 -27 9 -3 -3 14 -10 29 -15 35 -5
5 -9 19 -9 32 0 13 -4 23 -10 23 -14 0 -12 27 3 33 16 6 27 -1 27 -17z m44 0
c-3 -8 -12 -12 -20 -9 -17 6 -9 23 11 23 8 0 12 -6 9 -14z m-1144 -6 c0 -5 -6
-10 -14 -10 -8 0 -18 5 -21 10 -3 6 3 10 14 10 12 0 21 -4 21 -10z m1184 -6
c3 -8 2 -12 -4 -9 -6 3 -10 10 -10 16 0 14 7 11 14 -7z m-966 -33 c-14 -23
-28 -28 -28 -10 0 12 32 40 38 34 2 -2 -3 -12 -10 -24z m-240 -50 c2 -7 -5
-15 -17 -18 -12 -3 -21 -10 -21 -15 0 -5 -5 -6 -11 -2 -7 4 -7 9 -2 13 5 3 13
14 16 24 8 20 28 19 35 -2z m672 4 c-14 -8 -29 -14 -35 -14 -5 0 1 6 15 14 14
8 30 14 35 14 6 0 -1 -6 -15 -14z m-485 -5 c3 -5 2 -10 -4 -10 -5 0 -13 5 -16
10 -3 6 -2 10 4 10 5 0 13 -4 16 -10z m1203 -25 c-3 -3 -9 2 -12 12 -6 14 -5
15 5 6 7 -7 10 -15 7 -18z m-778 5 c0 -5 -5 -10 -11 -10 -5 0 -7 5 -4 10 3 6
8 10 11 10 2 0 4 -4 4 -10z m-720 -16 c0 -17 -22 -14 -28 4 -2 7 3 12 12 12 9
0 16 -7 16 -16z m685 7 c3 -5 1 -12 -5 -16 -5 -3 -10 1 -10 9 0 18 6 21 15 7z
m-651 -17 c9 -3 13 -10 10 -15 -3 -5 0 -9 7 -9 7 0 10 -3 7 -6 -8 -8 -48 14
-48 26 0 12 3 12 24 4z m66 2 c0 -3 -4 -8 -10 -11 -5 -3 -10 -1 -10 4 0 6 5
11 10 11 6 0 10 -2 10 -4z m25 -26 c-3 -5 -14 -10 -23 -10 -15 0 -15 2 -2 10
20 13 33 13 25 0z m490 0 c3 -5 1 -10 -4 -10 -6 0 -11 5 -11 10 0 6 2 10 4 10
3 0 8 -4 11 -10z m-25 -10 c0 -5 -5 -10 -11 -10 -5 0 -7 5 -4 10 3 6 8 10 11
10 2 0 4 -4 4 -10z m915 -30 c9 -17 11 -31 5 -35 -9 -6 -40 44 -40 65 0 18 19
1 35 -30z m-945 20 c0 -5 -8 -10 -17 -10 -15 0 -16 2 -3 10 19 12 20 12 20 0z
m-615 -10 c3 -5 -1 -10 -10 -10 -9 0 -13 5 -10 10 3 6 8 10 10 10 2 0 7 -4 10
-10z m575 -6 c0 -8 -5 -12 -10 -9 -6 4 -8 11 -5 16 9 14 15 11 15 -7z m-30 -8
c0 -11 -19 -15 -25 -6 -3 5 1 10 9 10 9 0 16 -2 16 -4z m733 -33 c8 -16 17
-41 21 -58 l8 -30 -19 25 c-10 14 -26 40 -36 58 -16 27 -16 32 -3 32 9 0 22
-12 29 -27z m-930 2 c-3 -9 -8 -14 -10 -11 -3 3 -2 9 2 15 9 16 15 13 8 -4z
m452 -5 c3 -5 1 -10 -4 -10 -6 0 -11 5 -11 10 0 6 2 10 4 10 3 0 8 -4 11 -10z
m785 -9 c0 -12 -20 -25 -27 -18 -7 7 6 27 18 27 5 0 9 -4 9 -9z m-1060 -37 c0
-8 -4 -12 -10 -9 -5 3 -10 10 -10 16 0 5 5 9 10 9 6 0 10 -7 10 -16z m1108
-15 c-3 -8 -7 -3 -11 10 -4 17 -3 21 5 13 5 -5 8 -16 6 -23z m-48 5 c0 -8 -5
-12 -10 -9 -6 4 -8 11 -5 16 9 14 15 11 15 -7z m-382 -29 c-3 -3 -9 2 -12 12
-6 14 -5 15 5 6 7 -7 10 -15 7 -18z m402 1 c0 -3 -4 -8 -10 -11 -5 -3 -10 -1
-10 4 0 6 5 11 10 11 6 0 10 -2 10 -4z m-280 -32 c0 -8 -4 -12 -10 -9 -5 3
-10 10 -10 16 0 5 5 9 10 9 6 0 10 -7 10 -16z m-66 -10 c3 -8 2 -12 -4 -9 -6
3 -10 10 -10 16 0 14 7 11 14 -7z m22 -43 c2 -8 1 -8 -3 0 -4 8 -7 8 -13 -1
-5 -9 -9 -8 -13 3 -4 10 0 14 11 13 9 -2 17 -8 18 -15z m-626 -15 c0 -11 -19
-15 -25 -6 -3 5 1 10 9 10 9 0 16 -2 16 -4z m-548 -22 c7 -6 -61 -74 -74 -74
-4 0 -8 -7 -8 -15 0 -16 -35 -20 -64 -9 -18 7 -21 24 -4 24 18 0 79 50 73 60
-3 5 9 11 27 13 18 2 36 5 39 5 3 1 8 -1 11 -4z m1188 -4 c0 -5 -5 -10 -11
-10 -5 0 -7 5 -4 10 3 6 8 10 11 10 2 0 4 -4 4 -10z m124 -15 c-4 -8 -10 -12
-15 -9 -11 6 -2 24 11 24 5 0 7 -7 4 -15z m-50 -21 c3 -8 2 -12 -4 -9 -6 3
-10 10 -10 16 0 14 7 11 14 -7z m206 -34 c0 -5 -5 -10 -11 -10 -5 0 -7 5 -4
10 3 6 8 10 11 10 2 0 4 -4 4 -10z m-980 -70 c0 -5 -7 -7 -15 -4 -8 4 -15 8
-15 10 0 2 7 4 15 4 8 0 15 -4 15 -10z m850 -10 c0 -5 -2 -10 -4 -10 -3 0 -8
5 -11 10 -3 6 -1 10 4 10 6 0 11 -4 11 -10z m79 -27 c17 -10 31 -22 31 -26 0
-12 -30 -67 -36 -67 -3 0 -2 5 2 11 5 8 -2 10 -23 7 -25 -3 -29 -1 -25 14 2
10 11 18 18 18 8 0 14 4 14 10 0 5 -14 7 -32 3 -38 -7 -48 -14 -30 -20 6 -3
12 -12 12 -21 0 -20 -10 -9 -39 43 -21 38 -22 39 -2 16 12 -13 21 -18 21 -12
0 6 8 11 18 11 14 0 14 2 3 9 -13 9 -5 14 31 20 3 0 20 -7 37 -16z m-204 -93
c-8 -13 1 -13 26 0 12 7 19 7 19 1 0 -5 25 -22 55 -36 30 -15 55 -31 55 -36 0
-17 -31 -22 -68 -11 -54 17 -129 92 -91 92 5 0 7 -4 4 -10z m189 -6 c9 -24 2
-26 -12 -4 -7 11 -8 20 -3 20 5 0 12 -7 15 -16z m-20 -16 c16 -22 12 -43 -5
-32 -6 3 -8 12 -5 20 3 8 0 13 -6 11 -6 -1 -13 4 -15 11 -8 20 15 14 31 -10z
m-1510 -234 c9 -3 13 -10 10 -15 -3 -5 -1 -9 4 -9 5 0 9 -17 8 -37 -3 -50 -35
-73 -71 -49 -14 9 -25 24 -24 34 0 13 3 12 11 -6 13 -26 59 -28 65 -2 4 12 3
12 -5 1 -20 -29 -60 4 -53 43 1 5 -5 4 -13 -4 -20 -16 -20 -1 0 28 15 22 38
27 68 16z"/>
<path d="M1221 2864 c-1 -12 5 -24 12 -27 18 -7 67 3 67 14 0 11 -7 11 -29 0
-19 -11 -35 -4 -44 19 -4 10 -6 8 -6 -6z"/>
<path d="M1210 2809 c0 -5 5 -7 10 -4 6 3 10 8 10 11 0 2 -4 4 -10 4 -5 0 -10
-5 -10 -11z"/>
<path d="M1077 2791 c-4 -17 -3 -21 5 -13 5 5 8 16 6 23 -3 8 -7 3 -11 -10z"/>
<path d="M1305 2790 c3 -5 11 -10 16 -10 6 0 7 5 4 10 -3 6 -11 10 -16 10 -6
0 -7 -4 -4 -10z"/>
<path d="M1211 2774 c0 -11 3 -14 6 -6 3 7 2 16 -1 19 -3 4 -6 -2 -5 -13z"/>
<path d="M1230 2780 c0 -5 10 -10 23 -10 18 0 19 2 7 10 -19 13 -30 13 -30 0z"/>
<path d="M1284 2745 c11 -8 24 -15 30 -15 5 0 1 7 -10 15 -10 8 -23 14 -29 14
-5 0 -1 -6 9 -14z"/>
<path d="M711 1534 c0 -11 3 -14 6 -6 3 7 2 16 -1 19 -3 4 -6 -2 -5 -13z"/>
<path d="M721 1494 c0 -11 3 -14 6 -6 3 7 2 16 -1 19 -3 4 -6 -2 -5 -13z"/>
<path d="M1106 1982 c-3 -4 -4 -23 -4 -41 1 -19 4 -27 9 -20 4 7 5 19 1 27 -3
10 -1 13 6 8 7 -4 10 1 9 14 -1 20 -12 26 -21 12z"/>
<path d="M1090 1370 c0 -16 2 -30 4 -30 2 0 6 14 8 30 3 17 1 30 -4 30 -4 0
-8 -13 -8 -30z"/>
<path d="M1489 1048 c4 -12 13 -24 19 -26 7 -2 7 5 -1 22 -15 32 -30 35 -18 4z"/>
<path d="M1450 970 c0 -5 5 -10 10 -10 6 0 10 5 10 10 0 6 -4 10 -10 10 -5 0
-10 -4 -10 -10z"/>
<path d="M1580 951 c0 -5 5 -13 10 -16 6 -3 10 -2 10 4 0 5 -4 13 -10 16 -5 3
-10 2 -10 -4z"/>
<path d="M1500 893 c0 -14 29 -83 35 -83 3 0 -3 19 -12 43 -18 47 -23 55 -23
40z"/>
<path d="M1590 870 c-8 -5 -12 -11 -9 -14 2 -3 11 -1 19 4 8 5 12 11 9 14 -2
3 -11 1 -19 -4z"/>
<path d="M1550 775 c7 -9 15 -13 17 -11 7 7 -7 26 -19 26 -6 0 -6 -6 2 -15z"/>
<path d="M1650 740 c0 -5 4 -10 9 -10 6 0 13 5 16 10 3 6 -1 10 -9 10 -9 0
-16 -4 -16 -10z"/>
<path d="M1615 620 c-3 -5 -1 -10 4 -10 6 0 11 5 11 10 0 6 -2 10 -4 10 -3 0
-8 -4 -11 -10z"/>
<path d="M2397 4474 c15 -14 22 -23 16 -19 -18 9 -16 -5 4 -27 16 -18 7 -26
-12 -10 -6 4 21 -22 59 -58 79 -75 102 -91 93 -66 -5 13 -2 15 20 12 l26 -5
-22 23 c-12 12 -18 26 -14 31 5 4 0 5 -10 2 -11 -4 -16 -3 -12 4 4 6 -1 20
-12 32 -10 12 10 -2 45 -32 34 -29 62 -58 62 -65 0 -13 27 -48 78 -105 18 -20
50 -61 69 -91 31 -46 113 -153 161 -210 11 -13 12 -13 6 0 -4 8 5 4 19 -9 24
-22 27 -23 27 -6 0 10 -10 30 -22 43 -13 14 -17 22 -10 18 6 -4 12 -2 12 3 0
6 -4 11 -10 11 -5 0 -10 5 -10 12 0 6 -18 35 -41 62 -32 40 -27 37 20 -14 l60
-65 0 75 c1 71 -1 77 -34 115 -19 22 -41 40 -48 40 -16 0 -153 103 -191 144
-17 17 -35 31 -42 31 -6 0 -17 7 -24 15 -7 8 -16 13 -20 10 -4 -3 -14 3 -21
13 -13 16 -12 16 6 3 11 -7 -9 14 -45 47 -36 34 -69 61 -75 62 -5 0 15 -23 45
-51 l55 -50 -68 50 c-61 45 -74 51 -118 51 l-50 0 28 -26z m54 -41 c13 -16 12
-17 -3 -4 -17 13 -22 21 -14 21 2 0 10 -8 17 -17z m50 -10 c13 -16 12 -17 -3
-4 -10 7 -18 15 -18 17 0 8 8 3 21 -13z"/>
<path d="M2105 4481 c-3 -5 -1 -12 5 -16 5 -3 10 1 10 9 0 18 -6 21 -15 7z"/>
<path d="M2660 4480 c0 -5 7 -10 15 -10 8 0 15 5 15 10 0 6 -7 10 -15 10 -8 0
-15 -4 -15 -10z"/>
<path d="M2185 4460 c-3 -5 1 -10 9 -10 9 0 16 5 16 10 0 6 -4 10 -9 10 -6 0
-13 -4 -16 -10z"/>
<path d="M725 4450 c-3 -5 1 -10 9 -10 9 0 16 5 16 10 0 6 -4 10 -9 10 -6 0
-13 -4 -16 -10z"/>
<path d="M917 4389 c7 -7 15 -10 18 -7 3 3 -2 9 -12 12 -14 6 -15 5 -6 -5z"/>
<path d="M2645 4090 c-3 -5 1 -10 9 -10 9 0 16 5 16 10 0 6 -4 10 -9 10 -6 0
-13 -4 -16 -10z"/>
<path d="M470 3850 c0 -5 7 -10 16 -10 8 0 12 5 9 10 -3 6 -10 10 -16 10 -5 0
-9 -4 -9 -10z"/>
<path d="M470 3800 c0 -5 5 -10 10 -10 6 0 10 5 10 10 0 6 -4 10 -10 10 -5 0
-10 -4 -10 -10z"/>
<path d="M514 3639 c-3 -6 -1 -16 5 -22 8 -8 11 -5 11 11 0 24 -5 28 -16 11z"/>
<path d="M1420 3410 c0 -5 -6 -10 -14 -10 -7 0 -16 -10 -19 -22 -2 -13 -8 -32
-13 -43 -7 -18 -6 -18 9 -6 21 17 22 2 2 -25 -17 -23 -19 -38 -3 -28 7 5 9 0
6 -14 -5 -18 -2 -20 28 -15 24 4 40 0 60 -16 29 -23 48 -13 36 17 -4 11 -1 13
9 8 8 -4 3 2 -10 14 -13 11 -30 19 -36 16 -8 -3 -11 8 -10 35 2 39 -17 71 -30
49 -3 -6 -11 -8 -16 -5 -5 4 -9 1 -9 -6 0 -7 -2 -10 -5 -7 -3 3 -2 13 1 22 5
12 9 14 14 6 5 -7 11 -6 21 6 12 15 12 17 0 9 -11 -6 -13 -4 -8 8 3 10 2 17
-3 17 -6 0 -10 -4 -10 -10z m0 -135 c0 -8 -4 -15 -10 -15 -5 0 -7 7 -4 15 4 8
8 15 10 15 2 0 4 -7 4 -15z"/>
<path d="M2722 3315 c3 -3 22 -6 42 -7 21 -1 41 -8 47 -17 9 -14 10 -13 5 2
-3 10 -6 21 -6 23 0 2 -21 4 -47 4 -25 0 -44 -2 -41 -5z"/>
<path d="M1506 3301 c-17 -6 -17 -8 -4 -14 10 -3 19 0 22 9 3 8 4 14 3 13 -1
0 -11 -4 -21 -8z"/>
<path d="M2653 3303 c9 -2 23 -2 30 0 6 3 -1 5 -18 5 -16 0 -22 -2 -12 -5z"/>
<path d="M2371 3274 c0 -11 3 -14 6 -6 3 7 2 16 -1 19 -3 4 -6 -2 -5 -13z"/>
<path d="M1821 3241 c6 -17 13 -31 15 -31 10 0 -3 54 -14 58 -9 3 -9 -4 -1
-27z"/>
<path d="M2370 3239 c0 -7 -8 -18 -17 -26 -17 -13 -16 -13 3 -4 11 5 26 17 34
25 10 13 10 16 -4 16 -9 0 -16 -5 -16 -11z"/>
<path d="M2455 3242 c4 -8 -1 -25 -14 -43 -11 -15 -21 -35 -21 -43 0 -8 -4
-18 -10 -21 -5 -3 -10 -11 -10 -18 0 -6 6 -2 14 9 16 21 16 20 34 -16 l13 -25
-6 25 c-15 67 -16 85 -7 71 7 -10 11 -4 15 20 3 19 0 39 -6 44 -7 7 -7 6 -2
-3z"/>
<path d="M2238 3233 c7 -3 16 -2 19 1 4 3 -2 6 -13 5 -11 0 -14 -3 -6 -6z"/>
<path d="M1703 3181 c-15 -22 -34 -40 -40 -41 -7 0 -13 -5 -13 -11 0 -6 -6 -9
-14 -6 -16 6 -40 -16 -29 -26 3 -4 2 -7 -4 -7 -6 0 -13 -7 -17 -15 -9 -24 7
-18 51 20 22 19 44 31 48 27 5 -4 5 -1 1 6 -4 7 -1 15 8 18 9 3 16 12 16 19 0
8 7 21 16 30 9 9 14 18 11 22 -3 3 -18 -13 -34 -36z m-73 -71 c0 -5 -5 -10
-11 -10 -5 0 -7 5 -4 10 3 6 8 10 11 10 2 0 4 -4 4 -10z"/>
<path d="M2308 3203 c7 -3 16 -2 19 1 4 3 -2 6 -13 5 -11 0 -14 -3 -6 -6z"/>
<path d="M1825 3190 c3 -5 8 -10 11 -10 2 0 4 5 4 10 0 6 -5 10 -11 10 -5 0
-7 -4 -4 -10z"/>
<path d="M1800 3140 c-13 -19 -17 -30 -9 -30 8 0 6 -7 -6 -20 -9 -10 -17 -31
-17 -46 0 -19 -3 -22 -9 -13 -8 11 -12 11 -23 -3 -7 -10 -19 -18 -27 -19 -9 0
-8 -3 3 -7 15 -6 13 -11 -13 -42 -18 -20 -28 -41 -26 -52 3 -10 1 -18 -5 -18
-6 0 -8 -7 -4 -15 4 -10 -1 -14 -16 -12 -11 1 -23 -4 -26 -12 -3 -8 0 -11 7
-7 6 4 11 3 11 -2 0 -6 11 -13 25 -16 22 -6 24 -9 14 -27 -13 -25 -5 -36 14
-21 8 7 17 9 20 5 4 -3 7 3 7 14 0 13 -8 23 -22 26 -21 6 -21 7 -5 25 9 10 17
23 17 28 0 5 11 22 25 37 14 15 21 27 15 27 -6 0 -8 5 -5 10 3 6 2 10 -4 10
-19 0 4 40 34 60 17 11 24 20 17 20 -9 0 -8 9 4 38 9 20 16 44 17 52 0 8 4 21
10 28 5 6 7 12 4 12 -3 0 -15 -13 -27 -30z"/>
<path d="M2779 3112 c8 -6 10 -15 6 -22 -5 -8 -3 -11 6 -8 21 7 17 32 -6 36
-15 2 -17 1 -6 -6z"/>
<path d="M2983 3109 c-6 -6 -23 -11 -38 -11 -21 0 -24 -4 -19 -20 5 -17 3 -18
-15 -9 -12 7 -21 8 -21 2 0 -5 6 -12 13 -15 6 -4 2 -4 -10 -2 -27 5 -41 -12
-22 -26 10 -6 7 -7 -9 -3 -27 8 -62 -18 -62 -46 0 -10 10 -25 22 -33 12 -9 18
-16 13 -16 -6 -1 28 -37 75 -80 l85 -80 3 91 c5 156 -1 262 -15 248z"/>
<path d="M1668 3098 c-7 -17 15 -19 29 -3 4 4 3 5 -4 2 -6 -4 -13 -2 -15 5 -3
8 -6 6 -10 -4z"/>
<path d="M2726 3062 c38 -38 39 -38 51 -18 9 16 9 23 0 28 -7 4 -13 3 -15 -2
-2 -5 -10 -6 -18 -3 -13 5 -13 8 -2 15 10 8 9 9 -4 4 -10 -3 -20 -1 -23 4 -4
6 -11 10 -18 10 -6 0 7 -17 29 -38z"/>
<path d="M1945 3000 c-3 -5 1 -10 9 -10 9 0 16 5 16 10 0 6 -4 10 -9 10 -6 0
-13 -4 -16 -10z"/>
<path d="M1874 2984 c-10 -8 -13 -12 -5 -8 11 5 13 2 9 -14 -4 -13 -1 -22 5
-22 7 0 12 14 12 30 0 17 0 30 -1 30 0 0 -9 -7 -20 -16z"/>
<path d="M1810 2952 c0 -4 5 -14 10 -22 8 -12 10 -12 10 5 0 17 2 18 11 5 8
-12 10 -12 7 -1 -4 14 -38 25 -38 13z"/>
<path d="M2467 2925 c3 -9 20 -23 37 -32 l31 -15 -29 31 c-32 33 -49 40 -39
16z"/>
<path d="M1580 2920 c0 -5 5 -10 10 -10 6 0 10 5 10 10 0 6 -4 10 -10 10 -5 0
-10 -4 -10 -10z"/>
<path d="M1853 2910 c-5 -20 -23 -28 -23 -10 0 11 -36 8 -47 -5 -5 -4 -3 -5 4
-1 14 8 27 -10 13 -19 -6 -4 -7 -11 -4 -17 4 -6 -1 -8 -16 -3 -19 6 -22 4 -16
-10 5 -13 2 -16 -9 -11 -9 3 -13 2 -10 -4 3 -6 1 -10 -4 -10 -6 0 -11 -5 -11
-11 0 -8 6 -7 17 2 15 12 16 12 10 -4 -6 -15 -1 -17 30 -15 21 1 38 -3 40 -9
3 -7 10 -10 18 -7 7 3 16 1 20 -5 3 -6 15 -11 25 -11 22 0 53 28 45 41 -4 5 1
9 9 9 20 0 21 34 1 50 -17 14 -38 4 -29 -13 5 -9 4 -9 -6 0 -17 15 -22 63 -7
63 16 0 -15 20 -31 20 -8 0 -16 -9 -19 -20z m17 -50 c0 -5 -7 -7 -15 -4 -8 4
-15 8 -15 10 0 2 7 4 15 4 8 0 15 -4 15 -10z"/>
<path d="M2241 2760 c-3 -5 -4 -15 -14 -75 -3 -16 -12 -46 -20 -65 -8 -19 -23
-53 -32 -75 -9 -22 -23 -52 -31 -67 -16 -29 -12 -32 26 -29 9 1 27 -11 40 -25
14 -15 20 -24 13 -20 -6 3 -15 2 -18 -4 -4 -6 -3 -9 2 -8 15 5 73 -27 78 -43
8 -23 97 -104 134 -120 28 -12 46 -40 41 -64 -1 -5 2 -7 6 -3 4 4 13 3 20 -3
10 -8 17 4 33 56 24 76 25 95 10 148 -8 31 -14 38 -29 34 -22 -6 -30 17 -30
91 0 36 -4 54 -14 58 -8 3 -16 15 -19 26 -3 11 -10 17 -15 14 -5 -3 -13 4 -16
17 -6 21 -7 21 -20 5 -20 -27 -29 -22 -22 13 5 27 4 29 -10 15 -18 -18 -44
-21 -44 -5 0 5 4 8 9 4 16 -10 22 12 10 39 -9 19 -15 23 -25 16 -9 -8 -12 -3
-11 22 2 23 -2 33 -13 33 -8 0 -14 -8 -14 -17 3 -29 -14 -20 -19 10 -2 15 -5
25 -6 22z m154 -180 c-3 -5 -12 -10 -18 -10 -7 0 -6 4 3 10 19 12 23 12 15 0z
m-55 -230 c0 -5 -2 -10 -4 -10 -3 0 -8 5 -11 10 -3 6 -1 10 4 10 6 0 11 -4 11
-10z"/>
<path d="M2727 2743 c-9 -8 4 -34 13 -28 5 3 17 -8 26 -25 10 -16 21 -30 24
-31 3 0 13 -2 22 -4 12 -2 15 2 10 15 -8 21 -87 82 -95 73z m83 -74 c0 -6 -4
-7 -10 -4 -5 3 -10 11 -10 16 0 6 5 7 10 4 6 -3 10 -11 10 -16z"/>
<path d="M2380 2720 c0 -5 9 -10 20 -10 11 0 20 5 20 10 0 6 -9 10 -20 10 -11
0 -20 -4 -20 -10z"/>
<path d="M2746 2537 c3 -7 48 -46 100 -87 52 -41 102 -86 111 -100 9 -14 12
-22 8 -18 -5 4 -13 4 -20 -2 -6 -5 -28 -7 -48 -3 -32 5 -36 8 -25 22 7 9 8 13
4 9 -5 -4 -14 0 -21 9 -15 20 -55 26 -48 6 4 -9 -4 -13 -22 -13 -18 0 -29 6
-32 20 -3 11 -9 20 -14 20 -5 0 -18 9 -29 20 -17 17 -18 24 -9 41 6 11 8 23 5
26 -3 3 -8 -2 -12 -11 -3 -9 -12 -16 -19 -16 -18 0 -22 -24 -15 -110 4 -62 7
-72 16 -56 11 19 12 19 23 -3 7 -12 9 -26 6 -31 -3 -5 0 -12 6 -16 8 -5 9 -3
4 6 -5 9 -4 11 3 6 7 -4 12 -14 12 -22 0 -8 4 -14 9 -14 5 0 12 -8 15 -17 3
-10 33 -47 66 -83 56 -60 59 -68 54 -102 -3 -21 2 -62 11 -97 10 -33 15 -69
12 -80 -8 -32 30 -34 52 -3 50 72 51 79 51 305 l0 214 -72 53 c-40 30 -99 73
-130 96 -31 24 -55 38 -52 31z m-55 -139 c11 -21 11 -22 -4 -9 -10 7 -17 17
-17 22 0 15 9 10 21 -13z"/>
<path d="M1067 2499 c-9 -6 -17 -17 -17 -24 0 -8 -5 -15 -11 -15 -6 0 -8 -8
-4 -19 4 -12 0 -21 -11 -25 -23 -9 -28 -2 -15 22 6 12 11 29 10 39 0 10 -5 3
-10 -15 -5 -18 -13 -31 -17 -28 -4 2 -16 -2 -27 -10 -18 -13 -17 -14 11 -16
70 -4 80 -3 98 12 11 9 16 10 12 3 -4 -7 -3 -13 2 -13 6 0 12 7 16 15 3 8 1
15 -4 15 -5 0 -7 13 -4 29 7 33 -4 44 -29 30z"/>
<path d="M2785 2449 c-10 -15 1 -23 20 -15 9 3 13 10 10 16 -8 13 -22 13 -30
-1z"/>
<path d="M918 2303 c7 -3 16 -2 19 1 4 3 -2 6 -13 5 -11 0 -14 -3 -6 -6z"/>
<path d="M2636 2236 c4 -10 -2 -17 -20 -22 -28 -7 -56 -49 -56 -82 0 -14 9
-21 30 -25 21 -5 28 -11 24 -22 -3 -8 -10 -12 -15 -9 -5 3 -7 8 -5 12 2 4 -6
8 -19 8 -23 2 -23 1 6 -23 23 -19 33 -23 42 -14 16 16 24 14 30 -10 4 -13 0
-22 -11 -27 -9 -3 -23 -11 -30 -18 -10 -10 -8 -14 9 -19 11 -4 23 -4 26 -1 4
3 1 6 -6 6 -7 0 -10 4 -7 9 11 16 43 0 117 -60 41 -32 78 -59 82 -59 5 0 7 25
6 56 -2 44 -8 62 -26 80 -13 13 -23 33 -23 46 0 13 -24 51 -58 90 -61 72 -107
112 -96 84z"/>
<path d="M2440 1866 c-6 -20 -15 -36 -19 -36 -9 0 -38 -57 -57 -115 -9 -27
-27 -74 -40 -104 -22 -48 -23 -56 -10 -75 18 -28 22 -68 12 -125 -7 -36 -5
-47 8 -57 9 -6 39 -61 65 -121 39 -88 50 -124 55 -188 11 -134 27 -229 41
-245 7 -8 15 -27 19 -42 3 -16 11 -28 16 -28 6 0 26 -10 45 -22 24 -16 34 -29
31 -40 -2 -10 0 -18 5 -18 5 0 9 -16 9 -36 0 -19 4 -33 9 -30 5 3 7 16 5 29
-4 21 -4 21 6 -2 8 -19 15 -22 36 -17 23 6 25 4 19 -11 -4 -10 -10 -30 -13
-45 -3 -21 0 -28 12 -28 23 0 75 27 104 53 19 17 25 19 32 8 4 -8 15 -11 23
-8 18 7 41 82 31 99 -4 7 -3 8 4 4 18 -11 7 147 -18 249 -37 158 -40 164 -54
159 -15 -6 -26 42 -26 111 0 84 -70 274 -111 303 -10 7 -19 20 -19 29 0 30
-39 143 -49 143 -4 0 -21 27 -37 60 -16 33 -33 60 -37 60 -5 0 -5 5 -2 10 3 6
1 10 -4 10 -6 0 -11 5 -11 12 0 6 -8 20 -17 31 -13 15 -14 18 -3 12 12 -8 12
-5 -1 15 -25 38 -45 36 -59 -4z m155 -268 c36 -89 78 -219 72 -224 -9 -9 -27
19 -45 71 -19 55 -72 232 -72 241 0 17 13 -9 45 -88z m-118 40 c-3 -8 -6 -5
-6 6 -1 11 2 17 5 13 3 -3 4 -12 1 -19z m190 -320 c-3 -8 -6 -5 -6 6 -1 11 2
17 5 13 3 -3 4 -12 1 -19z m136 -545 c-7 -2 -19 -2 -25 0 -7 3 -2 5 12 5 14 0
19 -2 13 -5z"/>
<path d="M2660 1856 c0 -16 81 -166 90 -166 19 0 10 31 -22 78 -42 63 -68 96
-68 88z"/>
<path d="M350 1745 c-1 0 -3 -45 -6 -100 -3 -55 -10 -101 -15 -103 -13 -5 -11
-19 5 -25 7 -3 30 6 51 20 l37 25 -7 70 c-9 91 -19 117 -45 115 -11 -1 -20 -1
-20 -2z"/>
<path d="M148 1683 c-24 -28 -90 -135 -104 -170 -14 -32 -10 -63 7 -63 17 0
79 45 79 57 0 6 9 28 21 48 35 59 47 145 20 145 -4 0 -15 -8 -23 -17z"/>
<path d="M130 1454 c-84 -55 -107 -98 -74 -135 18 -20 20 -50 9 -124 -5 -27
-4 -28 5 -7 8 18 15 21 37 16 16 -4 36 -11 46 -16 16 -8 18 -7 13 10 -4 11 -2
23 3 27 7 3 8 0 5 -9 -9 -23 14 -19 26 4 14 27 4 58 -18 56 -25 -2 -17 32 29
120 21 42 39 80 39 85 0 22 -68 7 -120 -27z"/>
<path d="M0 1430 c0 -19 3 -21 12 -12 9 9 9 15 0 24 -9 9 -12 7 -12 -12z"/>
<path d="M2977 1396 c-4 -9 -3 -16 2 -16 4 0 6 -11 4 -24 -3 -13 -1 -32 5 -41
7 -14 9 -7 9 26 1 51 -10 81 -20 55z"/>
<path d="M485 1360 c-3 -6 0 -10 7 -10 8 -1 6 -6 -6 -15 -11 -8 -16 -18 -13
-22 4 -3 15 2 26 13 14 16 15 22 5 32 -8 7 -15 8 -19 2z"/>
<path d="M0 1349 c0 -5 5 -7 10 -4 5 3 10 8 10 11 0 2 -4 4 -10 4 -5 0 -10 -5
-10 -11z"/>
<path d="M2252 1259 c-36 -75 -52 -130 -52 -179 0 -19 -7 -48 -16 -65 -32 -61
-65 -161 -61 -184 3 -14 -2 -43 -10 -65 -13 -37 -20 -70 -39 -191 -9 -59 -7
-114 4 -128 6 -7 9 -45 8 -84 -3 -67 -6 -75 -35 -102 -34 -32 -39 -49 -16 -57
8 -4 12 -10 9 -15 -3 -5 -1 -9 5 -9 12 0 2 -32 -13 -42 -6 -4 -7 -10 -3 -14 3
-4 53 20 110 53 97 55 127 65 127 41 0 -5 -9 -21 -20 -35 -11 -14 -20 -32 -20
-39 0 -23 49 -28 86 -10 35 16 35 16 28 69 -4 28 -13 59 -21 69 -12 13 -12 24
-3 58 8 28 16 40 25 36 13 -5 25 13 25 39 0 12 -26 46 -119 159 -9 11 -11 16
-4 13 6 -4 14 -3 17 2 4 5 -2 11 -11 14 -10 2 8 7 39 11 31 5 62 5 69 1 8 -5
10 -4 5 3 -4 7 -2 12 5 12 6 0 10 9 7 23 -3 17 1 22 19 23 13 1 23 -2 23 -7 0
-5 14 -9 30 -9 36 0 40 -17 5 -26 -14 -3 -25 -10 -25 -15 0 -14 57 18 69 38 6
12 3 29 -11 58 -11 22 -24 42 -28 45 -8 5 -28 115 -51 285 -13 90 -29 130 -99
244 l-27 43 -31 -63z m-42 -269 c0 -5 -5 -10 -11 -10 -5 0 -7 5 -4 10 3 6 8
10 11 10 2 0 4 -4 4 -10z m70 -135 c0 -5 -5 -3 -10 5 -5 8 -10 20 -10 25 0 6
5 3 10 -5 5 -8 10 -19 10 -25z m133 -152 c-7 -2 -19 -2 -25 0 -7 3 -2 5 12 5
14 0 19 -2 13 -5z"/>
<path d="M4 1235 c1 -72 11 -73 24 -3 9 47 6 61 -14 65 -8 2 -11 -19 -10 -62z"/>
<path d="M2976 1273 c5 -23 3 -33 -6 -33 -8 0 -10 -11 -5 -37 3 -21 7 -60 10
-88 2 -27 8 -61 13 -75 8 -19 11 3 11 95 0 87 -4 127 -14 145 l-15 25 6 -32z"/>
<path d="M280 1270 c0 -5 5 -10 11 -10 5 0 7 5 4 10 -3 6 -8 10 -11 10 -2 0
-4 -4 -4 -10z"/>
<path d="M410 1270 c0 -5 5 -10 10 -10 6 0 10 5 10 10 0 6 -4 10 -10 10 -5 0
-10 -4 -10 -10z"/>
<path d="M540 1269 c0 -5 5 -7 10 -4 6 3 10 8 10 11 0 2 -4 4 -10 4 -5 0 -10
-5 -10 -11z"/>
<path d="M340 1210 c0 -5 7 -10 16 -10 8 0 12 5 9 10 -3 6 -10 10 -16 10 -5 0
-9 -4 -9 -10z"/>
<path d="M420 1210 c0 -5 5 -10 11 -10 5 0 7 5 4 10 -3 6 -8 10 -11 10 -2 0
-4 -4 -4 -10z"/>
<path d="M70 1009 c0 -5 5 -7 10 -4 6 3 10 8 10 11 0 2 -4 4 -10 4 -5 0 -10
-5 -10 -11z"/>
<path d="M570 750 c0 -11 7 -20 15 -20 8 0 15 9 15 20 0 11 -7 20 -15 20 -8 0
-15 -9 -15 -20z"/>
<path d="M2390 610 c-13 -8 -12 -10 3 -10 9 0 17 5 17 10 0 12 -1 12 -20 0z"/>
<path d="M2570 450 c0 -5 0 -13 0 -17 0 -5 9 -9 20 -9 20 -1 20 0 4 17 -19 22
-24 23 -24 9z"/>
<path d="M2474 432 c8 -7 -32 -45 -41 -39 -14 9 -39 -16 -47 -45 -3 -16 -13
-28 -21 -28 -18 0 -18 -1 -1 -34 l14 -27 20 28 c11 16 32 35 47 43 16 8 24 19
20 28 -3 8 3 29 13 47 15 24 16 32 6 32 -8 0 -12 -2 -10 -5z"/>
<path d="M2580 390 c0 -5 5 -10 10 -10 6 0 10 5 10 10 0 6 -4 10 -10 10 -5 0
-10 -4 -10 -10z"/>
<path d="M2512 368 c-7 -7 -12 -20 -12 -31 0 -11 -13 -23 -34 -32 -43 -18
-105 -105 -75 -105 6 0 7 -4 4 -10 -11 -18 1 -11 36 20 19 16 38 30 42 30 5 0
5 5 2 10 -3 6 -2 10 4 10 22 0 63 50 58 69 -3 11 0 22 5 23 6 2 4 9 -4 16 -11
9 -17 9 -26 0z"/>
<path d="M462 252 c-79 -77 -111 -122 -84 -122 55 1 210 83 218 116 8 30 -10
88 -27 92 -8 1 -56 -37 -107 -86z"/>
<path d="M355 281 c-3 -5 -1 -12 5 -16 5 -3 10 1 10 9 0 18 -6 21 -15 7z"/>
<path d="M1460 270 c0 -5 5 -10 10 -10 6 0 10 5 10 10 0 6 -4 10 -10 10 -5 0
-10 -4 -10 -10z"/>
<path d="M1770 190 c0 -5 5 -10 10 -10 6 0 10 5 10 10 0 6 -4 10 -10 10 -5 0
-10 -4 -10 -10z"/>
<path d="M1749 161 c7 -5 10 -14 7 -20 -4 -6 0 -11 8 -11 9 0 16 4 16 8 0 12
-22 32 -34 32 -6 0 -5 -4 3 -9z"/>
<path d="M2497 86 c-49 -18 -107 -58 -107 -73 0 -9 19 -13 63 -13 59 0 65 2
96 34 54 56 30 81 -52 52z"/>
<path d="M1412 65 c1 -11 -1 -26 -5 -33 -5 -7 -3 -12 6 -12 22 0 28 25 11 47
-14 17 -15 17 -12 -2z"/>
<path d="M1454 69 c-4 -8 -3 -9 4 -5 7 4 12 2 12 -3 0 -6 5 -11 11 -11 13 0 7
22 -8 27 -6 2 -15 -1 -19 -8z"/>
<path d="M2168 53 c7 -3 16 -2 19 1 4 3 -2 6 -13 5 -11 0 -14 -3 -6 -6z"/>
</g>
</svg>
