<?xml version="1.0" standalone="no"?>
<!DOCTYPE svg PUBLIC "-//W3C//DTD SVG 20010904//EN"
 "http://www.w3.org/TR/2001/REC-SVG-20010904/DTD/svg10.dtd">
<svg version="1.0" xmlns="http://www.w3.org/2000/svg"
 width="300.000000pt" height="450.000000pt" viewBox="0 0 300.000000 450.000000"
 preserveAspectRatio="xMidYMid meet">

<g transform="translate(0.000000,450.000000) scale(0.100000,-0.100000)"
fill="#000000" stroke="none">
<path d="M385 4451 c0 -27 3 -44 7 -38 12 18 9 1 -4 -28 -6 -14 -15 -25 -20
-25 -13 0 -9 18 4 22 10 4 9 9 -3 21 -12 12 -19 13 -28 4 -8 -8 -11 -8 -11 1
0 7 -4 12 -10 12 -6 0 -9 -3 -8 -7 2 -5 -7 -18 -19 -30 -25 -25 -30 -43 -12
-43 5 0 8 4 4 9 -3 6 4 15 15 21 21 11 21 11 5 -14 -10 -14 -21 -26 -25 -26
-5 0 -10 -7 -12 -16 -3 -13 -5 -13 -23 1 -14 12 -15 15 -4 12 12 -4 15 0 11
19 -5 27 -12 30 -31 12 -11 -11 -14 -10 -18 0 -4 10 -9 10 -23 -3 -18 -16 -18
-16 -13 4 3 12 9 21 14 21 5 0 9 10 8 23 0 12 -3 16 -6 9 -2 -6 -8 -10 -13 -7
-4 2 -7 -7 -7 -22 0 -15 -6 -29 -12 -31 -6 -2 -8 -9 -4 -15 4 -7 0 -8 -11 -4
-10 4 -15 3 -11 -3 3 -6 -4 -10 -17 -10 -18 0 -20 2 -8 10 10 6 11 10 3 10 -7
0 -20 14 -28 31 -9 17 -19 28 -22 25 -3 -3 0 -12 7 -21 7 -8 9 -15 5 -15 -4 0
-14 8 -21 18 -10 14 -15 15 -26 4 -13 -13 -20 -64 -7 -57 3 3 16 -7 29 -22
l22 -26 -28 6 c-16 4 -23 4 -16 1 6 -3 12 -12 12 -21 0 -8 7 -21 15 -29 15
-15 11 -35 -12 -69 -13 -19 -13 -19 -13 1 0 11 3 24 8 30 4 5 -1 1 -10 -9 -13
-14 -15 -24 -8 -37 6 -10 10 -27 10 -37 0 -15 -2 -16 -10 -3 -6 10 -10 -62
-10 -212 l0 -228 200 0 199 0 4 -77 c1 -43 4 144 5 415 2 388 -1 492 -10 492
-9 0 -13 -17 -13 -49z m11 -105 c0 -13 -4 -22 -8 -19 -5 2 -8 -2 -9 -9 0 -7
-2 -21 -4 -30 -5 -25 4 -22 15 5 7 17 8 14 5 -18 -2 -22 -12 -46 -22 -54 -15
-11 -15 -13 -1 -8 9 3 19 3 22 0 8 -8 -22 -48 -37 -48 -6 0 -14 -13 -17 -30
-6 -30 -6 -30 -17 12 -8 30 -7 45 1 53 7 7 7 13 1 18 -16 12 -16 32 0 26 17
-7 21 11 5 21 -13 8 -3 25 13 25 7 0 6 -4 -3 -11 -13 -9 -13 -10 0 -6 9 2 14
14 13 26 -2 13 1 20 7 16 6 -3 11 -1 11 4 3 21 4 26 12 39 12 18 15 15 13 -12z
m-82 -54 c-9 -14 -18 -35 -19 -46 -4 -34 -5 -36 -15 -36 -16 0 -2 82 18 101
25 24 36 12 16 -19z m-91 11 c-2 -7 2 -12 8 -10 6 1 14 -4 17 -12 3 -8 0 -11
-7 -7 -6 4 -11 2 -11 -4 0 -6 -4 -8 -10 -5 -5 3 -10 2 -10 -4 0 -5 6 -12 13
-14 7 -3 5 -6 -5 -6 -13 -1 -18 7 -18 23 0 13 -7 27 -16 30 -12 4 -14 1 -9
-14 5 -15 0 -22 -21 -30 -15 -6 -32 -9 -38 -7 -6 3 5 9 24 16 l35 11 -32 -5
c-40 -5 -45 15 -10 40 26 18 93 17 90 -2z m-126 -45 c1 -27 -2 -48 -7 -48 -6
0 -11 3 -11 8 -8 49 -7 62 4 56 7 -3 1 4 -13 16 l-25 22 25 -3 c22 -4 25 -9
27 -51z m83 -29 c0 -6 9 -8 20 -4 47 15 74 -17 52 -63 -5 -9 -15 -30 -23 -47
-18 -36 -61 -45 -90 -19 -21 19 -26 54 -6 54 6 0 4 5 -5 11 -11 6 -18 22 -18
39 0 19 6 30 18 33 32 9 52 7 52 -4z m-95 -61 c9 -29 12 -139 4 -144 -5 -3 -7
-10 -4 -15 4 -5 2 -9 -3 -9 -5 0 -8 21 -6 48 2 26 1 41 -2 34 -3 -6 -10 -10
-15 -6 -5 3 -9 -1 -10 -8 0 -7 -5 -2 -10 11 -9 22 -4 73 8 94 7 12 33 8 38 -5z
m215 -45 c0 -17 -4 -35 -10 -38 -5 -3 -10 0 -10 7 0 9 -3 9 -10 -2 -7 -11 -10
-7 -10 18 0 39 20 77 32 59 4 -7 8 -26 8 -44z m-177 -53 c3 -11 2 -22 -3 -25
-4 -3 -10 6 -12 20 -6 30 7 34 15 5z m37 -15 c7 -9 8 -15 2 -15 -5 0 -12 7
-16 15 -3 8 -4 15 -2 15 2 0 9 -7 16 -15z m121 -81 c3 3 6 0 6 -7 0 -8 -6 -14
-13 -14 -7 0 -11 4 -8 9 3 4 -3 8 -14 8 -16 0 -19 6 -16 32 8 69 17 76 28 20
6 -30 14 -51 17 -48z m-216 46 c1 -22 -3 -40 -7 -40 -10 0 -11 64 -1 73 3 4 7
7 7 7 1 0 1 -18 1 -40z m148 20 c-3 -11 -9 -23 -14 -26 -10 -6 -12 29 -2 39
13 13 21 7 16 -13z m-38 -20 c3 -5 1 -10 -4 -10 -6 0 -11 5 -11 10 0 6 2 10 4
10 3 0 8 -4 11 -10z m-55 -30 c0 -5 -4 -10 -10 -10 -5 0 -10 5 -10 10 0 6 5
10 10 10 6 0 10 -4 10 -10z m5 -84 c23 -35 5 -76 -33 -76 -45 0 -65 36 -46 84
10 25 61 20 79 -8z m230 4 c9 -27 -19 -70 -45 -70 -26 0 -63 38 -56 57 3 8 6
19 6 24 0 5 20 9 44 9 36 0 46 -4 51 -20z m-234 -120 c13 -7 19 -21 19 -43 0
-40 -15 -57 -50 -57 -33 0 -50 17 -50 51 0 48 38 71 81 49z m217 -2 c17 -17
15 -64 -4 -82 -16 -17 -41 -20 -68 -10 -23 9 -22 80 2 93 23 14 55 14 70 -1z"/>
<path d="M346 4191 c-3 -5 1 -11 9 -14 9 -4 12 -1 8 9 -6 16 -10 17 -17 5z"/>
<path d="M120 4210 c0 -5 6 -10 13 -11 6 0 20 -2 30 -4 9 -2 17 3 17 11 0 9
-11 14 -30 14 -16 0 -30 -4 -30 -10z"/>
<path d="M207 4208 c-15 -12 -14 -13 14 -15 19 -2 29 2 27 9 -6 18 -22 20 -41
6z"/>
<path d="M190 4159 c0 -5 5 -7 10 -4 6 3 10 8 10 11 0 2 -4 4 -10 4 -5 0 -10
-5 -10 -11z"/>
<path d="M168 4118 c2 -10 13 -18 24 -18 16 0 18 3 9 14 -9 11 -9 15 1 19 7 3
1 5 -13 4 -20 -1 -25 -5 -21 -19z"/>
<path d="M62 4125 c0 -16 2 -22 5 -12 2 9 2 23 0 30 -3 6 -5 -1 -5 -18z"/>
<path d="M41 4114 c0 -11 3 -14 6 -6 3 7 2 16 -1 19 -3 4 -6 -2 -5 -13z"/>
<path d="M5 4409 c-4 -6 -5 -12 -2 -15 2 -3 7 2 10 11 7 17 1 20 -8 4z"/>
<path d="M30 4410 c0 -5 5 -10 10 -10 6 0 10 5 10 10 0 6 -4 10 -10 10 -5 0
-10 -4 -10 -10z"/>
<path d="M220 4411 c0 -6 4 -13 10 -16 6 -3 7 1 4 9 -7 18 -14 21 -14 7z"/>
<path d="M200 4386 c0 -9 5 -16 10 -16 6 0 10 4 10 9 0 6 -4 13 -10 16 -5 3
-10 -1 -10 -9z"/>
<path d="M250 4390 c0 -5 5 -10 10 -10 6 0 10 5 10 10 0 6 -4 10 -10 10 -5 0
-10 -4 -10 -10z"/>
<path d="M1854 4380 c-66 -15 -111 -55 -182 -156 -7 -11 -10 -13 -6 -5 9 19
-57 153 -70 142 -12 -10 -46 -9 -63 2 -6 4 -16 0 -23 -8 -10 -12 -16 -13 -26
-4 -11 9 -18 8 -28 0 -9 -8 -16 -8 -20 -2 -4 6 -13 8 -21 4 -9 -3 -23 1 -31 8
-15 13 -16 1 -13 -136 3 -128 2 -150 -11 -150 -12 0 -14 14 -11 82 3 76 1 85
-29 142 -26 48 -37 60 -51 56 -9 -3 -20 -1 -24 5 -3 6 -12 7 -18 3 -24 -15
-86 -23 -93 -12 -3 5 -14 3 -24 -3 -15 -10 -22 -10 -32 0 -16 16 -613 18 -623
2 -4 -6 -1 -17 5 -25 10 -11 10 -18 1 -29 -6 -8 -11 -18 -10 -22 1 -5 0 -11
-1 -14 -6 -15 -5 -92 2 -96 5 -3 5 -10 2 -16 -12 -19 -14 -78 -2 -78 5 0 7 -7
4 -17 -4 -10 3 -26 21 -45 24 -25 34 -28 89 -28 l62 0 5 -32 c4 -18 12 -128
18 -244 12 -194 14 -213 35 -237 19 -23 29 -26 73 -23 28 2 54 0 57 -5 3 -5
13 -3 23 3 14 9 23 7 42 -5 13 -10 26 -17 30 -17 4 0 10 124 14 275 l7 275 68
0 67 0 7 -77 c3 -43 8 -148 12 -233 6 -154 6 -155 36 -186 30 -32 41 -34 158
-23 8 1 23 -1 33 -6 15 -6 17 1 17 91 0 55 3 123 6 152 6 46 9 52 30 52 23 0
24 -2 26 -92 2 -141 3 -147 32 -177 24 -25 34 -28 74 -26 26 2 52 4 57 6 6 2
21 -3 33 -10 13 -7 26 -10 30 -7 3 4 9 69 12 146 3 77 9 142 12 145 3 3 11
-15 17 -41 24 -95 85 -173 166 -210 126 -59 262 -5 329 131 l25 50 0 -72 c1
-62 4 -76 28 -105 15 -18 28 -35 30 -37 1 -2 9 2 17 8 10 9 16 9 21 1 5 -8 11
-8 21 1 11 9 18 9 26 1 8 -8 16 -7 29 1 14 9 21 9 31 -1 23 -23 28 -12 29 56
1 61 14 182 18 156 2 -20 84 -149 114 -182 17 -18 37 -30 43 -28 6 2 17 -1 24
-7 10 -9 14 -9 17 1 4 10 8 10 20 0 12 -10 17 -9 24 5 13 22 31 21 79 -3 22
-11 41 -20 44 -20 2 0 -31 74 -75 165 -43 91 -79 168 -79 172 0 3 16 22 36 41
36 35 84 122 84 153 0 22 26 43 41 33 7 -4 9 -3 6 3 -3 5 -46 9 -97 8 l-90 -1
0 177 c0 204 9 190 -114 185 -39 -2 -118 -4 -175 -5 -81 -1 -101 -4 -93 -13 6
-8 6 -22 1 -37 -7 -18 -15 -22 -33 -19 -30 6 -35 -10 -37 -112 0 -73 -1 -74
-13 -40 -40 108 -121 224 -138 198 -6 -10 -13 -8 -28 10 -10 13 -34 27 -52 33
-37 10 -40 10 -84 -1z m-1172 -105 c-7 -37 -19 -39 -24 -5 -4 23 -1 30 12 30
13 0 16 -6 12 -25z m51 13 c4 -10 8 -9 16 2 8 12 11 7 11 -20 0 -27 -3 -32
-11 -20 -8 11 -12 12 -16 3 -9 -24 -23 -13 -23 17 0 30 14 41 23 18z m79 3
c-14 -9 -13 -31 3 -44 6 -5 1 -7 -10 -5 -29 5 -30 58 -1 58 15 0 17 -3 8 -9z
m-92 -101 c0 -5 -6 -10 -14 -10 -16 0 -29 -27 -20 -41 3 -5 12 -9 21 -9 13 0
13 3 3 15 -10 12 -9 15 4 15 22 0 18 -39 -6 -53 -37 -24 -66 44 -32 77 17 18
44 21 44 6z m60 -16 c0 -8 5 -14 10 -14 6 0 10 9 10 20 0 11 5 20 10 20 6 0
10 -20 10 -45 0 -45 -12 -60 -24 -28 -6 14 -8 14 -21 -3 -13 -17 -14 -15 -15
29 0 30 4 46 10 42 6 -3 10 -13 10 -21z m120 16 c0 -5 -4 -10 -10 -10 -5 0
-10 -16 -10 -35 0 -19 -4 -35 -10 -35 -5 0 -10 16 -10 35 0 19 -4 35 -10 35
-5 0 -10 5 -10 10 0 6 14 10 30 10 17 0 30 -4 30 -10z m43 -2 c4 -10 7 -10 18
0 22 21 32 13 15 -13 -9 -13 -16 -33 -16 -45 0 -27 -16 -26 -23 3 -3 12 -9 32
-12 45 -8 23 10 32 18 10z m-406 -20 l10 -23 12 23 c19 35 31 26 31 -23 0 -25
-5 -45 -11 -45 -5 0 -7 5 -4 10 3 6 2 10 -4 10 -5 0 -13 -5 -17 -12 -5 -7 -11
-5 -21 7 -12 17 -13 17 -13 2 0 -9 -4 -17 -10 -17 -5 0 -10 20 -10 45 0 50 19
62 37 23z m103 -23 c0 -25 -4 -45 -10 -45 -5 0 -10 20 -10 45 0 25 5 45 10 45
6 0 10 -20 10 -45z m1309 -196 c3 -95 -17 -179 -43 -179 -21 0 -46 68 -46 123
0 67 16 123 42 149 31 31 43 9 47 -93z m552 49 c-5 -15 -18 -24 -35 -26 -22
-3 -26 0 -26 22 0 23 4 26 35 26 31 0 34 -2 26 -22z"/>
<path d="M2646 4324 c-3 -8 17 -11 75 -10 45 0 79 5 79 11 0 6 5 3 10 -5 9
-13 10 -13 10 1 0 13 -14 15 -85 15 -56 0 -86 -4 -89 -12z"/>
<path d="M2830 4324 c0 -17 22 -14 28 4 2 7 -3 12 -12 12 -9 0 -16 -7 -16 -16z"/>
<path d="M2680 4280 c0 -5 5 -10 10 -10 6 0 10 5 10 10 0 6 -4 10 -10 10 -5 0
-10 -4 -10 -10z"/>
<path d="M2750 4286 c0 -9 30 -14 35 -6 4 6 -3 10 -14 10 -12 0 -21 -2 -21 -4z"/>
<path d="M2800 4280 c0 -5 5 -10 10 -10 6 0 10 5 10 10 0 6 -4 10 -10 10 -5 0
-10 -4 -10 -10z"/>
<path d="M7 4250 c3 -11 7 -20 9 -20 2 0 4 9 4 20 0 11 -4 20 -9 20 -5 0 -7
-9 -4 -20z"/>
<path d="M2647 4244 c-8 -8 1 -24 12 -24 4 0 8 7 8 15 0 16 -9 20 -20 9z"/>
<path d="M2680 4235 c0 -8 7 -15 15 -15 8 0 15 7 15 15 0 8 -7 15 -15 15 -8 0
-15 -7 -15 -15z"/>
<path d="M2720 4235 c0 -8 9 -15 20 -15 11 0 20 7 20 15 0 8 -9 15 -20 15 -11
0 -20 -7 -20 -15z"/>
<path d="M2771 4234 c0 -11 3 -14 6 -6 3 7 2 16 -1 19 -3 4 -6 -2 -5 -13z"/>
<path d="M2790 4235 c0 -8 8 -15 18 -15 13 0 14 2 3 9 -11 7 -11 9 0 14 10 4
9 6 -3 6 -10 1 -18 -6 -18 -14z"/>
<path d="M2830 4235 c0 -8 5 -15 10 -15 6 0 10 7 10 15 0 8 -4 15 -10 15 -5 0
-10 -7 -10 -15z"/>
<path d="M2684 4199 c-3 -6 -1 -16 5 -22 8 -8 11 -5 11 11 0 24 -5 28 -16 11z"/>
<path d="M2715 4200 c-9 -15 4 -32 18 -23 7 4 29 7 50 6 24 -2 37 2 37 11 0 7
-12 13 -30 13 -16 0 -30 -5 -30 -11 0 -6 -5 -5 -12 2 -15 15 -25 15 -33 2z"/>
<path d="M2710 4153 c-37 -7 -50 -29 -38 -64 8 -23 16 -29 39 -29 37 0 57 18
52 45 -4 15 -2 17 5 6 13 -18 35 -4 27 18 -5 13 -4 13 6 4 10 -10 9 -16 -4
-31 -23 -25 -21 -42 2 -42 33 0 53 57 28 78 -16 13 -82 22 -117 15z m50 -7 c0
-2 -8 -10 -17 -17 -16 -13 -17 -12 -4 4 13 16 21 21 21 13z m-45 -30 c0 -13
-3 -22 -7 -19 -5 2 -8 13 -8 24 0 10 3 19 8 19 4 0 7 -11 7 -24z m17 -38 c-8
-8 -9 -4 -5 13 4 13 8 18 11 10 2 -7 -1 -18 -6 -23z"/>
<path d="M2663 4043 c-13 -3 -23 -8 -23 -13 0 -11 169 -8 187 3 6 4 13 2 15
-5 3 -8 6 -7 10 4 6 14 -5 16 -80 15 -48 0 -97 -2 -109 -4z"/>
<path d="M2868 4003 c7 -3 16 -2 19 1 4 3 -2 6 -13 5 -11 0 -14 -3 -6 -6z"/>
<path d="M469 3668 c-6 -15 -4 -80 3 -84 4 -3 8 15 8 40 0 37 -5 58 -11 44z"/>
<path d="M507 3664 c-11 -11 -8 -26 3 -19 14 8 13 -18 -1 -32 -6 -6 -8 -16 -5
-22 11 -17 25 -13 25 7 0 9 2 28 3 41 3 24 -12 38 -25 25z"/>
<path d="M554 3646 c-7 -31 4 -68 19 -63 17 5 21 48 5 58 -10 7 -10 9 0 9 6 0
12 5 12 10 0 21 -30 9 -36 -14z"/>
<path d="M173 3633 c-8 -3 -13 -23 -13 -53 0 -48 15 -74 30 -50 5 9 9 9 14 1
4 -6 14 -11 22 -11 13 0 13 2 0 22 -11 15 -12 26 -6 39 18 32 -11 64 -47 52z
m27 -36 c0 -8 -6 -14 -14 -14 -8 0 -12 6 -9 14 3 7 9 13 14 13 5 0 9 -6 9 -13z"/>
<path d="M235 3603 c12 -72 16 -84 28 -80 14 4 39 105 27 112 -11 7 -20 -6
-21 -29 0 -17 -2 -16 -11 7 -14 40 -30 33 -23 -10z"/>
<path d="M304 3616 c-9 -39 -1 -91 17 -94 13 -2 15 8 15 58 0 43 -3 60 -13 60
-7 0 -15 -11 -19 -24z"/>
<path d="M350 3580 c0 -53 2 -60 20 -60 11 0 20 7 20 15 0 8 -4 15 -10 15 -5
0 -10 20 -10 45 0 25 -4 45 -10 45 -6 0 -10 -27 -10 -60z"/>
<path d="M10 3575 c0 -53 13 -74 23 -37 4 14 5 14 6 -3 1 -17 3 -18 11 -5 6
10 10 11 10 3 0 -7 5 -13 10 -13 6 0 10 25 10 55 0 42 -3 55 -15 55 -8 0 -15
-8 -15 -17 -1 -17 -1 -17 -11 0 -18 31 -29 18 -29 -38z"/>
<path d="M106 3593 c-4 -21 -9 -45 -12 -54 -3 -11 4 -15 29 -16 l32 -1 -5 51
c-4 37 -10 53 -21 55 -12 2 -18 -7 -23 -35z"/>
<path d="M460 3544 c0 -11 6 -15 20 -11 10 3 21 0 24 -7 3 -6 5 -2 3 8 -3 24
-47 33 -47 10z"/>
<path d="M526 3544 c-3 -9 -6 -17 -6 -18 0 -1 9 -2 20 -3 11 -1 20 0 20 2 0
11 -13 35 -20 35 -4 0 -11 -7 -14 -16z"/>
<path d="M570 3542 c0 -10 7 -19 15 -19 8 0 15 9 15 19 0 10 -7 18 -15 18 -8
0 -15 -8 -15 -18z"/>
<path d="M401 3494 c0 -11 3 -14 6 -6 3 7 2 16 -1 19 -3 4 -6 -2 -5 -13z"/>
<path d="M24 3485 c-8 -21 4 -35 29 -34 17 1 18 2 5 6 -10 2 -18 8 -18 13 0 5
8 14 18 19 15 9 14 10 -6 11 -12 0 -25 -7 -28 -15z"/>
<path d="M89 3484 c-11 -14 -11 -18 4 -29 14 -10 15 -14 4 -18 -10 -4 -13 -15
-9 -32 3 -16 8 -22 12 -16 4 7 15 9 26 5 10 -4 16 -4 12 1 -4 4 -3 14 2 20 8
9 6 15 -6 19 -16 6 -16 8 1 20 22 16 14 46 -13 46 -11 0 -26 -7 -33 -16z m41
-15 c0 -5 -7 -9 -15 -9 -15 0 -20 12 -9 23 8 8 24 -1 24 -14z"/>
<path d="M160 3479 c0 -20 5 -24 30 -25 26 -1 30 2 30 23 0 22 -2 24 -15 13
-12 -10 -18 -10 -30 0 -13 10 -15 9 -15 -11z"/>
<path d="M230 3476 c0 -27 15 -35 23 -13 4 10 6 10 6 0 1 -7 11 -13 23 -13 21
0 21 1 3 14 -18 13 -18 13 1 24 16 10 17 11 2 12 -9 0 -20 -5 -23 -10 -5 -8
-11 -7 -21 1 -11 9 -14 7 -14 -15z"/>
<path d="M317 3493 c-12 -12 -7 -23 11 -24 14 0 14 -2 -3 -9 -18 -8 -17 -9 8
-9 18 -1 27 4 27 14 0 8 -5 15 -11 15 -5 0 -7 5 -4 10 7 11 -18 14 -28 3z"/>
<path d="M458 3493 c7 -3 16 -2 19 1 4 3 -2 6 -13 5 -11 0 -14 -3 -6 -6z"/>
<path d="M498 3493 c6 -2 18 -2 25 0 6 3 1 5 -13 5 -14 0 -19 -2 -12 -5z"/>
<path d="M553 3493 c9 -2 25 -2 35 0 9 3 1 5 -18 5 -19 0 -27 -2 -17 -5z"/>
<path d="M531 3428 c35 -51 61 -78 71 -72 4 3 34 -10 66 -30 31 -19 102 -51
157 -72 107 -40 148 -61 140 -74 -3 -5 -1 -10 3 -12 5 -1 6 -13 3 -25 l-6 -22
-45 20 c-25 12 -72 26 -105 33 -58 12 -61 14 -76 56 -9 24 -21 46 -27 48 -6 2
2 -24 19 -58 35 -73 36 -88 7 -101 -20 -8 -18 -9 10 -4 45 7 131 -35 183 -88
39 -40 68 -87 90 -143 8 -22 7 -25 -6 -20 -10 3 -13 2 -10 -5 4 -5 1 -17 -6
-25 -10 -12 -9 -13 5 -8 25 10 20 -21 -7 -39 -15 -10 -29 -12 -38 -6 -8 5 -9
9 -3 9 7 0 14 7 18 15 4 12 2 13 -12 7 -74 -37 -123 -58 -167 -68 -27 -7 -40
-13 -28 -13 11 -1 50 8 85 19 34 11 64 20 66 20 1 0 2 -6 2 -14 0 -22 -106
-58 -187 -64 -78 -5 -88 2 -63 49 9 16 18 18 50 13 32 -5 41 -3 46 11 4 10 2
26 -5 37 -10 16 -6 24 29 57 45 42 52 79 25 131 -28 54 -144 120 -210 120 -37
0 -30 16 15 34 52 21 77 20 83 -1 3 -11 5 -7 6 10 1 22 -3 27 -23 27 -14 0
-32 7 -40 16 -9 8 -16 12 -16 7 0 -4 -4 -3 -8 3 -4 6 -26 23 -49 38 -47 29
-55 41 -20 30 49 -15 50 -14 3 11 -56 28 -69 32 -40 10 10 -8 15 -15 10 -15
-5 0 0 -10 12 -23 l22 -23 -61 4 c-56 4 -64 2 -112 -30 -109 -74 -108 -74
-159 -48 -25 12 -59 35 -76 51 -38 35 -42 19 -8 -26 29 -38 133 -95 172 -95
23 1 18 4 -24 19 -79 27 -82 40 -5 20 38 -10 86 -19 108 -20 39 -1 39 -2 10
-9 -21 -5 -24 -8 -10 -10 11 -1 27 -3 35 -5 8 -1 51 -8 95 -15 44 -6 93 -18
109 -26 16 -8 34 -14 41 -14 6 0 24 -13 39 -29 29 -30 29 -68 0 -92 -8 -6 -14
-16 -14 -21 0 -15 37 26 45 50 19 62 -29 111 -132 133 -78 17 -96 27 -47 27
69 1 179 -33 167 -51 -3 -5 -1 -7 4 -4 6 4 22 -4 37 -18 40 -37 35 -76 -14
-124 -36 -35 -54 -81 -31 -81 18 0 22 -34 5 -47 -19 -14 -38 -7 -30 12 3 8 -2
11 -14 8 -29 -8 -55 -71 -43 -104 9 -24 8 -28 -14 -38 -27 -12 -43 -7 -43 14
0 8 -4 16 -9 19 -14 9 -1 -32 15 -45 8 -6 14 -20 14 -31 0 -27 19 -60 31 -53
5 4 12 -1 15 -9 3 -9 17 -16 30 -16 13 0 24 -5 24 -12 0 -6 3 -9 6 -6 3 3 -4
24 -15 47 -12 22 -21 47 -21 56 0 8 -3 14 -7 14 -20 -3 -22 2 -5 19 16 17 18
16 29 -23 l13 -40 -5 43 c-5 37 -3 42 15 42 12 0 20 -7 20 -17 0 -31 33 -133
42 -133 6 0 7 8 3 18 -15 39 -33 132 -25 132 5 0 12 -15 16 -32 10 -46 36 -98
46 -92 4 3 8 0 8 -5 0 -6 5 -11 11 -11 6 0 8 9 4 21 -14 44 20 13 49 -45 40
-79 47 -161 17 -209 -12 -19 -29 -41 -39 -48 -15 -13 -16 -12 -4 3 10 13 11
25 4 50 -6 18 -13 50 -17 72 -6 35 -7 37 -20 20 -8 -11 -15 -33 -15 -49 0 -17
-4 -35 -9 -40 -5 -6 -11 -19 -14 -30 -3 -11 -5 1 -6 26 -1 64 -19 154 -43 217
-24 65 -35 64 -13 -2 9 -25 13 -52 9 -59 -4 -6 -3 -8 2 -4 11 11 33 -94 33
-167 1 -49 -4 -65 -25 -93 -32 -42 -77 -65 -117 -60 l-32 3 30 12 c17 7 36 22
43 33 20 32 17 111 -7 155 -23 44 -24 43 -25 -47 -1 -76 -21 -110 -65 -108
l-26 1 27 9 c23 9 27 15 23 42 -4 29 -4 29 4 7 8 -22 9 -22 11 -5 7 71 -17
139 -63 175 -25 19 -29 20 -17 5 10 -14 7 -13 -13 4 -30 27 -38 52 -9 30 15
-13 16 -12 3 3 -7 10 -17 15 -22 12 -5 -3 -12 2 -15 10 -3 9 -11 13 -18 9 -6
-3 -8 -3 -4 2 4 4 3 16 -3 27 -16 30 -29 129 -20 146 7 13 13 9 30 -19 11 -19
23 -38 25 -44 3 -6 9 -3 15 5 9 13 11 12 11 -5 0 -27 58 -117 70 -110 5 3 7
12 4 20 -4 8 -10 12 -15 9 -5 -3 -6 3 -2 12 3 10 2 15 -3 12 -5 -3 -10 10 -11
31 -1 29 1 32 8 16 8 -17 9 -17 4 5 -2 14 -5 32 -6 40 0 10 -3 9 -8 -4 -5 -13
-7 -2 -7 31 1 42 4 49 19 45 31 -8 18 14 -17 26 -42 15 -86 49 -86 66 0 7 12
18 26 24 22 11 24 14 10 27 -8 8 -24 15 -36 15 -12 0 -19 4 -15 9 6 10 -48 40
-74 42 -9 1 -5 5 9 9 20 6 15 8 -25 9 l-50 2 33 14 c29 13 31 16 20 35 -7 11
-24 20 -38 20 -20 0 -22 2 -10 10 13 8 13 10 -2 10 -9 0 -20 -4 -23 -10 -7
-11 -68 11 -124 44 -19 11 -32 15 -28 9 4 -6 -13 -27 -39 -48 -25 -21 -59 -56
-75 -78 l-29 -40 0 -557 c0 -481 2 -557 15 -557 8 0 12 4 9 9 -3 4 -2 8 3 8
11 0 44 -80 37 -91 -9 -15 -48 8 -55 32 -4 13 -7 -337 -8 -778 -1 -776 0 -801
18 -796 13 3 25 -7 44 -39 34 -58 104 -128 129 -128 15 0 11 8 -23 43 -46 47
-84 101 -94 135 -11 37 11 25 38 -20 14 -24 49 -69 77 -100 l52 -58 154 0 155
0 -8 23 c-4 12 -7 34 -7 49 1 16 -3 25 -9 21 -6 -4 -8 0 -4 10 3 10 2 17 -3
17 -6 0 -10 8 -9 18 0 10 3 12 6 4 2 -6 9 -10 14 -6 5 3 9 -5 9 -18 0 -17 3
-19 9 -9 11 17 31 6 30 -17 0 -14 -2 -13 -9 3 -8 20 -8 20 -16 1 -5 -12 -3
-21 4 -24 6 -2 9 -9 6 -17 -3 -7 -1 -16 5 -19 6 -4 7 -14 4 -24 -4 -13 -2 -13
10 3 15 18 16 18 17 3 0 -21 26 -24 33 -5 4 9 6 9 6 0 1 -7 10 -13 21 -13 17
0 19 5 15 28 -3 15 -2 20 2 12 7 -17 29 -40 37 -40 4 0 4 12 1 28 l-5 27 11
-27 c7 -20 18 -28 35 -28 13 0 24 5 24 10 0 6 5 10 11 10 5 0 7 -5 4 -10 -3
-6 3 -10 15 -10 17 0 20 4 16 23 -6 22 -6 22 6 -1 l12 -23 13 23 14 23 -7 -24
c-7 -26 -4 -25 49 11 15 11 27 15 27 9 0 -5 -9 -13 -20 -16 -19 -6 -28 -25
-12 -25 20 0 52 33 48 48 -3 10 -1 24 5 32 8 12 10 12 8 -5 0 -11 2 -30 6 -43
6 -19 13 -22 32 -17 16 4 22 2 18 -5 -3 -5 1 -10 10 -10 10 0 51 27 92 60 42
34 77 59 79 57 3 -2 -1 -17 -7 -33 -6 -16 -13 -42 -15 -59 -2 -17 8 2 21 40
14 39 24 76 23 82 -2 7 -43 -21 -92 -63 -49 -41 -92 -72 -96 -67 -4 4 -17 48
-30 96 -15 59 -26 84 -32 75 -5 -8 -6 -2 -2 16 4 18 3 27 -3 23 -6 -4 -8 4 -6
21 4 22 2 24 -7 12 -10 -13 -11 -12 -6 3 8 25 -4 78 -17 70 -6 -3 -7 -1 -3 5
4 7 -22 114 -58 239 -36 124 -64 229 -61 232 5 4 206 -16 211 -22 2 -3 123
-381 164 -515 18 -57 34 -101 37 -98 3 2 -7 42 -22 87 -24 70 -26 83 -13 90
10 5 14 18 11 34 -4 17 0 27 11 31 10 4 16 17 15 33 -1 17 -3 20 -6 9 -6 -23
-23 -23 -23 -2 0 37 -26 98 -52 124 -26 26 -26 28 -8 33 30 8 77 -45 95 -105
21 -70 19 -97 -7 -119 -13 -10 -17 -18 -10 -19 6 0 12 -6 12 -14 0 -22 49 -56
81 -56 15 0 39 4 53 9 18 7 28 6 36 -5 34 -40 137 1 180 71 12 20 27 34 34 32
18 -6 64 -98 58 -119 -6 -24 27 -98 44 -98 17 0 74 -61 74 -78 0 -55 90 -112
175 -112 48 0 48 0 29 21 -16 17 -16 22 -4 29 23 15 33 12 70 -20 32 -27 41
-29 112 -30 72 0 78 2 98 28 l21 27 -4 -28 c-4 -24 -1 -27 24 -27 34 0 36 9
10 42 -16 19 -19 39 -18 89 1 51 -3 71 -21 100 -12 20 -22 52 -22 70 0 39 -30
93 -60 109 -12 6 -29 28 -37 48 -8 20 -22 45 -30 54 -20 22 -11 26 84 31 l71
4 7 -34 c3 -18 9 -33 13 -33 5 0 26 18 47 40 38 39 75 53 75 28 0 -7 -7 -38
-15 -68 -8 -30 -13 -55 -12 -57 2 -1 22 5 46 13 35 12 58 13 120 4 121 -16
139 -25 147 -68 3 -20 13 -66 21 -102 9 -36 17 -81 19 -100 9 -105 31 -157 69
-160 6 -1 30 -3 54 -6 24 -2 61 1 82 6 l39 11 0 75 c0 57 -3 74 -12 70 -48
-19 -121 -37 -129 -29 -9 9 -59 138 -59 152 0 5 14 14 31 22 34 14 35 13 81
-52 l18 -24 -6 30 c-3 17 -8 38 -11 47 -3 14 6 20 41 29 l46 11 0 801 0 800
-28 -39 c-15 -21 -40 -64 -56 -94 -16 -30 -32 -59 -36 -63 -6 -7 -77 20 -110
42 -12 8 -12 13 4 30 15 16 16 21 5 22 -8 1 -21 3 -29 4 -8 1 -32 3 -52 4 -52
2 -42 19 46 86 75 56 105 65 170 49 21 -5 27 -4 22 5 -4 6 -12 11 -18 11 -6 0
-19 7 -29 16 -17 15 -17 19 -3 54 9 22 14 47 12 57 -3 15 -7 13 -19 -10 -10
-19 -40 -40 -92 -65 l-77 -38 0 54 c0 36 5 59 16 70 15 15 16 14 9 -8 -4 -14
-10 -31 -13 -39 -3 -9 0 -12 9 -9 8 2 35 45 60 96 25 51 48 95 52 98 3 3 10
-19 17 -50 6 -31 15 -58 20 -61 10 -6 22 23 14 36 -3 5 -1 17 5 26 7 14 11 10
20 -23 6 -22 26 -58 45 -80 l35 -39 1 107 c0 110 -9 145 -60 239 -11 20 -20
40 -20 44 0 15 42 -30 61 -65 16 -32 18 -33 19 -11 0 25 -71 125 -96 135 -27
10 -14 22 41 40 42 13 55 22 55 37 0 23 3 23 -50 4 -23 -8 -43 -15 -44 -15 0
0 1 28 2 61 3 40 0 64 -8 69 -7 4 10 16 44 31 39 16 56 28 56 41 0 17 -2 17
-27 5 -53 -27 -140 -67 -146 -67 -3 0 -8 8 -10 18 -4 14 -5 14 -6 -3 0 -11 6
-29 14 -39 8 -11 15 -14 15 -7 0 7 5 9 10 6 6 -3 10 -1 10 4 0 6 5 11 10 11 7
0 7 -6 2 -17 -5 -10 -10 -39 -11 -65 -2 -40 1 -48 16 -49 16 0 16 -1 -2 -9
-30 -13 -31 -13 -33 27 -2 21 -5 40 -9 43 -3 3 -4 -12 -1 -32 2 -21 1 -38 -2
-38 -4 0 -19 14 -35 30 -16 17 -51 45 -78 62 -41 26 -62 32 -140 39 -111 9
-132 16 -116 35 9 11 7 14 -14 14 -24 0 -25 0 -11 40 8 21 17 59 20 82 4 24
13 48 20 53 10 7 11 20 4 50 -10 44 -4 85 13 85 5 0 -2 11 -17 25 -19 18 -22
25 -12 25 9 0 16 5 16 11 0 7 -18 10 -49 7 -27 -1 -47 0 -44 5 2 4 -1 7 -7 7
-6 0 -2 10 10 22 29 31 24 45 -13 39 -5 -1 -6 8 -2 19 5 17 1 15 -26 -9 l-32
-30 -47 19 c-26 10 -49 17 -51 16 -2 -2 -24 -6 -49 -9 -42 -6 -45 -4 -46 18
-1 13 -12 34 -25 47 -13 13 -21 19 -16 14 13 -17 8 -36 -8 -30 -9 4 -15 0 -15
-9 0 -18 -38 -47 -60 -46 -10 0 -11 2 -2 6 6 2 12 9 12 14 0 13 -44 11 -58 -3
-9 -9 -12 -9 -12 1 0 8 -12 2 -27 -14 -24 -23 -29 -25 -31 -10 -2 9 4 25 14
36 17 19 17 20 -2 13 -52 -19 -80 -74 -52 -102 7 -7 8 -12 2 -12 -11 0 -23 11
-74 70 l-30 35 19 -40 c11 -22 25 -55 32 -72 7 -20 18 -33 29 -33 26 0 29 -9
14 -45 -15 -37 -19 -68 -6 -49 4 6 22 19 41 29 56 28 202 11 249 -30 11 -10
-35 -123 -57 -142 -24 -21 -24 -23 -8 -35 14 -11 15 -19 6 -50 -11 -43 -24
-49 -32 -16 -4 12 -9 20 -12 16 -3 -3 -1 -17 5 -32 14 -38 12 -96 -5 -126
l-14 -25 -1 25 c-1 14 -4 34 -6 45 -3 11 -6 30 -8 43 -4 31 -16 41 -16 14 0
-16 -4 -20 -17 -15 -12 5 -11 1 5 -15 22 -22 33 -100 12 -87 -5 3 -10 2 -10
-4 0 -7 -8 -7 -22 -2 -13 5 -38 7 -55 5 -48 -6 -38 26 12 39 11 3 1 5 -23 4
-29 -1 -41 -5 -38 -13 3 -7 -1 -20 -9 -30 -11 -15 -15 -16 -29 -5 -9 7 -16 24
-16 37 0 33 -10 30 -46 -13 -19 -23 -35 -34 -43 -29 -7 5 -10 14 -7 21 3 8
-17 34 -45 60 l-49 46 21 32 c17 26 14 25 -15 -8 -20 -22 -36 -43 -36 -47 0
-11 -28 -10 -34 0 -3 5 9 28 26 51 17 23 28 44 26 47 -3 2 -21 -19 -41 -48
-21 -29 -37 -48 -37 -43 0 4 18 32 39 60 34 45 39 57 31 81 -4 16 -9 23 -9 16
-1 -7 -12 -25 -26 -40 -14 -15 -25 -32 -25 -39 0 -7 -4 -13 -10 -13 -5 0 -10
-7 -10 -15 0 -8 -5 -15 -11 -15 -5 0 -7 -5 -3 -12 7 -11 -37 13 -90 49 -11 7
-52 20 -92 29 -40 9 -78 22 -85 30 -16 19 -4 92 25 149 21 41 22 45 6 40 -10
-3 -49 -14 -87 -25 -37 -10 -75 -22 -84 -25 -26 -10 -71 77 -59 111 7 17 6 35
-4 57 -15 36 -70 68 -205 117 -103 37 -188 88 -238 140 -45 48 -63 52 -32 8z
m369 -289 c59 -26 97 -63 126 -123 30 -63 24 -71 -10 -12 -35 60 -100 113
-160 131 -27 8 -52 13 -54 10 -3 -2 4 -7 14 -11 62 -20 84 -33 130 -79 51 -52
99 -135 91 -157 -2 -7 -7 1 -11 18 -4 16 -29 58 -57 92 -39 49 -64 69 -117 93
-64 30 -82 43 -82 63 0 13 78 -2 130 -25z m-394 -47 c-10 -2 -22 0 -28 6 -6 6
0 7 19 4 21 -5 23 -7 9 -10z m1607 -257 c-3 -9 -8 -14 -10 -11 -3 3 -2 9 2 15
9 16 15 13 8 -4z m-1043 -52 c0 -37 -4 -45 -25 -53 -37 -14 -138 -80 -132 -86
3 -3 19 2 36 10 40 21 58 21 41 1 -8 -9 -9 -15 -2 -15 6 0 14 5 17 10 3 6 19
17 35 25 26 14 29 13 44 -10 16 -24 15 -25 -21 -45 -26 -14 -30 -19 -13 -14
14 3 33 13 43 22 25 22 21 1 -8 -42 -14 -21 -23 -42 -19 -47 3 -6 -5 -22 -17
-37 -14 -15 -16 -20 -6 -12 16 12 20 12 28 -1 25 -40 -12 -79 -75 -79 -43 0
-44 1 -54 43 -6 24 -27 63 -45 88 -42 54 -51 81 -42 125 5 30 14 38 68 65 73
37 129 77 123 88 -3 4 1 8 9 8 11 0 15 -12 15 -44z m50 -80 c0 -60 -8 -66 -31
-25 -11 20 -14 45 -11 92 l5 65 18 -40 c10 -22 19 -64 19 -92z m201 104 c47
-16 84 -48 139 -122 25 -33 51 -66 57 -73 7 -7 16 -24 19 -38 3 -13 10 -24 15
-24 18 0 8 54 -13 79 l-23 26 23 -19 c32 -27 27 -11 -10 36 -31 39 -31 40 -7
33 13 -4 30 -16 37 -27 7 -10 40 -32 73 -49 53 -26 58 -31 45 -44 -8 -8 -23
-15 -33 -15 -15 0 -15 2 -3 10 12 7 12 12 -4 29 -11 12 -29 21 -40 21 -19 -1
-19 -2 6 -17 14 -9 26 -24 26 -32 -1 -9 1 -22 3 -30 2 -7 -2 -16 -9 -18 -7 -3
-10 1 -6 10 3 10 0 15 -8 13 -17 -2 -66 -36 -52 -36 5 0 14 4 20 10 11 11 94
-38 94 -56 0 -6 -15 -19 -32 -28 -25 -12 -28 -16 -13 -16 17 -1 16 -4 -12 -29
-17 -16 -39 -41 -48 -55 -14 -21 -21 -24 -36 -16 -10 6 -18 14 -17 18 4 12
-48 82 -56 75 -4 -4 -4 0 -1 9 4 9 2 19 -4 23 -6 3 -11 -1 -11 -10 0 -9 -5
-13 -10 -10 -6 4 -8 10 -5 15 3 5 -4 14 -15 20 -24 13 -26 5 -5 -16 17 -17 21
-39 5 -29 -5 3 -10 2 -10 -3 0 -5 -13 -15 -30 -22 -16 -7 -28 -15 -26 -19 10
-15 -131 -4 -169 13 l-40 18 50 19 c50 19 39 20 -46 3 -30 -6 -31 -5 -25 21 8
30 24 49 44 51 29 2 33 5 26 15 -4 7 0 9 14 5 12 -4 23 -2 28 5 5 8 3 9 -6 4
-9 -6 -11 -4 -6 4 5 7 15 10 23 7 8 -3 12 -2 8 3 -3 5 1 12 7 15 19 8 -54 0
-74 -9 -10 -4 -16 -11 -13 -15 3 -5 -3 -6 -13 -3 -17 4 -16 11 10 116 15 62
28 120 28 130 0 28 15 19 40 -25 25 -45 71 -101 77 -94 2 2 -4 20 -13 40 -12
25 -20 32 -26 24 -5 -8 -8 -3 -8 14 0 15 -4 38 -10 52 -8 23 -7 26 13 25 12 0
38 -6 58 -12z m-820 -98 c-9 -23 -10 -23 -10 -2 -1 12 -4 30 -7 40 -6 16 -5
17 10 2 13 -12 14 -21 7 -40z m1570 13 c-6 -12 -11 -34 -11 -51 0 -17 -4 -31
-10 -31 -13 0 0 93 14 102 16 11 19 2 7 -20z m454 -6 c14 -9 38 -42 54 -74 28
-55 85 -121 66 -76 -7 17 -13 50 -17 92 -1 8 -17 24 -37 38 l-36 24 45 0 c43
0 124 -36 126 -57 0 -4 6 -21 13 -38 27 -65 25 -84 -8 -125 l-32 -40 25 0 c14
0 29 8 35 17 9 17 10 17 29 0 39 -36 51 -154 18 -174 -6 -5 -24 -28 -38 -53
-14 -25 -35 -53 -46 -63 -19 -17 -19 -16 -26 40 -20 165 -21 152 9 183 31 32
27 52 -5 32 -18 -11 -20 -9 -20 12 l0 24 -29 -26 c-16 -15 -61 -47 -99 -72
-39 -24 -68 -48 -66 -52 3 -4 2 -8 -3 -8 -4 0 -19 -9 -33 -20 -18 -15 -20 -18
-6 -13 14 5 17 3 11 -6 -12 -20 35 -3 65 23 25 21 25 20 -1 -9 -15 -17 -25
-36 -24 -43 2 -7 1 -8 -2 -2 -8 17 -33 -8 -26 -26 3 -8 1 -14 -5 -12 -5 2 -10
-1 -10 -7 0 -5 4 -9 9 -7 19 5 94 55 129 85 l34 30 12 -29 c17 -41 -15 -195
-50 -247 -23 -31 -318 -328 -323 -324 -2 3 -1 23 3 46 4 27 23 64 50 101 51
69 104 161 104 179 0 7 -33 -20 -72 -61 -61 -62 -144 -136 -313 -280 -11 -10
-29 -24 -40 -32 -11 -8 -17 -17 -13 -21 10 -10 143 56 160 80 10 14 62 -28 66
-54 2 -12 -3 -24 -12 -27 -9 -3 -16 -12 -16 -19 0 -12 -99 -95 -114 -95 -10 0
-88 -52 -116 -78 -14 -13 -45 -37 -70 -54 -25 -17 -47 -33 -49 -34 -2 -2 1
-10 7 -17 7 -8 8 -18 4 -22 -4 -5 -1 -5 6 -1 7 4 10 12 7 17 -4 5 1 9 10 9 9
0 14 4 11 8 -3 5 10 16 29 25 20 9 37 12 40 7 8 -13 -19 -62 -49 -91 -14 -13
-26 -27 -26 -31 0 -4 -10 -18 -22 -31 -36 -37 -56 -64 -72 -95 -8 -16 -31 -45
-50 -64 -20 -20 -36 -41 -36 -47 0 -6 -4 -11 -9 -11 -10 0 -36 -52 -45 -90 -3
-14 -3 -19 0 -12 3 6 10 10 15 7 5 -4 6 2 2 11 -4 11 -2 15 4 11 5 -4 15 5 21
18 7 15 20 25 32 25 21 0 28 26 9 32 -16 5 -1 33 32 57 l31 23 -19 -28 c-14
-21 -14 -26 -3 -20 34 20 50 40 45 57 -3 9 -1 20 4 23 10 6 81 -18 81 -28 0
-7 -42 -56 -87 -102 -24 -23 -43 -46 -43 -51 0 -4 -15 -25 -34 -46 -18 -21
-39 -57 -46 -80 l-13 -42 -8 28 c-4 16 -13 35 -20 43 -9 11 -8 14 7 14 16 0
16 2 4 10 -9 5 -19 5 -26 0 -6 -6 -13 -7 -16 -5 -10 10 -48 14 -53 5 -3 -4 -1
-21 5 -37 9 -26 7 -25 -25 12 -39 45 -40 57 -5 65 16 4 38 29 67 79 24 41 42
76 40 78 -3 2 -11 -7 -20 -19 -29 -43 -62 -75 -73 -71 -6 2 -19 -6 -29 -17
-18 -19 -18 -20 3 -20 12 0 22 -5 22 -11 0 -7 -7 -8 -17 -4 -10 4 -28 8 -41
10 -12 1 -25 5 -28 7 -8 8 63 58 71 50 5 -4 5 -2 2 4 -4 7 0 17 8 24 18 15 75
133 152 315 106 250 148 307 323 437 48 36 86 72 88 83 2 16 1 16 -10 -4 -21
-39 -38 -38 -38 2 0 26 5 36 19 40 33 8 78 81 85 139 4 29 9 67 12 85 5 27 1
38 -27 65 -45 46 -46 96 -1 169 18 30 23 43 12 29 -11 -14 -30 -35 -40 -46
-11 -12 -20 -31 -20 -43 0 -15 -6 -21 -21 -21 -52 0 -66 159 -21 250 40 83
143 171 229 196 65 18 213 13 248 -10z m-893 -23 c11 -12 14 -23 8 -33 -7 -12
-13 -11 -34 9 -14 13 -23 28 -20 32 3 5 -3 6 -13 2 -16 -6 -16 -5 -4 10 15 18
34 12 63 -20z m1261 8 c-4 -16 -8 -19 -14 -10 -4 7 -3 19 3 26 14 18 19 12 11
-16z m7 -56 c0 -8 -4 -15 -10 -15 -5 0 -10 7 -10 15 0 8 5 15 10 15 6 0 10 -7
10 -15z m-1220 1 c0 -3 -4 -8 -10 -11 -5 -3 -10 -1 -10 4 0 6 5 11 10 11 6 0
10 -2 10 -4z m-1255 -55 c-6 -5 -25 10 -25 20 0 5 6 4 14 -3 8 -7 12 -15 11
-17z m1360 19 c3 -6 -3 -22 -14 -35 -24 -31 -40 -15 -20 21 13 26 24 30 34 14z
m1055 -42 c18 -24 27 -37 20 -30 -8 6 -23 12 -33 12 -16 0 -17 -3 -7 -14 19
-24 58 -146 53 -167 -8 -30 -27 -17 -34 22 -6 37 -33 94 -49 104 -15 9 -12 41
5 55 9 8 13 21 9 36 -9 34 -2 30 36 -18z m-930 -51 c30 2 60 9 68 15 9 8 16 6
26 -7 18 -25 3 -86 -26 -105 -12 -8 -39 -29 -58 -47 -30 -27 -38 -29 -53 -18
-9 7 -22 28 -28 46 -7 19 -20 43 -30 54 -19 22 -22 61 -6 83 8 10 14 9 31 -7
17 -15 31 -18 76 -14z m-210 -4 c0 -22 -1 -22 -29 -5 -34 19 -32 31 4 28 19
-1 25 -7 25 -23z m-245 -113 c-2 -4 9 -22 26 -41 16 -19 29 -37 29 -41 0 -14
-19 -18 -46 -8 l-28 11 19 -22 c20 -22 20 -22 -1 -11 -11 6 -33 30 -49 52 -28
41 -29 43 -11 56 18 13 69 16 61 4z m-440 -19 c4 -14 12 -18 23 -14 9 3 14 3
11 -1 -4 -4 -18 -9 -32 -11 -25 -5 -44 16 -31 36 9 15 22 10 29 -10z m130 -15
c38 -16 38 -29 3 -75 -10 -13 -17 -33 -17 -45 1 -20 2 -20 6 -1 6 26 33 56 44
50 4 -3 7 7 6 22 -2 27 0 28 53 30 l55 2 -25 -19 c-14 -11 -30 -20 -36 -20
-23 0 -64 -42 -64 -64 0 -13 10 -36 22 -51 17 -22 27 -26 53 -22 41 7 78 -17
70 -43 -9 -28 12 -33 22 -5 6 17 12 22 22 16 10 -7 11 -13 1 -30 -9 -19 -17
-21 -48 -15 -20 4 -57 21 -82 37 -30 21 -39 24 -27 10 10 -11 33 -29 52 -39
41 -22 42 -25 15 -42 -18 -11 -28 -8 -80 28 -61 43 -81 80 -59 106 10 13 15
10 30 -13 11 -15 19 -23 19 -18 -1 20 -31 49 -53 50 -12 1 -34 2 -49 3 l-27 2
14 43 c7 23 16 59 20 80 7 41 11 43 60 23z m-95 -95 c-35 -71 -78 -43 -45 29
11 25 25 40 39 42 29 4 32 -22 6 -71z m325 39 c23 -23 68 -51 99 -64 l58 -24
-21 -21 c-14 -14 -34 -21 -58 -21 -41 0 -72 -14 -60 -26 4 -5 24 -7 43 -6 l35
3 -23 -25 c-17 -19 -29 -24 -47 -19 -22 5 -23 10 -18 57 5 42 4 46 -4 24 -13
-33 -28 -37 -26 -7 2 26 29 41 62 35 15 -3 23 -1 20 5 -4 5 -11 6 -17 3 -6 -4
-8 1 -3 15 4 15 2 20 -7 17 -48 -15 -68 -16 -68 -2 0 8 -5 18 -11 22 -8 5 -10
-1 -5 -19 5 -23 1 -29 -39 -52 -53 -31 -78 -27 -96 17 -11 27 -10 32 6 44 27
20 31 18 46 -17 11 -28 10 -33 -6 -45 -10 -8 -14 -14 -8 -14 6 0 16 7 23 15
11 13 10 22 -4 52 -9 19 -16 36 -14 38 11 8 94 55 98 55 2 0 23 -18 45 -40z
m475 -5 c17 -9 40 -12 59 -9 29 6 90 -11 92 -25 0 -3 2 -25 4 -48 3 -41 2 -43
-20 -37 -26 6 -69 -12 -60 -27 4 -5 14 -9 23 -8 14 0 13 2 -3 9 l-20 9 20 0
c65 2 82 -22 64 -92 l-11 -45 -44 1 c-25 0 -48 5 -51 10 -4 6 -1 7 8 2 12 -8
12 -6 0 8 -15 18 -26 23 -16 7 3 -5 1 -10 -5 -10 -7 0 -9 13 -4 38 4 20 4 35
1 32 -3 -3 -10 -32 -16 -64 -15 -82 -33 -106 -77 -106 -27 0 -37 5 -41 20 -3
11 -10 17 -17 14 -6 -3 2 7 19 22 16 15 25 29 20 31 -37 13 -38 19 -20 94 22
91 38 112 82 106 50 -7 62 -21 57 -70 l-4 -42 14 50 c9 33 11 56 5 67 -12 23
-20 23 -12 1 4 -13 0 -12 -17 5 -19 20 -29 23 -59 17 -41 -7 -81 -30 -81 -46
0 -6 -5 -7 -12 -3 -8 5 -9 2 -5 -9 3 -9 0 -32 -8 -51 -19 -45 -19 -79 0 -116
15 -28 14 -29 -15 -47 -17 -10 -28 -23 -25 -31 3 -8 0 -10 -8 -5 -6 4 -16 8
-22 8 -32 1 -53 33 -64 100 -12 70 -12 70 14 92 14 13 37 23 50 23 13 0 27 5
30 10 8 12 -1 13 -43 1 l-32 -10 16 29 c10 15 33 36 53 44 75 34 146 65 149
66 2 0 16 -7 32 -15z m-1020 -60 c-7 -9 -15 -13 -18 -10 -3 2 1 11 8 20 7 9
15 13 18 10 3 -2 -1 -11 -8 -20z m1254 16 c3 -5 8 -55 10 -111 4 -88 2 -107
-16 -141 -18 -36 -44 -47 -31 -14 3 8 0 15 -7 15 -6 0 -8 -4 -5 -10 3 -5 -3
-10 -14 -10 -24 0 -36 16 -20 26 8 5 9 3 4 -7 -5 -8 -4 -11 1 -6 4 4 9 18 9
30 0 19 5 22 40 20 l40 -3 -35 18 -35 17 3 80 c1 44 4 86 7 93 5 14 41 16 49
3z m-754 -70 c-12 -24 -30 -28 -30 -6 0 13 31 38 38 30 2 -2 -1 -13 -8 -24z
m-260 3 c0 -10 -6 -14 -14 -11 -14 6 -38 -34 -32 -55 1 -7 1 -10 -1 -6 -2 3
-20 -10 -38 -30 -47 -50 -44 -27 6 47 27 40 46 60 55 57 8 -3 14 -1 14 4 0 6
2 10 5 10 3 0 5 -7 5 -16z m40 -10 c0 -8 -4 -14 -10 -14 -5 0 -10 9 -10 21 0
11 5 17 10 14 6 -3 10 -13 10 -21z m470 11 c6 -8 9 -19 5 -25 -9 -14 -45 6
-45 25 0 19 24 19 40 0z m565 -109 c-4 -42 -10 -76 -13 -76 -19 1 -30 17 -22
30 6 8 10 46 10 85 0 64 1 68 16 53 14 -14 15 -29 9 -92z m-1072 47 c-3 -7 -9
-13 -14 -13 -11 0 -12 34 -2 43 9 10 22 -13 16 -30z m482 29 c10 -7 19 -112
10 -112 -11 0 -85 40 -85 46 0 9 52 74 59 74 3 0 11 -4 16 -8z m195 -13 c0 -5
-7 -9 -15 -9 -15 0 -20 12 -9 23 8 8 24 -1 24 -14z m-853 -6 c14 -36 -106
-207 -152 -215 -17 -2 -21 3 -23 34 -8 94 147 254 175 181z m230 -12 c6 -10
35 -34 62 -52 56 -36 58 -40 35 -63 -20 -20 -19 -21 -71 9 -45 27 -50 34 -32
52 6 6 9 17 6 25 -3 8 -8 4 -15 -12 l-10 -25 -10 25 c-6 15 -6 32 0 43 11 22
20 22 35 -2z m612 -18 c-1 -10 -4 -29 -8 -43 -8 -25 -8 -25 -15 7 -8 33 -2 53
15 53 5 0 9 -8 8 -17z m-662 -20 c4 -10 19 -30 35 -46 28 -27 36 -47 20 -47
-11 0 -38 30 -45 50 -5 13 -5 13 -6 0 -1 -37 66 -90 114 -90 23 0 27 3 15 10
-8 5 -10 10 -5 10 6 0 16 -4 23 -9 20 -13 -13 -41 -48 -41 -69 0 -130 50 -130
106 0 18 5 36 10 39 6 3 10 11 10 16 0 6 -4 7 -10 4 -5 -3 -10 -1 -10 4 0 18
20 12 27 -6z m-47 -18 c0 -14 -4 -25 -10 -25 -5 0 -10 11 -10 25 0 14 5 25 10
25 6 0 10 -11 10 -25z m400 -1 c0 -2 -13 -10 -30 -19 -29 -15 -30 -15 -30 8 0
20 4 23 30 19 17 -2 30 -6 30 -8z m-110 -3 c0 -5 -8 -17 -17 -27 -10 -10 -18
-22 -18 -28 -1 -6 -6 -10 -13 -8 -7 1 -12 -2 -12 -8 0 -5 -10 -10 -21 -10 -20
0 -19 2 7 22 16 13 37 33 47 45 20 25 27 28 27 14z m40 -5 c0 -8 -7 -16 -15
-20 -10 -4 -15 1 -15 14 0 11 7 20 15 20 8 0 15 -6 15 -14z m-757 -10 c3 -7
-1 -24 -10 -35 -22 -32 -9 -37 16 -5 11 14 18 31 14 38 -3 6 3 2 15 -8 50 -44
53 -158 5 -227 -22 -30 -33 -38 -49 -34 -26 6 -41 -20 -17 -29 8 -4 13 -12 10
-19 -2 -6 9 -25 24 -40 23 -22 28 -25 26 -10 -1 10 -6 23 -10 30 -4 7 8 28 32
52 l39 40 31 -39 c46 -58 72 -126 78 -206 5 -65 3 -76 -22 -122 -29 -53 -62
-75 -119 -77 -23 0 -42 12 -89 60 -38 37 -52 48 -38 27 13 -18 24 -38 25 -45
6 -28 19 -47 33 -47 8 0 11 5 8 10 -3 6 -2 10 3 10 18 0 21 -29 4 -34 -9 -3 4
-4 30 -2 26 2 45 0 43 -4 -6 -9 18 -20 43 -20 9 0 58 -20 107 -45 50 -25 81
-38 70 -30 -11 9 -29 23 -39 31 -11 9 -43 28 -71 43 l-52 26 26 22 27 21 47
-34 c68 -49 111 -115 141 -213 27 -89 26 -111 -1 -70 -24 37 -127 132 -165
152 -33 18 -33 18 -11 -1 12 -11 19 -23 15 -27 -4 -5 1 -5 11 -2 10 4 16 3 13
-1 -3 -5 24 -39 60 -77 35 -38 64 -72 64 -75 0 -6 -81 -50 -92 -50 -4 0 -13 6
-20 13 -7 7 -31 26 -53 42 -78 59 -208 191 -231 235 -12 25 -34 55 -48 68 -13
12 -32 45 -42 73 -20 55 -60 92 -48 45 4 -16 2 -26 -5 -26 -6 0 -13 11 -17 25
-3 14 -10 25 -15 25 -5 0 -9 3 -9 8 0 4 20 6 45 4 51 -4 63 12 13 17 -18 2
-44 5 -58 6 -14 1 -31 3 -37 4 -36 3 3 33 82 63 l50 19 -42 -5 c-24 -4 -61 -9
-83 -12 -50 -8 -54 11 -7 31 17 8 30 15 27 15 -3 1 -25 3 -50 6 -119 11 -153
28 -201 98 -13 20 -28 36 -32 36 -13 0 3 81 20 107 15 23 137 99 208 129 104
45 267 68 278 40z m391 0 c-6 -16 -34 -30 -34 -18 0 5 5 13 12 20 16 16 29 15
22 -2z m1696 -22 c0 -23 -39 -94 -92 -167 -48 -66 -88 -113 -88 -101 0 8 131
267 142 281 12 15 38 6 38 -13z m-1660 -19 c0 -14 -4 -25 -10 -25 -11 0 -14
33 -3 43 11 11 13 8 13 -18z m-139 -17 c-27 -43 -150 -178 -163 -178 -20 0 39
84 103 145 37 36 70 65 74 65 4 0 -2 -15 -14 -32z m87 -19 c-9 -6 -14 -2 -16
13 -2 11 2 25 10 29 9 6 14 2 16 -13 2 -11 -2 -25 -10 -29z m382 47 c0 -2 -7
-7 -16 -10 -8 -3 -12 -2 -9 4 6 10 25 14 25 6z m177 -8 c15 -7 51 -36 78 -65
51 -53 71 -61 105 -43 15 8 24 5 44 -15 l24 -24 -31 5 -32 6 33 -21 c34 -22
37 -28 23 -50 -15 -23 -91 29 -191 130 -48 49 -86 89 -84 89 1 0 16 -6 31 -12z
m417 -11 l31 6 -19 -29 c-30 -45 -49 -60 -78 -62 -29 -2 -38 12 -15 22 6 3 1
3 -11 0 -21 -5 -23 -4 -13 14 6 12 15 32 21 47 9 24 11 25 31 11 14 -10 33
-13 53 -9z m-1005 -131 c-3 -161 -7 -208 -20 -200 -12 7 -11 302 2 325 5 11
12 19 15 19 3 0 4 -65 3 -144z m447 61 c32 -30 69 -62 82 -72 12 -11 22 -26
22 -34 0 -8 3 -12 6 -8 3 3 38 -19 76 -49 71 -55 200 -124 232 -124 21 0 20
-6 -5 -41 -14 -20 -25 -27 -32 -21 -7 5 -22 8 -35 6 -17 -3 -21 0 -16 8 5 9 2
8 -10 -1 -13 -11 -14 -16 -4 -22 6 -4 16 -5 20 -3 5 3 17 3 28 -1 19 -6 18 -8
-7 -61 -15 -29 -30 -54 -34 -54 -4 0 -10 11 -13 25 -4 14 -11 23 -16 20 -11
-7 -2 -36 16 -51 10 -8 5 -15 -26 -33 -51 -29 -71 -18 -35 19 26 27 26 27 5
33 -22 6 -22 6 -3 30 14 20 24 24 46 20 15 -3 27 -1 27 5 0 5 -10 8 -22 4 -17
-4 -20 -2 -15 11 4 10 3 17 -2 17 -5 0 -12 16 -15 35 -9 48 -50 93 -97 105
-49 14 -111 -11 -152 -59 l-27 -33 0 29 c0 18 10 37 28 53 15 14 23 22 16 17
-6 -4 -18 -5 -27 -1 -8 3 -18 0 -23 -7 -4 -8 -3 -10 4 -5 16 9 15 -7 0 -22
-34 -34 -50 0 -20 45 9 15 11 24 5 20 -10 -6 -13 11 -13 77 0 94 -8 105 -65
86 l-30 -10 33 5 c31 4 32 3 32 -31 0 -32 -2 -35 -22 -28 -13 4 -38 6 -55 6
-27 -1 -33 3 -33 18 0 14 7 20 23 21 l22 2 -22 4 c-59 11 7 98 78 102 8 1 42
-23 75 -52z m-366 23 c0 -11 -7 -20 -15 -20 -13 0 -14 4 -5 20 6 11 13 20 15
20 3 0 5 -9 5 -20z m29 -9 c-15 -5 -22 6 -14 19 6 9 10 9 16 -1 5 -8 4 -15 -2
-18z m679 -5 c-2 -12 -14 -25 -31 -30 -23 -8 -31 -6 -49 11 l-21 21 34 -1 c20
-1 34 3 35 11 3 21 4 22 20 15 8 -3 14 -15 12 -27z m382 26 c0 -17 -45 -51
-58 -44 -9 6 -8 13 4 30 14 21 54 31 54 14z m-1132 -29 c-5 -25 -28 -28 -28
-4 0 12 6 21 16 21 9 0 14 -7 12 -17z m1043 -2 c-14 -10 -31 -16 -40 -13 -8 3
-12 1 -8 -5 5 -7 0 -9 -13 -6 -31 8 -24 18 23 30 62 15 64 14 38 -6z m-1144
-23 c-3 -7 -5 -2 -5 12 0 14 2 19 5 13 2 -7 2 -19 0 -25z m20 -5 c-3 -10 -5
-4 -5 12 0 17 2 24 5 18 2 -7 2 -21 0 -30z m198 17 c3 -5 2 -10 -4 -10 -5 0
-13 5 -16 10 -3 6 -2 10 4 10 5 0 13 -4 16 -10z m-37 -27 c-4 -38 -26 -41 -24
-3 0 18 6 30 14 30 9 0 12 -10 10 -27z m-40 -8 c-4 -35 -23 -37 -24 -2 -1 17
4 27 13 27 9 0 13 -9 11 -25z m122 -10 c0 -19 -4 -35 -9 -35 -5 0 -9 16 -9 35
0 19 4 35 9 35 5 0 9 -16 9 -35z m60 -10 c0 -25 -4 -45 -10 -45 -11 0 -14 73
-3 83 11 12 13 8 13 -38z m-344 10 c1 -8 -2 -17 -7 -21 -5 -3 -9 7 -9 22 0 27
12 26 16 -1z m124 1 c0 -13 -7 -26 -15 -30 -11 -4 -15 2 -15 24 0 20 5 30 15
30 9 0 15 -9 15 -24z m118 -34 c2 -42 0 -52 -12 -52 -13 0 -16 12 -16 56 0 73
24 70 28 -4z m72 48 c0 -5 -2 -10 -4 -10 -3 0 -8 5 -11 10 -3 6 -1 10 4 10 6
0 11 -4 11 -10z m-343 -32 c-3 -7 -5 -2 -5 12 0 14 2 19 5 13 2 -7 2 -19 0
-25z m50 -5 c-3 -10 -5 -4 -5 12 0 17 2 24 5 18 2 -7 2 -21 0 -30z m20 -10
c-3 -10 -5 -4 -5 12 0 17 2 24 5 18 2 -7 2 -21 0 -30z m443 -8 c0 -38 -3 -43
-17 -38 -11 4 -12 8 -5 11 7 2 12 19 12 38 0 19 2 34 5 34 3 0 5 -20 5 -45z
m-170 -15 c0 -27 -4 -50 -10 -50 -5 0 -10 23 -10 50 0 28 5 50 10 50 6 0 10
-22 10 -50z m-110 6 c0 -13 -7 -26 -15 -30 -11 -4 -15 2 -15 24 0 20 5 30 15
30 9 0 15 -9 15 -24z m-230 -11 c0 -14 -4 -25 -9 -25 -12 0 -23 29 -15 41 10
18 24 9 24 -16z m190 -1 c0 -31 -23 -28 -28 4 -2 15 2 22 12 22 11 0 16 -9 16
-26z m-230 -11 c-1 -16 -6 -38 -13 -51 -13 -23 -13 -23 -31 -3 -17 19 -17 21
5 50 28 38 39 39 39 4z m57 -10 c-3 -10 -5 -4 -5 12 0 17 2 24 5 18 2 -7 2
-21 0 -30z m30 0 c-3 -10 -5 -4 -5 12 0 17 2 24 5 18 2 -7 2 -21 0 -30z m103
12 c0 -16 -6 -25 -15 -25 -9 0 -15 9 -15 25 0 16 6 25 15 25 9 0 15 -9 15 -25z
m160 -36 c0 -27 -4 -49 -9 -49 -13 0 -18 20 -15 60 3 51 3 52 14 45 6 -3 10
-28 10 -56z m-243 14 c-3 -10 -5 -4 -5 12 0 17 2 24 5 18 2 -7 2 -21 0 -30z
m353 -45 c0 -55 3 -78 10 -68 5 8 12 12 15 8 7 -7 -43 -48 -59 -48 -15 0 -9
172 7 182 24 15 27 6 27 -74z m-50 17 c0 -30 -4 -55 -10 -55 -5 0 -10 25 -10
55 0 30 5 55 10 55 6 0 10 -25 10 -55z m80 15 c0 -11 -4 -20 -10 -20 -5 0 -10
9 -10 20 0 11 5 20 10 20 6 0 10 -9 10 -20z m-450 -6 c0 -14 -3 -14 -15 -4 -8
7 -15 14 -15 16 0 2 7 4 15 4 8 0 15 -7 15 -16z m190 -14 c0 -20 -5 -30 -15
-30 -15 0 -21 40 -8 53 14 15 23 6 23 -23z m40 5 c0 -16 -6 -25 -15 -25 -9 0
-15 9 -15 25 0 16 6 25 15 25 9 0 15 -9 15 -25z m38 -27 c2 -31 -2 -49 -13
-58 -13 -11 -15 -5 -15 50 0 74 23 81 28 8z m199 20 c-3 -7 -5 -2 -5 12 0 14
2 19 5 13 2 -7 2 -19 0 -25z m-450 0 c-3 -8 -6 -5 -6 6 -1 11 2 17 5 13 3 -3
4 -12 1 -19z m133 -2 c0 -13 -7 -26 -15 -30 -11 -4 -15 2 -15 24 0 20 5 30 15
30 9 0 15 -9 15 -24z m-104 -23 c-11 -11 -17 4 -9 23 7 18 8 18 11 1 2 -10 1
-21 -2 -24z m21 5 c-3 -7 -5 -2 -5 12 0 14 2 19 5 13 2 -7 2 -19 0 -25z m273
-3 c0 -19 -4 -35 -10 -35 -5 0 -10 16 -10 35 0 19 5 35 10 35 6 0 10 -16 10
-35z m1025 8 c-1 -10 3 -24 9 -32 7 -10 -1 -8 -22 5 -30 17 -31 20 -15 31 23
18 32 16 28 -4z m539 0 c23 -18 23 -18 4 -35 -11 -9 -20 -20 -21 -24 -2 -8
-48 -6 -57 2 -6 7 32 74 42 74 5 0 20 -8 32 -17z m-1454 -23 c0 -11 -4 -20
-10 -20 -5 0 -10 9 -10 20 0 11 5 20 10 20 6 0 10 -9 10 -20z m23 -5 c-7 -21
-13 -19 -13 6 0 11 4 18 10 14 5 -3 7 -12 3 -20z m-283 -15 c0 -11 -7 -20 -15
-20 -8 0 -15 9 -15 20 0 11 7 20 15 20 8 0 15 -9 15 -20z m38 3 c-4 -22 -22
-20 -26 1 -2 10 3 16 13 16 10 0 15 -7 13 -17z m82 1 c0 -2 -7 -4 -15 -4 -8 0
-15 4 -15 10 0 5 7 7 15 4 8 -4 15 -8 15 -10z m-160 -14 c0 -11 -7 -20 -15
-20 -8 0 -15 9 -15 20 0 11 7 20 15 20 8 0 15 -9 15 -20z m1385 -20 c3 -5 -5
-25 -18 -42 -14 -18 -28 -44 -32 -58 -15 -49 -67 -110 -94 -111 -24 0 -24 -1
-6 -9 16 -7 17 -9 3 -9 -46 -2 -46 8 -1 97 25 48 56 99 71 115 26 27 65 36 77
17z m-1305 -30 c0 -16 -4 -30 -10 -30 -5 0 -10 3 -10 8 0 4 -3 17 -6 30 -5 16
-2 22 10 22 11 0 16 -9 16 -30z m-80 16 c0 -2 -7 -6 -15 -10 -8 -3 -15 -1 -15
4 0 6 7 10 15 10 8 0 15 -2 15 -4z m46 -31 c1 -11 3 -24 5 -30 7 -19 -13 -17
-42 4 -16 12 -27 26 -24 32 4 5 11 7 16 4 5 -4 9 -1 9 5 0 20 35 5 36 -15z
m544 9 c42 -17 49 -41 11 -37 -13 2 -20 -1 -16 -7 3 -6 13 -10 21 -10 16 0 16
-2 8 -24 -3 -9 -14 -16 -23 -16 -13 0 -14 -2 -1 -9 8 -6 18 -7 23 -4 4 2 0
-12 -9 -34 -9 -21 -19 -50 -22 -65 -4 -25 -32 -41 -32 -19 0 5 -3 17 -7 27 -4
12 -3 15 5 10 8 -4 10 -2 6 7 -3 8 6 23 20 35 14 11 26 23 26 27 0 4 -6 2 -14
-4 -24 -20 -77 -9 -98 19 -14 20 -16 32 -9 57 19 64 43 74 111 47z m-383 -152
c0 -77 -2 -115 -7 -97 -4 17 -8 26 -9 21 -2 -20 -51 59 -51 82 0 21 4 23 24
18 14 -3 28 -2 31 4 4 6 -5 10 -19 10 -18 0 -30 9 -41 30 -25 48 -23 50 50 57
19 2 20 -4 22 -125z m-99 89 c8 -23 7 -31 -4 -35 -10 -4 -14 3 -14 29 0 43 5
44 18 6z m290 -6 c-2 -10 -7 -12 -17 -5 -13 7 -13 11 -1 25 15 18 24 8 18 -20z
m-1047 -74 c13 -19 38 -40 56 -48 34 -14 41 -27 23 -38 -29 -18 -150 93 -150
137 0 18 1 18 24 1 13 -10 34 -33 47 -52z m-119 14 c3 -14 2 -25 -1 -25 -3 0
-23 -4 -43 -9 -32 -8 -41 -5 -70 20 l-33 28 45 1 c25 1 54 5 65 9 26 11 32 7
37 -24z m2532 27 c3 -5 -1 -9 -9 -9 -8 0 -12 4 -9 9 3 4 7 8 9 8 2 0 6 -4 9
-8z m-131 -18 c32 -6 37 -10 37 -33 0 -14 13 -54 30 -88 16 -35 28 -63 26 -63
-1 0 -67 -14 -146 -30 -78 -17 -145 -29 -147 -26 -3 2 13 24 34 48 64 70 73
88 73 145 0 51 1 53 28 53 15 0 44 -3 65 -6z m-1113 -29 c13 -14 19 -25 14
-25 -14 0 -54 30 -54 41 0 16 16 10 40 -16z m1219 -10 c46 -53 100 -169 82
-179 -4 -3 -13 14 -20 37 -14 48 -79 149 -100 155 -8 3 -11 0 -7 -6 3 -6 2
-13 -4 -17 -6 -4 -9 4 -8 19 3 35 20 33 57 -9z m-2432 -20 c-9 -9 -16 -10 -25
-2 -16 12 3 28 24 20 10 -4 10 -8 1 -18z m2403 -38 c0 -5 -4 -5 -10 -2 -5 3
-10 14 -10 23 0 15 2 15 10 2 5 -8 10 -19 10 -23z m135 23 c4 -6 1 -9 -7 -8
-7 2 -12 -3 -10 -10 1 -8 -2 -11 -8 -7 -8 5 -7 11 1 21 14 17 16 17 24 4z
m-645 -11 c-11 -8 -8 -9 14 -4 26 6 27 5 12 -11 -12 -11 -24 -14 -44 -9 -15 4
-21 10 -14 12 6 3 10 9 6 14 -3 5 5 9 18 9 19 0 20 -2 8 -11z m-615 -49 c-3
-5 -10 -10 -16 -10 -5 0 -9 5 -9 10 0 6 7 10 16 10 8 0 12 -4 9 -10z m560 0
c-3 -5 0 -10 7 -10 10 0 9 -3 -2 -9 -20 -13 -34 -2 -19 15 13 16 23 19 14 4z
m623 -45 c6 -14 8 -25 4 -25 -12 0 -32 23 -32 37 0 22 16 15 28 -12z m-2216
-19 c4 -6 8 -20 8 -30 0 -18 -1 -18 -24 3 -13 13 -26 31 -29 42 -4 16 -2 17
16 7 12 -6 25 -16 29 -22z m2318 30 c0 -2 -8 -10 -17 -17 -16 -13 -17 -12 -4
4 13 16 21 21 21 13z m-746 -14 c2 -4 -5 -9 -17 -9 -17 -2 -19 0 -7 7 18 12
18 12 24 2z m-44 -32 c-12 -8 -11 -10 8 -10 25 0 26 -3 10 -29 -10 -16 -16
-17 -37 -8 -14 6 -28 13 -31 15 -6 5 42 42 55 42 6 0 3 -5 -5 -10z m-525 -100
c9 -7 14 -14 12 -16 -2 -2 -37 -10 -78 -18 -41 -8 -94 -22 -118 -30 -24 -9
-45 -15 -46 -14 -10 20 -25 62 -25 73 0 7 8 16 18 19 33 10 222 -2 237 -14z
m468 -5 c-3 -9 -8 -14 -10 -11 -3 3 -2 9 2 15 9 16 15 13 8 -4z m-1593 -10 c0
-8 -4 -15 -10 -15 -5 0 -10 7 -10 15 0 8 5 15 10 15 6 0 10 -7 10 -15z m1496
-17 c-22 -12 -20 -28 3 -28 11 0 27 10 35 22 13 18 18 20 38 9 18 -9 19 -10 3
-6 -17 4 -16 2 5 -15 14 -11 21 -20 15 -20 -5 0 -23 -23 -40 -50 -28 -48 -45
-63 -45 -39 0 6 -9 9 -20 6 -26 -7 -34 7 -20 33 8 16 7 25 -5 42 -8 13 -15 18
-15 13 0 -6 -4 -4 -9 4 -12 19 26 50 52 43 17 -4 17 -6 3 -14z m324 -18 c0
-19 -18 -19 -23 -1 -3 14 -1 18 9 14 8 -3 14 -9 14 -13z m-1793 -17 c-4 -3 0
-17 8 -30 9 -13 12 -23 8 -23 -5 0 -1 -5 7 -11 13 -9 13 -10 0 -6 -8 2 -15 9
-15 15 0 6 -9 17 -19 25 -19 14 -15 37 6 37 6 0 8 -3 5 -7z m1754 -10 c13 -16
12 -17 -3 -4 -17 13 -22 21 -14 21 2 0 10 -8 17 -17z m-1621 -43 c0 -4 -8 -14
-17 -21 -10 -7 -15 -9 -11 -5 4 5 3 15 -3 23 -6 7 -8 13 -3 13 5 0 3 4 -5 9
-8 5 -10 14 -6 22 6 9 13 7 27 -10 10 -13 18 -27 18 -31z m215 -58 c33 -19 62
-37 64 -39 5 -4 -60 -62 -69 -63 -3 0 -31 33 -63 74 -77 100 -63 106 68 28z
m-151 -10 c28 -26 62 -55 76 -64 l25 -17 -27 0 c-15 -1 -38 -5 -51 -10 -20 -8
-27 -6 -32 7 -3 9 -3 13 1 9 10 -10 35 13 28 25 -3 5 -16 0 -29 -12 l-22 -21
-17 25 c-9 14 -16 30 -16 36 0 5 -4 10 -8 10 -10 0 -9 30 2 48 11 18 15 16 70
-36z m1562 17 c-3 -17 -6 -47 -6 -65 0 -30 -4 -34 -40 -45 -22 -7 -48 -20 -59
-31 -11 -10 -24 -18 -28 -17 -17 3 -29 -2 -53 -22 -14 -11 -19 -18 -12 -14 8
4 28 8 45 10 18 2 59 10 91 19 33 8 64 12 69 9 11 -6 2 -102 -10 -114 -6 -6
-137 -13 -190 -10 -6 1 -17 33 -24 71 -12 69 -12 71 11 87 13 9 38 30 57 46
47 41 136 106 147 107 5 0 6 -14 2 -31z m-326 1 c0 -5 -7 -10 -16 -10 -8 0
-12 5 -9 10 3 6 10 10 16 10 5 0 9 -4 9 -10z m-1352 -65 c-3 -3 -9 2 -12 12
-6 14 -5 15 5 6 7 -7 10 -15 7 -18z m1322 5 c0 -5 -4 -10 -10 -10 -5 0 -10 5
-10 10 0 6 5 10 10 10 6 0 10 -4 10 -10z m562 -24 c11 7 -11 -34 -30 -54 -7
-8 -10 -22 -7 -32 3 -9 1 -28 -5 -41 -10 -23 -10 -23 -5 4 3 15 1 27 -5 27 -5
0 -10 -5 -10 -12 0 -25 -12 2 -14 34 -2 18 -6 44 -10 58 -4 14 -4 20 1 14 13
-17 54 -36 61 -28 4 4 2 9 -5 11 -10 4 -10 7 0 18 7 7 14 9 15 4 2 -5 8 -6 14
-3z m-1095 -27 c8 -10 20 -16 27 -13 8 3 17 0 21 -6 3 -6 3 -9 -2 -8 -5 2 -26
-5 -48 -14 -22 -9 -66 -24 -97 -32 -46 -13 -61 -23 -78 -51 l-22 -35 -19 24
c-11 14 -28 24 -39 23 -24 -2 -26 -13 -4 -21 8 -3 13 -10 10 -14 -3 -5 2 -9
10 -9 9 0 13 6 10 14 -3 8 -2 12 3 9 5 -3 11 -14 13 -24 4 -15 1 -18 -20 -14
-17 3 -23 1 -18 -7 4 -6 3 -11 -2 -11 -5 0 -14 17 -20 39 -15 50 -15 54 3 47
12 -4 14 0 10 17 -12 46 99 116 131 84 5 -4 0 -5 -11 -1 -20 7 -20 6 0 -9 18
-14 21 -14 26 1 4 9 5 20 2 25 -2 4 3 7 11 7 9 0 16 -5 16 -11 0 -5 5 -7 10
-4 6 4 8 10 5 15 -11 17 60 -3 72 -21z m88 11 c2 -4 -7 -5 -20 -2 -14 2 -27 8
-30 12 -2 4 7 5 20 2 14 -2 27 -8 30 -12z m-593 -24 c62 -13 90 -27 158 -79
25 -19 25 -19 -60 -11 -47 4 -92 7 -100 6 -8 0 -107 -28 -219 -61 -113 -34
-212 -61 -220 -61 -36 0 23 36 102 62 45 15 66 25 47 23 -32 -5 -33 -4 -10 6
14 5 33 8 42 5 10 -2 16 0 13 4 -3 5 10 12 30 16 19 3 35 10 35 14 0 5 15 12
33 16 l32 8 -38 11 -39 11 52 14 c28 8 53 18 56 22 7 10 8 10 86 -6z m1086
-11 c-1 -14 -6 -25 -11 -25 -5 0 -6 7 -3 16 3 9 6 20 6 25 0 5 2 9 5 9 3 0 4
-11 3 -25z m-128 -22 c-1 -18 -18 -35 -24 -24 -4 6 -4 16 -1 21 7 12 25 13 25
3z m70 -7 c0 -8 -8 -14 -19 -13 -11 0 -17 6 -14 14 7 18 33 17 33 -1z m-415
-38 c11 -20 30 -40 42 -43 26 -6 31 -25 7 -25 -8 0 -13 -4 -10 -9 4 -5 0 -12
-6 -14 -7 -3 6 -5 28 -4 25 1 40 6 36 12 -3 6 2 4 12 -4 9 -8 24 -27 32 -43 8
-16 18 -27 22 -24 13 8 62 -40 67 -64 6 -31 -15 -101 -28 -93 -6 3 -7 1 -3 -5
8 -13 -45 -122 -68 -141 -13 -11 -22 -11 -51 3 -19 9 -35 23 -35 30 0 7 25 64
55 126 31 62 53 115 51 118 -3 2 -28 -43 -55 -100 -47 -101 -51 -106 -84 -110
-49 -5 -61 0 -45 20 12 14 10 14 -12 2 -14 -7 -22 -9 -18 -5 4 5 2 15 -5 23
-10 13 -9 14 3 7 12 -6 13 -5 3 5 -9 10 -4 28 27 84 55 102 56 110 23 144 -42
43 -82 37 -144 -24 -46 -46 -105 -72 -163 -74 -35 0 -6 101 51 178 29 39 42
40 81 7 19 -16 33 -22 37 -15 7 12 42 9 65 -4 8 -5 2 5 -14 22 -32 35 -37 38
-33 21 1 -6 -4 -14 -11 -16 -9 -3 -12 2 -10 13 3 21 55 41 103 40 24 -1 34 -8
50 -38z m194 8 c-3 -3 -11 5 -18 17 -13 21 -12 21 5 5 10 -10 16 -20 13 -22z
m-999 10 c0 -2 -9 -6 -20 -9 -11 -3 -18 -1 -14 4 5 9 34 13 34 5z m851 -13
c13 -16 12 -17 -3 -4 -17 13 -22 21 -14 21 2 0 10 -8 17 -17z m499 7 c0 -5 -8
-10 -17 -10 -15 0 -16 2 -3 10 19 12 20 12 20 0z m-469 -47 c13 -17 13 -17 -6
-3 -11 8 -22 16 -24 17 -2 2 0 3 6 3 6 0 17 -8 24 -17z m1095 -24 c-14 -17
-26 -37 -26 -45 0 -8 -4 -14 -10 -14 -5 0 -10 -4 -10 -10 0 -5 9 -10 19 -10
11 0 23 5 26 10 8 12 25 13 25 1 0 -4 -15 -13 -32 -19 l-33 -12 40 5 c22 2 34
2 28 -1 -7 -3 -13 -10 -13 -15 0 -6 4 -8 9 -4 5 3 13 0 17 -7 4 -7 4 -10 0 -6
-5 4 -19 3 -32 -2 -20 -8 -24 -6 -24 8 0 11 -3 13 -8 5 -5 -8 -13 -9 -22 -3
-8 6 -11 10 -6 10 15 0 -16 30 -31 30 -13 0 -13 -3 -3 -15 13 -16 3 -20 -24
-9 -25 10 -19 19 29 44 26 13 42 28 38 34 -3 6 -3 8 2 4 5 -5 16 6 26 22 11
17 24 30 30 30 6 0 -1 -14 -15 -31z m104 18 c0 -2 -10 -12 -22 -23 l-23 -19
19 23 c18 21 26 27 26 19z m-2230 -17 c-8 -5 -22 -9 -30 -9 -10 0 -8 3 5 9 27
12 43 12 25 0z m1401 -52 c12 -24 28 -51 37 -60 14 -16 13 -20 -3 -38 -17 -19
-19 -19 -47 -2 -16 9 -43 32 -61 50 l-32 34 35 29 c19 16 38 29 42 29 4 0 17
-19 29 -42z m-468 -6 c22 -20 21 -46 -3 -101 l-20 -44 -21 27 c-11 14 -25 26
-31 26 -5 0 2 -14 16 -31 14 -17 23 -36 19 -42 -4 -7 -8 -6 -11 3 -3 8 -13 27
-23 41 -10 14 -16 29 -12 32 7 8 -47 31 -67 28 -8 -1 6 18 32 42 50 47 82 52
121 19z m1242 18 c-3 -5 -12 -10 -18 -10 -7 0 -6 4 3 10 19 12 23 12 15 0z
m-1550 -10 c-3 -5 -14 -10 -23 -9 -14 0 -13 2 3 9 27 11 27 11 20 0z m-418
-22 c-3 -8 -6 -5 -6 6 -1 11 2 17 5 13 3 -3 4 -12 1 -19z m1443 13 l45 -7 -64
-12 c-67 -12 -81 -10 -81 14 0 16 27 17 100 5z m-1390 -5 c0 -3 -4 -8 -10 -11
-5 -3 -10 -1 -10 4 0 6 5 11 10 11 6 0 10 -2 10 -4z m360 -21 c0 -8 -4 -15
-10 -15 -5 0 -10 7 -10 15 0 8 5 15 10 15 6 0 10 -7 10 -15z m-706 -22 c-4
-22 -3 -25 5 -13 9 13 11 13 11 -2 0 -9 6 -23 14 -30 7 -8 17 -24 21 -36 5
-19 9 -21 21 -11 8 6 14 19 13 28 0 12 -2 11 -9 -4 -8 -18 -9 -17 -9 6 -1 21
5 28 24 33 29 7 48 0 40 -15 -4 -5 8 -6 26 -2 23 4 30 3 25 -5 -4 -7 -14 -12
-23 -12 -8 0 -42 -27 -74 -60 l-59 -60 -7 27 c-4 16 -6 36 -4 46 1 9 -3 17 -9
17 -6 0 -8 5 -5 10 4 6 1 25 -5 44 -6 18 -8 40 -4 49 10 26 15 20 8 -10z m136
12 c0 -8 -4 -15 -10 -15 -5 0 -7 7 -4 15 4 8 8 15 10 15 2 0 4 -7 4 -15z m171
-12 c-8 -15 -10 -15 -11 -2 0 17 10 32 18 25 2 -3 -1 -13 -7 -23z m-156 -13
c-3 -5 -1 -10 6 -10 7 0 10 -3 6 -6 -3 -4 -14 -3 -24 0 -15 6 -15 8 -3 16 19
12 23 12 15 0z m1670 2 c-11 -10 -106 -32 -136 -32 -32 0 -21 17 19 28 46 12
129 15 117 4z m-1606 -23 c-9 -17 -13 -19 -20 -8 -7 12 3 22 29 28 1 1 -2 -9
-9 -20z m111 6 c0 -9 -9 -15 -22 -15 -21 0 -21 0 -2 15 24 18 24 18 24 0z
m100 5 c0 -5 -5 -10 -11 -10 -5 0 -7 5 -4 10 3 6 8 10 11 10 2 0 4 -4 4 -10z
m-160 -10 c0 -5 -4 -10 -10 -10 -5 0 -10 5 -10 10 0 6 5 10 10 10 6 0 10 -4
10 -10z m1766 -18 c-18 -16 -18 -16 -6 6 6 13 14 21 18 18 3 -4 -2 -14 -12
-24z m-1163 7 c27 -12 67 -76 67 -107 0 -24 -29 -53 -31 -31 -1 8 -1 17 0 22
2 15 -49 106 -66 116 -24 14 0 14 30 0z m-528 -19 c19 -13 46 -20 40 -10 -3 6
1 7 9 4 9 -3 13 -10 10 -15 -5 -9 11 -13 31 -9 6 1 7 -2 3 -6 -4 -4 6 -22 22
-40 16 -18 34 -50 39 -71 16 -57 13 -150 -5 -189 -43 -90 -154 -151 -252 -140
-95 11 -157 69 -195 180 -20 57 -21 86 -6 139 17 64 106 147 170 160 35 7 122
5 134 -3z m95 -11 c0 -6 -4 -7 -10 -4 -5 3 -10 11 -10 16 0 6 5 7 10 4 6 -3
10 -11 10 -16z m955 -32 c39 -16 106 -33 155 -40 22 -3 20 -4 -14 -15 -33 -9
-48 -8 -100 10 -33 11 -65 24 -70 29 -6 5 -17 9 -25 9 -9 0 -22 4 -30 9 -12 8
-13 12 -1 25 11 14 15 14 29 3 9 -7 34 -21 56 -30z m202 16 c-8 -7 -37 9 -31
19 3 5 12 4 20 -3 8 -6 13 -14 11 -16z m661 -58 c-3 -3 -9 2 -12 12 -6 14 -5
15 5 6 7 -7 10 -15 7 -18z m-567 -27 c-18 -30 -71 -53 -71 -31 0 7 75 59 88
62 2 1 -5 -14 -17 -31z m-734 -43 c-7 -17 9 -30 18 -15 5 8 13 6 26 -6 10 -9
16 -21 13 -25 -3 -5 2 -9 10 -9 22 0 20 -13 -4 -35 -19 -17 -21 -17 -60 0 -59
27 -66 39 -40 75 22 31 46 41 37 15z m628 -29 l30 -13 -50 -31 c-61 -39 -70
-39 -119 -5 l-40 26 65 18 c79 21 77 21 114 5z m209 -55 c-18 -44 -110 -140
-142 -148 -13 -3 -33 2 -48 12 l-26 17 24 16 c54 37 129 107 149 139 20 32 22
33 40 17 17 -15 17 -19 3 -53z m-683 -31 c7 0 10 -3 6 -6 -9 -9 -67 29 -67 45
0 9 9 4 25 -13 13 -14 30 -26 36 -26z m286 -17 c6 -17 -38 -28 -48 -12 -5 8
-9 18 -9 22 0 13 53 4 57 -10z m483 -92 c0 -36 -48 -131 -66 -131 -8 0 -28 7
-45 15 l-30 16 55 50 c30 28 58 59 61 70 9 27 25 14 25 -20z m561 -62 c25 -13
18 -23 -10 -14 -12 3 -28 22 -36 42 -21 51 -18 65 6 21 10 -21 29 -42 40 -49z
m-901 -11 c0 -4 -12 -11 -26 -14 -19 -5 -32 0 -55 22 -26 25 -28 29 -12 35 18
6 93 -29 93 -43z m-969 -51 c-10 -9 -11 -8 -5 6 3 10 9 15 12 12 3 -3 0 -11
-7 -18z m-244 -29 c-3 -8 -6 -5 -6 6 -1 11 2 17 5 13 3 -3 4 -12 1 -19z m-37
2 c0 -5 -4 -10 -10 -10 -5 0 -10 5 -10 10 0 6 5 10 10 10 6 0 10 -4 10 -10z
m-83 -22 c-3 -8 -6 -5 -6 6 -1 11 2 17 5 13 3 -3 4 -12 1 -19z m273 12 c0 -5
-4 -10 -10 -10 -5 0 -10 5 -10 10 0 6 5 10 10 10 6 0 10 -4 10 -10z"/>
<path d="M979 2604 c-23 -25 -23 -26 -2 -15 23 12 38 29 31 37 -3 2 -15 -8
-29 -22z"/>
<path d="M925 2560 c-10 -11 -13 -20 -7 -20 6 0 16 9 22 20 6 11 9 20 7 20 -2
0 -12 -9 -22 -20z"/>
<path d="M980 2534 c-6 -14 -10 -35 -10 -47 1 -19 2 -20 13 -6 7 9 27 23 45
33 17 9 32 19 32 22 0 2 -9 0 -19 -6 -29 -15 -36 -12 -20 8 8 10 4 7 -9 -6
l-23 -24 7 26 c8 34 -4 34 -16 0z"/>
<path d="M1499 2492 c20 -28 49 -52 65 -52 6 0 -31 38 -63 65 l-25 20 23 -33z"/>
<path d="M2543 2622 c-4 -18 -8 -20 -19 -11 -18 15 -30 4 -16 -14 7 -8 10 -16
8 -18 -3 -3 -7 -17 -10 -31 -4 -27 -4 -27 19 -12 15 10 26 29 30 55 7 43 -2
68 -12 31z"/>
<path d="M2480 2443 c-62 -23 -140 -66 -134 -74 4 -6 12 -5 22 3 15 12 16 11
4 -4 -8 -9 -19 -15 -27 -12 -7 3 -16 0 -20 -5 -3 -6 -10 -9 -15 -6 -5 3 -17
-6 -26 -20 -9 -13 -21 -22 -27 -18 -6 3 -7 1 -3 -6 6 -9 14 -8 32 4 13 8 24
13 24 10 0 -8 33 10 108 58 34 22 62 43 62 47 0 4 10 12 23 18 23 11 5 15 -23
5z m-148 -105 c-14 -14 -44 -20 -36 -7 3 5 9 7 14 4 5 -3 11 -1 15 5 3 5 9 10
13 10 3 0 1 -5 -6 -12z"/>
<path d="M2431 2177 c-1 -10 -5 -15 -11 -12 -5 3 -10 1 -10 -4 0 -6 -9 -11
-20 -11 -11 0 -20 -2 -20 -4 0 -2 -3 -11 -6 -20 -5 -14 -3 -14 24 -1 37 19 55
40 49 57 -3 8 -6 6 -6 -5z"/>
<path d="M2497 2102 c-24 -27 -21 -36 4 -11 11 11 19 23 16 25 -2 2 -11 -4
-20 -14z"/>
<path d="M2444 2048 l-19 -23 23 19 c21 18 27 26 19 26 -2 0 -12 -10 -23 -22z"/>
<path d="M1796 1334 c-22 -22 -20 -27 7 -13 22 12 22 12 3 -10 -11 -12 -34
-31 -52 -41 -30 -19 -70 -67 -62 -75 7 -7 138 126 138 140 0 19 -15 19 -34 -1z"/>
<path d="M1646 1111 c-4 -7 -5 -15 -2 -18 9 -9 19 4 14 18 -4 11 -6 11 -12 0z"/>
<path d="M990 2381 c0 -6 4 -13 10 -16 6 -3 7 1 4 9 -7 18 -14 21 -14 7z"/>
<path d="M1146 2153 c-6 -14 -5 -15 5 -6 7 7 10 15 7 18 -3 3 -9 -2 -12 -12z"/>
<path d="M1260 2291 c0 -3 9 -17 20 -31 18 -24 19 -24 17 -3 0 12 -5 19 -11
16 -5 -4 -7 0 -4 9 4 9 0 15 -8 15 -8 0 -14 -3 -14 -6z"/>
<path d="M1650 2035 c-14 -8 -20 -14 -14 -15 5 0 19 7 30 15 24 18 16 19 -16
0z"/>
<path d="M1818 2033 c-31 -5 -37 -18 -13 -27 8 -3 15 -1 15 5 0 6 6 9 13 6 8
-3 14 1 14 9 0 8 -1 13 -1 13 -1 -1 -13 -4 -28 -6z"/>
<path d="M1793 1983 c9 -2 23 -2 30 0 6 3 -1 5 -18 5 -16 0 -22 -2 -12 -5z"/>
<path d="M297 1953 c6 -42 19 -73 32 -73 8 0 -19 93 -30 105 -4 3 -5 -11 -2
-32z"/>
<path d="M293 1810 c15 -12 27 -28 27 -37 0 -17 24 -43 39 -43 6 0 0 16 -14
35 -13 20 -25 39 -27 44 -2 5 -14 11 -28 15 l-25 7 28 -21z"/>
<path d="M196 1767 c3 -10 9 -15 12 -12 3 3 0 11 -7 18 -10 9 -11 8 -5 -6z"/>
<path d="M507 1754 c-10 -14 -23 -21 -29 -18 -7 4 -8 2 -4 -4 9 -15 28 -6 44
19 19 30 10 32 -11 3z"/>
<path d="M220 1723 c0 -34 21 -53 57 -53 15 1 14 4 -8 23 -14 12 -31 31 -37
42 -10 18 -11 17 -12 -12z"/>
<path d="M535 1739 c-11 -17 1 -21 15 -4 8 9 8 15 2 15 -6 0 -14 -5 -17 -11z"/>
<path d="M356 1685 c4 -8 11 -15 16 -15 6 0 5 6 -2 15 -7 8 -14 15 -16 15 -2
0 -1 -7 2 -15z"/>
<path d="M450 1683 c0 -13 29 -38 35 -31 3 3 -4 13 -15 23 -11 10 -20 13 -20
8z"/>
<path d="M521 1573 c27 -46 39 -61 39 -47 0 5 -9 20 -20 34 -11 14 -20 31 -20
38 0 6 -5 12 -11 12 -6 0 -1 -17 12 -37z"/>
<path d="M1450 1836 c0 -2 9 -6 20 -9 11 -3 20 -1 20 4 0 5 -9 9 -20 9 -11 0
-20 -2 -20 -4z"/>
<path d="M1448 1813 c7 -3 16 -2 19 1 4 3 -2 6 -13 5 -11 0 -14 -3 -6 -6z"/>
<path d="M2700 1719 c0 -5 5 -7 10 -4 6 3 10 8 10 11 0 2 -4 4 -10 4 -5 0 -10
-5 -10 -11z"/>
<path d="M1518 1633 c7 -3 16 -2 19 1 4 3 -2 6 -13 5 -11 0 -14 -3 -6 -6z"/>
<path d="M1500 1610 c19 -13 30 -13 30 0 0 6 -10 10 -22 10 -19 0 -20 -2 -8
-10z"/>
<path d="M1570 1616 c0 -2 9 -6 20 -9 11 -3 18 -1 14 4 -5 9 -34 13 -34 5z"/>
<path d="M1507 1564 c-14 -14 -7 -26 8 -14 9 7 18 10 22 6 3 -3 1 -6 -5 -6 -7
0 -12 -4 -12 -9 0 -5 8 -8 18 -7 24 4 22 30 -3 34 -12 2 -24 0 -28 -4z"/>
<path d="M1145 1551 c-3 -5 0 -13 6 -17 7 -4 9 -3 5 4 -3 6 2 13 11 15 16 4
16 5 1 6 -9 0 -19 -3 -23 -8z"/>
<path d="M1150 1481 c0 -6 5 -13 10 -16 6 -3 10 1 10 9 0 9 -4 16 -10 16 -5 0
-10 -4 -10 -9z"/>
<path d="M555 1080 c3 -5 8 -10 11 -10 2 0 4 5 4 10 0 6 -5 10 -11 10 -5 0 -7
-4 -4 -10z"/>
<path d="M2340 906 c0 -2 7 -7 16 -10 8 -3 12 -2 9 4 -6 10 -25 14 -25 6z"/>
<path d="M1210 910 c0 -5 5 -10 11 -10 5 0 7 5 4 10 -3 6 -8 10 -11 10 -2 0
-4 -4 -4 -10z"/>
<path d="M1256 907 c3 -10 9 -15 12 -12 3 3 0 11 -7 18 -10 9 -11 8 -5 -6z"/>
<path d="M1225 880 c-3 -6 1 -7 9 -4 18 7 21 14 7 14 -6 0 -13 -4 -16 -10z"/>
<path d="M730 903 c0 -6 -8 -14 -17 -17 -13 -3 -11 -4 4 -3 12 1 35 -11 52
-27 17 -17 31 -25 31 -20 0 6 -16 25 -35 44 -19 19 -35 29 -35 23z"/>
<path d="M668 873 c7 -3 16 -2 19 1 4 3 -2 6 -13 5 -11 0 -14 -3 -6 -6z"/>
<path d="M1162 685 c23 -24 30 -27 40 -16 8 8 8 11 2 8 -7 -4 -15 0 -18 9 -4
9 -9 14 -13 11 -3 -4 -13 -2 -22 5 -9 6 -4 -1 11 -17z"/>
<path d="M1484 618 c-4 -7 -3 -8 4 -4 7 4 12 3 12 -2 0 -6 7 -12 14 -15 10 -4
13 -1 10 8 -7 18 -32 27 -40 13z"/>
<path d="M1555 480 c-3 -6 1 -7 9 -4 18 7 21 14 7 14 -6 0 -13 -4 -16 -10z"/>
<path d="M1360 421 c0 -6 4 -13 10 -16 6 -3 7 1 4 9 -7 18 -14 21 -14 7z"/>
<path d="M33 3433 c-15 -5 -17 -39 -3 -48 13 -8 50 4 50 16 0 6 -9 7 -20 4
-24 -8 -26 3 -4 20 13 9 13 12 3 12 -8 0 -20 -2 -26 -4z"/>
<path d="M166 3428 c-21 -12 -20 -25 3 -38 25 -13 51 -3 51 20 0 21 -30 31
-54 18z m34 -18 c0 -5 -4 -10 -10 -10 -5 0 -10 5 -10 10 0 6 5 10 10 10 6 0
10 -4 10 -10z"/>
<path d="M230 3410 c0 -16 7 -20 30 -20 23 0 30 4 30 20 0 11 -4 20 -10 20 -5
0 -9 -5 -7 -11 1 -6 -4 -14 -10 -16 -7 -3 -13 2 -13 11 0 9 -4 16 -10 16 -5 0
-10 -9 -10 -20z"/>
<path d="M310 3405 c0 -25 1 -25 25 -9 14 9 25 20 25 25 0 5 -11 9 -25 9 -20
0 -25 -5 -25 -25z"/>
<path d="M2618 3423 c6 -2 18 -2 25 0 6 3 1 5 -13 5 -14 0 -19 -2 -12 -5z"/>
<path d="M2728 3423 c6 -2 18 -2 25 0 6 3 1 5 -13 5 -14 0 -19 -2 -12 -5z"/>
<path d="M1060 3381 c0 -14 -8 -23 -26 -27 l-25 -6 23 -25 23 -25 -24 -20
c-21 -16 -22 -21 -10 -29 7 -5 18 -9 23 -9 4 0 5 -11 2 -25 -5 -20 -3 -23 10
-18 15 5 16 2 11 -25 -5 -23 -2 -34 10 -40 10 -6 14 -16 9 -27 -5 -15 -2 -16
30 -11 21 5 41 3 49 -4 10 -8 21 -8 42 3 20 11 34 12 47 5 9 -5 29 -7 43 -3
14 3 31 1 39 -6 11 -9 19 -8 38 4 21 14 25 14 39 0 13 -13 21 -14 40 -6 15 7
29 7 40 2 11 -6 23 -5 36 3 15 9 23 9 35 -1 12 -10 19 -11 30 -2 8 7 25 9 39
6 17 -5 26 -2 30 9 4 9 16 16 27 16 17 0 19 3 11 19 -8 15 -7 20 5 25 12 5 13
10 5 19 -8 10 -7 17 1 25 10 10 10 17 0 33 -9 15 -10 24 -3 33 8 10 6 18 -9
31 -19 17 -19 19 -4 37 16 17 16 18 -9 18 -20 0 -27 5 -27 20 0 19 -2 19 -34
6 -30 -13 -35 -12 -40 0 -5 13 -10 13 -35 -1 -27 -14 -31 -13 -39 1 -8 15 -12
15 -39 0 -27 -13 -33 -14 -43 -1 -10 13 -16 12 -42 -1 -27 -14 -31 -14 -48 1
-17 15 -21 15 -48 1 -27 -14 -31 -14 -43 0 -8 10 -20 13 -33 9 -36 -12 -130
-14 -143 -3 -10 8 -13 5 -13 -11z m40 -32 c0 -6 -4 -7 -10 -4 -5 3 -10 -2 -10
-12 0 -14 -2 -15 -9 -4 -6 9 -5 19 2 26 13 14 27 10 27 -6z m200 -35 c0 -32
-28 -43 -46 -19 -13 17 -14 17 -14 2 0 -19 -20 -24 -21 -4 0 10 -2 10 -6 0 -9
-24 -23 -13 -23 17 0 17 5 30 10 30 6 0 10 -6 10 -12 0 -9 4 -8 11 2 8 11 12
12 16 3 4 -10 9 -10 25 2 26 18 38 11 38 -21z m170 26 c10 -6 11 -10 3 -10 -7
0 -13 -11 -13 -25 0 -14 -4 -25 -10 -25 -5 0 -10 9 -10 19 0 11 -3 26 -6 35
-7 18 12 21 36 6z m-340 -12 c0 -9 4 -8 11 2 9 12 12 13 16 1 5 -11 7 -11 14
0 7 11 9 9 9 -6 0 -28 -20 -55 -27 -36 -4 11 -7 11 -14 0 -10 -17 -15 -11 -24
24 -5 17 -3 27 4 27 6 0 11 -6 11 -12z m226 0 c14 20 19 17 28 -20 4 -17 2
-28 -4 -28 -5 0 -10 5 -10 11 0 8 -4 8 -14 0 -11 -9 -16 -9 -21 0 -6 8 -10 7
-16 -2 -6 -10 -9 -6 -9 12 0 32 12 45 24 26 9 -14 11 -13 22 1z m171 0 c7 19
23 4 23 -24 0 -25 -15 -33 -23 -11 -4 9 -8 8 -16 -3 -14 -21 -23 -7 -15 25 5
20 9 24 16 13 7 -10 11 -10 15 0z m69 5 c-15 -4 -16 -7 -5 -14 12 -8 12 -10 0
-18 -11 -7 -10 -10 5 -14 13 -3 11 -5 -8 -6 -25 -1 -28 3 -28 29 0 26 3 30 28
29 19 -1 21 -3 8 -6z m-446 -72 c0 -5 -6 -12 -12 -14 -8 -3 -5 -6 5 -6 29 -1
17 -36 -13 -36 -31 0 -40 33 -14 52 21 15 34 17 34 4z m75 -31 c0 -18 -6 -26
-23 -28 -24 -4 -38 18 -28 44 3 9 15 14 28 12 17 -2 23 -10 23 -28z m54 12 c7
-13 6 -23 -1 -30 -21 -21 -38 -13 -38 18 0 34 23 41 39 12z m47 9 c-18 -7 -18
-8 -3 -14 9 -3 17 -13 17 -21 0 -18 -30 -30 -44 -16 -7 7 -4 10 10 10 18 1 18
1 0 15 -22 17 -13 35 17 34 20 0 21 -1 3 -8z m77 -7 c6 15 10 16 22 6 8 -7 15
-8 15 -3 0 17 68 12 75 -6 6 -14 8 -14 15 4 8 18 9 17 9 -7 1 -35 21 -37 21
-3 0 14 5 25 10 25 11 0 13 -20 4 -44 -7 -18 -39 -21 -50 -5 -4 8 -9 8 -17 0
-21 -21 -47 -13 -48 17 l-1 27 -10 -27 c-10 -29 -27 -38 -29 -15 0 10 -2 10
-6 0 -10 -27 -33 -13 -32 20 0 25 2 28 8 13 7 -18 8 -18 14 -2z m209 -35 c6
-4 6 -9 1 -12 -18 -11 -31 8 -25 38 6 29 7 29 10 5 2 -14 9 -28 14 -31z m66
34 c13 -26 4 -43 -24 -43 -18 0 -24 5 -24 23 0 40 32 52 48 20z m-458 -86 c0
-19 -21 -37 -42 -37 -13 0 -18 8 -18 29 0 16 6 31 13 34 17 6 47 -11 47 -26z
m116 8 c-2 -7 0 -17 5 -22 16 -16 -16 -37 -38 -24 -16 9 -15 10 7 11 25 1 25
1 3 10 -13 5 -23 14 -23 20 0 5 -7 10 -15 10 -9 0 -12 -6 -9 -15 4 -9 0 -15
-7 -16 -8 0 -5 -4 6 -9 18 -8 17 -9 -7 -9 -24 -1 -28 3 -28 29 0 29 0 29 56
29 40 -1 54 -4 50 -14z m64 5 c0 -5 -4 -10 -10 -10 -5 0 -11 -10 -11 -22 l-2
-23 -4 23 c-2 12 -9 22 -14 22 -5 0 -9 5 -9 10 0 6 11 10 25 10 14 0 25 -4 25
-10z m65 -22 c1 -31 -5 -34 -23 -16 -9 9 -12 9 -12 0 0 -7 -4 -12 -10 -12 -11
0 -14 43 -3 54 4 4 16 6 28 4 14 -2 20 -11 20 -30z m64 14 c12 -22 -3 -42 -31
-42 -21 0 -26 45 -5 53 21 9 26 8 36 -11z m50 -16 c-12 -26 -36 -38 -26 -12 3
7 0 19 -6 26 -9 10 -8 12 5 7 10 -3 20 -2 24 4 12 20 15 1 3 -25z m71 21 c0
-4 5 -5 12 -1 7 4 8 3 4 -4 -5 -9 -13 -9 -27 -2 -15 9 -19 7 -19 -5 0 -8 -4
-15 -10 -15 -12 0 -12 3 -4 23 6 16 44 19 44 4z"/>
<path d="M1265 3320 c-4 -6 -3 -16 3 -22 6 -6 12 -6 17 2 4 6 3 16 -3 22 -6 6
-12 6 -17 -2z"/>
<path d="M1187 3234 c-8 -8 1 -24 14 -24 5 0 9 7 9 15 0 15 -12 20 -23 9z"/>
<path d="M1250 3230 c0 -5 5 -10 10 -10 6 0 10 5 10 10 0 6 -4 10 -10 10 -5 0
-10 -4 -10 -10z"/>
<path d="M1475 3231 c-6 -11 9 -23 19 -14 9 9 7 23 -3 23 -6 0 -12 -4 -16 -9z"/>
<path d="M1650 3225 c0 -8 5 -15 10 -15 6 0 10 7 10 15 0 8 -4 15 -10 15 -5 0
-10 -7 -10 -15z"/>
<path d="M1180 3155 c0 -8 5 -15 10 -15 6 0 10 7 10 15 0 8 -4 15 -10 15 -5 0
-10 -7 -10 -15z"/>
<path d="M1492 3149 c2 -6 8 -10 13 -10 5 0 11 4 13 10 2 6 -4 11 -13 11 -9 0
-15 -5 -13 -11z"/>
<path d="M2607 3394 c-3 -3 -4 -11 -1 -18 2 -6 0 -33 -5 -59 -7 -41 -6 -47 8
-47 13 0 17 13 19 65 3 58 -3 76 -21 59z"/>
<path d="M2657 3394 c-4 -4 -7 -14 -7 -23 0 -12 3 -12 12 -3 35 35 37 -5 3
-46 -34 -40 -31 -52 10 -52 19 0 35 5 35 10 0 6 -12 10 -27 10 l-27 0 34 35
c28 29 32 39 24 53 -12 18 -45 28 -57 16z"/>
<path d="M400 3365 c0 -12 -32 -15 -202 -18 l-203 -2 208 -3 c201 -2 207 -1
207 18 0 11 -2 20 -5 20 -3 0 -5 -7 -5 -15z"/>
<path d="M534 3351 c15 -17 76 -46 76 -37 0 5 -79 56 -86 56 -4 0 1 -9 10 -19z"/>
<path d="M2725 3351 c-9 -28 4 -69 16 -50 5 8 3 17 -4 21 -9 6 -9 10 0 16 7 4
9 13 4 21 -7 11 -10 9 -16 -8z"/>
<path d="M620 3326 c0 -2 8 -10 18 -17 15 -13 16 -12 3 4 -13 16 -21 21 -21
13z"/>
<path d="M2561 3314 c0 -11 3 -14 6 -6 3 7 2 16 -1 19 -3 4 -6 -2 -5 -13z"/>
<path d="M667 3289 c7 -7 15 -10 18 -7 3 3 -2 9 -12 12 -14 6 -15 5 -6 -5z"/>
<path d="M628 3258 c5 -5 16 -8 23 -6 8 3 3 7 -10 11 -17 4 -21 3 -13 -5z"/>
<path d="M765 3246 c44 -21 125 -44 125 -36 0 10 -24 20 -70 30 -19 5 -46 11
-60 15 -21 5 -20 3 5 -9z"/>
<path d="M2733 3233 c9 -2 23 -2 30 0 6 3 -1 5 -18 5 -16 0 -22 -2 -12 -5z"/>
<path d="M2640 3196 c0 -9 8 -14 20 -13 24 2 21 21 -3 25 -10 2 -17 -3 -17
-12z"/>
<path d="M2690 3195 c0 -8 7 -15 15 -15 8 0 15 7 15 15 0 8 -7 15 -15 15 -8 0
-15 -7 -15 -15z"/>
<path d="M110 3162 c1 -11 43 -56 70 -73 48 -30 199 -64 173 -38 -13 13 -116
39 -127 32 -5 -4 -6 -1 -2 5 4 7 3 12 -2 12 -6 0 -33 15 -61 34 -28 19 -51 32
-51 28z"/>
<path d="M817 3043 c29 -32 53 -63 53 -69 0 -7 7 -25 15 -40 8 -16 15 -41 15
-56 0 -15 5 -30 12 -34 16 -10 2 69 -21 115 -20 38 -107 141 -120 141 -4 0 17
-26 46 -57z"/>
<path d="M441 3054 c0 -11 3 -14 6 -6 3 7 2 16 -1 19 -3 4 -6 -2 -5 -13z"/>
<path d="M2904 3014 c-104 -66 -100 -62 -109 -93 l-7 -24 27 21 c30 24 45 28
45 12 0 -6 -16 -18 -35 -27 -19 -9 -32 -20 -29 -25 3 -5 17 -2 30 7 24 15 24
15 24 -15 0 -27 -8 -35 -32 -31 -12 2 -9 -22 5 -40 12 -15 20 -13 95 24 74 36
82 43 82 68 0 19 -5 29 -15 29 -22 0 -20 56 2 69 10 5 15 12 13 15 -3 3 -34
-13 -68 -34 -34 -22 -64 -35 -66 -31 -3 4 26 28 64 51 46 30 68 50 67 62 -1
10 -2 18 -2 18 -1 0 -41 -25 -91 -56z m86 32 c0 -2 -26 -19 -57 -38 -32 -19
-71 -43 -88 -53 -56 -35 -10 2 60 49 64 42 85 53 85 42z m-34 -120 c-3 -13
-13 -27 -22 -30 -12 -5 -15 0 -12 22 2 15 10 32 18 39 18 14 24 2 16 -31z
m-46 -16 c0 -23 -6 -33 -22 -39 -33 -12 -38 26 -6 51 29 23 28 23 28 -12z"/>
<path d="M478 3028 c5 -5 16 -8 23 -6 8 3 3 7 -10 11 -17 4 -21 3 -13 -5z"/>
<path d="M1895 3005 c-35 -36 -46 -65 -23 -65 6 0 31 10 55 21 51 25 106 21
129 -8 14 -17 15 -17 12 2 -4 28 -54 50 -115 50 -28 0 -50 1 -49 2 1 1 15 9
31 17 19 10 24 16 13 16 -10 0 -33 -16 -53 -35z"/>
<path d="M398 2998 c5 -5 16 -8 23 -6 8 3 3 7 -10 11 -17 4 -21 3 -13 -5z"/>
<path d="M1580 2960 c-11 -11 -19 -30 -19 -42 l2 -23 4 22 c2 13 16 32 30 43
14 11 21 20 14 20 -6 0 -20 -9 -31 -20z"/>
<path d="M1642 2975 c4 -4 3 -14 -4 -22 -6 -7 -9 -15 -7 -18 3 -2 10 4 17 15
9 15 9 21 -1 26 -6 4 -9 4 -5 -1z"/>
<path d="M1693 2973 c9 -2 23 -2 30 0 6 3 -1 5 -18 5 -16 0 -22 -2 -12 -5z"/>
<path d="M1780 2940 c-8 -16 -8 -20 4 -20 18 0 47 -39 40 -54 -3 -6 2 -2 10 8
9 11 16 29 16 40 0 23 -20 60 -20 38 0 -10 -5 -10 -20 -2 -15 8 -21 6 -30 -10z"/>
<path d="M1916 2925 c-9 -25 -9 -25 27 -24 17 0 26 3 20 6 -27 10 -11 21 16
10 22 -8 36 -8 53 1 23 11 22 11 -7 11 -16 1 -46 3 -66 7 -28 5 -38 2 -43 -11z"/>
<path d="M1655 2920 c-4 -6 -11 -8 -16 -5 -5 4 -9 -5 -9 -19 0 -30 7 -32 46
-11 16 8 23 15 16 15 -7 0 -22 -5 -33 -10 -13 -7 -19 -7 -19 -1 0 6 10 13 23
16 12 3 40 9 62 14 l40 9 -52 1 c-28 1 -55 -4 -58 -9z"/>
<path d="M648 2904 c-16 -8 -28 -17 -28 -20 0 -2 12 2 28 9 15 8 34 17 42 20
13 5 13 5 0 6 -8 0 -27 -7 -42 -15z"/>
<path d="M1728 2903 c12 -2 30 -2 40 0 9 3 -1 5 -23 4 -22 0 -30 -2 -17 -4z"/>
<path d="M478 2893 c7 -3 16 -2 19 1 4 3 -2 6 -13 5 -11 0 -14 -3 -6 -6z"/>
<path d="M577 2888 c-16 -12 -15 -13 6 -13 13 0 24 6 24 13 0 6 -3 12 -7 12
-3 0 -14 -6 -23 -12z"/>
<path d="M1748 2866 c-10 -7 -18 -21 -18 -30 0 -9 -4 -16 -10 -16 -5 0 -13
-12 -16 -26 l-6 -25 -24 22 c-13 12 -25 34 -25 48 -2 26 -2 26 -6 2 -4 -18 7
-36 48 -77 29 -30 60 -54 69 -53 10 0 8 3 -5 9 -12 4 -26 15 -33 23 -14 16
-11 21 33 51 19 14 19 15 2 34 -17 18 -17 20 5 35 13 9 19 16 13 16 -5 0 -18
-6 -27 -13z"/>
<path d="M1870 2860 c0 -6 8 -13 18 -17 9 -3 32 -20 51 -37 23 -21 30 -25 23
-11 -18 36 -92 88 -92 65z"/>
<path d="M1805 2839 c-4 -5 1 -19 10 -29 10 -11 15 -26 12 -33 -3 -8 0 -20 6
-26 8 -8 8 -11 -1 -11 -8 0 -10 -9 -6 -27 6 -23 5 -25 -12 -19 -14 5 -16 4 -8
-4 6 -6 22 -8 38 -4 24 6 25 8 10 19 -28 20 -7 38 37 32 22 -3 37 -1 33 4 -3
5 -18 9 -34 9 -40 0 -60 9 -53 25 3 9 10 11 21 6 43 -22 95 -41 99 -38 7 7
-48 38 -75 43 -39 7 -74 33 -68 50 6 16 0 19 -9 3z"/>
<path d="M559 2823 c-13 -16 -12 -17 4 -4 16 13 21 21 13 21 -2 0 -10 -8 -17
-17z"/>
<path d="M1850 2816 c0 -2 9 -6 20 -9 11 -3 20 -1 20 4 0 5 -9 9 -20 9 -11 0
-20 -2 -20 -4z"/>
<path d="M1632 2778 c-20 -20 -14 -34 29 -73 37 -33 43 -35 56 -22 17 17 11
32 -19 48 -11 6 -18 7 -15 2 3 -5 2 -14 -2 -21 -5 -9 -14 -5 -31 13 -21 22
-22 29 -12 45 14 23 12 26 -6 8z m80 -90 c-7 -7 -12 -8 -12 -2 0 14 12 26 19
19 2 -3 -1 -11 -7 -17z"/>
<path d="M2963 2769 c-33 -10 -33 -10 -33 -73 l0 -64 35 11 35 10 -3 64 c-1
34 -2 63 -2 62 0 0 -15 -5 -32 -10z m14 -41 c-3 -7 -5 -2 -5 12 0 14 2 19 5
13 2 -7 2 -19 0 -25z m-19 -3 c-1 -14 -6 -25 -10 -25 -4 0 -8 11 -8 25 0 14 4
25 10 25 5 0 9 -11 8 -25z m2 -55 c0 -11 -4 -20 -10 -20 -5 0 -10 9 -10 20 0
11 5 20 10 20 6 0 10 -9 10 -20z"/>
<path d="M831 2444 c0 -11 3 -14 6 -6 3 7 2 16 -1 19 -3 4 -6 -2 -5 -13z"/>
<path d="M921 713 c0 -4 4 -17 9 -28 8 -19 9 -19 9 2 1 12 -3 25 -9 28 -5 3
-10 3 -9 -2z"/>
<path d="M945 650 c-13 -6 -15 -9 -5 -9 8 0 22 4 30 9 18 12 2 12 -25 0z"/>
<path d="M982 610 c0 -14 2 -19 5 -12 2 6 2 18 0 25 -3 6 -5 1 -5 -13z"/>
<path d="M1000 576 c0 -9 5 -16 10 -16 6 0 10 4 10 9 0 6 -4 13 -10 16 -5 3
-10 -1 -10 -9z"/>
<path d="M1042 529 c2 -7 10 -15 17 -17 8 -3 12 1 9 9 -2 7 -10 15 -17 17 -8
3 -12 -1 -9 -9z"/>
<path d="M1206 513 c9 -38 14 -42 14 -10 0 14 -5 29 -10 32 -7 4 -8 -3 -4 -22z"/>
<path d="M1057 447 c-4 -25 -1 -46 5 -52 8 -7 9 -5 5 7 -3 9 -2 31 3 47 5 17
5 33 1 36 -5 2 -11 -14 -14 -38z"/>
<path d="M1081 364 c0 -11 3 -14 6 -6 3 7 2 16 -1 19 -3 4 -6 -2 -5 -13z"/>
<path d="M1080 255 c-11 -21 -11 -27 0 -38 10 -10 12 -8 6 7 -3 10 -1 25 5 33
7 7 10 16 7 18 -3 3 -11 -6 -18 -20z"/>
<path d="M1031 230 c0 -14 8 -38 19 -55 11 -16 20 -25 20 -20 0 6 -6 20 -14
31 -8 11 -16 31 -19 44 l-4 25 -2 -25z"/>
<path d="M1131 204 c0 -11 3 -14 6 -6 3 7 2 16 -1 19 -3 4 -6 -2 -5 -13z"/>
<path d="M1107 153 c-4 -3 -7 -11 -7 -17 0 -6 5 -5 12 2 6 6 9 14 7 17 -3 3
-9 2 -12 -2z"/>
<path d="M0 91 c0 -14 5 -40 12 -58 10 -27 17 -33 41 -33 l29 0 -30 38 c-16
20 -34 46 -40 57 -11 19 -11 19 -12 -4z"/>
<path d="M50 82 c0 -5 7 -15 15 -22 8 -7 15 -8 15 -2 0 5 -7 15 -15 22 -8 7
-15 8 -15 2z"/>
</g>
</svg>
