<?xml version="1.0" standalone="no"?>
<!DOCTYPE svg PUBLIC "-//W3C//DTD SVG 20010904//EN"
 "http://www.w3.org/TR/2001/REC-SVG-20010904/DTD/svg10.dtd">
<svg version="1.0" xmlns="http://www.w3.org/2000/svg"
 width="300.000000pt" height="450.000000pt" viewBox="0 0 300.000000 450.000000"
 preserveAspectRatio="xMidYMid meet">

<g transform="translate(0.000000,450.000000) scale(0.100000,-0.100000)"
fill="#000000" stroke="none">
<path d="M70 4460 c0 -23 -5 -31 -25 -36 l-25 -6 1 -122 c1 -66 4 -111 6 -99
2 12 18 34 34 48 17 14 27 25 23 25 -4 0 -16 -7 -26 -17 -17 -15 -18 -13 -18
71 0 65 3 87 12 84 7 -3 15 -15 19 -29 l6 -24 11 28 c18 44 32 32 32 -29 0
-34 4 -53 10 -49 6 3 10 18 10 33 1 84 35 98 45 20 4 -29 12 -56 18 -59 6 -4
4 -15 -7 -30 -9 -13 -16 -18 -16 -11 0 9 -7 9 -29 -2 -27 -15 -29 -14 -35 6
-7 31 -15 19 -9 -14 5 -26 6 -26 29 -11 13 8 31 13 39 9 9 -3 19 3 25 14 13
24 30 26 30 3 0 -16 1 -16 13 0 14 19 104 37 93 18 -4 -6 -11 -9 -15 -7 -4 3
-8 -1 -8 -9 0 -10 6 -9 25 6 28 21 52 25 52 7 0 -6 3 -8 7 -5 3 4 5 36 4 72
-2 41 2 65 8 65 6 0 11 -20 11 -45 0 -44 1 -45 33 -45 30 0 32 -2 32 -37 0
-27 4 -38 15 -38 11 0 16 -16 20 -63 3 -34 8 -62 13 -62 4 0 27 0 52 0 l44 0
4 63 3 62 2 -62 2 -63 55 0 c46 0 55 3 55 18 0 16 20 17 268 18 147 1 272 2
277 2 6 0 71 -2 145 -4 196 -8 226 9 176 98 -16 27 -26 51 -24 52 1 2 14 6 28
9 24 6 25 5 22 -34 -4 -35 -2 -40 14 -37 17 3 19 -5 22 -59 l3 -63 54 0 54 0
4 63 3 62 2 -62 2 -63 55 0 c46 0 55 3 55 18 0 15 13 17 137 17 125 0 138 2
137 18 -2 22 1 22 27 -4 19 -19 30 -20 165 -17 79 2 144 1 144 -2 0 -3 66 -3
147 0 l147 5 0 78 c0 90 -6 85 116 90 69 3 67 3 -22 5 l-98 2 0 34 0 35 -172
1 c-601 2 -697 1 -717 -10 -17 -9 -21 -8 -21 4 0 26 -36 36 -129 36 l-91 0 0
-50 c0 -47 -2 -50 -25 -50 -22 0 -25 4 -25 35 0 28 -4 36 -24 41 -25 6 -102
-1 -131 -12 -8 -4 -15 -2 -15 3 0 5 -32 7 -72 5 -88 -5 -93 -5 -186 -2 -46 1
-78 -2 -87 -10 -12 -10 -18 -10 -30 0 -11 9 -57 13 -166 12 -83 -1 -155 -4
-160 -8 -5 -3 -9 4 -9 15 0 19 -6 21 -54 21 l-55 0 -4 -52 -3 -53 -2 53 -2 53
-52 -3 -53 -3 3 -47 c3 -39 1 -48 -12 -48 -13 0 -16 14 -16 80 l0 80 -215 0
-215 0 0 -30z m187 -98 c1 -24 4 -49 7 -57 7 -20 -24 -28 -44 -10 -16 15 -18
29 -11 103 1 8 10 12 24 10 19 -3 22 -10 24 -46z m33 28 c0 -11 -4 -20 -9 -20
-6 0 -9 9 -8 20 1 11 5 20 9 20 4 0 8 -9 8 -20z m29 -32 c-4 -24 -8 -46 -9
-50 0 -5 -7 -8 -15 -8 -10 0 -15 10 -15 30 0 22 4 28 15 23 9 -3 15 -2 14 3
-4 23 2 55 10 50 5 -3 5 -25 0 -48z m61 42 c0 -5 -4 -10 -10 -10 -15 0 -12
-30 3 -31 10 0 10 -2 0 -6 -7 -2 -13 -11 -13 -18 0 -7 6 -16 13 -18 9 -4 8 -8
-3 -16 -26 -19 -30 -12 -30 49 0 53 2 60 20 60 11 0 20 -4 20 -10z m87 -13 c0
-8 -6 -14 -12 -14 -6 0 -12 6 -12 14 0 7 6 13 12 13 6 0 12 -6 12 -13z m1330
-49 c-3 -7 -5 -2 -5 12 0 14 2 19 5 13 2 -7 2 -19 0 -25z m266 -5 c-13 -2 -33
-2 -45 0 -13 2 -3 4 22 4 25 0 35 -2 23 -4z m-553 -105 c0 -5 -18 -8 -41 -8
-28 0 -39 4 -36 13 2 6 10 12 18 12 8 0 16 11 17 24 l4 24 19 -29 c10 -16 19
-32 19 -36z m-90 1 c0 -5 -7 -9 -15 -9 -15 0 -20 12 -9 23 8 8 24 -1 24 -14z
m-413 -51 c-3 -7 -5 -2 -5 12 0 14 2 19 5 13 2 -7 2 -19 0 -25z"/>
<path d="M220 4381 c0 -6 5 -13 10 -16 6 -3 10 1 10 9 0 9 -4 16 -10 16 -5 0
-10 -4 -10 -9z"/>
<path d="M225 4331 c-4 -12 -3 -27 3 -33 13 -13 21 11 12 37 -7 19 -7 19 -15
-4z"/>
<path d="M156 4368 c-3 -13 -1 -27 4 -32 7 -7 10 1 10 22 0 37 -5 41 -14 10z"/>
<path d="M52 4330 c2 -27 8 -36 24 -38 14 -2 23 3 26 16 8 30 -8 49 -17 20 -7
-22 -7 -22 -12 -3 -9 38 -25 42 -21 5z"/>
<path d="M150 4305 c0 -9 5 -15 11 -13 6 2 11 8 11 13 0 5 -5 11 -11 13 -6 2
-11 -4 -11 -13z"/>
<path d="M415 4300 c3 -6 13 -10 21 -10 17 0 19 -20 2 -20 -7 0 -5 -5 5 -11
23 -14 21 -35 -5 -53 -28 -20 -48 -20 -48 -1 0 8 7 15 15 15 8 0 15 5 15 12 0
6 -3 8 -6 5 -4 -3 -16 0 -27 8 -15 11 -24 12 -34 3 -22 -18 -15 -29 15 -22 27
7 27 7 8 -15 -11 -11 -26 -21 -35 -22 -11 0 -12 -2 -3 -6 7 -3 19 1 27 7 11 9
15 9 15 1 0 -25 76 0 85 28 8 28 -10 74 -33 82 -15 6 -21 5 -17 -1z"/>
<path d="M72 4208 c-18 -18 -15 -38 6 -37 11 0 12 2 4 6 -10 4 -10 8 -1 19 15
18 7 28 -9 12z"/>
<path d="M145 4207 c-4 -10 -5 -21 -1 -24 10 -10 18 4 13 24 -4 17 -4 17 -12
0z"/>
<path d="M101 4194 c0 -11 3 -14 6 -6 3 7 2 16 -1 19 -3 4 -6 -2 -5 -13z"/>
<path d="M210 4200 c0 -8 -12 -25 -27 -38 -27 -22 -27 -23 -2 -8 14 9 29 13
34 9 4 -5 5 -2 1 5 -7 12 7 16 52 12 12 -1 22 3 22 8 0 6 -9 8 -20 5 -13 -3
-20 0 -20 8 0 11 -2 11 -10 -1 -9 -13 -11 -13 -20 0 -8 13 -10 13 -10 0z"/>
<path d="M23 4120 c1 -38 6 -54 15 -52 22 4 23 -21 3 -78 l-20 -55 22 -6 c20
-6 19 -8 -11 -19 -39 -15 -41 -33 -6 -49 25 -11 25 -13 10 -30 -15 -17 -14
-19 10 -30 l27 -12 -38 -39 -39 -40 37 0 c35 0 37 -2 37 -31 0 -17 -5 -40 -12
-52 -6 -12 -12 -33 -13 -47 -2 -14 -6 -37 -10 -52 -6 -24 -4 -28 14 -28 12 0
20 -3 20 -7 -1 -5 -1 -70 0 -147 l1 -139 193 6 c105 4 202 7 215 7 22 0 22 2
22 140 l0 140 29 0 c30 0 51 28 31 40 -14 8 3 56 22 63 7 3 -4 6 -25 6 -46 1
-54 18 -37 74 8 23 14 46 14 50 1 4 7 11 14 16 7 4 21 24 31 44 l18 36 -29 6
c-23 5 -28 11 -23 26 4 11 2 19 -5 19 -7 0 -14 -9 -17 -20 -3 -11 -10 -20 -15
-20 -9 0 -6 18 14 69 7 18 11 21 22 12 11 -9 16 -9 21 0 6 8 10 7 16 -2 7 -11
9 -11 9 -1 0 7 -7 20 -15 28 -8 9 -15 11 -15 5 0 -6 -11 -11 -25 -11 -18 0
-23 4 -18 16 3 8 12 13 19 10 8 -3 14 -1 14 3 0 5 -4 11 -9 13 -4 2 -11 14
-15 28 -6 19 -5 21 3 10 7 -10 11 -11 11 -2 0 6 9 12 19 12 11 0 22 -6 24 -12
3 -8 6 -6 6 5 1 14 -8 17 -45 17 -32 0 -44 4 -42 13 6 16 278 23 278 7 0 -6
-7 -24 -15 -40 -40 -78 -75 -340 -45 -340 6 0 25 16 42 36 35 40 95 74 131 74
23 0 24 -3 31 -92 6 -88 9 -317 4 -319 -2 0 -23 -3 -48 -6 -93 -11 -75 -18 41
-14 133 4 184 -3 193 -24 4 -11 0 -12 -20 -5 -24 9 -259 2 -250 -7 2 -3 39 -4
81 -4 81 0 115 -12 115 -41 0 -12 8 -18 23 -19 22 0 22 0 -2 -10 -17 -7 -27
-6 -31 2 -5 7 -9 5 -14 -6 -9 -23 -8 -25 9 -25 18 0 19 -12 3 -29 -11 -10 -10
-11 5 -5 13 5 16 2 11 -10 -4 -11 -13 -14 -24 -11 -10 3 -22 0 -26 -6 -5 -9
-2 -10 9 -6 24 9 40 -19 41 -71 1 -45 -1 -48 -37 -64 -46 -21 -47 -36 -4 -40
25 -2 33 -8 35 -27 3 -21 1 -23 -20 -18 -22 6 -22 5 4 -17 27 -24 28 -39 2
-29 -17 6 -18 -9 -2 -25 10 -10 10 -15 -2 -23 -11 -8 -9 -9 10 -4 20 6 22 5
13 -5 -6 -7 -23 -12 -37 -12 -33 0 -33 -6 0 -18 19 -8 25 -16 21 -30 -3 -13 0
-20 10 -20 8 0 13 -5 11 -12 -3 -7 -39 -12 -104 -15 -93 -3 -98 -2 -76 13 12
9 22 22 22 28 0 6 -4 5 -9 -3 -8 -12 -12 -13 -25 -1 -9 7 -14 15 -11 18 3 3 0
11 -6 19 -8 9 -38 13 -108 11 l-96 -2 97 -5 c53 -3 100 -9 104 -13 4 -5 -1 -8
-12 -8 -17 0 -17 -2 5 -19 32 -25 16 -34 -73 -39 -117 -7 -112 -21 7 -22 l107
0 0 -38 c0 -25 7 -43 19 -54 43 -37 57 -39 187 -28 70 5 130 10 134 10 4 0 12
12 19 28 11 25 10 26 -4 7 -17 -22 -73 -23 -88 -1 -5 6 -7 2 -4 -11 5 -20 1
-23 -29 -23 -19 0 -34 5 -34 12 0 6 -3 8 -6 5 -4 -3 -15 -2 -25 4 -14 7 -19 6
-19 -3 0 -9 -3 -9 -10 2 -9 13 -10 13 -10 0 0 -13 -1 -13 -10 0 -5 8 -10 11
-10 6 0 -6 -7 -1 -16 10 -8 10 -13 14 -10 7 5 -10 -27 -12 -66 -4 -5 0 -8 17
-8 36 0 33 2 35 35 35 33 0 35 -2 31 -27 l-5 -28 18 22 c12 14 34 24 62 27 24
3 60 10 79 16 24 7 36 7 39 -1 2 -6 8 -4 15 5 13 18 103 35 92 18 -3 -6 0 -17
8 -25 13 -12 13 -17 -1 -37 -14 -20 -14 -22 2 -18 11 2 19 14 21 32 4 39 24
59 25 26 0 -14 2 -33 4 -43 5 -28 76 -86 105 -86 14 0 19 3 13 6 -19 7 -16 37
7 75 l20 34 -56 27 c-30 15 -59 25 -64 22 -5 -3 -12 0 -16 6 -4 7 -3 9 4 5 5
-3 12 -1 14 5 2 7 27 0 66 -20 l62 -31 21 24 c24 27 95 60 110 51 5 -3 21 -27
36 -52 24 -41 29 -59 32 -101 1 -7 9 -12 19 -10 9 1 24 -2 32 -7 13 -8 13 -7
1 8 -12 15 -11 21 8 41 26 27 72 40 83 23 4 -6 2 -15 -5 -19 -7 -4 11 -8 39
-8 79 0 105 -44 74 -120 -7 -17 -11 -32 -9 -34 9 -8 98 -13 93 -5 -3 5 -12 9
-20 9 -19 0 -18 9 5 45 23 38 124 90 208 107 65 12 84 8 64 -16 -9 -11 -9 -15
0 -18 16 -5 3 -44 -24 -68 -11 -11 -35 -20 -53 -20 -29 0 -63 -10 -139 -40
l-30 -12 58 -29 c32 -16 55 -33 53 -38 -3 -4 17 -18 45 -31 37 -18 52 -21 61
-12 19 19 -19 51 -81 68 -101 28 -102 29 -46 55 42 20 70 24 176 27 148 5 183
-6 194 -60 5 -21 4 -33 -4 -36 -6 -2 -9 -8 -5 -13 3 -5 -2 -9 -11 -9 -13 0
-14 -4 -5 -20 12 -23 5 -25 -29 -6 -23 13 -65 11 -57 -3 2 -3 -12 -7 -31 -9
-19 -1 -40 -8 -48 -15 -10 -11 -4 -17 39 -36 224 -99 298 -139 290 -153 -4 -7
-2 -8 4 -4 7 4 12 3 12 -3 0 -6 8 -8 18 -4 9 3 14 2 9 -2 -9 -10 51 -37 64
-29 5 3 8 0 7 -7 -2 -7 4 -14 12 -14 27 -2 80 -31 73 -40 -5 -4 -2 -5 6 0 7 4
16 3 20 -2 6 -10 63 -42 134 -75 l37 -17 0 385 c0 285 -3 383 -11 378 -14 -8
-108 -12 -106 -4 1 3 -1 6 -5 8 -19 6 -20 1 -3 -18 18 -19 17 -20 -4 -20 -56
0 -111 59 -111 120 0 17 -6 20 -39 20 -47 0 -158 -22 -218 -44 -24 -8 -43 -11
-43 -6 0 6 -12 10 -27 9 l-28 -1 25 -7 c24 -7 24 -7 5 -15 -27 -11 -65 -14
-59 -4 3 4 1 8 -3 8 -5 0 -18 7 -29 15 -18 14 -17 14 16 10 l35 -5 -32 10
c-19 6 -33 17 -33 26 0 12 5 14 18 9 9 -5 39 -13 65 -19 43 -9 56 -7 110 13
34 13 102 34 151 47 86 23 115 34 85 34 -17 0 -115 -24 -144 -35 -11 -4 -3 4
17 19 20 14 44 26 52 26 9 0 16 5 16 11 0 5 6 7 13 3 9 -6 9 -5 0 7 -13 16 0
39 21 39 6 0 2 -7 -8 -15 -29 -22 -11 -18 26 6 27 17 29 19 8 13 -23 -6 -24
-6 -10 12 15 18 14 18 -15 0 -16 -11 -46 -32 -66 -47 -42 -33 -114 -63 -133
-56 -7 3 -33 -1 -56 -9 -43 -15 -115 -10 -104 7 3 5 0 9 -7 9 -9 0 -9 3 0 14
7 8 19 13 29 11 9 -1 11 0 5 2 -14 5 -17 23 -5 38 9 13 62 13 82 0 13 -8 13
-7 1 8 -12 15 -10 17 22 17 19 0 44 3 54 6 15 5 15 4 -2 -7 -11 -7 -26 -19
-33 -26 -7 -7 -25 -16 -40 -19 -44 -9 -49 -12 -22 -13 32 -1 139 58 158 87
l15 22 -44 -20 c-67 -30 -93 -26 -44 7 22 15 42 30 43 35 2 4 7 6 11 4 4 -3 8
1 8 8 0 8 -22 -3 -51 -26 -51 -40 -69 -50 -117 -61 -18 -5 -26 -3 -26 8 0 8 4
12 7 10 9 -5 71 42 106 80 13 15 40 33 59 41 20 8 33 19 30 24 -8 13 -35 118
-35 133 1 7 10 -5 21 -26 11 -22 18 -45 15 -53 -3 -8 -1 -14 4 -14 6 0 10 -12
10 -26 0 -24 3 -26 29 -21 33 7 103 -13 109 -31 2 -8 -3 -10 -15 -5 -19 7 -18
5 11 -17 18 -13 19 -13 11 0 -8 13 -7 13 8 1 10 -8 15 -16 12 -19 -3 -3 1 -12
8 -21 9 -12 5 -11 -17 3 -20 12 -54 20 -100 23 -57 3 -67 2 -52 -8 10 -6 46
-13 80 -15 33 -2 62 -8 64 -14 2 -5 18 -11 35 -11 l32 -2 -35 -7 -35 -7 33 -2
c23 -1 31 -5 26 -13 -5 -8 -2 -9 10 -5 20 8 47 -5 89 -39 l29 -24 -32 0 c-17
0 -49 9 -71 19 -21 11 -36 15 -33 9 19 -30 130 -49 164 -28 12 8 10 14 -13 38
l-28 29 21 36 c20 34 20 37 5 61 -10 14 -21 23 -27 20 -5 -3 -2 -16 7 -30 15
-24 13 -44 -5 -44 -5 0 -7 7 -4 15 7 18 4 18 -29 6 -20 -8 -29 -5 -47 14 l-22
23 24 7 c12 3 35 11 50 17 l26 10 -49 61 c-40 50 -122 174 -137 209 -2 4 13
27 32 52 20 24 49 67 65 97 l29 53 -23 46 c-29 57 -111 135 -173 163 -39 18
-65 22 -152 22 -97 0 -111 -3 -183 -34 -59 -25 -77 -37 -73 -50 3 -9 8 -29 11
-46 4 -16 9 -39 12 -50 3 -11 -8 0 -25 25 -40 62 -97 115 -158 151 -63 36 -79
36 -129 3 -89 -59 -164 -151 -165 -201 0 -10 -7 -27 -15 -37 -14 -19 -15 -19
-15 8 0 15 9 73 20 128 12 55 18 103 15 106 -3 3 -33 5 -68 5 -54 -1 -101 -10
-193 -38 -19 -6 -21 -3 -17 20 l6 26 -71 -7 -71 -6 -6 28 c-4 16 -17 63 -30
104 -13 41 -21 78 -18 83 6 10 63 9 63 -2 0 -6 -4 -13 -10 -16 -5 -3 -10 -13
-10 -21 0 -11 7 -13 28 -8 22 5 25 4 15 -7 -19 -19 -16 -73 5 -92 27 -24 53
-24 69 1 14 21 14 22 -6 22 -26 0 -36 20 -27 55 5 18 13 25 30 25 14 0 27 6
29 13 3 6 6 -23 6 -65 1 -60 4 -78 15 -78 34 0 41 10 38 58 -3 54 8 78 33 68
15 -5 17 -15 12 -66 -5 -44 -3 -60 6 -60 26 0 35 17 42 72 6 46 4 63 -9 83
l-16 25 62 0 63 0 -32 -20 c-17 -10 -37 -28 -42 -39 -37 -69 35 -142 109 -111
21 9 30 19 30 36 0 24 -14 32 -25 14 -3 -5 -19 -10 -35 -10 -16 0 -32 5 -35
10 -4 6 8 10 29 10 32 0 36 3 36 25 0 22 -3 24 -32 18 -24 -5 -29 -3 -23 7 5
8 21 10 47 7 39 -5 39 -5 33 24 -6 29 -6 29 37 29 l43 0 3 -82 c4 -93 6 -98
33 -98 16 0 19 7 19 54 0 37 5 58 16 67 26 22 44 -13 37 -72 -6 -50 -2 -56 31
-43 12 4 16 20 16 54 0 55 19 80 40 54 11 -12 11 -27 4 -65 -10 -47 -10 -49
12 -49 30 0 33 7 36 78 2 47 -1 64 -16 81 -19 21 -19 21 6 21 28 0 28 1 35
-103 4 -72 6 -78 25 -75 20 3 21 9 20 91 l-1 87 45 0 45 0 -35 -34 c-45 -42
-48 -84 -10 -123 19 -19 33 -24 55 -21 16 3 29 1 29 -4 0 -4 10 -8 23 -8 22 0
24 4 23 55 -1 53 -2 55 -28 55 -23 0 -27 -4 -25 -22 3 -33 -47 -33 -51 -1 -4
29 38 58 74 49 25 -7 25 -5 19 25 -6 26 -4 30 12 27 16 -3 18 -14 18 -88 0
-84 0 -85 25 -85 22 0 25 4 22 34 -4 41 15 91 35 91 12 0 14 -13 11 -65 -3
-65 -3 -66 22 -63 20 2 26 9 28 33 6 76 13 95 32 95 17 0 18 -3 9 -24 -15 -33
-4 -72 26 -92 24 -16 27 -15 45 1 26 23 25 33 -2 37 -44 6 -31 78 13 78 13 0
26 -13 37 -37 9 -21 21 -41 25 -44 5 -3 -3 -16 -18 -27 l-27 -22 27 -10 c15
-6 31 -7 37 -4 6 4 26 39 44 78 47 99 63 116 113 116 23 0 41 5 41 10 0 11 14
11 -272 10 -211 -1 -217 0 -223 20 l-7 21 -34 -20 c-32 -19 -51 -20 -443 -20
-399 0 -409 0 -414 19 -6 22 -28 19 -58 -6 -10 -9 -44 -13 -104 -13 -76 1 -91
3 -103 20 -13 19 -14 19 -52 -1 -35 -18 -59 -20 -212 -20 -156 0 -177 2 -212
21 -41 22 -66 20 -66 -6 0 -13 -33 -15 -260 -15 l-260 0 0 30 c0 38 -15 39
-28 3 l-10 -28 -7 28 c-9 36 -25 35 -25 -2 l0 -29 -85 0 c-65 -1 -85 3 -85 13
0 7 10 16 23 18 21 4 21 4 1 6 -12 0 -26 11 -32 24 -10 19 -11 13 -9 -33z
m941 -61 c85 -14 225 -7 285 15 44 16 69 13 41 -4 -54 -34 -322 -42 -399 -12
-24 9 -46 23 -48 29 -3 9 3 9 23 -2 15 -7 59 -19 98 -26z m637 -5 c4 -21 2
-50 -3 -63 -5 -14 -6 -37 -3 -53 5 -21 3 -28 -8 -28 -12 0 -14 18 -13 95 1 98
15 124 27 49z m889 11 c0 -34 12 -46 25 -25 9 15 51 12 64 -4 16 -19 10 -124
-7 -131 -9 -3 -11 5 -6 35 9 57 -1 90 -30 90 -28 0 -46 -35 -46 -90 0 -22 -4
-40 -9 -40 -9 0 -20 187 -12 196 13 12 21 0 21 -31z m-1689 -50 c-11 -25 -30
-87 -41 -138 -12 -51 -25 -105 -30 -122 -8 -30 -8 -30 -9 -3 -3 73 87 374 97
326 2 -9 -6 -38 -17 -63z m539 46 c0 -11 4 -22 9 -25 8 -5 42 -113 46 -151 2
-11 5 -24 6 -30 2 -5 0 -11 -6 -13 -5 -2 -15 23 -21 55 -7 32 -22 85 -33 117
-24 69 -24 66 -11 66 6 0 10 -9 10 -19z m664 -2 c-4 -7 0 -9 12 -5 11 3 31 -1
46 -8 23 -12 29 -12 39 0 15 19 44 18 63 -2 16 -16 21 -70 10 -111 -10 -36
-20 -27 -16 12 7 57 -5 85 -34 85 -27 0 -30 -4 -39 -72 -8 -60 -24 -64 -18 -4
4 35 1 48 -16 65 -11 11 -27 18 -35 15 -20 -8 -38 -66 -30 -98 4 -16 2 -26 -5
-26 -6 0 -11 17 -11 38 0 20 -3 54 -6 75 -5 24 -3 37 5 37 6 0 11 -7 11 -15 0
-8 5 -15 11 -15 6 0 8 9 4 20 -4 12 -2 20 5 20 6 0 8 -5 4 -11z m88 -1 c-9 -9
-15 -9 -24 0 -9 9 -7 12 12 12 19 0 21 -3 12 -12z m528 3 c0 -19 -22 -23 -38
-7 -15 15 -14 16 11 16 15 0 27 -4 27 -9z m207 -33 l-20 -43 -13 30 c-20 47
-17 55 20 55 l34 0 -21 -42z m-1305 14 c-26 -4 -56 -55 -47 -82 3 -10 15 -22
27 -25 13 -5 17 -10 10 -17 -14 -14 -50 11 -57 40 -3 14 0 34 10 48 21 32 19
37 -9 32 -15 -3 -23 -1 -20 6 3 7 24 9 57 7 28 -3 42 -7 29 -9z m165 -12 c13
-28 6 -120 -10 -120 -6 0 -7 17 -4 41 3 23 1 53 -4 66 -8 21 -14 24 -36 18
-24 -6 -25 -4 -13 10 19 22 53 15 67 -15z m563 -45 c0 -41 -4 -75 -9 -75 -9 0
-20 138 -12 146 15 15 21 -5 21 -71z m-400 56 c0 -5 -9 -7 -20 -4 -21 6 -70
-21 -70 -37 0 -6 15 -10 33 -11 l32 -1 -32 -9 c-19 -5 -33 -16 -33 -25 0 -20
40 -34 67 -23 12 4 25 4 28 0 15 -26 -76 -28 -99 -2 -29 32 -28 61 4 92 27 28
90 42 90 20z m560 0 c0 -6 -14 -11 -32 -13 -20 -2 -38 -13 -51 -30 -18 -24
-19 -31 -7 -53 22 -40 80 -28 80 17 0 10 5 18 10 18 6 0 10 -21 10 -47 -1 -39
-3 -45 -13 -33 -8 10 -25 14 -49 12 -28 -2 -40 2 -52 20 -23 33 -20 56 13 89
29 28 91 42 91 20z m325 -1 c-3 -5 -11 -7 -18 -4 -37 14 -66 -77 -33 -101 20
-15 21 -25 1 -25 -8 0 -22 12 -31 26 -16 24 -16 28 -1 60 22 45 22 47 -9 40
-17 -5 -23 -3 -19 4 3 5 31 10 61 10 33 0 53 -4 49 -10z m64 -72 c1 -5 -3 -8
-7 -8 -13 0 -43 70 -35 83 6 9 40 -51 42 -75z m40 2 c-26 -53 -44 -80 -55 -80
-15 0 -16 2 -2 18 9 9 28 45 43 80 15 34 33 62 40 62 7 0 -3 -31 -26 -80z
m-1919 49 c58 -14 260 -10 320 5 30 8 58 12 62 8 8 -9 43 -126 52 -174 l7 -37
-36 15 c-20 8 -65 18 -100 21 l-63 6 -6 -104 c-4 -57 -8 -171 -9 -252 -2 -142
-3 -148 -22 -143 -11 2 -46 8 -77 11 l-58 7 0 178 c0 97 -3 205 -7 240 l-6 63
-56 -6 c-31 -4 -75 -13 -99 -21 -51 -18 -52 -15 -23 84 33 113 38 122 64 114
12 -4 38 -11 57 -15z m-810 -5 c0 -10 -6 -14 -15 -10 -20 7 -33 -43 -14 -55
10 -6 8 -9 -8 -9 -26 0 -28 12 -12 59 12 33 49 45 49 15z m75 -26 c-9 -50 9
-49 24 2 6 22 16 40 21 40 5 0 4 -13 -2 -30 -5 -17 -7 -37 -4 -45 4 -12 -3
-15 -33 -15 -35 0 -39 2 -35 23 l5 22 -10 -22 c-6 -13 -19 -23 -31 -23 -24 0
-25 9 -5 56 12 30 18 34 45 32 30 -2 31 -3 25 -40z m165 25 c0 -9 -6 -13 -15
-9 -20 7 -33 -43 -14 -55 10 -6 7 -9 -13 -9 -26 0 -26 1 -16 36 5 20 7 38 4
41 -7 7 -30 -48 -27 -64 1 -7 -6 -13 -15 -13 -11 0 -14 5 -9 18 3 9 9 29 12
44 5 24 10 26 49 26 33 0 44 -4 44 -15z m35 0 c-4 -10 -12 -30 -17 -45 -16
-44 -25 -32 -14 17 6 27 16 45 24 45 10 0 12 -6 7 -17z m115 3 c0 -22 -21 -76
-30 -76 -4 0 -6 10 -4 23 4 21 4 21 -6 -2 -15 -33 -25 -19 -12 18 6 16 7 32 4
36 -4 4 -12 -10 -18 -32 -8 -27 -17 -39 -32 -41 -26 -4 -27 6 -8 52 13 32 17
34 60 34 30 0 46 -4 46 -12z m-76 -108 c-15 -51 -27 -72 -31 -61 -6 17 16 83
28 83 6 0 7 -10 3 -22z m46 13 c0 -6 -4 -12 -9 -16 -5 -3 -12 -19 -16 -35 -4
-17 -11 -30 -17 -30 -6 0 -7 8 -3 18 3 9 9 29 12 45 5 25 33 40 33 18z m40 -1
c0 -5 -5 -10 -11 -10 -5 0 -7 -5 -4 -10 4 -6 1 -17 -5 -25 -6 -8 -9 -19 -5
-25 3 -5 -1 -10 -9 -10 -19 0 -19 2 -4 51 10 34 38 55 38 29z m-206 -58 c3 -5
-13 -67 -34 -138 -22 -71 -40 -132 -40 -136 0 -5 9 -8 21 -8 15 0 20 -5 17
-22 -3 -22 -8 -23 -105 -26 l-103 -3 9 23 c5 14 18 24 34 26 21 3 29 11 37 40
5 20 21 72 34 114 l24 77 -21 3 c-16 2 -21 9 -19 23 2 11 9 23 15 27 16 11
125 10 131 0z m1736 -22 c0 -5 -21 -24 -47 -42 -55 -37 -58 -40 -96 -90 -32
-44 -56 -51 -30 -10 28 45 65 82 118 118 56 38 55 38 55 24z m70 -10 c22 -11
40 -25 40 -30 0 -6 6 -10 13 -10 18 0 80 -67 110 -120 37 -64 52 -163 37 -237
-18 -87 -88 -213 -118 -213 -11 0 -11 3 2 15 41 41 86 134 97 201 25 151 -50
307 -180 373 -36 19 -61 41 -46 41 3 0 24 -9 45 -20z m-583 3 c-10 -10 -107
-21 -107 -12 0 9 31 16 79 18 19 0 31 -2 28 -6z m269 -2 c-3 -4 -33 -11 -66
-15 -33 -4 -79 -14 -101 -22 -49 -17 -73 -18 -64 -3 4 6 13 8 20 5 8 -3 15 -1
17 4 4 13 106 39 156 39 24 1 41 -3 38 -8z m888 -25 c63 -28 131 -88 157 -138
21 -42 23 -48 10 -48 -5 0 -14 13 -20 29 -17 41 -86 107 -137 132 -85 40 -206
42 -314 4 -50 -18 -65 -13 -23 8 24 12 62 23 138 41 39 9 138 -6 189 -28z
m-1758 15 c-3 -5 -23 -12 -43 -16 -21 -3 -57 -18 -81 -32 -48 -27 -63 -26 -32
2 34 31 171 71 156 46z m384 -12 c10 -6 2 -8 -26 -9 -22 0 -49 7 -60 15 -18
15 -16 15 26 9 25 -3 52 -10 60 -15z m-347 -402 c-7 -24 -11 22 -16 175 -4
114 -3 215 1 225 11 28 26 -363 15 -400z m573 396 c-4 -10 -11 -51 -17 -92 -5
-41 -14 -80 -19 -85 -12 -12 -12 -10 0 79 6 39 15 80 22 93 13 26 23 30 14 5z
m279 8 c-3 -5 -12 -56 -20 -113 -19 -134 -19 -323 0 -433 14 -79 14 -107 0
-93 -3 2 -12 52 -21 109 -20 134 -15 348 12 474 7 33 22 65 30 65 3 0 3 -4 -1
-9z m-1365 -16 c0 -19 -17 -35 -37 -35 -15 0 -22 4 -17 11 4 7 -1 10 -12 7
-10 -2 -20 -11 -22 -21 -3 -14 4 -17 32 -17 40 0 42 -6 22 -55 -15 -34 -16
-35 -75 -35 -34 0 -61 2 -61 4 0 3 4 16 10 30 7 18 17 26 34 26 18 0 24 -4 20
-15 -4 -9 0 -15 10 -15 9 0 16 8 16 20 0 16 -7 20 -35 20 -40 0 -40 -1 -21 45
10 22 22 34 38 37 24 3 98 -2 98 -7z m744 -207 c-6 -208 -15 -286 -22 -200 -6
72 10 422 20 422 6 0 7 -84 2 -222z m-634 202 c0 -5 -6 -10 -13 -10 -7 0 -21
-29 -31 -65 -16 -57 -21 -65 -43 -65 -18 0 -23 4 -19 18 2 9 10 37 17 61 10
35 11 45 1 49 -7 2 -10 8 -6 13 7 12 94 12 94 -1z m1566 -23 c83 -57 144 -171
144 -268 0 -78 -44 -181 -107 -250 -16 -17 -21 -29 -14 -33 20 -13 12 -27 -9
-16 -12 7 -20 21 -20 38 0 15 -5 34 -10 42 -7 11 -9 4 -7 -22 2 -21 12 -46 22
-58 12 -13 14 -20 5 -20 -14 0 -6 -48 11 -65 7 -7 8 0 3 20 -6 26 -5 28 7 18
9 -7 26 -35 39 -63 20 -42 22 -55 12 -71 -7 -10 -12 -25 -12 -33 0 -15 -21
-26 -51 -26 -10 0 -19 -4 -19 -9 0 -5 15 -5 35 -1 24 5 33 5 28 -3 -4 -6 0 -8
9 -5 8 4 21 2 29 -3 9 -6 4 -8 -18 -5 -18 2 -30 -1 -27 -6 3 -4 -11 -6 -30 -4
l-36 4 0 -48 c0 -29 5 -51 13 -54 7 -4 8 -8 2 -11 -28 -15 -39 -25 -33 -30 3
-4 17 0 30 9 21 13 27 14 51 1 23 -12 27 -12 27 1 0 8 -5 14 -11 14 -33 0 -49
88 -19 102 24 11 42 9 34 -4 -5 -8 -2 -9 10 -5 29 12 35 -30 12 -92 -26 -71
-59 -110 -49 -57 6 29 -15 38 -48 20 l-24 -14 28 6 c17 4 27 2 27 -5 0 -6 -18
-11 -43 -11 -44 0 -44 0 -45 -37 -1 -23 2 -33 7 -25 4 7 15 10 25 6 11 -4 16
-2 14 7 -2 7 5 15 16 17 11 2 16 0 12 -7 -10 -15 27 -14 42 1 8 8 12 8 12 1 0
-16 -21 -30 -55 -39 -17 -4 -42 -13 -57 -21 -26 -13 -28 -12 -28 7 0 12 -4 18
-10 15 -5 -3 -10 -1 -10 4 0 6 5 11 11 11 6 0 3 7 -5 16 -9 8 -16 24 -16 34 0
11 -8 24 -17 29 -11 6 -13 11 -5 11 10 0 8 8 -5 31 -33 55 -40 53 -35 -12 5
-67 -5 -87 -35 -71 -17 10 -17 11 0 17 22 9 24 96 2 115 -17 14 -19 83 -4 115
8 17 9 16 4 -6 -3 -17 0 -29 9 -32 11 -4 13 5 11 40 -2 25 -7 48 -13 52 -5 3
-7 21 -5 38 3 19 10 30 16 26 6 -3 7 -1 3 6 -4 6 0 24 10 39 10 15 19 33 20
40 3 14 -12 16 -21 2 -3 -5 -1 -10 6 -10 8 0 5 -7 -6 -20 -10 -11 -21 -17 -25
-15 -4 3 -7 -1 -7 -8 1 -6 -2 -34 -6 -60 -7 -40 -12 -47 -25 -42 -13 5 -14 4
-5 -6 10 -10 9 -15 -5 -26 -15 -13 -15 -13 6 -8 13 4 22 2 22 -5 0 -6 -4 -9
-8 -6 -4 2 -14 1 -22 -5 -13 -7 -13 -9 1 -9 33 0 14 -30 -30 -47 -83 -32 -150
-21 -151 24 0 20 41 38 51 22 4 -8 7 1 6 22 -1 39 21 79 40 72 7 -3 13 0 13 6
0 6 9 20 20 31 11 11 16 20 12 20 -5 0 -17 -9 -26 -19 -13 -15 -26 -18 -50
-14 -19 3 -43 0 -55 -6 -11 -7 -21 -8 -21 -4 -1 28 -17 33 -57 19 -23 -8 -44
-12 -47 -9 -3 4 -6 2 -6 -3 0 -5 -21 -9 -47 -9 -27 0 -60 -4 -75 -9 -26 -8
-28 -6 -28 22 0 27 3 30 43 35 23 3 83 3 133 0 89 -6 189 1 210 15 8 5 6 33
-7 97 -25 120 -24 137 5 84 41 -79 66 -114 66 -98 0 9 9 23 20 30 21 14 21 14
-4 49 -33 49 -56 122 -56 180 0 78 12 97 71 114 29 9 61 16 70 16 17 0 17 -2
-1 -42 -28 -61 -25 -123 6 -187 15 -29 33 -55 41 -58 36 -14 92 82 93 158 0
93 -82 198 -170 215 -16 4 -30 10 -30 13 0 9 58 63 90 84 35 24 51 21 106 -16z
m-885 10 c-8 -10 -7 -32 4 -83 18 -80 31 -333 21 -387 -4 -23 -12 -37 -22 -37
-10 0 -13 6 -9 19 3 10 -1 24 -10 31 -12 10 -15 42 -15 180 0 210 8 290 28
290 11 0 12 -3 3 -13z m233 -64 c-11 -133 -14 -122 41 -153 28 -15 61 -31 74
-35 l24 -7 -6 120 -7 121 38 10 c64 17 122 24 122 14 0 -5 -7 -60 -16 -123
-17 -122 -15 -313 6 -419 5 -30 8 -56 5 -59 -8 -9 -103 -15 -129 -8 l-26 6 7
104 6 103 -65 37 c-36 20 -71 36 -78 36 -10 0 -11 -23 -5 -112 12 -168 12
-172 -6 -176 -10 -2 -19 5 -22 17 -3 13 -22 25 -58 36 l-54 17 9 112 c8 101 0
228 -21 353 -6 36 9 47 87 69 83 23 81 24 74 -63z m1204 43 c54 -27 118 -93
128 -130 8 -32 -8 -59 -75 -129 l-55 -58 32 -64 c18 -34 53 -93 78 -129 36
-54 40 -65 22 -55 -22 12 -22 11 -5 -8 15 -17 24 -53 13 -53 -2 0 -12 -3 -21
-7 -15 -5 -16 -3 -6 15 6 11 11 23 11 26 0 3 -31 6 -70 6 -62 0 -70 2 -70 19
0 27 -64 150 -106 201 l-37 45 6 -132 6 -133 -66 0 c-58 0 -67 -3 -85 -26 -13
-16 -26 -23 -37 -19 -12 5 -13 3 -5 -5 9 -9 18 -9 35 1 29 17 191 29 186 14
-2 -5 -37 -10 -78 -10 l-74 0 0 -60 c0 -49 -6 -70 -30 -110 -16 -27 -28 -56
-27 -63 4 -19 -17 -42 -33 -36 -9 4 -15 -11 -19 -50 -4 -31 -14 -60 -24 -68
-13 -11 -15 -11 -10 3 4 9 9 37 13 62 6 37 4 50 -10 63 -17 17 -13 65 6 72 5
2 5 12 -2 23 -7 15 -6 21 6 25 20 8 20 73 -1 102 -12 17 -14 35 -10 70 4 26 3
42 -1 35 -6 -8 -13 -8 -27 2 -17 13 -16 16 14 59 17 25 40 65 51 89 l20 42 -6
-70 c-5 -65 -4 -68 9 -45 9 14 15 40 16 58 0 20 4 31 10 27 23 -14 -1 -137
-31 -155 -5 -4 -11 -22 -13 -41 -2 -19 -1 -24 1 -11 2 13 11 26 18 29 27 10
55 111 62 222 5 94 -7 270 -23 327 -5 18 2 23 48 37 84 25 90 26 155 22 39 -3
80 -13 111 -29z m-1378 14 c-20 -13 -43 -13 -35 0 3 6 16 10 28 10 18 0 19 -2
7 -10z m277 -106 c3 -46 2 -76 -3 -71 -5 5 -11 44 -14 87 -3 44 -1 75 3 71 5
-5 11 -44 14 -87z m-289 -7 c6 -39 14 -102 18 -140 8 -84 -4 -257 -18 -257 -7
0 -8 31 -4 93 7 89 -6 278 -24 360 -6 30 -5 36 5 27 7 -5 17 -43 23 -83z
m1061 -25 c14 -111 15 -265 1 -257 -5 3 -10 36 -10 73 0 61 -10 162 -25 267
-5 36 -4 38 8 22 8 -9 20 -57 26 -105z m-800 21 c1 -13 -3 -23 -9 -23 -5 0
-10 19 -9 43 0 32 2 37 9 22 5 -11 9 -30 9 -42z m421 1 c0 -2 -21 -3 -47 -2
-30 0 -41 3 -29 7 18 7 76 3 76 -5z m-60 -41 c-29 -7 -56 -11 -59 -8 -8 8 22
26 35 21 6 -2 17 -1 24 4 6 4 21 5 33 2 15 -4 6 -9 -33 -19z m-362 -15 c20
-20 13 -28 -13 -16 -14 6 -25 15 -25 20 0 12 24 10 38 -4z m-1225 -45 c-9 -26
-18 -42 -21 -35 -5 16 17 82 28 82 5 0 2 -21 -7 -47z m67 36 c0 -6 -7 -9 -15
-5 -8 3 -15 1 -15 -3 0 -5 6 -11 12 -13 20 -7 -8 -60 -29 -56 -19 3 -15 24 5
22 6 -1 12 2 12 7 0 5 -4 9 -10 9 -11 0 -14 33 -3 43 11 11 43 8 43 -4z m80 0
c0 -4 -4 -19 -10 -34 -6 -15 -6 -24 -1 -20 5 3 12 19 16 35 4 17 11 30 16 30
6 0 7 -10 3 -22 -18 -59 -25 -69 -42 -66 -18 4 -18 6 -7 50 5 21 3 26 -9 24
-19 -3 -34 -16 -18 -16 16 0 15 -33 0 -48 -17 -17 -38 -15 -38 4 0 10 6 14 15
10 8 -3 15 -1 15 3 0 5 -4 11 -10 13 -5 2 -7 13 -4 26 5 18 13 22 40 20 19 -1
34 -5 34 -9z m73 4 c-7 -2 -13 -13 -13 -23 0 -10 -4 -21 -10 -25 -5 -3 -6 -13
-3 -22 4 -10 2 -14 -6 -12 -14 5 -14 8 -5 57 5 25 11 32 28 31 11 0 15 -3 9
-6z m2315 0 c-24 -49 -32 -63 -40 -63 -4 0 -8 -5 -8 -12 0 -14 -60 -78 -73
-78 -4 0 17 32 47 71 31 39 56 75 56 80 0 5 5 9 11 9 6 0 9 -3 7 -7z m-1021
-25 c-25 -103 -10 -206 38 -280 28 -41 30 -48 15 -48 -10 0 -45 60 -42 73 1 4
-2 7 -8 7 -15 0 -40 98 -40 155 0 57 16 115 32 115 6 0 8 -10 5 -22z m193 -37
c-12 -37 -10 -86 4 -151 4 -15 -2 -9 -14 15 -24 49 -25 103 -3 150 22 45 30
36 13 -14z m66 -28 c7 -45 -10 -128 -29 -140 -6 -4 -7 4 -2 23 10 37 11 142 1
174 -7 24 -7 24 8 6 8 -10 18 -39 22 -63z m-36 -28 c0 -30 -4 -55 -10 -55 -11
0 -14 93 -3 103 12 12 13 8 13 -48z m-1617 -34 c4 -1 7 -35 7 -76 l0 -75 -65
0 -65 0 0 78 0 77 57 -2 c32 -1 61 -2 66 -2z m-280 -82 c-11 -11 -37 6 -29 20
4 6 12 8 18 5 6 -4 9 4 8 17 -4 41 3 46 7 5 3 -21 1 -42 -4 -47z m39 44 l1
-38 4 38 c6 50 23 47 23 -4 0 -36 -2 -40 -22 -37 -19 2 -24 10 -26 41 -2 21 1
37 7 37 6 0 12 -17 13 -37z m60 -3 c2 -28 0 -40 -9 -40 -8 0 -13 14 -13 40 0
22 4 40 9 40 5 0 11 -18 13 -40z m2512 -43 c21 -34 53 -84 71 -112 44 -68 47
-75 37 -75 -16 0 -162 219 -162 244 0 19 19 -1 54 -57z m-1213 27 c19 -23 -15
-18 -35 5 -17 19 -17 19 3 14 11 -3 26 -11 32 -19z m-46 -76 c15 -150 15 -154
5 -137 -11 19 -29 136 -30 187 0 60 17 24 25 -50z m35 -4 c0 -28 -4 -43 -10
-39 -5 3 -10 26 -10 51 0 28 4 43 10 39 6 -3 10 -26 10 -51z m27 24 c-3 -8 -6
-5 -6 6 -1 11 2 17 5 13 3 -3 4 -12 1 -19z m-1418 -25 c0 -25 -1 -25 -8 -8 -5
11 -7 23 -4 28 8 14 13 7 12 -20z m27 19 c-2 -4 4 -8 14 -8 10 0 17 3 14 7 -2
4 8 7 21 7 19 0 25 -6 25 -23 0 -17 -6 -22 -25 -22 -13 0 -22 3 -19 8 3 5 0 9
-5 9 -6 0 -11 -4 -11 -10 0 -5 -8 -10 -17 -10 -15 0 -16 2 -3 10 10 6 11 10 3
10 -7 0 -13 7 -13 15 0 8 5 15 11 15 5 0 8 -4 5 -8z m1390 -73 c-9 -86 -26
-112 -20 -29 6 71 10 90 20 90 4 0 4 -27 0 -61z m1008 -69 c6 -30 5 -33 -8
-20 -7 8 -16 40 -19 70 -6 54 -6 54 7 20 7 -19 16 -51 20 -70z m-1074 -40 c0
-5 -15 -10 -32 -9 -28 0 -30 2 -13 9 28 12 45 12 45 0z m163 1 c31 -4 57 -3
57 1 0 4 17 8 37 8 27 0 34 -3 26 -11 -20 -20 -239 -16 -227 3 6 9 27 9 107
-1z m1211 -2 c-3 -5 -14 -9 -25 -9 -10 0 -19 4 -19 9 0 5 11 9 25 9 13 0 22
-4 19 -9z m-640 -44 c3 -9 -1 -18 -10 -22 -19 -7 -28 2 -21 22 8 19 23 19 31
0z m266 1 c0 -11 -19 -15 -25 -6 -3 5 1 10 9 10 9 0 16 -2 16 -4z m-830 -16
c0 -5 -10 -10 -22 -9 -22 0 -22 1 -3 9 11 5 21 9 23 9 1 1 2 -3 2 -9z m1180
-35 c0 -10 -40 9 -44 21 -4 11 0 11 19 -2 14 -9 25 -18 25 -19z m-1225 4 c0
-8 5 -18 10 -22 7 -6 6 -10 -2 -13 -7 -3 -9 -13 -6 -22 6 -14 4 -15 -8 -6 -25
20 -77 26 -113 13 -19 -7 -33 -16 -31 -19 3 -4 -7 -5 -20 -2 -18 3 -25 11 -25
27 0 26 51 45 118 45 22 0 44 5 47 11 9 14 30 6 30 -12z m1302 14 c-4 -3 -2
-12 4 -19 17 -21 -27 -45 -57 -32 -18 8 -21 14 -12 20 7 4 9 8 3 9 -5 0 6 7
25 14 42 16 45 17 37 8z m-1758 -60 c25 -4 46 -14 49 -22 4 -11 -5 -13 -44 -7
-27 4 -79 10 -116 13 -38 3 -68 10 -68 14 0 15 63 25 100 17 19 -4 55 -11 79
-15z m1776 -23 c16 -18 16 -20 2 -20 -9 0 -21 9 -27 20 -6 11 -7 20 -2 20 5 0
17 -9 27 -20z m-1385 -10 c11 -7 6 -10 -20 -10 -26 0 -31 3 -20 10 8 5 17 10
20 10 3 0 12 -5 20 -10z m676 -43 c-2 -7 -5 -4 -5 6 -1 9 -6 17 -12 17 -5 0
-7 5 -3 11 9 15 28 -16 20 -34z m-340 -32 c-1 -8 -6 -18 -11 -22 -4 -4 -5 -2
-1 5 4 7 -18 -5 -49 -27 -54 -38 -95 -45 -95 -16 0 7 -9 15 -20 18 -11 3 -20
13 -20 22 0 12 5 15 16 11 41 -16 63 -15 114 3 70 24 69 24 66 6z m667 -6
c-23 -11 -63 -21 -90 -24 -54 -6 -48 0 11 10 30 5 36 9 25 16 -10 7 -6 8 13 3
15 -3 35 -1 45 5 10 6 23 10 28 10 6 0 -9 -9 -32 -20z m-953 -27 c11 -5 16
-21 15 -51 0 -29 5 -46 14 -49 8 -3 11 0 7 7 -4 6 -2 11 3 11 15 0 14 -13 -4
-36 -13 -17 -14 -17 -15 -1 0 9 -4 17 -9 17 -5 0 -18 16 -30 36 -12 19 -25 33
-30 30 -10 -6 -22 30 -13 38 7 8 43 6 62 -2z m284 -14 c-11 -12 -13 -18 -6
-14 6 4 12 3 12 -2 0 -14 -26 -33 -33 -25 -4 3 -7 1 -7 -6 0 -7 -4 -10 -9 -7
-5 4 -11 1 -13 -5 -5 -14 -48 -3 -48 12 0 5 11 9 25 9 14 0 24 3 24 8 -3 19 2
33 10 28 5 -3 11 0 14 7 2 7 15 13 27 14 22 2 22 2 4 -19z m16 -42 l-22 -21
18 35 c10 21 19 30 22 21 2 -7 -6 -23 -18 -35z m74 -49 c3 -26 8 -52 12 -59 6
-9 3 -9 -9 1 -12 9 -17 29 -17 64 0 61 8 58 14 -6z m-54 34 c0 -14 -51 -52
-64 -48 -17 6 -18 27 -1 27 9 0 13 4 10 10 -3 5 0 7 8 4 8 -3 18 -1 22 5 8 13
25 14 25 2z m424 -38 c20 -12 20 -13 -6 -13 -26 0 -58 22 -58 41 0 5 10 4 21
-3 12 -7 31 -19 43 -25z m-666 15 c-2 -6 -10 -14 -16 -16 -7 -2 -10 2 -6 12 7
18 28 22 22 4z m811 8 c-9 -8 -89 -44 -89 -40 0 8 65 44 79 44 8 0 12 -2 10
-4z m56 -17 c-5 -8 19 -19 38 -18 7 0 3 4 -8 9 -25 11 1 11 35 0 24 -8 24 -8
3 -9 -13 -1 -23 -3 -23 -6 0 -9 52 -55 63 -55 8 0 7 -3 -2 -9 -10 -6 -1 -9 26
-8 44 2 48 10 21 41 -25 28 -22 43 3 20 32 -28 71 -115 58 -130 -7 -8 -6 -14
3 -17 7 -3 0 -4 -17 -3 -16 2 -24 1 -17 -1 7 -3 9 -9 5 -15 -4 -8 0 -9 11 -5
13 5 17 3 13 -7 -3 -8 -1 -17 6 -20 7 -3 1 -3 -13 0 -14 3 -37 0 -50 -6 -22
-9 -21 -9 10 -4 27 4 31 3 20 -6 -12 -8 -8 -9 15 -4 20 4 26 3 17 -4 -8 -5
-13 -13 -12 -18 1 -4 -6 -11 -16 -14 -15 -6 -14 -8 7 -14 l24 -7 -22 -10 c-65
-27 -70 -30 -38 -24 24 4 26 3 13 -5 -23 -14 -117 8 -96 22 9 7 5 8 -14 4 -14
-3 -37 -2 -50 3 l-23 8 24 8 c32 10 12 22 -52 30 -27 4 -65 18 -85 31 -31 21
-73 30 -124 26 -59 -5 38 132 137 193 39 24 121 42 110 24z m-548 -36 c-3 -10
-5 -4 -5 12 0 17 2 24 5 18 2 -7 2 -21 0 -30z m301 9 c9 -6 5 -12 -13 -20 -47
-22 -72 -12 -37 14 20 16 32 17 50 6z m578 -52 c30 0 34 -3 40 -34 3 -19 4
-41 1 -48 -3 -7 -6 1 -7 17 -1 17 -4 24 -7 18 -7 -20 -19 -15 -20 7 -1 13 2
18 9 14 6 -4 8 -3 5 2 -3 6 -22 11 -42 12 -49 4 -82 17 -94 40 -9 17 -6 17 36
-5 26 -12 61 -23 79 -23z m41 34 c-3 -3 -12 -4 -19 -1 -8 3 -5 6 6 6 11 1 17
-2 13 -5z m-1039 -19 c3 -2 -3 -8 -13 -11 -10 -4 -20 -1 -25 6 -4 7 -13 9 -19
6 -6 -4 -9 -12 -6 -17 4 -5 1 -9 -4 -9 -6 0 -11 2 -11 4 0 2 -3 11 -6 20 -5
12 2 14 37 11 23 -3 44 -7 47 -10z m412 -44 c0 -10 -22 -31 -32 -31 -9 0 -11
34 -2 43 7 7 34 -2 34 -12z m612 -85 c7 4 8 2 4 -5 -9 -13 -26 -5 -25 12 0 9
2 8 6 -1 2 -6 10 -9 15 -6z m-397 -96 c-3 -5 -13 -10 -21 -10 -8 0 -14 5 -14
10 0 6 9 10 21 10 11 0 17 -4 14 -10z m45 -4 c0 -2 -9 -6 -20 -9 -11 -3 -18
-1 -14 4 5 9 34 13 34 5z m40 -106 c18 -12 2 -12 -25 0 -13 6 -15 9 -5 9 8 0
22 -4 30 -9z m-1 -21 c29 -10 43 -29 21 -29 -5 0 -10 5 -10 10 0 6 -6 10 -12
9 -29 -3 -49 2 -43 11 8 12 5 12 44 -1z m61 1 c18 -12 2 -12 -25 0 -13 6 -15
9 -5 9 8 0 22 -4 30 -9z m-71 -39 c27 -14 30 -19 17 -24 -11 -5 -15 -3 -10 5
5 8 2 9 -10 5 -11 -4 -15 -3 -10 4 4 7 -1 9 -17 5 -13 -3 -18 -3 -10 0 11 5
11 8 0 15 -26 16 6 8 40 -10z m71 9 c0 -5 -4 -10 -10 -10 -5 0 -10 5 -10 10 0
6 5 10 10 10 6 0 10 -4 10 -10z"/>
<path d="M126 3984 c-4 -14 -5 -29 -2 -31 3 -3 8 7 12 21 3 15 4 29 1 32 -2 3
-8 -7 -11 -22z"/>
<path d="M406 3984 c-4 -14 -5 -28 -3 -31 3 -2 8 8 11 23 4 14 5 28 3 31 -3 2
-8 -8 -11 -23z"/>
<path d="M1960 3380 c0 -5 5 -10 11 -10 5 0 7 5 4 10 -3 6 -8 10 -11 10 -2 0
-4 -4 -4 -10z"/>
<path d="M1991 3278 c-6 -19 -24 -41 -41 -51 -22 -14 -30 -25 -29 -45 1 -20 3
-22 6 -8 3 10 18 29 33 42 27 24 57 80 47 90 -3 3 -10 -10 -16 -28z"/>
<path d="M1882 3153 c-1 -17 -5 -40 -8 -50 -4 -13 -3 -15 4 -4 7 10 13 8 26
-10 9 -13 16 -18 16 -12 0 6 -6 16 -14 23 -8 6 -17 28 -19 48 -3 35 -4 35 -5
5z"/>
<path d="M1967 2960 c3 -11 10 -17 15 -14 5 3 9 0 7 -7 -3 -24 1 -39 10 -39 9
0 5 55 -4 71 -12 18 -33 9 -28 -11z"/>
<path d="M2020 2956 c0 -2 7 -7 16 -10 8 -3 12 -2 9 4 -6 10 -25 14 -25 6z"/>
<path d="M2091 2934 c0 -11 3 -14 6 -6 3 7 2 16 -1 19 -3 4 -6 -2 -5 -13z"/>
<path d="M1787 2929 c7 -7 15 -10 18 -7 3 3 -2 9 -12 12 -14 6 -15 5 -6 -5z"/>
<path d="M1952 2895 c0 -16 2 -22 5 -12 2 9 2 23 0 30 -3 6 -5 -1 -5 -18z"/>
<path d="M2050 2912 c0 -5 7 -13 16 -16 10 -4 14 -1 12 6 -5 15 -28 23 -28 10z"/>
<path d="M2041 2786 c2 -2 15 -9 29 -15 24 -11 24 -11 6 3 -16 13 -49 24 -35
12z"/>
<path d="M2544 3632 c-7 -4 -15 -40 -19 -79 -6 -66 -5 -73 11 -73 23 0 88 70
102 108 10 29 9 31 -20 41 -36 13 -58 14 -74 3z m56 -28 c0 -8 -19 -13 -24 -6
-3 5 1 9 9 9 8 0 15 -2 15 -3z"/>
<path d="M2279 3223 c-13 -16 -12 -17 4 -4 16 13 21 21 13 21 -2 0 -10 -8 -17
-17z"/>
<path d="M2351 3164 c-7 -8 -11 -17 -9 -20 3 -2 13 5 23 16 10 11 14 20 9 20
-5 -1 -15 -8 -23 -16z"/>
<path d="M358 3403 c12 -2 32 -2 45 0 12 2 2 4 -23 4 -25 0 -35 -2 -22 -4z"/>
<path d="M378 3383 c6 -2 18 -2 25 0 6 3 1 5 -13 5 -14 0 -19 -2 -12 -5z"/>
<path d="M368 3362 c-19 -4 -23 -19 -9 -41 6 -9 10 -10 16 -2 5 9 10 9 20 1 9
-8 14 -6 19 6 9 23 7 34 -5 34 -5 0 -7 -6 -4 -12 4 -7 1 -6 -7 2 -7 9 -21 14
-30 12z"/>
<path d="M2895 3040 c-4 -6 3 -10 14 -10 25 0 27 6 6 13 -8 4 -17 2 -20 -3z"/>
<path d="M2682 2652 c-23 -2 -32 -8 -28 -17 2 -7 2 -16 -2 -20 -7 -7 -8 -12
-11 -39 0 -8 -9 -17 -19 -20 -10 -3 -26 -20 -36 -37 -11 -18 -14 -29 -8 -25 6
3 13 0 16 -6 5 -10 7 -10 12 -1 3 7 11 10 18 7 8 -3 16 2 19 10 4 9 17 16 29
16 16 0 19 3 10 8 -9 7 -7 15 12 35 13 14 21 28 18 31 -3 4 8 3 25 0 18 -3 33
-1 37 5 4 6 2 11 -3 11 -6 0 -11 7 -11 16 0 10 -5 14 -16 10 -8 -3 -13 -2 -10
3 8 12 -12 17 -52 13z"/>
<path d="M2708 2473 c7 -3 16 -2 19 1 4 3 -2 6 -13 5 -11 0 -14 -3 -6 -6z"/>
<path d="M2605 2450 c-13 -6 -15 -9 -5 -9 8 0 22 4 30 9 18 12 2 12 -25 0z"/>
<path d="M2728 2443 c7 -3 16 -2 19 1 4 3 -2 6 -13 5 -11 0 -14 -3 -6 -6z"/>
<path d="M2675 2430 c-13 -6 -15 -9 -5 -9 8 0 22 4 30 9 18 12 2 12 -25 0z"/>
<path d="M100 4140 c-13 -8 -13 -10 2 -10 9 0 20 5 23 10 8 13 -5 13 -25 0z"/>
<path d="M550 4001 c0 -5 7 -11 15 -15 8 -3 15 -1 15 3 0 5 -7 11 -15 15 -8 3
-15 1 -15 -3z"/>
<path d="M2785 3410 c-3 -6 1 -7 9 -4 18 7 21 14 7 14 -6 0 -13 -4 -16 -10z"/>
<path d="M738 3313 c17 -2 47 -2 65 0 17 2 3 4 -33 4 -36 0 -50 -2 -32 -4z"/>
<path d="M880 3304 c0 -7 9 -22 19 -35 16 -20 22 -22 33 -11 11 11 10 12 -4 7
-12 -5 -21 2 -32 22 -8 15 -15 23 -16 17z"/>
<path d="M973 3293 c-10 -10 -14 -15 -9 -11 4 3 14 4 21 2 7 -3 15 2 18 10 8
21 -6 20 -30 -1z"/>
<path d="M8 3273 c7 -3 16 -2 19 1 4 3 -2 6 -13 5 -11 0 -14 -3 -6 -6z"/>
<path d="M840 3220 c-31 -6 -32 -8 -8 -9 l27 -1 0 -202 0 -202 31 -16 c17 -9
28 -19 25 -23 -3 -4 -2 -5 1 -2 4 2 24 -5 46 -16 22 -11 42 -18 45 -16 2 3
-17 15 -44 28 -39 20 -49 30 -52 54 -3 26 -4 27 -11 10 -15 -39 -32 61 -24
142 7 78 19 100 80 139 27 19 31 34 8 34 -8 0 -12 -4 -9 -10 3 -5 1 -10 -4
-10 -6 0 -11 4 -11 9 0 5 -13 14 -30 19 -29 11 -49 50 -35 71 3 6 5 10 3 10
-2 -1 -19 -5 -38 -9z m75 -93 c21 -16 12 -37 -16 -37 -14 0 -19 7 -19 25 0 28
8 31 35 12z"/>
<path d="M38 3173 c7 -3 16 -2 19 1 4 3 -2 6 -13 5 -11 0 -14 -3 -6 -6z"/>
<path d="M789 3167 c6 -8 7 -18 3 -22 -4 -5 -1 -5 6 -1 10 6 10 11 1 22 -6 8
-14 14 -16 14 -3 0 0 -6 6 -13z"/>
<path d="M118 3153 c7 -3 16 -2 19 1 4 3 -2 6 -13 5 -11 0 -14 -3 -6 -6z"/>
<path d="M2678 3123 c12 -2 30 -2 40 0 9 3 -1 5 -23 4 -22 0 -30 -2 -17 -4z"/>
<path d="M964 3058 c-5 -8 -2 -9 11 -4 16 6 16 4 4 -11 -12 -15 -12 -16 4 -10
10 4 21 7 23 7 2 0 4 7 4 15 0 18 -36 20 -46 3z"/>
<path d="M2620 3066 c0 -2 7 -7 16 -10 8 -3 12 -2 9 4 -6 10 -25 14 -25 6z"/>
<path d="M2651 2985 c-63 -44 -90 -66 -61 -50 36 21 141 95 134 95 -5 0 -38
-20 -73 -45z"/>
<path d="M2735 2940 c3 -5 11 -10 16 -10 6 0 7 5 4 10 -3 6 -11 10 -16 10 -6
0 -7 -4 -4 -10z"/>
<path d="M2790 2929 c14 -7 32 -11 40 -10 8 2 12 0 8 -4 -4 -4 4 -16 17 -27
15 -11 30 -38 36 -64 13 -50 39 -74 83 -74 28 0 28 1 11 14 -10 7 -28 11 -39
9 -14 -3 -17 -2 -9 4 9 6 6 14 -12 27 -35 26 -32 44 5 38 25 -3 29 -8 25 -23
-5 -13 -1 -19 10 -19 11 0 14 6 9 25 -5 19 -2 25 10 25 9 0 16 5 16 11 0 7 -9
9 -27 3 -46 -12 -74 -7 -99 18 l-24 23 48 -2 47 -3 -60 14 c-33 8 -73 17 -90
20 -29 6 -29 6 -5 -5z"/>
<path d="M2418 2908 c7 -7 16 -7 28 0 14 8 13 10 -10 10 -18 0 -24 -4 -18 -10z"/>
<path d="M2770 2900 c-9 -6 -10 -10 -3 -10 6 0 15 5 18 10 8 12 4 12 -15 0z"/>
<path d="M2862 2790 c0 -14 2 -19 5 -12 2 6 2 18 0 25 -3 6 -5 1 -5 -13z"/>
<path d="M2986 2794 c-4 -9 -4 -19 -1 -22 2 -3 7 3 11 12 4 9 4 19 1 22 -2 3
-7 -3 -11 -12z"/>
<path d="M2220 2650 c-8 -5 -10 -10 -5 -10 6 0 17 5 25 10 8 5 11 10 5 10 -5
0 -17 -5 -25 -10z"/>
<path d="M1620 2592 c0 -7 -7 -9 -17 -5 -15 6 -16 4 -6 -8 8 -9 9 -28 3 -59
-5 -25 -6 -47 -4 -49 2 -2 -3 -12 -11 -21 -13 -14 -13 -19 1 -38 21 -30 33
-28 108 19 38 23 85 44 113 49 l48 8 -40 1 c-23 0 -58 -8 -80 -19 -21 -11 -41
-18 -43 -15 -3 3 -7 30 -10 60 -2 30 -10 59 -17 65 -9 8 -15 -11 -25 -81 -8
-56 -16 -85 -21 -77 -12 18 -11 86 2 131 6 22 8 41 5 45 -3 3 -6 0 -6 -6z"/>
<path d="M872 2560 c0 -14 2 -19 5 -12 2 6 2 18 0 25 -3 6 -5 1 -5 -13z"/>
<path d="M1294 2566 c-3 -8 -13 -12 -25 -9 -16 5 -19 0 -19 -30 0 -35 29 -106
31 -77 1 8 6 -7 11 -35 22 -125 22 -122 -10 -155 -41 -40 -57 -39 -58 6 0 20
-6 39 -13 44 -10 6 -10 12 -2 28 6 11 11 24 11 29 -1 4 -7 -3 -15 -17 -7 -14
-15 -23 -17 -21 -2 2 -13 -1 -25 -8 -18 -9 -23 -9 -23 1 0 10 -2 10 -9 -1 -5
-7 -14 -10 -20 -7 -6 4 -11 2 -11 -4 0 -6 -4 -8 -10 -5 -5 3 -10 -1 -10 -9 0
-9 -5 -16 -11 -16 -6 0 -9 7 -5 15 3 8 1 15 -3 15 -5 0 -12 -6 -14 -12 -3 -8
-6 -6 -6 5 -1 9 6 17 14 17 8 0 15 4 15 9 0 5 20 12 44 15 24 4 52 16 61 26
10 11 22 17 26 14 5 -3 6 1 4 9 -8 19 -75 17 -75 -3 0 -13 -1 -13 -10 0 -9 13
-12 12 -25 -4 -11 -14 -15 -16 -15 -5 -1 10 -5 9 -15 -5 -15 -20 -15 -20 -15
0 -1 18 -1 18 -14 1 -9 -12 -16 -14 -21 -8 -3 6 -3 11 1 11 16 0 -32 29 -48
30 -9 0 -19 6 -21 13 -4 9 -8 9 -15 -2 -8 -11 -12 -6 -17 23 -9 47 -4 51 29
25 23 -18 39 -21 102 -20 83 2 111 10 136 37 16 18 15 19 -22 19 -21 0 -42 -3
-46 -7 -4 -5 -16 -8 -26 -8 -10 0 -18 -4 -18 -10 0 -5 -5 -10 -11 -10 -5 0 -8
4 -4 9 3 5 1 12 -5 16 -5 3 -10 -2 -11 -12 0 -17 -1 -17 -8 0 -6 17 -8 17 -25
-2 -18 -20 -42 -19 -44 2 -1 7 -5 28 -9 47 -7 28 -10 31 -16 17 -4 -10 -11
-15 -17 -12 -5 3 -7 0 -4 -8 3 -8 -2 -17 -10 -20 -11 -4 -16 -1 -16 10 0 9 -3
14 -6 10 -4 -3 -3 -14 1 -24 4 -10 9 -34 11 -53 2 -19 9 -45 15 -57 10 -19 8
-28 -14 -60 -15 -21 -32 -54 -38 -73 -14 -38 -89 -124 -89 -101 0 8 10 26 22
40 17 19 14 18 -12 -5 -19 -17 -46 -38 -60 -48 -14 -9 -25 -20 -25 -24 0 -4
-8 -18 -17 -32 -8 -14 -26 -64 -38 -113 -22 -81 -22 -88 -6 -105 11 -13 14
-28 10 -49 -5 -24 0 -35 26 -61 36 -36 50 -40 51 -14 1 33 47 327 48 307 0
-11 -8 -91 -19 -179 -12 -87 -19 -161 -16 -163 2 -3 11 24 20 59 l15 63 -6
-59 -6 -59 46 32 c25 17 50 31 55 31 6 0 32 -17 59 -38 89 -71 100 -76 118
-58 13 12 21 14 37 5 11 -6 44 -9 73 -7 43 2 51 0 42 -10 -20 -25 -84 -50
-101 -40 -9 5 -16 7 -16 4 0 -2 45 -32 100 -65 55 -34 104 -70 110 -81 16 -29
12 -61 -10 -80 -19 -17 -19 -17 4 -108 13 -50 29 -98 35 -106 7 -8 10 -19 7
-25 -3 -5 -3 -17 1 -28 6 -16 8 -15 14 7 4 14 6 -6 5 -47 0 -46 4 -77 12 -85
6 -6 12 -26 13 -43 0 -30 0 -30 10 -5 6 14 8 35 6 47 -3 14 2 24 12 26 13 4
13 5 -2 6 -10 0 -16 5 -12 11 8 14 35 1 37 -19 0 -9 4 4 8 29 l7 45 1 -57 c1
-32 5 -58 8 -58 3 0 17 9 31 20 16 12 41 20 65 20 33 0 39 3 34 16 -3 9 -6 23
-6 33 0 13 -8 16 -40 13 -57 -6 -49 10 16 31 56 18 77 16 69 -6 -3 -7 -1 -25
4 -42 9 -28 9 -27 10 16 1 40 4 48 24 53 13 3 36 2 52 -3 26 -7 30 -12 28 -41
-1 -19 -8 -37 -17 -42 -9 -5 -14 -13 -11 -19 4 -5 -5 -9 -20 -9 -30 0 -43 24
-25 45 7 9 8 15 2 15 -5 0 -8 10 -5 22 4 19 3 20 -6 8 -14 -19 -12 -108 4
-140 18 -35 35 -93 35 -116 0 -16 2 -17 10 -4 18 28 11 85 -15 120 -14 19 -25
35 -25 37 0 2 18 3 40 3 22 0 40 -4 40 -10 0 -5 -8 -7 -17 -3 -15 5 -14 3 2
-10 20 -15 20 -14 26 61 4 61 5 49 6 -57 0 -121 -2 -136 -20 -154 -15 -15 -16
-19 -5 -14 24 9 30 -4 14 -28 -12 -19 -12 -21 5 -22 11 -1 17 2 14 8 -4 5 -1
9 5 9 6 0 8 5 5 10 -3 6 1 13 9 16 16 6 12 24 -5 24 -6 0 -7 -4 -4 -10 3 -5 1
-10 -4 -10 -6 0 -11 7 -11 16 0 11 7 14 30 10 22 -3 33 1 40 14 13 25 13 30
-5 30 -8 0 -15 5 -15 10 0 6 7 10 17 10 9 0 13 3 9 8 -4 4 -20 7 -34 7 l-27 0
-1 100 c-1 87 0 92 6 40 4 -33 11 -71 15 -85 5 -19 4 -22 -4 -10 -9 13 -11 12
-11 -6 0 -12 6 -21 15 -21 8 0 15 6 15 14 0 14 12 17 24 6 4 -5 12 -9 17 -9
30 -4 31 -7 9 -14 -20 -7 -17 -8 20 -8 25 0 37 2 28 5 -10 2 -18 11 -18 19 0
8 -3 13 -7 13 -23 -4 -28 5 -25 41 2 22 9 40 14 40 6 0 8 -7 4 -15 -3 -8 -1
-15 5 -15 5 0 27 -28 49 -63 32 -50 40 -71 40 -111 0 -27 3 -47 6 -43 10 9 32
-16 27 -31 -4 -9 -9 -8 -20 5 -8 10 -12 13 -9 6 14 -27 -16 -21 -50 10 -31 28
-35 37 -28 58 l8 24 7 -30 c6 -26 7 -23 9 20 l3 50 7 -45 c4 -25 6 -48 4 -52
-3 -4 0 -9 4 -12 5 -3 8 5 7 17 -1 12 -3 39 -4 60 -1 32 -4 37 -26 37 -14 0
-25 -4 -25 -9 0 -5 -9 -11 -20 -14 -18 -5 -22 -14 -24 -64 -1 -10 15 -25 38
-37 22 -12 42 -27 44 -35 3 -9 0 -11 -9 -7 -8 4 -5 1 5 -8 10 -8 23 -13 29 -9
6 3 7 1 3 -5 -4 -7 0 -12 11 -13 14 0 15 -2 3 -6 -8 -3 -21 -12 -27 -21 -7 -9
-13 -11 -13 -6 0 5 -18 8 -40 6 -45 -5 -48 2 -20 38 20 25 20 25 26 3 6 -22
40 -38 50 -22 3 5 0 9 -7 9 -6 0 -19 9 -28 19 -13 15 -24 18 -51 12 -29 -6
-34 -11 -32 -30 3 -22 1 -23 -37 -19 -22 2 -37 0 -33 -4 4 -4 44 -10 90 -14
49 -4 86 -12 93 -20 6 -8 16 -11 21 -8 5 3 18 -2 29 -12 19 -17 20 -17 13 1
-5 13 -4 16 4 11 7 -4 12 -2 12 5 0 6 -8 9 -20 6 -27 -7 -47 18 -24 31 15 8
16 13 6 25 -14 16 -7 24 18 22 8 0 18 4 22 10 5 6 8 6 8 -2 0 -7 7 -13 16 -13
13 0 14 -3 5 -13 -8 -10 -7 -17 1 -25 15 -15 28 -15 28 -1 0 5 -5 7 -11 3 -7
-4 -10 -1 -7 6 8 26 28 22 28 -5 0 -16 4 -24 11 -19 6 3 9 17 6 30 -5 30 3 30
25 0 16 -22 16 -24 -5 -35 -12 -6 -37 -12 -56 -14 -22 -1 -38 -10 -45 -22 -6
-11 -17 -24 -24 -28 -19 -12 2 -35 50 -54 44 -17 131 -109 124 -130 -3 -7 -1
-13 5 -13 17 0 36 -24 53 -65 19 -44 19 -45 6 -45 -6 0 -9 4 -8 8 2 5 -11 23
-29 40 -29 29 -35 31 -77 26 -26 -4 -46 -12 -46 -19 0 -6 -8 -22 -19 -33 -15
-18 -29 -22 -75 -22 -31 0 -56 -4 -56 -9 0 -12 103 -21 233 -21 96 0 108 -2
97 -15 -7 -8 -17 -12 -22 -9 -12 8 -189 7 -197 -1 -3 -3 1 -10 8 -14 7 -5 11
-13 8 -18 -3 -5 -1 -15 5 -23 8 -13 9 -13 5 1 -3 9 -1 22 4 30 6 11 9 8 9 -9
0 -19 4 -22 19 -17 19 6 61 -13 61 -27 0 -4 -13 -6 -29 -6 -15 1 -34 -3 -41
-7 -9 -5 -11 -4 -6 3 4 7 1 12 -7 12 -7 0 -14 -7 -14 -16 0 -13 7 -15 34 -11
18 3 33 2 33 -4 0 -5 5 -9 11 -9 5 0 7 5 3 12 -5 7 -3 8 5 3 8 -4 11 -20 9
-36 -3 -16 -1 -29 4 -29 7 0 11 38 10 118 0 27 3 32 22 32 34 0 37 -9 14 -41
-20 -26 -20 -32 -8 -69 8 -23 24 -50 38 -60 32 -26 126 -60 163 -60 17 0 32
-6 35 -15 5 -11 24 -15 81 -15 79 0 150 23 186 61 24 25 12 24 -25 -2 -39 -28
-137 -54 -151 -40 -6 6 -9 12 -6 13 2 2 26 14 54 28 27 14 76 50 109 80 32 30
61 50 63 44 2 -6 10 -20 18 -30 13 -19 14 -18 13 1 0 11 5 33 11 49 l12 30 21
-21 21 -21 -21 -45 c-11 -24 -46 -67 -77 -95 -49 -45 -54 -52 -33 -52 32 0 94
53 118 101 11 21 25 39 30 39 13 0 1 -57 -22 -103 l-19 -39 23 4 c16 2 30 17
45 47 17 32 24 40 29 28 3 -9 3 -21 -1 -27 -3 -5 1 -20 10 -32 l17 -23 -6 28
c-6 26 -5 27 34 27 48 0 55 19 8 21 l-33 2 35 7 c35 7 34 7 -11 9 -38 1 -50 6
-63 26 -9 14 -14 25 -10 25 4 0 1 7 -6 15 -11 13 -6 15 39 15 28 0 51 -4 51
-10 0 -5 7 -10 15 -10 11 0 15 11 15 36 l0 36 -80 -5 -81 -5 -29 36 c-16 19
-27 39 -24 44 5 8 62 5 172 -8 l42 -5 0 47 c0 44 -1 46 -15 28 -8 -10 -15 -27
-15 -36 0 -10 -7 -18 -16 -18 -8 0 -12 4 -9 10 3 5 -12 12 -35 16 -32 5 -40
11 -40 28 0 17 -2 18 -10 6 -12 -19 -13 -43 -1 -35 5 3 12 1 16 -5 3 -5 18
-10 33 -11 15 0 21 -3 14 -6 -7 -3 -32 -2 -56 1 -38 6 -43 10 -52 44 -5 20 -7
52 -3 70 3 17 3 32 -2 32 -15 0 3 153 23 202 11 25 29 55 41 66 l22 21 0 -72
c0 -57 -4 -75 -17 -85 -23 -17 -23 -27 2 -52 11 -11 16 -20 11 -20 -5 0 -20
12 -32 27 -16 20 -20 22 -14 8 4 -11 9 -36 12 -55 2 -19 6 -41 8 -47 2 -7 1
-12 -3 -12 -27 4 -40 -20 -19 -36 4 -3 5 -2 2 1 -4 7 109 64 126 64 6 0 8 -17
5 -37 -3 -21 -3 -30 0 -20 3 9 10 17 15 17 5 0 9 43 9 95 0 97 -10 118 -32 70
-23 -51 -37 -24 -17 34 12 33 4 102 -11 98 -5 -1 -15 6 -22 16 -11 15 -18 16
-46 6 -17 -6 -30 -14 -27 -19 3 -4 -2 -13 -10 -20 -8 -7 -13 -16 -10 -20 3 -5
1 -11 -5 -15 -14 -9 -12 10 5 52 24 56 43 72 82 71 28 -1 37 -7 45 -27 6 -14
14 -34 19 -43 5 -10 9 -31 9 -47 0 -17 5 -33 10 -36 6 -4 10 10 10 34 0 23 -4
41 -8 41 -5 0 -16 18 -25 40 l-15 40 24 -6 c21 -5 24 -3 24 21 0 15 -4 24 -10
20 -5 -3 -10 -1 -10 4 0 6 5 11 10 11 6 0 10 50 9 133 -1 72 -3 124 -6 115 -2
-10 -11 -18 -19 -18 -10 0 -14 -14 -14 -52 0 -60 16 -55 23 7 3 29 4 24 4 -18
0 -40 -5 -61 -16 -70 -14 -10 -14 -10 -3 4 11 14 9 18 -13 23 -21 5 -25 12
-25 45 0 41 -12 52 -53 50 -21 0 -21 -1 -2 -9 l20 -9 -20 0 c-14 -1 -16 -4 -7
-10 10 -6 10 -11 -3 -21 -15 -12 -16 -10 -13 20 3 29 8 35 37 43 32 8 115 66
107 74 -2 3 -38 -12 -79 -31 -41 -20 -78 -36 -84 -36 -5 0 -40 -9 -76 -21 -55
-17 -73 -29 -105 -67 -21 -26 -42 -56 -46 -67 -7 -16 -16 2 -42 80 -19 55 -36
108 -37 117 -2 10 -6 21 -10 24 -13 14 -7 24 16 25 18 1 16 3 -8 9 -22 6 -24
8 -9 9 18 1 20 6 17 41 -4 40 -4 40 29 39 23 -1 27 -3 11 -6 -13 -2 -23 -9
-23 -14 0 -5 10 -9 23 -10 21 -1 21 -1 -3 -9 -24 -8 -24 -8 -2 -9 20 -1 22 -6
24 -68 0 -38 1 -74 1 -81 -1 -10 2 -10 13 -1 8 6 11 16 7 22 -3 5 -1 7 4 4 6
-4 16 0 23 8 10 12 9 16 -6 22 -17 6 -16 8 6 14 21 6 21 7 5 8 -19 1 -21 7
-20 96 l0 95 30 -1 c29 -1 30 -1 5 -9 l-25 -8 25 -2 25 -2 -25 -8 c-24 -8 -24
-8 -3 -9 16 -1 21 -6 17 -16 -5 -12 -10 -13 -20 -4 -11 9 -14 6 -14 -15 0 -20
5 -26 23 -27 21 -1 21 -1 -3 -8 l-25 -8 25 -5 c23 -5 23 -5 3 -7 -28 -1 -31
-31 -3 -31 15 0 20 -7 20 -26 0 -19 4 -25 14 -21 8 3 31 9 50 13 20 3 36 10
36 15 0 5 13 6 29 3 16 -4 32 -1 35 5 4 6 19 11 34 12 l27 1 -25 8 -25 7 30 5
30 5 -30 2 c-26 2 -27 3 -10 11 l20 9 -20 0 c-17 1 -17 3 -5 11 13 8 12 10 -3
10 -10 0 -15 5 -12 10 3 6 2 10 -4 10 -5 0 -12 -24 -14 -52 l-3 -53 -2 51 c-2
50 -3 51 -29 48 -26 -3 -27 -3 -4 4 39 12 35 27 -16 71 -53 46 -68 51 -60 21
4 -15 0 -20 -14 -20 -16 0 -19 7 -19 40 0 22 -5 40 -11 40 -5 0 -7 -4 -4 -10
4 -6 -8 -10 -29 -10 -30 0 -36 4 -36 22 0 27 -5 21 -14 -15 -4 -19 -3 -26 4
-22 6 4 10 -16 9 -57 -1 -58 -2 -60 -9 -23 -4 22 -5 46 -2 54 3 9 1 12 -6 7
-7 -4 -12 -15 -13 -24 0 -11 -3 -12 -6 -4 -2 6 -17 12 -31 12 -22 0 -24 -2
-12 -11 13 -9 13 -10 0 -6 -8 2 -17 16 -20 32 -6 34 -22 41 -44 20 -15 -15
-16 -14 -16 14 0 29 2 31 38 31 46 0 145 28 140 39 -2 5 -66 59 -143 122 -77
62 -160 131 -184 153 -26 23 -46 35 -49 28 -2 -8 -15 -3 -37 13 -28 22 -33 23
-39 9 -3 -9 -12 -14 -20 -11 -7 3 -18 1 -23 -4 -6 -6 -35 -5 -82 5 -39 8 -111
18 -159 22 -48 4 -97 10 -109 15 -14 5 -23 4 -26 -5 -3 -7 -16 -12 -29 -10
-12 1 -28 3 -35 3 -6 1 -14 9 -16 19 -4 13 -5 11 -6 -5 -1 -20 -6 -23 -45 -23
-24 0 -51 -3 -60 -6 -14 -5 -16 4 -16 58 0 59 11 88 32 88 4 0 8 -7 8 -15 0
-19 17 -19 50 0 29 17 22 19 -14 5 -20 -7 -26 -6 -26 4 0 29 76 58 91 34 7
-10 9 -9 9 5 0 14 9 17 44 17 52 0 74 -20 24 -21 -27 0 -29 -2 -13 -8 11 -5
33 -4 50 0 37 11 54 11 40 1 -6 -4 -7 -24 -4 -47 6 -36 6 -37 8 -9 1 35 33 52
53 30 8 -8 30 -11 60 -8 27 2 54 -1 61 -6 8 -7 18 -6 30 3 16 12 14 14 -22 20
-23 4 -41 12 -41 18 0 7 -5 5 -10 -3 -8 -13 -10 -13 -10 1 0 10 11 20 25 23
31 8 32 19 2 39 -13 8 -50 39 -82 68 -48 43 -56 48 -42 24 l18 -30 -24 27
c-18 19 -28 23 -36 15 -11 -11 -12 -9 -15 15 0 6 -7 13 -15 16 -9 3 -11 0 -6
-9 5 -8 5 -11 0 -7 -4 4 -15 2 -24 -5 -14 -11 -14 -10 -2 6 12 15 11 17 -8 17
-15 0 -20 -4 -15 -12 4 -7 -3 -4 -16 7 -13 11 -20 15 -17 8 13 -21 -12 -24
-25 -3 -8 12 -23 20 -40 20 -18 0 -28 5 -28 15 0 10 10 15 34 15 19 0 41 7 49
15 8 8 18 11 22 7 4 -4 2 3 -4 16 -13 24 -24 30 -15 8 3 -8 -1 -17 -8 -22 -7
-4 -10 -4 -6 1 4 4 -1 15 -10 24 -11 10 -12 12 -2 6 13 -9 13 -8 2 7 -14 18
-49 17 -44 -2 1 -6 -2 -9 -7 -5 -6 3 -8 12 -5 19 3 9 -6 18 -25 24 -17 6 -40
20 -51 30 -18 17 -19 20 -5 26 9 3 28 -1 43 -10 24 -14 24 -14 -3 7 -16 13
-37 32 -47 41 -9 9 -25 14 -36 12 -23 -6 -82 40 -82 64 -1 19 -30 63 -30 45 0
-6 -7 -13 -14 -16 -11 -4 -13 -1 -9 10 5 12 2 15 -9 10 -11 -4 -20 3 -28 24
-13 31 -27 37 -36 15z m45 -86 c-1 -21 -3 -20 -13 10 -6 19 -14 40 -18 46 -4
6 -4 14 0 18 9 10 31 -43 31 -74z m113 -147 c18 -20 48 -103 48 -133 0 -11 -5
-20 -11 -20 -6 0 -8 -9 -4 -21 5 -14 3 -19 -3 -15 -6 3 -13 -7 -17 -24 -4 -16
-10 -30 -15 -30 -4 0 -7 -8 -6 -17 0 -10 -5 -17 -12 -15 -8 1 -11 -1 -8 -6 3
-5 -6 -24 -19 -42 -29 -39 -32 -48 -10 -30 21 17 32 4 17 -20 -7 -11 -12 -23
-12 -27 0 -5 5 -1 10 7 5 8 10 10 10 4 0 -6 -7 -17 -15 -24 -12 -10 -15 -10
-15 0 0 8 -2 11 -5 8 -3 -3 2 -24 10 -48 8 -24 12 -52 9 -63 -4 -13 -2 -17 5
-13 7 5 14 -4 17 -23 7 -36 45 -66 62 -49 8 8 11 5 9 -11 -1 -11 -6 -21 -12
-22 -5 0 -1 -4 10 -9 19 -8 19 -9 -2 -9 -39 -2 -36 -21 4 -22 21 -1 42 -1 47
0 5 1 16 -1 25 -4 13 -5 14 -7 1 -15 -8 -6 -19 -10 -25 -10 -5 0 -3 5 5 10 9
6 10 10 3 10 -21 0 -23 -17 -7 -70 8 -28 13 -59 10 -67 -3 -8 -2 -12 3 -9 4 3
14 -13 20 -35 7 -23 15 -48 18 -58 4 -10 -1 -8 -14 7 l-21 23 -11 -32 c-15
-43 -16 -42 24 -37 32 4 36 1 46 -30 8 -25 8 -37 0 -45 -14 -14 -14 -30 0 -21
8 5 8 1 0 -14 -13 -25 -14 -35 -2 -28 10 6 25 -24 16 -32 -3 -3 -5 1 -5 9 0
11 -2 12 -9 1 -6 -10 -10 -7 -15 13 -6 24 -9 25 -24 13 -15 -11 -15 -11 -6 2
6 8 14 24 17 35 l7 20 -16 -20 c-12 -15 -18 -16 -21 -7 -3 7 -15 23 -27 34
-11 12 -15 18 -9 14 9 -5 11 -2 7 8 -3 9 -10 13 -15 10 -5 -3 -4 7 1 21 13 34
13 38 -2 29 -7 -4 -8 -3 -4 5 10 16 -3 73 -15 65 -5 -3 -8 -2 -7 3 2 4 -3 23
-10 41 -6 17 -17 45 -23 61 -10 27 -13 29 -37 18 -15 -6 -37 -20 -50 -31 -13
-12 -25 -20 -28 -18 -10 5 -24 1 -37 -13 -13 -13 -20 -11 -58 17 l-43 31 53
23 c30 13 57 24 62 24 4 0 18 4 31 9 13 5 25 8 28 8 14 -1 50 26 50 38 0 25
-33 84 -44 79 -6 -3 -4 1 5 7 15 11 14 20 -13 97 -24 70 -27 87 -16 100 12 13
10 14 -10 3 -12 -6 -29 -23 -38 -36 -8 -13 -21 -22 -28 -19 -6 2 -23 -7 -36
-21 -13 -14 -20 -25 -15 -25 5 0 -1 -9 -13 -20 -12 -12 -22 -24 -22 -29 0 -7
-44 -32 -65 -36 -5 -1 -19 1 -30 6 -16 6 -14 8 12 8 25 1 40 11 75 52 24 29
60 69 81 90 20 21 37 46 37 56 0 10 18 46 40 80 22 33 44 81 49 106 9 51 -2
141 -20 163 -10 12 -8 17 7 28 20 15 39 9 66 -21z m97 -14 c35 -34 40 -59 14
-59 -17 -1 -17 -1 0 -14 10 -8 15 -20 11 -30 -10 -27 -21 -18 -34 29 -7 24
-19 50 -27 56 -8 7 -19 21 -24 31 -17 31 25 22 60 -13z m-589 -25 c12 -31 13
-84 2 -84 -17 0 -21 13 -11 34 10 20 10 20 -5 2 -9 -11 -16 -23 -16 -28 0 -4
-11 -7 -25 -6 -28 3 -34 18 -7 19 9 0 12 3 5 5 -8 4 -8 12 3 32 8 15 14 33 14
40 0 22 30 12 40 -14z m54 -26 c1 -16 -2 -28 -6 -28 -4 0 -8 5 -8 11 0 5 -4 7
-10 4 -6 -4 -10 5 -10 20 0 37 33 30 34 -7z m201 11 c4 -13 0 -34 -11 -55 -20
-38 -35 -45 -27 -14 7 25 -5 26 -23 3 -13 -17 -13 -17 -14 1 0 19 0 19 -14 1
-8 -11 -19 -16 -30 -12 -10 4 -16 1 -16 -8 0 -15 -40 -22 -40 -7 0 4 -4 24 -9
45 -8 33 -7 38 6 33 19 -8 141 13 149 25 9 15 22 10 29 -12z m129 -28 c22 -9
23 -12 13 -35 -10 -21 -13 -23 -19 -8 -5 13 -7 10 -7 -9 -1 -17 -10 -33 -26
-43 -14 -9 -25 -13 -25 -9 0 5 -5 1 -10 -7 -8 -12 -10 -12 -11 5 0 11 -3 14
-6 8 -2 -7 -11 -13 -19 -13 -7 0 -18 -15 -23 -32 l-9 -33 -2 30 c-2 21 -4 24
-7 11 -4 -15 -7 -16 -14 -5 -7 11 -9 11 -9 -3 0 -12 -8 -18 -25 -18 -17 0 -25
6 -26 18 -1 11 -4 9 -9 -8 -8 -25 -8 -25 -10 5 -2 30 -2 30 -10 5 -8 -24 -8
-24 -9 -2 -1 24 -16 30 -24 10 -3 -7 -6 -1 -6 13 -1 33 13 39 87 39 65 1 88
11 127 58 29 34 39 37 79 23z m293 -17 c-3 -3 -12 -4 -19 -1 -8 3 -5 6 6 6 11
1 17 -2 13 -5z m-604 -55 c8 -13 6 -21 -6 -33 -20 -20 -31 -21 -24 -1 4 8 2
17 -3 20 -6 4 -10 13 -10 21 0 20 29 14 43 -7z m-213 -125 c-7 -47 -14 -83
-16 -81 -2 2 -6 30 -8 63 -3 38 -2 49 3 29 6 -26 9 -20 16 40 5 39 11 62 13
52 2 -11 -2 -57 -8 -103z m498 46 c3 -25 0 -31 -11 -27 -8 3 -24 -1 -36 -9
-11 -8 -21 -12 -21 -7 0 4 -7 -1 -15 -11 -15 -20 -15 -20 -15 0 -1 18 -1 18
-11 2 -5 -10 -17 -18 -24 -18 -8 0 -15 -6 -16 -12 0 -9 -2 -9 -6 1 -5 11 -7
11 -14 0 -7 -11 -9 -9 -9 5 0 20 0 20 -15 0 -14 -19 -14 -19 -16 1 -1 17 -2
16 -9 -5 -7 -21 -8 -22 -9 -5 -1 15 -4 16 -10 7 -13 -20 -73 41 -69 70 l3 23
20 -22 c17 -20 29 -23 103 -23 81 0 84 1 119 35 43 42 57 41 61 -5z m36 21
c-10 -10 -21 -14 -23 -8 -4 10 17 27 33 27 5 0 1 -8 -10 -19z m387 2 c13 -16
12 -17 -3 -4 -10 7 -18 15 -18 17 0 8 8 3 21 -13z m-681 -122 c6 -13 5 -24 -5
-37 -14 -18 -14 -18 -15 4 0 13 -6 22 -15 22 -8 0 -15 9 -15 20 0 11 -4 20
-10 20 -5 0 -10 4 -10 9 0 14 59 -18 70 -38z m92 -39 l-6 -27 -7 25 c-7 25 -7
25 -8 2 -1 -13 -5 -20 -11 -17 -6 4 -8 11 -5 16 4 5 2 9 -4 9 -5 0 -11 -8 -13
-17 -3 -13 -6 -10 -9 8 -5 25 -3 27 31 27 35 1 37 -1 32 -26z m25 -9 c-3 -10
-5 -4 -5 12 0 17 2 24 5 18 2 -7 2 -21 0 -30z m50 15 c-3 -8 -6 -5 -6 6 -1 11
2 17 5 13 3 -3 4 -12 1 -19z m-443 -75 c-7 -39 -14 -42 -14 -5 0 18 4 32 9 32
5 0 7 -12 5 -27z m353 11 c-3 -3 -12 -4 -19 -1 -8 3 -5 6 6 6 11 1 17 -2 13
-5z m28 -34 c-3 -5 -22 -10 -41 -10 -21 0 -33 4 -29 10 3 6 22 10 41 10 21 0
33 -4 29 -10z m5 -52 c0 -5 -11 -13 -25 -20 -19 -8 -28 -8 -40 2 -25 21 -17
31 25 28 22 -1 40 -6 40 -10z m728 -32 c12 0 22 -3 22 -6 0 -9 -69 -32 -78
-26 -4 2 -14 0 -22 -6 -12 -8 -12 -9 3 -4 9 3 17 1 17 -4 0 -6 -3 -10 -7 -11
-5 0 -18 -2 -30 -5 -14 -2 -23 1 -23 9 0 8 -3 8 -9 -2 -6 -8 -14 -10 -22 -5
-8 5 -25 10 -39 12 -23 3 -23 2 -7 -16 9 -10 15 -22 12 -25 -3 -4 -2 -5 2 -2
8 6 32 -26 33 -43 0 -8 -5 -10 -12 -6 -7 4 -24 9 -38 10 -23 3 -23 2 8 -18 24
-15 30 -23 21 -29 -8 -4 -20 -3 -28 4 -12 9 -13 9 -7 0 11 -20 -2 -15 -42 14
l-37 28 43 -47 c37 -42 48 -58 39 -58 -1 0 -27 25 -57 56 -30 31 -48 54 -40
49 8 -4 -4 10 -27 30 -48 41 -55 65 -20 65 18 0 19 2 7 11 -11 8 -2 9 35 6 28
-2 44 -2 38 0 -30 11 -8 20 54 22 37 1 68 3 70 4 1 1 28 0 60 -2 32 -2 68 -4
81 -5z m-1191 -38 c-3 -8 -6 -5 -6 6 -1 11 2 17 5 13 3 -3 4 -12 1 -19z m409
-26 c-16 -15 -25 -20 -21 -12 13 25 38 50 44 45 3 -3 -8 -18 -23 -33z m219 8
c-3 -5 -19 -11 -35 -15 -17 -4 -30 -11 -30 -16 0 -6 -4 -7 -10 -4 -5 3 -10 2
-10 -4 0 -5 -9 -9 -20 -8 -27 2 -27 45 0 55 25 9 112 3 105 -8z m-185 -14 c0
-2 -8 -10 -17 -17 -16 -13 -17 -12 -4 4 13 16 21 21 21 13z m990 -45 c0 -12
-12 -22 -32 -29 -25 -9 -27 -10 -6 -7 14 3 33 8 42 11 9 3 16 1 16 -5 0 -6
-23 -20 -50 -32 -28 -12 -49 -24 -46 -26 2 -2 21 3 41 11 20 9 42 13 48 9 6
-4 7 -1 2 7 -5 9 -4 11 4 6 9 -6 9 -11 1 -21 -7 -8 -9 -19 -5 -24 4 -7 -1 -8
-11 -4 -12 4 -15 3 -10 -5 4 -7 2 -12 -4 -12 -7 0 -10 -7 -7 -14 4 -11 1 -13
-10 -9 -10 4 -14 2 -10 -4 4 -6 0 -14 -9 -17 -8 -3 -12 -11 -8 -17 4 -7 3 -9
-2 -6 -6 3 -29 -3 -51 -13 -30 -13 -43 -15 -46 -7 -3 9 -8 8 -18 -2 -12 -12
-12 -13 0 -6 9 5 12 4 7 -3 -5 -9 -15 -8 -37 3 -16 9 -29 18 -29 20 0 3 21 16
48 29 53 28 50 34 -5 11 -62 -26 -51 -15 27 25 94 49 86 52 -11 5 -79 -38 -99
-42 -99 -22 0 18 38 77 50 77 5 0 9 5 8 12 -2 7 26 27 61 45 76 39 151 46 151
14z m-325 -41 c3 -6 -5 -10 -19 -10 -14 0 -28 5 -31 10 -3 6 5 10 19 10 14 0
28 -4 31 -10z m559 -225 c7 -18 28 -16 38 5 4 8 8 -7 9 -35 l2 -50 7 50 7 50
2 -55 c2 -69 20 -104 22 -45 l2 40 7 -45 c4 -25 8 -40 8 -34 1 7 22 10 55 8
39 -2 44 -1 22 4 l-30 8 33 5 c26 5 32 2 32 -13 0 -15 -8 -18 -45 -18 l-46 0
5 -40 c2 -22 1 -40 -4 -40 -15 0 -109 149 -97 154 7 2 6 5 -4 5 -20 1 -65 61
-45 61 7 0 16 -7 20 -15z m-119 -52 c9 -27 21 -65 25 -86 7 -36 6 -37 -10 -22
-14 13 -19 13 -23 3 -4 -9 -6 -7 -6 4 -1 9 -6 20 -13 24 -7 5 -8 3 -3 -6 5 -8
4 -11 -3 -7 -5 4 -8 16 -5 27 4 14 0 20 -11 20 -15 0 -16 16 -7 72 0 3 9 9 19
11 9 3 18 5 19 6 0 0 9 -20 18 -46z m415 17 c0 -15 -7 -20 -25 -20 -18 0 -25
5 -25 20 0 15 7 20 25 20 18 0 25 -5 25 -20z m-909 -36 l34 -37 -32 18 c-17
10 -34 27 -36 37 -7 24 -6 24 34 -18z m1039 -30 c14 -16 18 -23 10 -17 -8 6
-18 12 -22 12 -5 1 -8 3 -8 7 1 3 -9 14 -22 25 -19 17 -20 19 -3 10 11 -5 31
-22 45 -37z m-83 20 c-3 -3 -12 -4 -19 -1 -8 3 -5 6 6 6 11 1 17 -2 13 -5z
m-1295 -19 c5 -6 8 -5 8 3 0 7 13 12 33 11 34 0 36 1 -38 -29 -16 -7 -43 -14
-60 -16 -28 -3 -29 -3 -11 11 11 8 26 15 34 15 7 0 10 5 7 10 -8 13 18 8 27
-5z m433 5 c-3 -5 -12 -10 -18 -10 -7 0 -6 4 3 10 19 12 23 12 15 0z m292 -6
c-7 -7 81 -177 94 -182 5 -2 7 -8 3 -13 -3 -5 0 -9 5 -9 6 0 11 -4 11 -9 0
-15 101 -191 110 -191 5 0 9 25 9 56 0 31 4 61 10 65 6 5 9 6 6 3 -3 -4 0 -13
6 -20 6 -7 11 -26 11 -43 1 -17 4 -31 9 -31 4 0 5 -10 1 -22 -4 -15 -2 -19 7
-14 9 6 10 -1 5 -31 -5 -21 -7 -54 -6 -73 1 -24 -1 -31 -7 -21 -5 8 -16 11
-24 8 -11 -4 -14 -2 -10 9 3 9 12 13 22 9 13 -5 13 -4 4 6 -7 7 -23 14 -35 16
-19 2 -20 1 -8 -8 10 -7 11 -9 2 -7 -8 2 -12 6 -11 8 1 3 -9 23 -22 45 -47 76
-203 399 -202 417 1 12 -3 16 -10 11 -7 -4 -6 0 2 10 7 9 16 17 19 17 3 0 3
-3 -1 -6z m576 -1 c-7 -2 -19 -2 -25 0 -7 3 -2 5 12 5 14 0 19 -2 13 -5z m17
-44 c0 -11 4 -18 9 -14 6 3 8 -3 6 -15 -2 -11 0 -22 5 -25 4 -3 6 -14 3 -25
-8 -29 -20 -16 -17 19 1 17 -5 36 -14 43 -13 11 -15 9 -10 -14 3 -16 1 -28 -3
-28 -5 0 -9 14 -9 30 0 17 5 30 11 30 5 0 7 5 4 10 -3 6 -1 10 4 10 6 0 11 -9
11 -21z m-595 -89 c10 -33 22 -60 28 -60 5 0 7 -7 3 -15 -3 -8 -2 -15 3 -15 4
0 8 -6 9 -12 3 -36 22 -92 38 -109 17 -19 17 -20 -2 -14 -18 6 -18 6 1 -7 11
-7 21 -22 22 -33 6 -56 14 -90 23 -93 6 -2 10 -17 10 -33 0 -16 4 -29 8 -29 5
0 9 -6 9 -12 0 -7 4 -38 7 -68 6 -49 6 -53 -6 -32 -8 12 -17 19 -21 16 -4 -4
-7 -2 -7 5 0 7 -9 31 -19 54 -43 95 -71 167 -71 183 0 9 -10 33 -22 52 -12 20
-16 32 -9 27 8 -4 4 5 -8 22 -12 16 -23 40 -25 54 -3 33 -25 110 -38 136 -8
16 -8 30 2 53 12 30 13 30 30 11 9 -11 25 -47 35 -81z m462 58 c-3 -7 -5 -2
-5 12 0 14 2 19 5 13 2 -7 2 -19 0 -25z m206 -5 c-7 -2 -19 -2 -25 0 -7 3 -2
5 12 5 14 0 19 -2 13 -5z m0 -20 c-7 -2 -19 -2 -25 0 -7 3 -2 5 12 5 14 0 19
-2 13 -5z m-206 -40 c-3 -10 -5 -4 -5 12 0 17 2 24 5 18 2 -7 2 -21 0 -30z
m70 31 c-3 -3 -12 -4 -19 -1 -8 3 -5 6 6 6 11 1 17 -2 13 -5z m50 -10 c-3 -3
-12 -4 -19 -1 -8 3 -5 6 6 6 11 1 17 -2 13 -5z m86 -1 c-7 -2 -19 -2 -25 0 -7
3 -2 5 12 5 14 0 19 -2 13 -5z m-1385 -52 c2 -5 -12 -14 -30 -19 -23 -6 -34
-15 -36 -30 -2 -12 -7 -20 -12 -17 -5 3 -5 16 0 31 6 14 10 36 10 49 0 23 1
24 32 11 18 -8 34 -19 36 -25z m546 7 c19 -36 19 -38 7 -38 -5 0 -11 8 -14 18
-2 9 -8 25 -12 35 -12 30 3 19 19 -15z m756 22 c0 -5 -7 -7 -15 -4 -8 4 -15 8
-15 10 0 2 7 4 15 4 8 0 15 -4 15 -10z m-780 -20 c0 -5 16 -42 35 -81 40 -82
39 -79 24 -79 -5 0 -7 5 -4 10 3 6 -3 10 -14 10 -11 0 -23 5 -26 10 -3 6 -1
10 4 10 6 0 2 9 -9 20 -11 11 -20 27 -20 35 0 8 -5 24 -12 34 -13 21 -4 56 12
46 5 -3 10 -10 10 -15z m-480 -31 c0 -11 -4 -17 -10 -14 -5 3 -10 13 -10 21 0
8 5 14 10 14 6 0 10 -9 10 -21z m350 -9 c0 -16 -5 -30 -12 -30 -6 0 -9 3 -5 6
3 3 2 17 -3 30 -7 19 -6 24 5 24 10 0 15 -10 15 -30z m230 -66 c43 -91 33
-101 -18 -20 -39 62 -45 86 -22 86 5 0 23 -30 40 -66z m-491 20 c2 -2 -14 -4
-37 -4 -23 0 -42 4 -42 9 0 9 69 4 79 -5z m1261 -4 c0 -5 -8 -10 -17 -10 -15
0 -16 2 -3 10 19 12 20 12 20 0z m7 -87 c-10 -18 -12 -36 -6 -50 5 -13 4 -25
-1 -28 -6 -4 -10 4 -10 17 0 13 -6 30 -12 37 -10 11 -10 13 0 7 6 -4 12 -2 12
3 0 6 -4 11 -9 11 -5 0 -11 9 -14 20 -4 14 0 20 11 21 15 1 15 2 0 6 -24 6
-23 23 1 23 14 0 21 -8 24 -27 3 -21 5 -16 7 17 3 44 3 45 7 8 2 -20 -2 -49
-10 -65z m84 34 c-8 -8 -14 -8 -23 1 -9 9 -8 12 8 13 10 0 13 3 6 6 -6 2 -9 9
-6 15 4 7 11 4 16 -7 7 -11 6 -21 -1 -28z m-181 -26 c0 -54 10 -70 30 -46 10
12 9 16 -3 21 -10 3 -15 18 -15 42 0 28 2 32 8 17 4 -11 6 -23 4 -26 -2 -4 3
-12 11 -19 18 -15 20 -56 3 -66 -7 -4 -8 -3 -4 4 8 14 4 15 -18 6 -15 -6 -15
-8 1 -19 13 -9 22 -10 30 -3 9 7 13 7 13 -1 0 -6 -4 -11 -10 -11 -5 0 -10 -7
-10 -15 0 -8 -14 -30 -32 -50 -23 -27 -33 -33 -39 -23 -5 8 -2 16 7 21 9 5 12
18 10 33 -3 14 -1 22 5 19 5 -4 7 -11 4 -16 -11 -17 2 -9 21 13 10 12 13 18 7
14 -7 -4 -13 -3 -13 3 0 6 -6 8 -13 5 -8 -3 -20 3 -28 13 -13 16 -12 17 4 4
20 -16 22 -9 5 19 -10 16 -10 24 0 40 10 16 10 20 0 21 -9 0 -9 2 1 6 11 5 11
7 0 14 -11 7 -11 9 -1 9 7 0 10 5 7 10 -3 6 -1 10 4 10 6 0 11 -21 11 -49z
m-50 -6 c0 -15 -6 -25 -14 -25 -33 0 -59 -76 -29 -87 9 -4 25 -15 36 -26 20
-20 20 -20 -9 -14 l-28 5 31 -26 c17 -15 45 -47 62 -71 27 -38 29 -46 17 -60
-7 -9 -11 -21 -9 -28 5 -15 -26 -32 -52 -27 -11 3 -27 5 -36 6 -14 2 -16 14
-12 88 4 67 1 97 -15 141 l-20 55 36 47 c20 26 38 47 39 47 2 0 3 -11 3 -25z
m223 -1 c-3 -8 -12 -14 -20 -14 -8 0 -11 5 -7 12 4 7 3 8 -5 4 -9 -6 -9 -11
-1 -21 7 -9 6 -16 -5 -25 -13 -11 -15 -8 -15 23 0 19 6 37 13 40 21 7 46 -4
40 -19z m-66 -51 c-3 -10 -5 -2 -5 17 0 19 2 27 5 18 2 -10 2 -26 0 -35z m63
9 c0 -5 13 -29 29 -53 32 -47 28 -59 -21 -59 -35 0 -93 -51 -110 -96 -6 -19
-16 -34 -21 -34 -4 0 -6 4 -3 9 10 16 -5 41 -24 41 -33 0 -33 21 0 55 21 21
29 38 25 47 -5 7 -5 10 -2 7 4 -3 30 16 59 43 51 47 68 57 68 40z m-238 -27
c3 -13 1 -22 -3 -19 -9 5 -13 44 -5 44 2 0 6 -11 8 -25z m-662 -26 c7 -11 9
-23 6 -27 -3 -3 -6 0 -6 6 0 7 -5 11 -12 10 -6 -2 -14 5 -16 15 -5 24 15 21
28 -4z m694 -7 c3 -5 -1 -9 -9 -9 -8 0 -12 4 -9 9 3 4 7 8 9 8 2 0 6 -4 9 -8z
m-624 -69 c0 -7 6 -13 13 -13 9 0 8 -3 -2 -9 -18 -11 -51 22 -51 51 0 20 1 21
20 3 11 -10 20 -24 20 -32z m84 -146 c6 -26 5 -27 -13 -17 -16 8 -22 7 -31
-10 -7 -13 -7 -20 0 -20 5 0 11 8 11 18 1 15 2 16 6 0 3 -11 11 -15 21 -12 14
5 14 4 3 -4 -8 -6 -11 -16 -8 -24 7 -20 -8 -42 -25 -36 -7 3 -21 29 -30 57
-16 49 -16 51 3 51 12 0 24 11 30 28 11 30 20 22 33 -31z m-44 23 c0 -5 -7
-10 -15 -10 -8 0 -15 5 -15 10 0 6 7 10 15 10 8 0 15 -4 15 -10z m578 -107
c-4 -22 -22 -20 -26 1 -2 10 3 16 13 16 10 0 15 -7 13 -17z m-528 -47 c-7 -7
-15 -5 -22 3 -10 11 -10 13 0 7 7 -5 12 -1 12 11 0 15 2 16 10 3 6 -9 6 -18 0
-24z m755 -26 c3 -5 -1 -10 -9 -10 -8 0 -18 5 -21 10 -3 6 1 10 9 10 8 0 18
-4 21 -10z m-805 -240 c0 -5 -5 -10 -11 -10 -5 0 -7 5 -4 10 3 6 8 10 11 10 2
0 4 -4 4 -10z m33 -10 c3 -11 1 -20 -4 -20 -5 0 -9 9 -9 20 0 11 2 20 4 20 2
0 6 -9 9 -20z m631 -17 c-9 -39 -15 -47 -24 -32 -5 7 -2 22 7 36 20 30 25 29
17 -4z m-280 -202 c3 -4 -6 -6 -19 -3 -14 2 -25 6 -25 8 0 8 39 4 44 -5z"/>
<path d="M1291 1914 c0 -11 3 -14 6 -6 3 7 2 16 -1 19 -3 4 -6 -2 -5 -13z"/>
<path d="M1526 1465 c-9 -26 -7 -32 5 -12 6 10 9 21 6 23 -2 3 -7 -2 -11 -11z"/>
<path d="M1542 1445 c-7 -14 -12 -31 -12 -38 1 -7 7 3 16 22 17 39 13 54 -4
16z"/>
<path d="M1050 2200 c0 -5 5 -10 10 -10 6 0 10 5 10 10 0 6 -4 10 -10 10 -5 0
-10 -4 -10 -10z"/>
<path d="M1131 2114 c0 -11 3 -14 6 -6 3 7 2 16 -1 19 -3 4 -6 -2 -5 -13z"/>
<path d="M1588 1743 c7 -3 16 -2 19 1 4 3 -2 6 -13 5 -11 0 -14 -3 -6 -6z"/>
<path d="M2726 675 c-3 -8 -1 -15 4 -15 6 0 10 7 10 15 0 8 -2 15 -4 15 -2 0
-6 -7 -10 -15z"/>
<path d="M1261 2394 c0 -11 3 -14 6 -6 3 7 2 16 -1 19 -3 4 -6 -2 -5 -13z"/>
<path d="M2006 2400 c-22 -3 -41 -11 -44 -18 -5 -16 38 -32 60 -21 9 5 29 4
46 -2 17 -6 41 -9 54 -7 19 3 15 8 -27 29 -38 19 -60 24 -89 19z m-11 -20 c-3
-5 -12 -10 -18 -10 -7 0 -6 4 3 10 19 12 23 12 15 0z"/>
<path d="M1688 2393 c7 -3 16 -2 19 1 4 3 -2 6 -13 5 -11 0 -14 -3 -6 -6z"/>
<path d="M1920 2390 c18 -12 30 -13 30 -2 0 4 -10 9 -22 9 -18 2 -20 0 -8 -7z"/>
<path d="M1687 2343 c-8 -7 11 -33 24 -33 5 0 9 9 9 20 0 19 -20 27 -33 13z"/>
<path d="M2086 2327 c4 -10 16 -22 28 -29 18 -9 19 -8 6 3 -8 8 -20 21 -27 29
-11 13 -12 13 -7 -3z"/>
<path d="M1744 2298 c-7 -12 24 -42 100 -99 37 -27 69 -38 64 -21 -2 4 2 7 7
7 6 0 9 -3 7 -8 -3 -11 44 -27 68 -22 11 2 18 0 15 -5 -3 -5 21 -14 52 -20 32
-7 64 -17 71 -22 22 -19 12 -27 -20 -16 -18 5 -40 10 -48 10 -8 1 -21 6 -29
12 -12 9 -13 8 -6 -4 7 -11 1 -10 -20 4 -20 13 -30 15 -33 7 -3 -9 -7 -9 -18
0 -8 7 -17 10 -20 7 -7 -8 168 -157 226 -193 27 -16 63 -49 82 -71 29 -37 124
-121 313 -279 33 -27 62 -52 65 -55 3 -3 15 -13 26 -23 29 -24 57 -10 112 58
37 46 51 55 114 76 40 12 85 22 100 21 l28 -2 -1 132 0 133 -157 77 c-86 42
-185 90 -219 106 -34 16 -59 33 -55 37 4 5 1 5 -5 1 -15 -8 -82 20 -135 56
-21 14 -53 29 -73 32 -20 4 -50 16 -68 26 -34 20 -131 25 -154 7 -7 -5 -13 -6
-13 -1 0 5 -5 2 -10 -6 -8 -12 -10 -12 -10 -1 0 10 -3 11 -14 2 -9 -7 -15 -8
-18 -2 -1 5 -38 11 -80 12 -43 1 -78 5 -78 8 0 4 -13 8 -30 9 -34 3 -38 -5
-12 -25 13 -10 13 -13 2 -11 -8 2 -21 9 -28 16 -11 10 -18 10 -28 1 -11 -9
-16 -6 -25 15 -13 27 -33 34 -45 14z m62 -50 l19 -23 -25 20 c-14 11 -27 21
-29 22 -2 2 0 3 6 3 5 0 18 -10 29 -22z m247 5 c-7 -2 -21 -2 -30 0 -10 3 -4
5 12 5 17 0 24 -2 18 -5z m-137 -25 c10 -12 14 -18 7 -15 -6 4 -14 3 -18 -3
-4 -6 -10 -8 -15 -5 -5 3 -12 1 -15 -5 -5 -8 -11 -7 -21 1 -11 9 -11 15 -3 25
6 8 15 12 19 9 5 -3 11 -1 15 5 8 13 9 13 31 -12z m183 -5 c-6 -7 -15 -10 -20
-7 -13 8 -3 21 15 21 12 0 13 -4 5 -14z m51 2 c0 -1 -9 -10 -19 -19 -13 -12
-21 -14 -26 -6 -4 6 -1 9 7 8 7 -2 12 2 11 8 -1 6 5 11 13 11 8 0 14 -1 14 -2z
m62 -19 c-4 -6 -7 -14 -8 -18 -1 -5 -2 -11 -3 -14 0 -3 -6 -2 -11 1 -8 5 -7
11 1 21 7 9 8 14 1 14 -6 0 -14 -5 -17 -10 -4 -6 -11 -8 -16 -4 -16 10 -1 20
30 20 19 0 27 -4 23 -10z m42 5 c3 -5 -1 -14 -8 -20 -10 -9 -16 -9 -21 -1 -4
6 -3 10 2 9 20 -3 27 2 13 11 -9 6 -10 10 -3 10 6 0 14 -4 17 -9z m-274 -17
c0 -8 -19 -13 -24 -6 -3 5 1 9 9 9 8 0 15 -2 15 -3z m260 -30 c0 -8 -19 -13
-24 -6 -3 5 1 9 9 9 8 0 15 -2 15 -3z"/>
<path d="M1885 2230 c-4 -6 -10 -8 -15 -5 -5 3 -11 1 -14 -4 -4 -5 -2 -12 3
-15 5 -4 12 -2 16 4 4 6 10 8 15 5 5 -3 11 -1 14 4 4 5 2 12 -3 15 -5 4 -12 2
-16 -4z"/>
<path d="M537 2045 c-42 -25 -76 -50 -74 -56 1 -6 -9 -18 -23 -26 l-25 -15 25
21 c14 11 21 21 17 21 -24 0 -149 -105 -179 -152 -9 -14 -21 -40 -25 -59 -8
-28 -15 -35 -46 -42 -32 -8 -37 -13 -37 -38 0 -16 -4 -29 -10 -29 -5 0 -10
-10 -10 -22 0 -21 -39 -78 -54 -78 -3 0 -4 17 -1 37 5 37 -9 68 -26 57 -5 -3
-9 0 -9 5 0 6 -10 11 -22 12 -13 0 -17 3 -10 6 18 7 15 21 -8 33 -19 10 -20 8
-20 -50 l0 -60 38 -1 37 -2 -40 -7 -40 -7 44 -2 c37 -1 42 -3 31 -16 -7 -8 -8
-15 -3 -15 5 0 9 -9 9 -20 0 -16 -7 -20 -38 -20 -32 0 -38 -3 -38 -21 0 -18 5
-20 38 -17 27 2 37 -1 37 -12 0 -8 -6 -18 -15 -22 -12 -5 -12 -7 3 -7 12 -1
17 -9 17 -28 0 -20 3 -24 9 -15 6 10 10 7 15 -13 8 -31 22 -24 29 15 3 14 3 1
2 -27 -3 -41 0 -53 11 -53 8 0 13 5 11 12 -1 6 7 14 18 16 22 5 35 20 35 42 0
13 -1 13 -10 0 -8 -12 -10 -12 -11 5 0 11 -3 14 -6 8 -2 -7 -11 -13 -19 -13
-15 0 -19 12 -8 23 4 3 7 53 6 109 0 57 2 90 5 73 2 -16 9 -34 14 -39 5 -6 9
-35 9 -65 0 -31 5 -63 10 -71 8 -12 10 -12 11 5 l0 20 9 -20 c8 -19 9 -19 9
-1 1 28 12 13 14 -20 2 -17 8 -29 16 -29 16 0 23 -43 10 -65 -5 -8 -9 -10 -9
-3 0 6 -9 9 -20 6 -11 -3 -18 -9 -15 -13 3 -4 -2 -11 -11 -14 -12 -4 -15 -2
-11 9 4 8 2 17 -3 20 -6 4 -11 -6 -11 -22 l-1 -28 -8 30 c-7 32 -16 22 -22
-24 -5 -42 -28 -37 -30 6 -1 38 -1 38 -5 5 -8 -61 1 -65 58 -27 58 39 103 49
55 12 -48 -37 -130 -77 -137 -66 -3 6 -11 4 -19 -6 -8 -9 -20 -13 -33 -9 -14
4 -17 3 -12 -6 5 -8 4 -11 -3 -7 -11 7 -11 32 1 43 4 4 -1 13 -11 20 -14 11
-15 16 -4 33 15 25 15 34 2 26 -6 -4 -6 3 0 21 9 23 9 25 -4 15 -15 -12 -21
-111 -7 -111 4 0 8 -7 8 -15 0 -8 -3 -15 -7 -15 -15 0 -6 -30 9 -30 13 -1 12
-3 -3 -15 -11 -8 -14 -15 -8 -15 9 0 10 -5 2 -19 -5 -11 -10 -26 -10 -33 1 -7
8 -1 16 15 20 37 45 36 42 -2 -2 -23 -5 -27 -15 -19 -17 14 -45 -13 -32 -33 6
-10 9 -10 9 -1 0 19 28 14 76 -14 l44 -26 7 34 c7 32 7 32 14 8 10 -37 10 -62
0 -55 -5 3 -12 -4 -16 -15 -8 -26 -15 -25 -82 10 -57 31 -82 33 -47 4 13 -11
14 -14 4 -11 -13 4 -16 -9 -18 -85 l-3 -89 78 2 c66 2 79 0 81 -14 3 -12 -4
-17 -22 -17 -14 0 -26 -4 -26 -10 0 -5 -3 -9 -7 -9 -27 4 -42 -5 -53 -32 -16
-37 0 -58 50 -65 34 -6 67 -30 56 -41 -3 -3 -14 0 -23 8 -16 13 -17 12 -4 -3
15 -20 2 -24 -18 -5 -10 10 -12 9 -9 -3 5 -23 36 -53 47 -46 6 4 9 1 6 -6 -4
-9 -21 -12 -54 -10 l-49 4 14 26 c12 24 12 27 -2 30 -21 5 -46 -6 -40 -17 4
-5 -1 -16 -9 -24 -11 -12 -12 -17 -2 -20 9 -4 9 -6 0 -6 -7 -1 -13 -7 -13 -14
0 -9 23 -12 93 -10 50 1 99 3 107 3 11 0 15 11 14 40 -1 22 2 43 7 46 11 6 1
26 -9 20 -4 -2 -16 5 -27 16 -17 16 -17 18 -2 13 21 -9 21 -6 2 36 -14 33 -14
33 -15 7 0 -15 -5 -30 -10 -33 -6 -4 -10 -3 -9 2 1 4 1 19 -1 33 -1 23 -2 23
-9 5 -5 -11 -7 -23 -5 -27 2 -3 -5 -4 -15 -1 -13 3 -18 10 -14 21 4 10 2 13
-5 8 -6 -3 -14 -1 -18 5 -5 8 -3 9 6 4 10 -6 12 -4 6 11 -4 10 -4 15 0 11 4
-4 13 1 20 11 8 9 14 12 14 5 0 -6 -5 -15 -10 -18 -5 -3 -10 -10 -10 -16 0 -5
9 -4 19 3 11 7 19 14 19 17 -2 19 4 24 12 11 8 -12 10 -9 10 11 0 18 8 29 25
37 37 17 41 15 19 -10 -16 -19 -13 -18 17 4 20 15 39 24 43 21 3 -4 6 -2 6 4
0 6 -23 8 -57 5 -52 -4 -56 -3 -42 11 9 8 28 14 43 13 14 -2 29 1 33 7 3 6 1
7 -5 3 -10 -6 -52 30 -52 45 0 10 69 69 83 70 7 1 18 1 26 0 7 -2 10 2 6 8
-10 17 -34 13 -62 -9 l-25 -19 -25 29 c-24 29 -25 70 -2 70 6 0 7 5 3 12 -5 8
-2 9 10 5 10 -4 15 -3 11 3 -3 6 3 10 14 10 25 0 26 4 4 41 -16 27 -16 30 0
46 17 17 18 17 11 -1 -6 -16 -4 -18 10 -13 10 4 15 3 11 -3 -3 -6 -1 -10 4
-10 6 0 11 9 11 19 0 11 5 23 10 26 8 5 7 12 -2 22 -11 14 -10 15 12 8 21 -7
23 -6 12 7 -10 12 -10 18 2 27 9 7 17 8 20 2 8 -13 -11 -61 -25 -61 -6 0 -9
-6 -6 -14 3 -7 9 -34 12 -60 6 -39 5 -46 -9 -46 -9 0 -16 -7 -16 -15 0 -18 24
-20 38 -2 7 8 8 26 2 51 -8 35 -7 37 12 33 16 -5 19 -2 15 14 -3 10 -1 22 4
25 14 8 11 24 -4 18 -8 -3 -14 2 -14 10 0 8 3 13 7 11 3 -2 11 5 18 16 12 19
6 25 -21 20 -5 -1 -11 8 -14 20 -4 16 -8 17 -14 7 -6 -9 -9 -7 -9 10 0 13 -6
22 -15 22 -10 0 -15 -10 -15 -27 0 -14 -2 -24 -5 -21 -4 3 -3 29 1 58 4 28 10
48 13 43 3 -5 14 -13 25 -16 17 -7 18 -1 16 85 -5 159 -1 268 10 268 6 0 11
-80 12 -217 1 -120 3 -196 5 -168 3 27 8 54 13 60 4 5 12 28 16 50 6 32 9 36
15 20 5 -13 8 -1 8 38 1 54 0 57 -24 57 -25 0 -25 1 -25 80 0 63 -3 81 -17 88
-15 9 -13 14 12 58 66 114 111 147 194 146 33 -1 42 1 31 8 -13 9 -8 14 11 12
9 -2 31 87 24 98 -3 4 1 11 7 13 7 3 3 6 -9 6 -13 1 -23 -4 -23 -10 0 -5 -4
-8 -9 -5 -5 3 -12 -1 -15 -10 -3 -9 -12 -14 -19 -11 -6 2 -19 -3 -27 -12 -16
-17 -54 -25 -44 -10 3 5 12 9 20 9 8 0 13 4 10 9 -6 8 9 18 28 19 5 0 12 4 15
9 3 5 22 19 41 31 65 41 15 22 -63 -23z m-357 -400 c0 -8 -4 -15 -10 -15 -5 0
-7 7 -4 15 4 8 8 15 10 15 2 0 4 -7 4 -15z m40 -135 c0 -33 -3 -60 -7 -60 -5
0 -6 27 -5 60 5 77 12 77 12 0z m-152 -7 c-10 -2 -28 -2 -40 0 -13 2 -5 4 17
4 22 1 32 -1 23 -4z m169 -35 c-3 -7 -5 -2 -5 12 0 14 2 19 5 13 2 -7 2 -19 0
-25z m87 -63 c4 -11 -2 -15 -22 -14 -17 1 -20 3 -9 6 9 2 17 9 17 14 0 14 7
11 14 -6z m-23 -162 c-12 -20 -14 -14 -5 12 4 9 9 14 11 11 3 -2 0 -13 -6 -23z
m-21 -1 c0 -5 -16 -13 -35 -19 -42 -13 -45 -9 -7 11 31 18 42 19 42 8z m-30
-41 c0 -5 -13 -19 -30 -31 l-30 -21 0 25 c0 23 3 26 53 35 4 0 7 -3 7 -8z
m-70 -36 c0 -15 -6 -25 -14 -25 -22 0 -30 19 -16 35 18 22 30 18 30 -10z
m-105 -5 c-3 -5 -12 -10 -18 -10 -7 0 -6 4 3 10 19 12 23 12 15 0z m275 0 c0
-5 -4 -10 -10 -10 -5 0 -10 5 -10 10 0 6 5 10 10 10 6 0 10 -4 10 -10z m-120
-45 c0 -8 6 -16 13 -19 6 -3 -1 -3 -18 0 -24 5 -27 3 -15 -6 13 -10 12 -11 -3
-6 -10 3 -27 0 -39 -7 -16 -9 -22 -9 -25 1 -3 6 -20 12 -39 12 -42 0 -47 27
-6 36 15 3 32 7 39 9 7 2 15 0 18 -6 4 -5 15 -3 27 6 23 15 48 5 48 -20z
m-125 -65 c-3 -5 -10 -10 -16 -10 -5 0 -9 5 -9 10 0 6 7 10 16 10 8 0 12 -4 9
-10z m85 -84 c0 -2 -8 -10 -17 -17 -16 -13 -17 -12 -4 4 13 16 21 21 21 13z
m-135 -22 c10 -14 15 -15 36 -4 13 7 21 9 17 5 -4 -4 0 -14 9 -20 16 -12 14
-17 -20 -54 -20 -23 -37 -46 -37 -51 0 -6 -11 -10 -25 -10 -22 0 -25 4 -25 38
0 57 11 112 23 112 5 0 15 -7 22 -16z m149 -9 c-7 -16 -24 -21 -24 -6 0 8 7
13 27 20 1 1 0 -6 -3 -14z m-44 -40 c-14 -17 -30 -20 -30 -5 0 6 7 10 15 10 8
0 15 5 15 12 0 6 3 8 6 5 4 -4 1 -13 -6 -22z m42 -20 c1 -19 -79 -67 -107 -63
l-28 3 26 31 c20 23 33 30 51 27 13 -3 27 0 31 7 8 12 26 10 27 -5z m-134
-166 c-6 -16 -12 -28 -14 -26 -5 5 13 57 20 57 3 0 0 -14 -6 -31z m122 -114
c5 3 11 1 15 -5 4 -6 -9 -10 -32 -10 -36 1 -37 1 -18 16 12 9 21 11 23 4 2 -5
8 -8 12 -5z m9 -28 c-2 -1 -13 -9 -24 -17 -19 -14 -19 -14 -6 3 7 9 18 17 24
17 6 0 8 -1 6 -3z"/>
<path d="M1618 1883 c7 -3 16 -2 19 1 4 3 -2 6 -13 5 -11 0 -14 -3 -6 -6z"/>
<path d="M1998 1865 c-3 -14 -1 -25 3 -25 5 0 9 11 9 25 0 14 -2 25 -4 25 -2
0 -6 -11 -8 -25z"/>
<path d="M1691 1864 c0 -11 3 -14 6 -6 3 7 2 16 -1 19 -3 4 -6 -2 -5 -13z"/>
<path d="M1841 1859 c-1 -19 26 -45 36 -35 3 3 1 6 -6 6 -6 0 -16 10 -21 23
-6 15 -9 17 -9 6z"/>
<path d="M1638 1853 c6 -2 18 -2 25 0 6 3 1 5 -13 5 -14 0 -19 -2 -12 -5z"/>
<path d="M2151 1814 c0 -11 3 -14 6 -6 3 7 2 16 -1 19 -3 4 -6 -2 -5 -13z"/>
<path d="M630 1706 c0 -8 -7 -16 -15 -20 -8 -3 -15 -12 -15 -21 0 -8 -4 -15
-10 -15 -5 0 -10 -22 -10 -49 l0 -50 50 53 c28 29 50 59 50 67 -1 33 -50 68
-50 35z"/>
<path d="M515 1480 c-12 -23 -16 -57 -16 -121 1 -66 -2 -88 -12 -86 -7 1 -13
-12 -15 -37 -2 -26 0 -36 8 -31 6 4 9 13 6 21 -3 7 -1 16 4 19 6 4 11 -4 11
-17 1 -16 4 -12 9 12 5 23 8 27 9 13 0 -13 18 -38 39 -57 l37 -35 12 47 c7 26
9 58 6 71 -4 15 -2 22 4 18 10 -6 36 143 27 152 -2 2 -15 -1 -29 -7 -15 -7
-25 -8 -25 -2 0 6 -16 10 -35 10 -38 0 -40 2 -24 32 6 11 8 22 6 25 -3 3 -13
-10 -22 -27z"/>
<path d="M737 1479 c-43 -13 -54 -29 -62 -90 -3 -24 -12 -93 -21 -152 -12 -82
-13 -112 -4 -122 7 -8 9 -19 5 -24 -3 -6 0 -8 8 -5 29 11 27 -15 -2 -47 -17
-18 -28 -35 -26 -39 2 -3 -2 -24 -9 -45 -8 -23 -16 -32 -19 -24 -4 10 -6 9 -6
-3 -1 -10 4 -18 9 -18 6 0 10 -5 10 -10 0 -6 -5 -9 -11 -8 -6 2 -14 -3 -17
-11 -3 -11 0 -12 14 -6 11 4 28 10 39 12 17 4 16 2 -5 -13 -14 -10 -31 -19
-39 -19 -8 0 -15 -8 -17 -18 -1 -9 2 -15 7 -11 5 3 6 10 3 16 -4 7 -2 8 5 4
12 -8 8 -19 -17 -48 -11 -13 -11 -18 -3 -18 16 0 10 -41 -9 -58 -13 -12 -13
-13 2 -8 18 5 23 -4 33 -64 7 -42 -8 -71 -27 -52 -6 6 -19 12 -27 12 -13 0
-14 -2 -2 -9 9 -6 12 -19 8 -40 -9 -42 18 -57 52 -30 30 24 43 24 59 -1 11
-18 10 -20 -20 -20 -30 0 -31 1 -12 15 26 20 4 19 -25 -1 -32 -23 -14 -36 55
-38 33 -1 59 -7 59 -12 0 -6 8 -18 18 -28 25 -26 21 -28 -20 -10 -21 9 -49 16
-63 16 l-25 -1 25 13 25 14 -27 -1 c-14 -1 -24 -5 -21 -9 9 -16 -13 -7 -56 22
-39 27 -61 36 -61 27 0 -6 91 -62 138 -86 24 -12 41 -17 37 -11 -12 19 12 10
31 -12 11 -12 13 -18 4 -13 -19 12 -62 16 -56 6 3 -5 -12 -3 -33 2 -21 6 -47
7 -57 3 -14 -6 16 -17 106 -41 69 -19 186 -56 260 -83 74 -27 136 -46 138 -41
2 4 9 6 16 3 7 -3 13 2 13 9 0 8 -10 14 -21 14 -31 0 -136 35 -136 45 0 5 -4
7 -9 4 -5 -3 -33 3 -62 13 -30 11 -47 20 -39 20 9 1 11 4 5 9 -16 11 -35 60
-29 76 8 21 -12 28 -27 9 -12 -14 -12 -16 0 -9 9 6 12 5 9 -5 -3 -8 -1 -23 4
-34 5 -11 -1 -7 -14 10 -13 16 -22 32 -21 35 1 3 -8 10 -19 16 -18 9 -18 12
-4 17 9 4 16 2 16 -4 0 -7 13 -9 35 -5 31 6 35 4 35 -14 0 -14 4 -19 13 -14 9
6 9 5 0 -7 -7 -8 -10 -25 -6 -37 9 -37 19 -24 18 23 -1 25 1 48 5 50 3 2 39
-1 78 -7 49 -7 72 -15 72 -24 0 -8 -4 -14 -10 -14 -5 0 -15 -18 -21 -40 -7
-22 -16 -40 -21 -40 -12 0 -10 18 8 51 8 17 13 36 11 42 -2 6 -12 -10 -22 -35
-9 -26 -21 -45 -26 -42 -5 3 -16 1 -26 -4 -14 -8 -13 -11 8 -17 13 -3 42 -15
64 -25 50 -22 124 -33 140 -20 7 6 23 6 43 1 17 -5 40 -7 52 -4 11 3 28 -1 37
-8 18 -15 18 -16 -2 32 -5 14 -1 16 37 9 24 -5 45 -6 47 -4 2 2 -1 4 -8 4 -7
0 -9 5 -6 10 4 7 -2 9 -19 4 -48 -12 -56 8 -32 76 13 37 27 60 36 60 11 0 12
2 2 8 -10 7 -9 17 3 52 8 24 13 45 10 48 -5 5 -25 -42 -25 -61 0 -7 -4 -6 -10
3 -5 9 -5 19 1 27 6 7 8 17 4 23 -4 6 6 13 24 16 19 4 29 12 29 23 -1 9 4 42
11 73 18 86 -3 196 -36 184 -7 -3 -13 -1 -13 5 0 6 -8 9 -17 8 -37 -3 -37 2 2
28 21 15 34 28 28 30 -7 3 -25 -5 -40 -16 -26 -19 -127 -46 -118 -32 2 4 25
17 52 30 45 21 100 81 86 95 -4 3 -14 -5 -22 -18 -29 -44 -69 -67 -142 -82
-81 -17 -125 -15 -121 4 1 8 -11 12 -35 13 -26 1 -15 4 31 10 38 5 90 16 115
24 l46 15 -45 -6 c-82 -13 -242 -4 -270 14 -25 16 -24 17 55 24 211 20 273 38
330 97 l29 32 -17 84 c-21 104 -49 172 -71 172 -9 0 -16 -4 -16 -8 0 -5 -21
-2 -47 6 -26 8 -49 12 -51 10 -3 -2 -11 3 -19 11 -9 8 -22 13 -29 10 -8 -3
-14 -2 -14 2 0 4 -23 17 -50 30 -58 27 -166 37 -223 21z m-52 -487 c-17 -57
-30 -69 -23 -23 2 17 1 28 -4 25 -15 -9 -8 6 14 31 12 14 23 23 25 22 1 -2 -4
-27 -12 -55z m38 16 c7 -27 1 -38 -21 -38 -15 1 -15 2 2 15 11 8 14 15 8 15
-7 0 -12 7 -12 15 0 23 17 18 23 -7z m125 -126 c6 -9 12 -11 12 -5 0 8 10 8
35 0 19 -6 35 -14 35 -19 0 -5 9 -4 20 2 15 8 18 8 14 -3 -3 -8 -13 -14 -22
-14 -34 0 -43 -3 -37 -13 4 -6 11 -7 17 -4 5 4 4 -4 -2 -17 -16 -31 -25 -39
-16 -15 4 13 -4 28 -34 56 -22 20 -41 35 -43 33 -2 -2 -17 1 -33 7 l-29 10 27
-22 c26 -22 45 -58 94 -182 31 -77 30 -97 -3 -127 -20 -17 -23 -18 -10 -3 9
11 14 23 11 27 -3 3 -12 23 -20 44 l-14 38 6 -50 c5 -39 2 -54 -9 -64 -14 -11
-17 -8 -26 21 -10 36 -14 25 -15 -47 -1 -31 -5 -40 -18 -39 -70 3 -73 5 -112
57 -49 67 -63 96 -49 105 13 9 33 47 33 63 0 9 -3 9 -14 -1 -8 -6 -12 -19 -9
-27 4 -10 2 -14 -4 -10 -6 4 -13 1 -16 -5 -4 -12 -9 8 -22 94 -4 24 -1 27 36
33 33 6 43 13 51 36 10 30 31 36 58 19 8 -5 11 -10 6 -10 -5 0 3 -9 18 -21 25
-20 26 -22 9 -34 -9 -7 -23 -11 -30 -8 -7 3 -13 -2 -13 -10 0 -8 7 -18 16 -21
8 -3 12 -2 9 4 -4 6 9 10 29 10 23 0 36 5 36 13 0 19 -76 97 -94 97 -9 0 -16
7 -16 16 0 12 6 15 28 10 23 -5 24 -5 8 5 -15 9 -25 8 -46 -5 -27 -15 -28 -15
-33 6 -4 16 -3 18 6 9 16 -16 32 -14 18 3 -9 11 -7 12 13 9 13 -3 26 0 30 5 7
12 93 -31 114 -56z m177 -23 c-4 -6 -11 -23 -15 -37 -8 -25 -8 -24 -9 11 -1
27 3 37 15 37 8 0 12 -5 9 -11z m-359 -10 c3 -6 1 -16 -6 -22 -10 -9 -12 -8
-7 5 3 9 1 19 -6 22 -9 3 -9 5 0 5 6 1 15 -4 19 -10z m324 -16 c0 -20 -3 -24
-11 -16 -7 7 -9 19 -6 27 10 24 17 19 17 -11z m76 -31 c-16 -16 -17 -16 -10 3
6 16 5 18 -7 8 -19 -18 -29 -16 -22 5 13 37 25 44 41 21 13 -19 13 -23 -2 -37z
m59 48 c-3 -5 -13 -10 -21 -10 -8 0 -14 5 -14 10 0 6 9 10 21 10 11 0 17 -4
14 -10z m33 -39 c3 -8 -1 -12 -9 -9 -7 2 -15 10 -17 17 -3 8 1 12 9 9 7 -2 15
-10 17 -17z m-198 -35 c-5 -5 -19 -11 -30 -13 -17 -2 -19 -1 -8 11 9 10 15 11
20 2 5 -6 8 0 8 14 0 20 2 22 10 10 6 -9 6 -18 0 -24z m155 -16 c-10 -11 -23
-19 -29 -17 -6 3 -21 -5 -34 -17 -22 -20 -23 -20 -16 -1 4 11 21 35 37 53 27
28 33 30 46 17 13 -13 12 -17 -4 -35z m29 -27 c-8 -35 -29 -58 -43 -49 -16 10
-14 20 14 50 31 33 37 33 29 -1z m-164 -14 c0 -5 -9 -9 -20 -9 -21 0 -28 -24
-10 -35 6 -3 7 1 4 9 -8 21 6 20 22 -1 19 -25 17 -33 -6 -33 -15 0 -20 -7 -20
-25 0 -16 6 -25 15 -25 8 0 15 -4 15 -9 0 -5 -9 -7 -20 -4 -15 4 -20 0 -20
-14 0 -10 4 -23 10 -29 6 -6 3 -10 -11 -10 -16 0 -19 5 -14 21 13 43 16 102 7
141 l-9 40 29 -4 c15 -2 28 -8 28 -13z m351 -92 c-2 -10 -14 -22 -26 -27 -12
-5 -25 -16 -28 -24 -4 -9 -11 -16 -17 -16 -7 0 -7 7 1 21 8 17 8 23 -2 30 -10
6 -10 11 0 22 9 12 9 17 0 23 -8 5 -5 11 11 19 19 10 26 9 44 -9 12 -12 20
-29 17 -39z m-104 2 c-3 -11 0 -22 7 -25 22 -9 6 -50 -27 -69 -18 -10 -41 -28
-52 -39 -11 -12 -17 -17 -12 -10 4 6 3 24 -3 38 -12 33 -3 52 45 95 42 36 49
38 42 10z m-199 -44 c0 -22 -3 -24 -17 -13 -9 7 -18 13 -20 15 -1 1 0 6 4 12
12 20 33 11 33 -14z m232 -61 c-6 -14 -7 -30 -4 -36 4 -7 2 -8 -4 -4 -6 3 -16
-3 -22 -14 -6 -11 -18 -20 -28 -20 -14 0 -15 -2 -3 -9 12 -8 9 -11 -12 -16
-15 -4 -27 -13 -27 -19 0 -18 -53 -85 -67 -86 -7 0 -13 4 -13 9 0 5 -10 12
-22 16 l-23 8 24 4 c31 6 64 45 48 55 -7 5 -3 8 10 8 15 0 25 8 29 24 6 24 39
59 84 89 35 23 41 21 30 -9z m-240 1 c0 -8 -4 -15 -10 -15 -5 0 -10 7 -10 15
0 8 5 15 10 15 6 0 10 -7 10 -15z m61 -73 c-14 -27 -14 -35 2 -26 6 4 10 5 7
1 -3 -3 -8 -6 -12 -6 -11 -1 -68 -62 -68 -72 0 -5 -5 -9 -11 -9 -5 0 2 23 17
50 16 29 30 46 34 40 4 -7 12 2 20 20 7 17 15 29 17 26 3 -2 0 -13 -6 -24z
m182 -3 c-4 -13 -9 -17 -15 -11 -11 11 -3 32 12 32 4 0 6 -9 3 -21z m-49 -57
c-18 -37 -29 -40 -37 -13 -3 14 2 21 19 25 13 4 24 12 24 18 0 6 2 9 5 6 3 -2
-2 -19 -11 -36z m-398 -39 c-8 -8 -46 22 -46 35 0 7 -5 10 -12 6 -7 -5 -8 -3
-3 5 5 9 15 5 36 -15 16 -15 27 -29 25 -31z m214 -33 c18 -12 2 -12 -25 0 -13
6 -15 9 -5 9 8 0 22 -4 30 -9z"/>
<path d="M801 724 c0 -11 3 -14 6 -6 3 7 2 16 -1 19 -3 4 -6 -2 -5 -13z"/>
<path d="M758 690 c-4 -50 -3 -53 21 -55 20 -2 21 0 8 9 -10 8 -13 21 -10 39
3 16 1 27 -6 27 -6 0 -12 -9 -13 -20z"/>
<path d="M838 683 c7 -3 16 -2 19 1 4 3 -2 6 -13 5 -11 0 -14 -3 -6 -6z"/>
<path d="M733 618 c-13 -22 -13 -42 0 -29 10 10 19 41 12 41 -2 0 -7 -6 -12
-12z"/>
<path d="M700 570 c0 -5 5 -10 11 -10 5 0 7 5 4 10 -3 6 -8 10 -11 10 -2 0 -4
-4 -4 -10z"/>
<path d="M13 1463 c9 -2 25 -2 35 0 9 3 1 5 -18 5 -19 0 -27 -2 -17 -5z"/>
<path d="M1175 1460 c3 -5 8 -10 11 -10 2 0 4 5 4 10 0 6 -5 10 -11 10 -5 0
-7 -4 -4 -10z"/>
<path d="M2617 1431 c3 -12 12 -21 20 -21 20 0 12 34 -9 38 -12 2 -15 -2 -11
-17z"/>
<path d="M13 1423 c9 -2 25 -2 35 0 9 3 1 5 -18 5 -19 0 -27 -2 -17 -5z"/>
<path d="M410 1409 c0 -8 5 -20 12 -27 9 -9 9 -12 -2 -13 -8 -1 -19 -1 -23 0
-5 1 -6 -3 -2 -9 9 -15 32 -12 39 6 3 9 -1 25 -9 37 -11 15 -15 17 -15 6z"/>
<path d="M2882 1413 c-13 -5 -7 -23 9 -23 6 0 8 4 5 9 -4 5 0 12 6 14 7 3 9 5
3 5 -5 0 -16 -2 -23 -5z"/>
<path d="M2850 1360 c0 -5 10 -10 23 -10 18 0 19 2 7 10 -19 13 -30 13 -30 0z"/>
<path d="M38 1328 c-6 -17 2 -88 11 -88 3 0 6 23 6 50 0 48 -8 64 -17 38z"/>
<path d="M74 1288 c0 -36 6 -60 13 -63 15 -5 17 17 4 31 -5 5 -12 27 -14 49
-3 27 -4 21 -3 -17z"/>
<path d="M2907 1333 c-10 -9 -9 -23 1 -23 5 0 9 7 9 15 0 17 -1 18 -10 8z"/>
<path d="M457 1293 c-4 -3 -7 -23 -7 -43 0 -20 -5 -41 -12 -48 -8 -8 -5 -14
16 -22 37 -14 43 -13 21 3 -14 11 -17 23 -13 65 5 55 5 56 -5 45z"/>
<path d="M66 1203 c-6 -14 -5 -15 5 -6 7 7 10 15 7 18 -3 3 -9 -2 -12 -12z"/>
<path d="M2558 1203 c7 -3 16 -2 19 1 4 3 -2 6 -13 5 -11 0 -14 -3 -6 -6z"/>
<path d="M2563 1157 c0 -12 -3 -34 -6 -49 -2 -14 0 -32 4 -40 7 -10 9 -10 10
2 0 8 3 34 5 57 3 23 1 43 -3 46 -4 3 -9 -5 -10 -16z"/>
<path d="M555 1161 c-3 -6 -10 -9 -15 -6 -5 3 -11 1 -14 -4 -4 -5 -1 -13 5
-16 12 -8 47 21 37 30 -3 4 -9 1 -13 -4z"/>
<path d="M438 1142 c-16 -9 -28 -23 -28 -32 0 -10 5 -7 15 8 9 12 30 26 48 31
20 6 24 9 12 10 -11 0 -32 -7 -47 -17z"/>
<path d="M2530 1150 c0 -5 7 -10 16 -10 8 0 12 5 9 10 -3 6 -10 10 -16 10 -5
0 -9 -4 -9 -10z"/>
<path d="M569 1113 c-13 -16 -12 -17 4 -4 9 7 17 15 17 17 0 8 -8 3 -21 -13z"/>
<path d="M445 1077 c-22 -36 -32 -60 -16 -37 9 13 11 13 11 -2 0 -27 -19 -31
-29 -6 -9 20 -10 19 -10 -14 -1 -21 -5 -37 -10 -35 -5 1 -11 -2 -12 -8 -2 -5
4 -11 14 -13 12 -2 17 3 18 20 1 17 3 18 6 6 2 -10 8 -18 13 -18 5 0 7 -6 4
-13 -3 -8 0 -26 6 -42 l11 -28 26 52 c15 28 30 51 35 51 4 0 8 5 8 11 0 6 -7
8 -16 5 -12 -5 -15 -2 -10 10 4 11 2 15 -7 11 -8 -3 -20 -1 -28 3 -11 8 -12
15 -2 41 17 43 12 45 -12 6z m25 -83 c0 -8 -4 -12 -10 -9 -5 3 -10 10 -10 16
0 5 5 9 10 9 6 0 10 -7 10 -16z"/>
<path d="M1272 1044 c-5 -8 -22 -24 -38 -35 -35 -23 -29 -25 13 -4 17 9 33 24
36 35 6 24 1 26 -11 4z"/>
<path d="M310 1015 c0 -8 4 -15 10 -15 5 0 7 7 4 15 -4 8 -8 15 -10 15 -2 0
-4 -7 -4 -15z"/>
<path d="M1394 963 c0 -32 -4 -69 -8 -83 l-8 -25 21 24 c27 30 35 62 27 106
-11 57 -31 43 -32 -22z"/>
<path d="M1868 1003 c7 -3 16 -2 19 1 4 3 -2 6 -13 5 -11 0 -14 -3 -6 -6z"/>
<path d="M1463 993 c-9 -3 -11 -17 -7 -41 7 -48 -9 -90 -41 -102 -34 -13 -35
-50 -1 -50 14 0 28 5 31 10 3 6 1 10 -6 10 -7 0 0 13 15 29 22 23 28 38 27 72
-1 43 -3 80 -5 78 -1 0 -7 -3 -13 -6z"/>
<path d="M1543 985 c1 -11 9 -28 19 -37 24 -23 23 -10 -2 27 -15 22 -19 25
-17 10z"/>
<path d="M1507 957 c3 -18 7 -34 10 -37 3 -3 4 7 1 22 -3 15 0 29 5 31 6 2 4
6 -5 9 -13 6 -15 1 -11 -25z"/>
<path d="M364 921 c-7 -16 -8 -35 -3 -44 6 -9 4 -19 -6 -27 -17 -14 -20 -60
-5 -60 6 0 22 11 35 24 13 14 34 28 46 31 17 6 19 9 8 16 -12 7 -12 9 0 9 11
0 11 3 1 15 -7 8 -19 15 -26 15 -8 0 -15 5 -15 10 -1 6 -2 15 -3 22 -2 23 -22
17 -32 -11z m16 -91 c0 -5 -7 -10 -16 -10 -8 0 -12 5 -9 10 3 6 10 10 16 10 5
0 9 -4 9 -10z"/>
<path d="M1588 860 c-9 -57 -7 -83 4 -72 5 5 8 33 6 63 l-3 54 -7 -45z"/>
<path d="M1493 854 c-15 -23 -18 -34 -9 -34 14 0 40 43 35 58 -2 5 -14 -6 -26
-24z"/>
<path d="M1798 834 c2 -13 9 -24 15 -24 6 0 2 -7 -9 -15 -10 -8 -14 -14 -9
-14 6 0 19 6 29 14 18 13 18 15 2 21 -9 4 -15 12 -12 19 3 8 -1 16 -8 18 -9 4
-11 -2 -8 -19z"/>
<path d="M1615 758 c-24 -28 -26 -38 -24 -102 1 -44 8 -76 16 -84 9 -9 13 -31
11 -61 -2 -36 -10 -53 -35 -78 -18 -18 -29 -33 -25 -33 4 0 3 -4 -3 -8 -5 -4
-21 -20 -35 -36 -21 -24 -22 -28 -6 -22 16 5 17 4 6 -9 -10 -12 -10 -15 0 -15
7 0 10 -7 6 -15 -5 -13 -2 -14 15 -4 15 8 19 8 15 0 -5 -7 3 -9 25 -4 23 4 30
3 25 -5 -5 -8 -1 -10 9 -5 13 5 14 7 3 14 -9 6 -6 9 12 9 23 1 23 2 5 9 -11 4
-36 11 -55 14 l-35 6 30 -15 c26 -13 27 -14 5 -10 -14 3 -32 6 -40 6 -8 0 2
16 25 40 28 28 41 36 47 27 5 -8 8 -6 8 6 0 11 9 30 20 44 11 14 20 38 20 53
0 21 9 32 48 54 39 23 42 26 17 21 -16 -4 -38 -14 -47 -22 -16 -15 -18 -15
-18 0 0 10 7 17 15 17 16 0 32 32 42 84 5 24 3 28 -10 23 -13 -5 -18 2 -23 34
-7 43 -29 49 -29 8 0 -28 -12 -49 -27 -49 -17 0 -1 70 22 95 11 12 20 27 20
34 0 7 -12 -2 -26 -19 -15 -17 -29 -28 -32 -25 -3 3 5 16 18 30 13 14 21 25
18 25 -4 0 -18 -14 -33 -32z m-8 -95 c-3 -10 -5 -4 -5 12 0 17 2 24 5 18 2 -7
2 -21 0 -30z m43 -33 c0 -5 -5 -10 -11 -10 -6 0 -3 -7 5 -16 9 -8 16 -23 16
-32 0 -13 -5 -11 -20 8 -21 26 -24 42 -13 53 10 10 23 8 23 -3z m30 -14 c0 -3
-4 -8 -10 -11 -5 -3 -10 -1 -10 4 0 6 5 11 10 11 6 0 10 -2 10 -4z"/>
<path d="M0 768 c0 -4 7 -8 15 -8 8 0 15 4 15 8 0 5 -7 9 -15 9 -8 0 -15 -4
-15 -9z"/>
<path d="M320 767 c0 -2 15 -14 33 -27 20 -15 27 -17 18 -6 -13 16 -51 41 -51
33z"/>
<path d="M1428 763 c6 -2 18 -2 25 0 6 3 1 5 -13 5 -14 0 -19 -2 -12 -5z"/>
<path d="M0 724 c0 -22 2 -25 15 -14 19 16 19 40 0 40 -10 0 -15 -10 -15 -26z"/>
<path d="M1518 743 c8 -3 11 -17 7 -41 -4 -28 -3 -32 4 -17 16 34 13 65 -6 64
-11 0 -13 -3 -5 -6z"/>
<path d="M219 691 c-3 -30 0 -46 5 -41 9 9 11 79 2 87 -2 2 -6 -18 -7 -46z"/>
<path d="M317 706 c4 -20 1 -26 -11 -26 -10 0 -14 -4 -11 -10 3 -5 2 -10 -3
-10 -5 0 -9 -14 -9 -30 0 -17 4 -26 7 -19 6 8 9 8 14 0 4 -6 16 -11 27 -11 12
0 17 -4 13 -11 -4 -6 -19 -9 -38 -5 -22 4 -27 3 -16 -4 8 -5 22 -10 31 -10 9
0 19 -7 23 -15 9 -24 26 -17 26 10 0 34 18 32 23 -2 3 -17 4 -12 3 12 -1 28
-5 40 -16 41 -8 0 -27 4 -41 8 -25 7 -26 9 -16 47 6 27 6 44 0 50 -7 7 -9 2
-6 -15z"/>
<path d="M396 687 c3 -10 9 -15 12 -12 3 3 0 11 -7 18 -10 9 -11 8 -5 -6z"/>
<path d="M550 674 c0 -14 3 -14 15 -4 8 7 15 14 15 16 0 2 -7 4 -15 4 -8 0
-15 -7 -15 -16z"/>
<path d="M1755 680 c-3 -5 -2 -10 4 -10 5 0 13 5 16 10 3 6 2 10 -4 10 -5 0
-13 -4 -16 -10z"/>
<path d="M360 660 c-9 -6 -10 -10 -3 -10 6 0 15 5 18 10 8 12 4 12 -15 0z"/>
<path d="M570 655 c-11 -13 -10 -14 4 -9 9 3 16 10 16 15 0 13 -6 11 -20 -6z"/>
<path d="M10 640 c-8 -5 -12 -11 -9 -14 3 -3 14 1 25 9 21 16 8 20 -16 5z"/>
<path d="M378 633 c6 -2 18 -2 25 0 6 3 1 5 -13 5 -14 0 -19 -2 -12 -5z"/>
<path d="M412 580 c0 -19 2 -27 5 -17 2 9 2 25 0 35 -3 9 -5 1 -5 -18z"/>
<path d="M1862 588 c3 -7 31 -29 64 -49 32 -20 58 -42 56 -49 -1 -6 2 -8 8 -5
7 4 14 -2 17 -14 3 -11 10 -18 15 -15 7 4 8 -5 3 -25 -8 -35 10 -40 33 -8 7 9
25 17 40 18 26 0 26 1 5 9 -13 5 -23 15 -23 23 0 24 -84 89 -140 108 -63 22
-83 24 -78 7z"/>
<path d="M535 570 c3 -5 8 -10 11 -10 2 0 4 5 4 10 0 6 -5 10 -11 10 -5 0 -7
-4 -4 -10z"/>
<path d="M1513 574 c4 -6 -1 -33 -9 -58 -9 -26 -14 -49 -11 -52 3 -3 13 18 22
46 14 41 15 54 5 63 -9 8 -11 8 -7 1z"/>
<path d="M288 557 c27 -15 19 -27 -17 -27 -15 0 -21 -4 -15 -9 10 -11 204 -20
204 -10 0 7 -62 19 -102 19 -17 0 -28 5 -28 14 0 7 -10 16 -22 20 -36 9 -45 6
-20 -7z"/>
<path d="M1715 510 c-3 -6 1 -7 9 -4 9 3 16 1 16 -6 0 -6 5 -8 10 -5 6 4 8 11
5 16 -8 12 -32 12 -40 -1z"/>
<path d="M1885 510 c27 -12 43 -12 25 0 -8 5 -22 9 -30 9 -10 0 -8 -3 5 -9z"/>
<path d="M40 490 l45 -7 -42 -1 c-48 -2 -60 -22 -14 -22 16 0 32 -6 34 -12 4
-10 6 -10 6 0 1 8 21 12 67 12 53 0 65 3 61 14 -3 8 -1 17 6 20 7 2 -37 4 -98
4 -80 -1 -98 -3 -65 -8z"/>
<path d="M253 493 c23 -6 22 -23 -3 -23 -47 0 -13 -17 85 -41 80 -20 105 -23
105 -13 0 14 -43 28 -117 40 -24 4 -43 11 -43 16 0 18 33 20 67 4 36 -17 103
-13 103 6 0 5 -9 6 -20 3 -11 -4 -20 -2 -20 4 0 7 -31 11 -87 10 -49 -1 -80
-3 -70 -6z m144 -9 c-3 -3 -12 -4 -19 -1 -8 3 -5 6 6 6 11 1 17 -2 13 -5z"/>
<path d="M530 482 c0 -5 12 -13 28 -19 27 -11 27 -11 -6 -7 -21 3 -31 1 -27
-6 3 -5 21 -11 38 -11 20 -1 25 -3 13 -6 -24 -6 -75 -53 -58 -53 7 0 11 -4 7
-9 -3 -6 6 -8 20 -5 14 2 25 0 25 -6 0 -5 12 -10 27 -10 31 0 137 -31 141 -42
2 -5 13 -8 23 -8 41 0 111 -23 97 -31 -9 -6 -2 -9 20 -9 18 0 49 -7 69 -15 19
-8 45 -16 57 -17 11 0 -1 -4 -29 -8 l-50 -7 68 -1 c37 -1 67 0 67 2 0 16 -256
109 -273 99 -6 -4 -7 -1 -2 7 6 10 3 12 -13 8 -12 -4 -22 -2 -22 4 0 5 -10 6
-21 3 -16 -5 -19 -4 -14 5 5 9 1 10 -15 5 -17 -5 -20 -4 -15 5 6 10 1 11 -19
6 -20 -5 -26 -3 -21 5 5 8 1 9 -14 4 -13 -4 -21 -2 -21 5 0 7 -8 9 -20 5 -12
-4 -20 -2 -20 5 0 7 -8 9 -20 5 -29 -9 -24 0 12 23 17 11 43 18 57 17 14 -2
20 -2 14 1 -7 3 -15 5 -17 5 -3 0 -19 13 -37 30 -31 29 -49 37 -49 21z"/>
<path d="M1921 424 c-1 -56 2 -73 15 -78 8 -3 13 -2 10 3 -3 5 1 12 10 15 25
10 27 7 13 -11 -11 -14 -8 -14 9 2 17 14 22 25 17 45 -6 24 -29 44 -50 45 -5
0 -12 11 -16 25 -4 16 -7 -1 -8 -46z"/>
<path d="M428 453 c7 -3 16 -2 19 1 4 3 -2 6 -13 5 -11 0 -14 -3 -6 -6z"/>
<path d="M1715 447 c-26 -33 -25 -79 3 -93 13 -6 23 -15 22 -20 -1 -5 3 -10 9
-12 7 -2 8 3 4 14 -5 14 -3 16 11 11 10 -4 15 -3 11 4 -4 5 -1 16 5 24 10 13
8 15 -16 15 l-28 0 27 28 c27 28 27 29 5 27 -13 -1 -23 -7 -23 -13 0 -20 -22
-35 -30 -21 -5 7 -4 10 1 7 5 -4 10 5 10 18 2 28 2 27 -11 11z"/>
<path d="M926 424 c-5 -14 -4 -15 9 -4 17 14 19 20 6 20 -5 0 -12 -7 -15 -16z"/>
<path d="M50 414 c0 -16 -21 -19 -36 -5 -5 6 -10 -5 -11 -30 -2 -34 0 -39 20
-40 21 -1 20 -1 -3 -8 -22 -6 -17 -9 36 -24 70 -20 98 -22 74 -7 -11 7 -11 10
-2 10 7 0 11 4 8 9 -4 5 -1 11 6 13 7 3 -2 12 -19 20 -27 14 -34 14 -44 2 -13
-16 -24 -11 -39 15 -8 16 -5 19 25 18 19 -1 35 -5 35 -9 0 -5 8 -4 19 1 10 6
22 7 26 3 5 -4 5 -1 1 6 -4 6 -3 12 2 12 6 0 12 7 16 15 4 12 2 13 -12 7 -9
-5 -24 -7 -32 -5 -13 4 -13 3 0 -6 8 -5 11 -14 6 -18 -4 -4 -15 1 -24 12 -20
23 -52 29 -52 9z m52 -96 c-6 -6 -15 -8 -19 -4 -4 4 -1 11 7 16 19 12 27 3 12
-12z"/>
<path d="M887 416 c4 -13 3 -17 -5 -12 -7 4 -12 1 -12 -9 0 -9 5 -13 11 -9 8
5 8 1 0 -14 -14 -26 -14 -32 0 -32 5 0 7 5 4 10 -3 6 -2 10 3 10 17 0 20 38 6
57 -13 17 -14 17 -7 -1z"/>
<path d="M1661 408 c-10 -28 -3 -57 10 -37 4 7 5 17 3 21 -3 4 1 8 8 8 10 0
10 2 -1 9 -11 7 -11 9 0 14 11 4 11 6 1 6 -7 1 -16 -9 -21 -21z"/>
<path d="M270 390 c-12 -8 -10 -10 8 -10 13 0 20 4 17 10 -7 12 -6 12 -25 0z"/>
<path d="M2924 370 c1 -28 14 -39 29 -24 7 7 -13 54 -23 54 -4 0 -7 -13 -6
-30z"/>
<path d="M65 370 c3 -5 8 -10 11 -10 2 0 4 5 4 10 0 6 -5 10 -11 10 -5 0 -7
-4 -4 -10z"/>
<path d="M215 370 c-5 -9 -4 -11 3 -6 7 4 12 2 12 -3 0 -6 -4 -11 -9 -11 -5 0
-13 -15 -16 -32 -4 -18 -12 -36 -18 -40 -6 -3 7 -11 29 -17 21 -6 72 -22 112
-35 39 -14 72 -22 72 -18 0 11 -62 36 -97 40 -23 3 -14 21 10 20 40 -2 47 2
48 25 1 21 1 21 8 -3 8 -29 36 -38 45 -14 5 14 4 15 -9 4 -18 -15 -20 -14 -29
23 -8 32 1 36 13 5 4 -12 11 -17 14 -11 4 5 -4 20 -17 32 l-24 22 -6 -35 c-4
-20 -12 -36 -18 -36 -5 0 -7 7 -4 16 5 14 4 15 -9 4 -12 -10 -15 -10 -15 3 0
9 7 23 16 31 12 13 5 24 -9 14 -2 -2 -11 3 -20 11 -10 7 -17 10 -17 6 0 -4 8
-13 17 -20 15 -11 15 -14 -5 -40 -12 -15 -19 -31 -16 -36 7 -12 -17 -11 -36 1
-13 8 -13 10 1 10 9 0 24 9 34 20 10 11 13 20 8 20 -6 0 -13 10 -16 22 -4 12
-9 19 -13 15 -4 -4 -12 1 -19 10 -9 13 -14 13 -20 3z m45 -38 c0 -4 -5 -14
-10 -22 -9 -13 -11 -13 -20 0 -14 21 -12 26 10 27 11 1 20 -1 20 -5z m-43 -54
c-3 -8 -6 -5 -6 6 -1 11 2 17 5 13 3 -3 4 -12 1 -19z"/>
<path d="M2960 370 c0 -5 5 -10 10 -10 6 0 10 5 10 10 0 6 -4 10 -10 10 -5 0
-10 -4 -10 -10z"/>
<path d="M363 363 c9 -2 25 -2 35 0 9 3 1 5 -18 5 -19 0 -27 -2 -17 -5z"/>
<path d="M1610 350 c-12 -8 -10 -10 8 -10 13 0 20 4 17 10 -7 12 -6 12 -25 0z"/>
<path d="M1660 340 c8 -5 20 -10 25 -10 6 0 3 5 -5 10 -8 5 -19 10 -25 10 -5
0 -3 -5 5 -10z"/>
<path d="M1781 331 c-10 -7 -8 -10 8 -16 27 -8 36 -2 18 13 -7 6 -18 7 -26 3z"/>
<path d="M1440 281 c-8 -6 -18 -7 -24 -4 -5 4 -6 1 -2 -6 5 -7 15 -10 23 -6
13 4 14 3 3 -10 -7 -8 -8 -15 -2 -15 5 0 15 7 22 15 9 11 9 15 1 15 -7 0 -9 5
-6 10 8 12 4 12 -15 1z"/>
<path d="M1655 281 c-14 -6 -8 -8 25 -9 33 0 40 2 25 8 -25 10 -25 10 -50 1z"/>
<path d="M1160 257 c25 -27 40 -34 40 -19 0 4 -15 16 -32 27 l-33 19 25 -27z"/>
<path d="M1527 268 c-8 -5 -5 -8 8 -9 l20 0 -20 -9 c-20 -9 267 -11 292 -2 37
13 -10 18 -123 14 -84 -3 -125 -1 -120 6 7 11 -39 11 -57 0z"/>
<path d="M1970 270 c-18 -12 -2 -12 25 0 13 6 15 9 5 9 -8 0 -22 -4 -30 -9z"/>
<path d="M679 223 c-1 -5 -1 -11 -1 -15 1 -6 -83 -16 -170 -20 -21 -1 -38 -6
-38 -11 0 -5 13 -7 30 -4 16 4 76 9 134 13 100 7 120 15 91 36 -16 12 -25 9
-25 -8 0 -8 -5 -12 -10 -9 -6 4 -8 11 -5 16 4 5 4 9 1 9 -3 0 -7 -3 -7 -7z"/>
<path d="M790 210 c-28 -6 -21 -8 34 -9 38 0 67 1 65 3 -10 8 -67 12 -99 6z"/>
<path d="M1078 213 c7 -3 16 -2 19 1 4 3 -2 6 -13 5 -11 0 -14 -3 -6 -6z"/>
<path d="M1163 193 c9 -2 23 -2 30 0 6 3 -1 5 -18 5 -16 0 -22 -2 -12 -5z"/>
<path d="M223 175 c-8 -9 -9 -16 -3 -20 17 -11 11 -24 -15 -31 -24 -6 -24 -7
-8 -38 35 -68 55 -86 94 -86 21 0 46 3 56 7 15 6 13 9 -12 14 -30 7 -30 7 -3
8 40 2 43 18 3 25 -34 7 -75 46 -75 73 0 8 -4 12 -8 9 -4 -2 -8 4 -8 14 0 17
6 19 57 13 31 -3 64 -1 73 4 13 7 3 9 -36 9 -29 -1 -64 2 -78 6 -16 4 -29 2
-37 -7z m45 -104 l25 -43 -24 4 c-30 4 -75 68 -57 80 20 12 28 6 56 -41z"/>
<path d="M1738 183 c7 -3 16 -2 19 1 4 3 -2 6 -13 5 -11 0 -14 -3 -6 -6z"/>
<path d="M908 173 c7 -3 16 -2 19 1 4 3 -2 6 -13 5 -11 0 -14 -3 -6 -6z"/>
<path d="M953 163 c9 -2 25 -2 35 0 9 3 1 5 -18 5 -19 0 -27 -2 -17 -5z"/>
<path d="M5 149 c-11 -17 0 -20 21 -4 17 13 17 14 2 15 -9 0 -20 -5 -23 -11z"/>
<path d="M2080 150 c0 -5 7 -7 15 -4 8 4 15 8 15 10 0 2 -7 4 -15 4 -8 0 -15
-4 -15 -10z"/>
<path d="M2913 153 c9 -2 25 -2 35 0 9 3 1 5 -18 5 -19 0 -27 -2 -17 -5z"/>
<path d="M1183 133 c9 -2 25 -2 35 0 9 3 1 5 -18 5 -19 0 -27 -2 -17 -5z"/>
<path d="M1317 123 c18 -2 50 -2 70 0 21 2 7 4 -32 4 -38 0 -55 -2 -38 -4z"/>
<path d="M2721 107 c-13 -21 -12 -21 5 -5 10 10 16 20 13 22 -3 3 -11 -5 -18
-17z"/>
<path d="M2039 111 c7 -5 22 -6 32 -4 13 4 19 0 19 -11 0 -18 5 -19 35 -6 19
8 19 9 -2 9 -12 1 -25 6 -28 11 -3 6 -21 10 -38 10 -22 0 -28 -3 -18 -9z"/>
<path d="M1255 100 l120 -6 -100 -2 c-55 -1 -128 -7 -161 -12 -68 -11 -281
-79 -249 -79 11 0 58 13 105 29 102 36 209 50 395 50 111 0 137 3 127 13 -9 8
-62 12 -185 13 -162 1 -165 0 -52 -6z"/>
<path d="M1550 88 c1 -19 105 -88 132 -88 13 0 39 4 58 9 19 5 68 15 108 21
52 9 72 16 72 27 0 13 -17 14 -122 8 -68 -4 -125 -11 -128 -16 -3 -4 -19 1
-35 12 -21 14 -24 19 -11 17 10 -2 21 2 23 8 2 7 -15 11 -47 13 -35 1 -50 -2
-50 -11z m218 -45 c-10 -2 -26 -2 -35 0 -10 3 -2 5 17 5 19 0 27 -2 18 -5z"/>
<path d="M2035 80 l30 -8 -29 -1 c-24 -1 -27 -3 -16 -16 7 -8 21 -15 32 -15
14 0 19 6 16 23 -2 17 -10 22 -33 24 l-30 2 30 -9z"/>
<path d="M776 32 c-49 -14 -84 -28 -78 -30 12 -4 182 46 182 53 0 7 -4 6 -104
-23z"/>
<path d="M449 22 c10 -7 10 -11 1 -14 -6 -2 23 -4 64 -4 84 0 72 12 -22 22
-38 4 -52 2 -43 -4z"/>
</g>
</svg>
